<?xml version="1.0" encoding="UTF-8" standalone="no"?>
<!DOCTYPE svg PUBLIC "-//W3C//DTD SVG 1.1//EN"
 "http://www.w3.org/Graphics/SVG/1.1/DTD/svg11.dtd">
<!-- Generated by graphviz version 12.2.1 (20241206.2353)
 -->
<!-- Title: model/BloodVesselJunction.h Pages: 1 -->
<svg width="789pt" height="304pt"
 viewBox="0.00 0.00 788.88 303.50" xmlns="http://www.w3.org/2000/svg" xmlns:xlink="http://www.w3.org/1999/xlink">
<g id="graph0" class="graph" transform="scale(1 1) rotate(0) translate(4 299.5)">
<title>model/BloodVesselJunction.h</title>
<!-- Node1 -->
<g id="Node000001" class="node">
<title>Node1</title>
<g id="a_Node000001"><a xlink:title="model::BloodVesselJunction source file">
<polygon fill="#999999" stroke="#666666" points="565.75,-295.5 421.5,-295.5 421.5,-276.25 565.75,-276.25 565.75,-295.5"/>
<text text-anchor="middle" x="493.62" y="-282" font-family="Helvetica,sans-Serif" font-size="10.00">model/BloodVesselJunction.h</text>
</a>
</g>
</g>
<!-- Node2 -->
<g id="Node000002" class="node">
<title>Node2</title>
<g id="a_Node000002"><a xlink:href="_block_8h.html" target="_top" xlink:title="model::Block source file">
<polygon fill="white" stroke="#666666" points="386.75,-185 338.5,-185 338.5,-165.75 386.75,-165.75 386.75,-185"/>
<text text-anchor="middle" x="362.62" y="-171.5" font-family="Helvetica,sans-Serif" font-size="10.00">Block.h</text>
</a>
</g>
</g>
<!-- Node1&#45;&gt;Node2 -->
<g id="edge1_Node000001_Node000002" class="edge">
<title>Node1&#45;&gt;Node2</title>
<g id="a_edge1_Node000001_Node000002"><a xlink:title=" ">
<path fill="none" stroke="#63b8ff" d="M501.18,-275.76C511.17,-262.53 526.15,-237.76 513.62,-221 487.24,-185.69 434.17,-177.15 398.51,-175.68"/>
<polygon fill="#63b8ff" stroke="#63b8ff" points="398.74,-172.18 388.66,-175.45 398.58,-179.18 398.74,-172.18"/>
</a>
</g>
</g>
<!-- Node14 -->
<g id="Node000014" class="node">
<title>Node14</title>
<g id="a_Node000014"><a xlink:href="_sparse_system_8h.html" target="_top" xlink:title="SparseSystem source file.">
<polygon fill="white" stroke="#666666" points="641.25,-129.75 554,-129.75 554,-110.5 641.25,-110.5 641.25,-129.75"/>
<text text-anchor="middle" x="597.62" y="-116.25" font-family="Helvetica,sans-Serif" font-size="10.00">SparseSystem.h</text>
</a>
</g>
</g>
<!-- Node1&#45;&gt;Node14 -->
<g id="edge33_Node000001_Node000014" class="edge">
<title>Node1&#45;&gt;Node14</title>
<g id="a_edge33_Node000001_Node000014"><a xlink:title=" ">
<path fill="none" stroke="#63b8ff" d="M501.52,-275.97C509.13,-267.2 520.76,-253.24 529.62,-240.25 552.69,-206.44 575.44,-164.33 587.9,-140.31"/>
<polygon fill="#63b8ff" stroke="#63b8ff" points="591,-141.93 592.45,-131.43 584.77,-138.73 591,-141.93"/>
</a>
</g>
</g>
<!-- Node19 -->
<g id="Node000019" class="node">
<title>Node19</title>
<g id="a_Node000019"><a xlink:href="_blood_vessel_8h.html" target="_top" xlink:title="model::BloodVessel source file">
<polygon fill="white" stroke="#666666" points="388.75,-240.25 310.5,-240.25 310.5,-221 388.75,-221 388.75,-240.25"/>
<text text-anchor="middle" x="349.62" y="-226.75" font-family="Helvetica,sans-Serif" font-size="10.00">BloodVessel.h</text>
</a>
</g>
</g>
<!-- Node1&#45;&gt;Node19 -->
<g id="edge25_Node000001_Node000019" class="edge">
<title>Node1&#45;&gt;Node19</title>
<g id="a_edge25_Node000001_Node000019"><a xlink:title=" ">
<path fill="none" stroke="#63b8ff" d="M469.2,-275.84C446.03,-267.27 410.96,-254.31 384.79,-244.63"/>
<polygon fill="#63b8ff" stroke="#63b8ff" points="386.19,-241.41 375.59,-241.23 383.76,-247.98 386.19,-241.41"/>
</a>
</g>
</g>
<!-- Node20 -->
<g id="Node000020" class="node">
<title>Node20</title>
<g id="a_Node000020"><a xlink:href="_blood_vessel_c_r_l_8h.html" target="_top" xlink:title="model::BloodVesselCRL source file">
<polygon fill="white" stroke="#666666" points="504.5,-240.25 406.75,-240.25 406.75,-221 504.5,-221 504.5,-240.25"/>
<text text-anchor="middle" x="455.62" y="-226.75" font-family="Helvetica,sans-Serif" font-size="10.00">BloodVesselCRL.h</text>
</a>
</g>
</g>
<!-- Node1&#45;&gt;Node20 -->
<g id="edge29_Node000001_Node000020" class="edge">
<title>Node1&#45;&gt;Node20</title>
<g id="a_edge29_Node000001_Node000020"><a xlink:title=" ">
<path fill="none" stroke="#63b8ff" d="M487.35,-276.08C482.27,-268.96 474.93,-258.68 468.59,-249.8"/>
<polygon fill="#63b8ff" stroke="#63b8ff" points="471.57,-247.95 462.92,-241.84 465.88,-252.01 471.57,-247.95"/>
</a>
</g>
</g>
<!-- Node3 -->
<g id="Node000003" class="node">
<title>Node3</title>
<g id="a_Node000003"><a xlink:title=" ">
<polygon fill="#e0e0e0" stroke="#999999" points="366.25,-74.5 303,-74.5 303,-55.25 366.25,-55.25 366.25,-74.5"/>
<text text-anchor="middle" x="334.62" y="-61" font-family="Helvetica,sans-Serif" font-size="10.00">Eigen/Core</text>
</a>
</g>
</g>
<!-- Node2&#45;&gt;Node3 -->
<g id="edge2_Node000002_Node000003" class="edge">
<title>Node2&#45;&gt;Node3</title>
<g id="a_edge2_Node000002_Node000003"><a xlink:title=" ">
<path fill="none" stroke="#63b8ff" d="M345.52,-165.4C333.01,-157.78 316.98,-145.56 309.62,-129.75 302.5,-114.44 310.94,-96.48 319.89,-83.52"/>
<polygon fill="#63b8ff" stroke="#63b8ff" points="322.41,-85.99 325.67,-75.9 316.84,-81.75 322.41,-85.99"/>
</a>
</g>
</g>
<!-- Node4 -->
<g id="Node000004" class="node">
<title>Node4</title>
<g id="a_Node000004"><a xlink:title=" ">
<polygon fill="#e0e0e0" stroke="#999999" points="449.02,-129.75 420.23,-129.75 420.23,-110.5 449.02,-110.5 449.02,-129.75"/>
<text text-anchor="middle" x="434.62" y="-116.25" font-family="Helvetica,sans-Serif" font-size="10.00">list</text>
</a>
</g>
</g>
<!-- Node2&#45;&gt;Node4 -->
<g id="edge3_Node000002_Node000004" class="edge">
<title>Node2&#45;&gt;Node4</title>
<g id="a_edge3_Node000002_Node000004"><a xlink:title=" ">
<path fill="none" stroke="#63b8ff" d="M374.84,-165.34C385.45,-157.49 401.06,-145.95 413.67,-136.62"/>
<polygon fill="#63b8ff" stroke="#63b8ff" points="415.42,-139.69 421.37,-130.92 411.25,-134.06 415.42,-139.69"/>
</a>
</g>
</g>
<!-- Node5 -->
<g id="Node000005" class="node">
<title>Node5</title>
<g id="a_Node000005"><a xlink:title=" ">
<polygon fill="#e0e0e0" stroke="#999999" points="315,-19.25 280.25,-19.25 280.25,0 315,0 315,-19.25"/>
<text text-anchor="middle" x="297.62" y="-5.75" font-family="Helvetica,sans-Serif" font-size="10.00">map</text>
</a>
</g>
</g>
<!-- Node2&#45;&gt;Node5 -->
<g id="edge4_Node000002_Node000005" class="edge">
<title>Node2&#45;&gt;Node5</title>
<g id="a_edge4_Node000002_Node000005"><a xlink:title=" ">
<path fill="none" stroke="#63b8ff" d="M367.07,-165.25C376.63,-144.23 396.6,-91.42 375.62,-55.25 364.98,-36.9 343.63,-25.45 325.96,-18.75"/>
<polygon fill="#63b8ff" stroke="#63b8ff" points="327.32,-15.52 316.72,-15.58 325.05,-22.14 327.32,-15.52"/>
</a>
</g>
</g>
<!-- Node6 -->
<g id="Node000006" class="node">
<title>Node6</title>
<g id="a_Node000006"><a xlink:title=" ">
<polygon fill="#e0e0e0" stroke="#999999" points="201.12,-19.25 158.12,-19.25 158.12,0 201.12,0 201.12,-19.25"/>
<text text-anchor="middle" x="179.62" y="-5.75" font-family="Helvetica,sans-Serif" font-size="10.00">vector</text>
</a>
</g>
</g>
<!-- Node2&#45;&gt;Node6 -->
<g id="edge5_Node000002_Node000006" class="edge">
<title>Node2&#45;&gt;Node6</title>
<g id="a_edge5_Node000002_Node000006"><a xlink:title=" ">
<path fill="none" stroke="#63b8ff" d="M338.01,-174.58C294.84,-173.88 203.95,-167.58 139.62,-129.75 105.88,-109.9 72.21,-88.66 92.62,-55.25 104.39,-36 127.39,-24.71 146.79,-18.3"/>
<polygon fill="#63b8ff" stroke="#63b8ff" points="147.64,-21.7 156.23,-15.5 145.65,-14.99 147.64,-21.7"/>
</a>
</g>
</g>
<!-- Node7 -->
<g id="Node000007" class="node">
<title>Node7</title>
<g id="a_Node000007"><a xlink:href="_block_type_8h.html" target="_top" xlink:title="Specifies the types of blocks and their parameters.">
<polygon fill="white" stroke="#666666" points="536.25,-129.75 467,-129.75 467,-110.5 536.25,-110.5 536.25,-129.75"/>
<text text-anchor="middle" x="501.62" y="-116.25" font-family="Helvetica,sans-Serif" font-size="10.00">BlockType.h</text>
</a>
</g>
</g>
<!-- Node2&#45;&gt;Node7 -->
<g id="edge6_Node000002_Node000007" class="edge">
<title>Node2&#45;&gt;Node7</title>
<g id="a_edge6_Node000002_Node000007"><a xlink:title=" ">
<path fill="none" stroke="#63b8ff" d="M386.2,-165.34C408.47,-156.81 442.12,-143.92 467.35,-134.26"/>
<polygon fill="#63b8ff" stroke="#63b8ff" points="468.43,-137.59 476.52,-130.74 465.93,-131.05 468.43,-137.59"/>
</a>
</g>
</g>
<!-- Node9 -->
<g id="Node000009" class="node">
<title>Node9</title>
<g id="a_Node000009"><a xlink:href="_d_o_f_handler_8h.html" target="_top" xlink:title="model::DOFHandler source file">
<polygon fill="white" stroke="#666666" points="285.38,-74.5 207.88,-74.5 207.88,-55.25 285.38,-55.25 285.38,-74.5"/>
<text text-anchor="middle" x="246.62" y="-61" font-family="Helvetica,sans-Serif" font-size="10.00">DOFHandler.h</text>
</a>
</g>
</g>
<!-- Node2&#45;&gt;Node9 -->
<g id="edge8_Node000002_Node000009" class="edge">
<title>Node2&#45;&gt;Node9</title>
<g id="a_edge8_Node000002_Node000009"><a xlink:title=" ">
<path fill="none" stroke="#63b8ff" d="M349.12,-165.55C336.53,-157.05 317.51,-143.48 302.62,-129.75 286.93,-115.26 271.06,-96.72 260.25,-83.35"/>
<polygon fill="#63b8ff" stroke="#63b8ff" points="263.25,-81.5 254.28,-75.85 257.77,-85.85 263.25,-81.5"/>
</a>
</g>
</g>
<!-- Node10 -->
<g id="Node000010" class="node">
<title>Node10</title>
<g id="a_Node000010"><a xlink:href="_parameter_8h.html" target="_top" xlink:title="model::Parameter source file">
<polygon fill="white" stroke="#666666" points="216.88,-129.75 148.38,-129.75 148.38,-110.5 216.88,-110.5 216.88,-129.75"/>
<text text-anchor="middle" x="182.62" y="-116.25" font-family="Helvetica,sans-Serif" font-size="10.00">Parameter.h</text>
</a>
</g>
</g>
<!-- Node2&#45;&gt;Node10 -->
<g id="edge12_Node000002_Node000010" class="edge">
<title>Node2&#45;&gt;Node10</title>
<g id="a_edge12_Node000002_Node000010"><a xlink:title=" ">
<path fill="none" stroke="#63b8ff" d="M338.35,-167.19C309.17,-158.56 259.72,-143.93 224.37,-133.47"/>
<polygon fill="#63b8ff" stroke="#63b8ff" points="225.47,-130.15 214.88,-130.67 223.48,-136.86 225.47,-130.15"/>
</a>
</g>
</g>
<!-- Node2&#45;&gt;Node14 -->
<g id="edge18_Node000002_Node000014" class="edge">
<title>Node2&#45;&gt;Node14</title>
<g id="a_edge18_Node000002_Node000014"><a xlink:title=" ">
<path fill="none" stroke="#63b8ff" d="M386.89,-168.88C424.31,-160.4 496.96,-143.94 546.38,-132.74"/>
<polygon fill="#63b8ff" stroke="#63b8ff" points="547.02,-136.18 556,-130.56 545.48,-129.35 547.02,-136.18"/>
</a>
</g>
</g>
<!-- Node18 -->
<g id="Node000018" class="node">
<title>Node18</title>
<g id="a_Node000018"><a xlink:href="_state_8h.html" target="_top" xlink:title="State source file.">
<polygon fill="white" stroke="#666666" points="365,-129.75 318.25,-129.75 318.25,-110.5 365,-110.5 365,-129.75"/>
<text text-anchor="middle" x="341.62" y="-116.25" font-family="Helvetica,sans-Serif" font-size="10.00">State.h</text>
</a>
</g>
</g>
<!-- Node2&#45;&gt;Node18 -->
<g id="edge23_Node000002_Node000018" class="edge">
<title>Node2&#45;&gt;Node18</title>
<g id="a_edge23_Node000002_Node000018"><a xlink:title=" ">
<path fill="none" stroke="#63b8ff" d="M359.16,-165.58C356.5,-158.84 352.73,-149.27 349.36,-140.74"/>
<polygon fill="#63b8ff" stroke="#63b8ff" points="352.65,-139.54 345.72,-131.52 346.14,-142.1 352.65,-139.54"/>
</a>
</g>
</g>
<!-- Node8 -->
<g id="Node000008" class="node">
<title>Node8</title>
<g id="a_Node000008"><a xlink:title=" ">
<polygon fill="#e0e0e0" stroke="#999999" points="473.62,-19.25 433.62,-19.25 433.62,0 473.62,0 473.62,-19.25"/>
<text text-anchor="middle" x="453.62" y="-5.75" font-family="Helvetica,sans-Serif" font-size="10.00">string</text>
</a>
</g>
</g>
<!-- Node7&#45;&gt;Node8 -->
<g id="edge7_Node000007_Node000008" class="edge">
<title>Node7&#45;&gt;Node8</title>
<g id="a_edge7_Node000007_Node000008"><a xlink:title=" ">
<path fill="none" stroke="#63b8ff" d="M500.46,-110.09C498.57,-97.38 494.18,-73.71 485.62,-55.25 481.23,-45.76 474.73,-36.21 468.73,-28.39"/>
<polygon fill="#63b8ff" stroke="#63b8ff" points="471.55,-26.32 462.55,-20.73 466.1,-30.71 471.55,-26.32"/>
</a>
</g>
</g>
<!-- Node9&#45;&gt;Node5 -->
<g id="edge9_Node000009_Node000005" class="edge">
<title>Node9&#45;&gt;Node5</title>
<g id="a_edge9_Node000009_Node000005"><a xlink:title=" ">
<path fill="none" stroke="#63b8ff" d="M255.05,-55.08C262.16,-47.65 272.57,-36.79 281.31,-27.66"/>
<polygon fill="#63b8ff" stroke="#63b8ff" points="283.58,-30.35 287.97,-20.7 278.53,-25.5 283.58,-30.35"/>
</a>
</g>
</g>
<!-- Node9&#45;&gt;Node6 -->
<g id="edge11_Node000009_Node000006" class="edge">
<title>Node9&#45;&gt;Node6</title>
<g id="a_edge11_Node000009_Node000006"><a xlink:title=" ">
<path fill="none" stroke="#63b8ff" d="M235.26,-54.84C225.58,-47.15 211.43,-35.9 199.82,-26.68"/>
<polygon fill="#63b8ff" stroke="#63b8ff" points="202.01,-23.95 192.01,-20.47 197.66,-29.43 202.01,-23.95"/>
</a>
</g>
</g>
<!-- Node9&#45;&gt;Node8 -->
<g id="edge10_Node000009_Node000008" class="edge">
<title>Node9&#45;&gt;Node8</title>
<g id="a_edge10_Node000009_Node000008"><a xlink:title=" ">
<path fill="none" stroke="#63b8ff" d="M281.74,-54.84C321.15,-44.7 384.5,-28.41 422.29,-18.68"/>
<polygon fill="#63b8ff" stroke="#63b8ff" points="422.87,-22.15 431.68,-16.27 421.12,-15.37 422.87,-22.15"/>
</a>
</g>
</g>
<!-- Node10&#45;&gt;Node6 -->
<g id="edge16_Node000010_Node000006" class="edge">
<title>Node10&#45;&gt;Node6</title>
<g id="a_edge16_Node000010_Node000006"><a xlink:title=" ">
<path fill="none" stroke="#63b8ff" d="M182.38,-110.25C181.9,-93 180.84,-54.58 180.18,-30.81"/>
<polygon fill="#63b8ff" stroke="#63b8ff" points="183.69,-31.04 179.92,-21.14 176.69,-31.23 183.69,-31.04"/>
</a>
</g>
</g>
<!-- Node10&#45;&gt;Node9 -->
<g id="edge17_Node000010_Node000009" class="edge">
<title>Node10&#45;&gt;Node9</title>
<g id="a_edge17_Node000010_Node000009"><a xlink:title=" ">
<path fill="none" stroke="#63b8ff" d="M193.48,-110.09C202.73,-102.4 216.25,-91.15 227.33,-81.93"/>
<polygon fill="#63b8ff" stroke="#63b8ff" points="229.32,-84.83 234.77,-75.74 224.84,-79.45 229.32,-84.83"/>
</a>
</g>
</g>
<!-- Node11 -->
<g id="Node000011" class="node">
<title>Node11</title>
<g id="a_Node000011"><a xlink:title=" ">
<polygon fill="#e0e0e0" stroke="#999999" points="45.25,-74.5 0,-74.5 0,-55.25 45.25,-55.25 45.25,-74.5"/>
<text text-anchor="middle" x="22.62" y="-61" font-family="Helvetica,sans-Serif" font-size="10.00">math.h</text>
</a>
</g>
</g>
<!-- Node10&#45;&gt;Node11 -->
<g id="edge13_Node000010_Node000011" class="edge">
<title>Node10&#45;&gt;Node11</title>
<g id="a_edge13_Node000010_Node000011"><a xlink:title=" ">
<path fill="none" stroke="#63b8ff" d="M155.48,-110.09C128.13,-100.99 85.85,-86.92 56.36,-77.1"/>
<polygon fill="#63b8ff" stroke="#63b8ff" points="57.77,-73.88 47.17,-74.05 55.56,-80.52 57.77,-73.88"/>
</a>
</g>
</g>
<!-- Node12 -->
<g id="Node000012" class="node">
<title>Node12</title>
<g id="a_Node000012"><a xlink:title=" ">
<polygon fill="#e0e0e0" stroke="#999999" points="476.38,-74.5 422.88,-74.5 422.88,-55.25 476.38,-55.25 476.38,-74.5"/>
<text text-anchor="middle" x="449.62" y="-61" font-family="Helvetica,sans-Serif" font-size="10.00">iostream</text>
</a>
</g>
</g>
<!-- Node10&#45;&gt;Node12 -->
<g id="edge14_Node000010_Node000012" class="edge">
<title>Node10&#45;&gt;Node12</title>
<g id="a_edge14_Node000010_Node000012"><a xlink:title=" ">
<path fill="none" stroke="#63b8ff" d="M217.26,-112.22C267.37,-102.22 359.76,-83.8 411.67,-73.44"/>
<polygon fill="#63b8ff" stroke="#63b8ff" points="412.11,-76.93 421.23,-71.54 410.74,-70.06 412.11,-76.93"/>
</a>
</g>
</g>
<!-- Node13 -->
<g id="Node000013" class="node">
<title>Node13</title>
<g id="a_Node000013"><a xlink:title=" ">
<polygon fill="#e0e0e0" stroke="#999999" points="151.88,-74.5 101.38,-74.5 101.38,-55.25 151.88,-55.25 151.88,-74.5"/>
<text text-anchor="middle" x="126.62" y="-61" font-family="Helvetica,sans-Serif" font-size="10.00">numeric</text>
</a>
</g>
</g>
<!-- Node10&#45;&gt;Node13 -->
<g id="edge15_Node000010_Node000013" class="edge">
<title>Node10&#45;&gt;Node13</title>
<g id="a_edge15_Node000010_Node000013"><a xlink:title=" ">
<path fill="none" stroke="#63b8ff" d="M173.13,-110.09C165.19,-102.55 153.68,-91.6 144.09,-82.48"/>
<polygon fill="#63b8ff" stroke="#63b8ff" points="146.74,-80.17 137.08,-75.82 141.92,-85.24 146.74,-80.17"/>
</a>
</g>
</g>
<!-- Node14&#45;&gt;Node12 -->
<g id="edge21_Node000014_Node000012" class="edge">
<title>Node14&#45;&gt;Node12</title>
<g id="a_edge21_Node000014_Node000012"><a xlink:title=" ">
<path fill="none" stroke="#63b8ff" d="M572.52,-110.09C548.6,-101.49 512.34,-88.44 485.4,-78.75"/>
<polygon fill="#63b8ff" stroke="#63b8ff" points="486.87,-75.56 476.28,-75.46 484.5,-82.14 486.87,-75.56"/>
</a>
</g>
</g>
<!-- Node15 -->
<g id="Node000015" class="node">
<title>Node15</title>
<g id="a_Node000015"><a xlink:title=" ">
<polygon fill="#e0e0e0" stroke="#999999" points="606.5,-74.5 532.75,-74.5 532.75,-55.25 606.5,-55.25 606.5,-74.5"/>
<text text-anchor="middle" x="569.62" y="-61" font-family="Helvetica,sans-Serif" font-size="10.00">Eigen/Sparse</text>
</a>
</g>
</g>
<!-- Node14&#45;&gt;Node15 -->
<g id="edge19_Node000014_Node000015" class="edge">
<title>Node14&#45;&gt;Node15</title>
<g id="a_edge19_Node000014_Node000015"><a xlink:title=" ">
<path fill="none" stroke="#63b8ff" d="M593,-110.33C589.38,-103.44 584.2,-93.59 579.63,-84.91"/>
<polygon fill="#63b8ff" stroke="#63b8ff" points="582.81,-83.42 575.05,-76.2 576.61,-86.68 582.81,-83.42"/>
</a>
</g>
</g>
<!-- Node16 -->
<g id="Node000016" class="node">
<title>Node16</title>
<g id="a_Node000016"><a xlink:title=" ">
<polygon fill="#e0e0e0" stroke="#999999" points="712.25,-74.5 625,-74.5 625,-55.25 712.25,-55.25 712.25,-74.5"/>
<text text-anchor="middle" x="668.62" y="-61" font-family="Helvetica,sans-Serif" font-size="10.00">Eigen/SparseLU</text>
</a>
</g>
</g>
<!-- Node14&#45;&gt;Node16 -->
<g id="edge20_Node000014_Node000016" class="edge">
<title>Node14&#45;&gt;Node16</title>
<g id="a_edge20_Node000014_Node000016"><a xlink:title=" ">
<path fill="none" stroke="#63b8ff" d="M609.67,-110.09C620.03,-102.32 635.23,-90.92 647.59,-81.65"/>
<polygon fill="#63b8ff" stroke="#63b8ff" points="649.65,-84.48 655.55,-75.68 645.45,-78.88 649.65,-84.48"/>
</a>
</g>
</g>
<!-- Node17 -->
<g id="Node000017" class="node">
<title>Node17</title>
<g id="a_Node000017"><a xlink:title=" ">
<polygon fill="#e0e0e0" stroke="#999999" points="780.88,-74.5 730.38,-74.5 730.38,-55.25 780.88,-55.25 780.88,-74.5"/>
<text text-anchor="middle" x="755.62" y="-61" font-family="Helvetica,sans-Serif" font-size="10.00">memory</text>
</a>
</g>
</g>
<!-- Node14&#45;&gt;Node17 -->
<g id="edge22_Node000014_Node000017" class="edge">
<title>Node14&#45;&gt;Node17</title>
<g id="a_edge22_Node000014_Node000017"><a xlink:title=" ">
<path fill="none" stroke="#63b8ff" d="M624.43,-110.09C650.47,-101.32 690.2,-87.93 719.12,-78.18"/>
<polygon fill="#63b8ff" stroke="#63b8ff" points="720.21,-81.5 728.57,-74.99 717.97,-74.87 720.21,-81.5"/>
</a>
</g>
</g>
<!-- Node18&#45;&gt;Node3 -->
<g id="edge24_Node000018_Node000003" class="edge">
<title>Node18&#45;&gt;Node3</title>
<g id="a_edge24_Node000018_Node000003"><a xlink:title=" ">
<path fill="none" stroke="#63b8ff" d="M340.47,-110.33C339.6,-103.74 338.38,-94.46 337.28,-86.07"/>
<polygon fill="#63b8ff" stroke="#63b8ff" points="340.78,-85.82 336,-76.36 333.84,-86.73 340.78,-85.82"/>
</a>
</g>
</g>
<!-- Node19&#45;&gt;Node2 -->
<g id="edge27_Node000019_Node000002" class="edge">
<title>Node19&#45;&gt;Node2</title>
<g id="a_edge27_Node000019_Node000002"><a xlink:title=" ">
<path fill="none" stroke="#63b8ff" d="M351.77,-220.83C353.4,-214.17 355.7,-204.74 357.77,-196.28"/>
<polygon fill="#63b8ff" stroke="#63b8ff" points="361.1,-197.37 360.07,-186.83 354.3,-195.71 361.1,-197.37"/>
</a>
</g>
</g>
<!-- Node19&#45;&gt;Node11 -->
<g id="edge26_Node000019_Node000011" class="edge">
<title>Node19&#45;&gt;Node11</title>
<g id="a_edge26_Node000019_Node000011"><a xlink:title=" ">
<path fill="none" stroke="#63b8ff" d="M310.12,-230.41C231.26,-231.04 58.67,-227.42 21.62,-185 -2.33,-157.56 7.15,-111.5 15.39,-85.42"/>
<polygon fill="#63b8ff" stroke="#63b8ff" points="18.65,-86.72 18.59,-76.12 12.03,-84.44 18.65,-86.72"/>
</a>
</g>
</g>
<!-- Node19&#45;&gt;Node14 -->
<g id="edge28_Node000019_Node000014" class="edge">
<title>Node19&#45;&gt;Node14</title>
<g id="a_edge28_Node000019_Node000014"><a xlink:title=" ">
<path fill="none" stroke="#63b8ff" d="M370.34,-220.56C413.83,-201.53 514.86,-157.33 566.31,-134.83"/>
<polygon fill="#63b8ff" stroke="#63b8ff" points="567.65,-138.06 575.41,-130.85 564.84,-131.65 567.65,-138.06"/>
</a>
</g>
</g>
<!-- Node20&#45;&gt;Node2 -->
<g id="edge31_Node000020_Node000002" class="edge">
<title>Node20&#45;&gt;Node2</title>
<g id="a_edge31_Node000020_Node000002"><a xlink:title=" ">
<path fill="none" stroke="#63b8ff" d="M439.85,-220.59C425.69,-212.48 404.64,-200.43 388.1,-190.96"/>
<polygon fill="#63b8ff" stroke="#63b8ff" points="390.21,-188.14 379.79,-186.2 386.73,-194.21 390.21,-188.14"/>
</a>
</g>
</g>
<!-- Node20&#45;&gt;Node11 -->
<g id="edge30_Node000020_Node000011" class="edge">
<title>Node20&#45;&gt;Node11</title>
<g id="a_edge30_Node000020_Node000011"><a xlink:title=" ">
<path fill="none" stroke="#63b8ff" d="M406.4,-221.51C336.84,-208.74 207.06,-180.07 106.62,-129.75 81.43,-117.13 56.19,-96.61 40.05,-82.25"/>
<polygon fill="#63b8ff" stroke="#63b8ff" points="42.53,-79.78 32.79,-75.63 37.82,-84.95 42.53,-79.78"/>
</a>
</g>
</g>
<!-- Node20&#45;&gt;Node14 -->
<g id="edge32_Node000020_Node000014" class="edge">
<title>Node20&#45;&gt;Node14</title>
<g id="a_edge32_Node000020_Node000014"><a xlink:title=" ">
<path fill="none" stroke="#63b8ff" d="M467.25,-220.75C491.27,-202.39 546.7,-160.04 576.97,-136.91"/>
<polygon fill="#63b8ff" stroke="#63b8ff" points="578.82,-139.9 584.64,-131.05 574.57,-134.34 578.82,-139.9"/>
</a>
</g>
</g>
</g>
</svg>
