<?xml version="1.0" encoding="UTF-8" standalone="no"?>
<!DOCTYPE svg PUBLIC "-//W3C//DTD SVG 1.1//EN"
 "http://www.w3.org/Graphics/SVG/1.1/DTD/svg11.dtd">
<!-- Generated by graphviz version 12.1.1 (20240910.0053)
 -->
<!-- Title: model/BlockType.h Pages: 1 -->
<svg width="1675pt" height="437pt"
 viewBox="0.00 0.00 1674.95 436.50" xmlns="http://www.w3.org/2000/svg" xmlns:xlink="http://www.w3.org/1999/xlink">
<g id="graph0" class="graph" transform="scale(1 1) rotate(0) translate(4 432.5)">
<title>model/BlockType.h</title>
<!-- Node1 -->
<g id="Node000001" class="node">
<title>Node1</title>
<g id="a_Node000001"><a xlink:title="Specifies the types of blocks and their parameters.">
<polygon fill="#999999" stroke="#666666" points="920.25,-428.5 821.75,-428.5 821.75,-409.25 920.25,-409.25 920.25,-428.5"/>
<text text-anchor="middle" x="871" y="-415" font-family="Helvetica,sans-Serif" font-size="10.00">model/BlockType.h</text>
</a>
</g>
</g>
<!-- Node2 -->
<g id="Node000002" class="node">
<title>Node2</title>
<g id="a_Node000002"><a xlink:href="_block_8h.html" target="_top" xlink:title="model::Block source file">
<polygon fill="white" stroke="#666666" points="862.75,-373.25 785.25,-373.25 785.25,-354 862.75,-354 862.75,-373.25"/>
<text text-anchor="middle" x="824" y="-359.75" font-family="Helvetica,sans-Serif" font-size="10.00">model/Block.h</text>
</a>
</g>
</g>
<!-- Node1&#45;&gt;Node2 -->
<g id="edge1_Node000001_Node000002" class="edge">
<title>Node1&#45;&gt;Node2</title>
<g id="a_edge1_Node000001_Node000002"><a xlink:title=" ">
<path fill="none" stroke="#63b8ff" d="M855.67,-400.51C847.75,-391.53 838.4,-380.95 831.93,-373.61"/>
<polygon fill="#63b8ff" stroke="#63b8ff" points="853,-402.77 862.24,-407.95 858.24,-398.13 853,-402.77"/>
</a>
</g>
</g>
<!-- Node32 -->
<g id="Node000032" class="node">
<title>Node32</title>
<g id="a_Node000032"><a xlink:href="_node_8h.html" target="_top" xlink:title="model::Node source file">
<polygon fill="white" stroke="#666666" points="1341,-373.25 1265,-373.25 1265,-354 1341,-354 1341,-373.25"/>
<text text-anchor="middle" x="1303" y="-359.75" font-family="Helvetica,sans-Serif" font-size="10.00">model/Node.h</text>
</a>
</g>
</g>
<!-- Node1&#45;&gt;Node32 -->
<g id="edge60_Node000001_Node000032" class="edge">
<title>Node1&#45;&gt;Node32</title>
<g id="a_edge60_Node000001_Node000032"><a xlink:title=" ">
<path fill="none" stroke="#63b8ff" d="M931.72,-410.39C1022.15,-399.24 1189.58,-378.61 1264.74,-369.34"/>
<polygon fill="#63b8ff" stroke="#63b8ff" points="931.55,-406.88 922.06,-411.58 932.41,-413.83 931.55,-406.88"/>
</a>
</g>
</g>
<!-- Node3 -->
<g id="Node000003" class="node">
<title>Node3</title>
<g id="a_Node000003"><a xlink:href="_block_factory_8h.html" target="_top" xlink:title="Define the block factory functional.">
<polygon fill="white" stroke="#666666" points="776.88,-201.88 667.12,-201.88 667.12,-182.62 776.88,-182.62 776.88,-201.88"/>
<text text-anchor="middle" x="722" y="-188.38" font-family="Helvetica,sans-Serif" font-size="10.00">model/BlockFactory.h</text>
</a>
</g>
</g>
<!-- Node2&#45;&gt;Node3 -->
<g id="edge2_Node000002_Node000003" class="edge">
<title>Node2&#45;&gt;Node3</title>
<g id="a_edge2_Node000002_Node000003"><a xlink:title=" ">
<path fill="none" stroke="#63b8ff" d="M773.73,-354.1C752.83,-347.81 730.55,-336.89 718,-318 693.67,-281.35 710.44,-224.38 718.43,-202.37"/>
<polygon fill="#63b8ff" stroke="#63b8ff" points="772.78,-357.47 783.35,-356.68 774.59,-350.71 772.78,-357.47"/>
</a>
</g>
</g>
<!-- Node4 -->
<g id="Node000004" class="node">
<title>Node4</title>
<g id="a_Node000004"><a xlink:href="_model_8h.html" target="_top" xlink:title="model::Model source file">
<polygon fill="white" stroke="#666666" points="901.5,-141 822.5,-141 822.5,-121.75 901.5,-121.75 901.5,-141"/>
<text text-anchor="middle" x="862" y="-127.5" font-family="Helvetica,sans-Serif" font-size="10.00">model/Model.h</text>
</a>
</g>
</g>
<!-- Node2&#45;&gt;Node4 -->
<g id="edge44_Node000002_Node000004" class="edge">
<title>Node2&#45;&gt;Node4</title>
<g id="a_edge44_Node000002_Node000004"><a xlink:title=" ">
<path fill="none" stroke="#63b8ff" d="M786.11,-348.76C772.54,-341.74 758.7,-331.73 751,-318 746.82,-310.54 748.52,-306.94 751,-298.75 771.64,-230.63 830.4,-164.92 853,-141.44"/>
<polygon fill="#63b8ff" stroke="#63b8ff" points="784.42,-351.83 794.96,-352.91 787.39,-345.49 784.42,-351.83"/>
</a>
</g>
</g>
<!-- Node8 -->
<g id="Node000008" class="node">
<title>Node8</title>
<g id="a_Node000008"><a xlink:href="_chamber_elastance_inductor_8h.html" target="_top" xlink:title="model::ChamberElastanceInductor source file">
<polygon fill="white" stroke="#666666" points="1389.88,-80.12 1220.12,-80.12 1220.12,-60.88 1389.88,-60.88 1389.88,-80.12"/>
<text text-anchor="middle" x="1305" y="-66.62" font-family="Helvetica,sans-Serif" font-size="10.00">model/ChamberElastanceInductor.h</text>
</a>
</g>
</g>
<!-- Node2&#45;&gt;Node8 -->
<g id="edge28_Node000002_Node000008" class="edge">
<title>Node2&#45;&gt;Node8</title>
<g id="a_edge28_Node000002_Node000008"><a xlink:title=" ">
<path fill="none" stroke="#63b8ff" d="M874.42,-361.28C1040.86,-356.63 1563.85,-340.29 1592,-318 1615.22,-299.61 1611,-283.74 1611,-254.12 1611,-254.12 1611,-254.12 1611,-191.25 1611,-137.2 1443.33,-97.55 1356.22,-80.6"/>
<polygon fill="#63b8ff" stroke="#63b8ff" points="874.47,-357.78 864.58,-361.55 874.67,-364.77 874.47,-357.78"/>
</a>
</g>
</g>
<!-- Node9 -->
<g id="Node000009" class="node">
<title>Node9</title>
<g id="a_Node000009"><a xlink:href="_kung_ventricle_8h.html" target="_top" xlink:title="model::KungVentricle source file">
<polygon fill="white" stroke="#666666" points="1613.75,-80.12 1500.25,-80.12 1500.25,-60.88 1613.75,-60.88 1613.75,-80.12"/>
<text text-anchor="middle" x="1557" y="-66.62" font-family="Helvetica,sans-Serif" font-size="10.00">model/KungVentricle.h</text>
</a>
</g>
</g>
<!-- Node2&#45;&gt;Node9 -->
<g id="edge43_Node000002_Node000009" class="edge">
<title>Node2&#45;&gt;Node9</title>
<g id="a_edge43_Node000002_Node000009"><a xlink:title=" ">
<path fill="none" stroke="#63b8ff" d="M874.28,-361.12C1043.37,-355.9 1582.68,-337.77 1614,-318 1641.38,-300.72 1649,-286.5 1649,-254.12 1649,-254.12 1649,-254.12 1649,-191.25 1649,-140.65 1596.71,-98.28 1570.97,-80.49"/>
<polygon fill="#63b8ff" stroke="#63b8ff" points="874.39,-357.62 864.5,-361.42 874.6,-364.62 874.39,-357.62"/>
</a>
</g>
</g>
<!-- Node10 -->
<g id="Node000010" class="node">
<title>Node10</title>
<g id="a_Node000010"><a xlink:href="_regazzoni_chamber_8h.html" target="_top" xlink:title="model::RegazzoniChamber source file">
<polygon fill="white" stroke="#666666" points="452,-80.12 316,-80.12 316,-60.88 452,-60.88 452,-80.12"/>
<text text-anchor="middle" x="384" y="-66.62" font-family="Helvetica,sans-Serif" font-size="10.00">model/RegazzoniChamber.h</text>
</a>
</g>
</g>
<!-- Node2&#45;&gt;Node10 -->
<g id="edge49_Node000002_Node000010" class="edge">
<title>Node2&#45;&gt;Node10</title>
<g id="a_edge49_Node000002_Node000010"><a xlink:title=" ">
<path fill="none" stroke="#63b8ff" d="M773.57,-361.36C638.66,-357.65 271.81,-345.27 154,-318 81.81,-301.29 0,-328.22 0,-254.12 0,-254.12 0,-254.12 0,-191.25 0,-125.87 205.44,-92.07 315.79,-78.62"/>
<polygon fill="#63b8ff" stroke="#63b8ff" points="773.15,-364.85 783.24,-361.62 773.34,-357.85 773.15,-364.85"/>
</a>
</g>
</g>
<!-- Node15 -->
<g id="Node000015" class="node">
<title>Node15</title>
<g id="a_Node000015"><a xlink:href="_blood_vessel_8h.html" target="_top" xlink:title="model::BloodVessel source file">
<polygon fill="white" stroke="#666666" points="1012.75,-318 905.25,-318 905.25,-298.75 1012.75,-298.75 1012.75,-318"/>
<text text-anchor="middle" x="959" y="-304.5" font-family="Helvetica,sans-Serif" font-size="10.00">model/BloodVessel.h</text>
</a>
</g>
</g>
<!-- Node2&#45;&gt;Node15 -->
<g id="edge20_Node000002_Node000015" class="edge">
<title>Node2&#45;&gt;Node15</title>
<g id="a_edge20_Node000002_Node000015"><a xlink:title=" ">
<path fill="none" stroke="#63b8ff" d="M857.49,-349.41C881.93,-339.77 914.42,-326.96 935.99,-318.45"/>
<polygon fill="#63b8ff" stroke="#63b8ff" points="856.33,-346.11 848.31,-353.04 858.9,-352.62 856.33,-346.11"/>
</a>
</g>
</g>
<!-- Node16 -->
<g id="Node000016" class="node">
<title>Node16</title>
<g id="a_Node000016"><a xlink:href="_blood_vessel_junction_8h.html" target="_top" xlink:title="model::BloodVesselJunction source file">
<polygon fill="white" stroke="#666666" points="1053.12,-262.75 908.88,-262.75 908.88,-243.5 1053.12,-243.5 1053.12,-262.75"/>
<text text-anchor="middle" x="981" y="-249.25" font-family="Helvetica,sans-Serif" font-size="10.00">model/BloodVesselJunction.h</text>
</a>
</g>
</g>
<!-- Node2&#45;&gt;Node16 -->
<g id="edge27_Node000002_Node000016" class="edge">
<title>Node2&#45;&gt;Node16</title>
<g id="a_edge27_Node000002_Node000016"><a xlink:title=" ">
<path fill="none" stroke="#63b8ff" d="M874.37,-358.33C926.82,-352.68 1003.84,-340.71 1022,-318 1036.65,-299.68 1011.11,-275.96 994.18,-263.2"/>
<polygon fill="#63b8ff" stroke="#63b8ff" points="874.02,-354.84 864.43,-359.35 874.74,-361.81 874.02,-354.84"/>
</a>
</g>
</g>
<!-- Node17 -->
<g id="Node000017" class="node">
<title>Node17</title>
<g id="a_Node000017"><a xlink:href="_blood_vessel_c_r_l_8h.html" target="_top" xlink:title="model::BloodVesselCRL source file">
<polygon fill="white" stroke="#666666" points="887.5,-318 760.5,-318 760.5,-298.75 887.5,-298.75 887.5,-318"/>
<text text-anchor="middle" x="824" y="-304.5" font-family="Helvetica,sans-Serif" font-size="10.00">model/BloodVesselCRL.h</text>
</a>
</g>
</g>
<!-- Node2&#45;&gt;Node17 -->
<g id="edge24_Node000002_Node000017" class="edge">
<title>Node2&#45;&gt;Node17</title>
<g id="a_edge24_Node000002_Node000017"><a xlink:title=" ">
<path fill="none" stroke="#63b8ff" d="M824,-342.38C824,-334.09 824,-324.92 824,-318.36"/>
<polygon fill="#63b8ff" stroke="#63b8ff" points="820.5,-342.32 824,-352.32 827.5,-342.32 820.5,-342.32"/>
</a>
</g>
</g>
<!-- Node18 -->
<g id="Node000018" class="node">
<title>Node18</title>
<g id="a_Node000018"><a xlink:href="_closed_loop_coronary_b_c_8h.html" target="_top" xlink:title="model::ClosedLoopCoronaryBC source file">
<polygon fill="white" stroke="#666666" points="1232.12,-262.75 1075.88,-262.75 1075.88,-243.5 1232.12,-243.5 1232.12,-262.75"/>
<text text-anchor="middle" x="1154" y="-249.25" font-family="Helvetica,sans-Serif" font-size="10.00">model/ClosedLoopCoronaryBC.h</text>
</a>
</g>
</g>
<!-- Node2&#45;&gt;Node18 -->
<g id="edge29_Node000002_Node000018" class="edge">
<title>Node2&#45;&gt;Node18</title>
<g id="a_edge29_Node000002_Node000018"><a xlink:title=" ">
<path fill="none" stroke="#63b8ff" d="M874.54,-356.42C918.67,-349.99 983.93,-338.01 1038,-318 1077.46,-303.4 1119.78,-277.03 1140.71,-263.18"/>
<polygon fill="#63b8ff" stroke="#63b8ff" points="874.15,-352.94 864.74,-357.8 875.13,-359.87 874.15,-352.94"/>
</a>
</g>
</g>
<!-- Node21 -->
<g id="Node000021" class="node">
<title>Node21</title>
<g id="a_Node000021"><a xlink:href="_closed_loop_heart_pulmonary_8h.html" target="_top" xlink:title="model::ClosedLoopHeartPulmonary source file">
<polygon fill="white" stroke="#666666" points="1281.12,-318 1106.88,-318 1106.88,-298.75 1281.12,-298.75 1281.12,-318"/>
<text text-anchor="middle" x="1194" y="-304.5" font-family="Helvetica,sans-Serif" font-size="10.00">model/ClosedLoopHeartPulmonary.h</text>
</a>
</g>
</g>
<!-- Node2&#45;&gt;Node21 -->
<g id="edge34_Node000002_Node000021" class="edge">
<title>Node2&#45;&gt;Node21</title>
<g id="a_edge34_Node000002_Node000021"><a xlink:title=" ">
<path fill="none" stroke="#63b8ff" d="M874.28,-355.39C940.88,-345.8 1058.36,-328.9 1130.87,-318.46"/>
<polygon fill="#63b8ff" stroke="#63b8ff" points="874.14,-351.87 864.74,-356.76 875.14,-358.8 874.14,-351.87"/>
</a>
</g>
</g>
<!-- Node22 -->
<g id="Node000022" class="node">
<title>Node22</title>
<g id="a_Node000022"><a xlink:href="_closed_loop_r_c_r_b_c_8h.html" target="_top" xlink:title="model::ClosedLoopRCRBC source file">
<polygon fill="white" stroke="#666666" points="1437.12,-318 1298.88,-318 1298.88,-298.75 1437.12,-298.75 1437.12,-318"/>
<text text-anchor="middle" x="1368" y="-304.5" font-family="Helvetica,sans-Serif" font-size="10.00">model/ClosedLoopRCRBC.h</text>
</a>
</g>
</g>
<!-- Node2&#45;&gt;Node22 -->
<g id="edge37_Node000002_Node000022" class="edge">
<title>Node2&#45;&gt;Node22</title>
<g id="a_edge37_Node000002_Node000022"><a xlink:title=" ">
<path fill="none" stroke="#63b8ff" d="M874.42,-358.04C959.94,-350.21 1138.86,-333.59 1290,-318 1292.85,-317.71 1295.75,-317.4 1298.68,-317.09"/>
<polygon fill="#63b8ff" stroke="#63b8ff" points="874.14,-354.55 864.5,-358.95 874.77,-361.52 874.14,-354.55"/>
</a>
</g>
</g>
<!-- Node23 -->
<g id="Node000023" class="node">
<title>Node23</title>
<g id="a_Node000023"><a xlink:href="_flow_reference_b_c_8h.html" target="_top" xlink:title="model::FlowReferenceBC source file">
<polygon fill="white" stroke="#666666" points="1484.75,-262.75 1353.25,-262.75 1353.25,-243.5 1484.75,-243.5 1484.75,-262.75"/>
<text text-anchor="middle" x="1419" y="-249.25" font-family="Helvetica,sans-Serif" font-size="10.00">model/FlowReferenceBC.h</text>
</a>
</g>
</g>
<!-- Node2&#45;&gt;Node23 -->
<g id="edge39_Node000002_Node000023" class="edge">
<title>Node2&#45;&gt;Node23</title>
<g id="a_edge39_Node000002_Node000023"><a xlink:title=" ">
<path fill="none" stroke="#63b8ff" d="M874.56,-362.85C1015.91,-362.96 1407.39,-359.48 1446,-318 1460.93,-301.96 1440.98,-276.44 1428.21,-263.03"/>
<polygon fill="#63b8ff" stroke="#63b8ff" points="874.77,-359.35 864.76,-362.84 874.75,-366.35 874.77,-359.35"/>
</a>
</g>
</g>
<!-- Node24 -->
<g id="Node000024" class="node">
<title>Node24</title>
<g id="a_Node000024"><a xlink:href="_junction_8h.html" target="_top" xlink:title="model::Junction source file">
<polygon fill="white" stroke="#666666" points="1582.75,-318 1493.25,-318 1493.25,-298.75 1582.75,-298.75 1582.75,-318"/>
<text text-anchor="middle" x="1538" y="-304.5" font-family="Helvetica,sans-Serif" font-size="10.00">model/Junction.h</text>
</a>
</g>
</g>
<!-- Node2&#45;&gt;Node24 -->
<g id="edge41_Node000002_Node000024" class="edge">
<title>Node2&#45;&gt;Node24</title>
<g id="a_edge41_Node000002_Node000024"><a xlink:title=" ">
<path fill="none" stroke="#63b8ff" d="M874.61,-360.51C984.75,-355.61 1254.29,-342.04 1479,-318 1483.53,-317.52 1488.24,-316.94 1492.95,-316.33"/>
<polygon fill="#63b8ff" stroke="#63b8ff" points="874.57,-357.01 864.73,-360.94 874.88,-364 874.57,-357.01"/>
</a>
</g>
</g>
<!-- Node25 -->
<g id="Node000025" class="node">
<title>Node25</title>
<g id="a_Node000025"><a xlink:href="_open_loop_coronary_b_c_8h.html" target="_top" xlink:title="model::OpenLoopCoronaryBC source file">
<polygon fill="white" stroke="#666666" points="177.75,-262.75 28.25,-262.75 28.25,-243.5 177.75,-243.5 177.75,-262.75"/>
<text text-anchor="middle" x="103" y="-249.25" font-family="Helvetica,sans-Serif" font-size="10.00">model/OpenLoopCoronaryBC.h</text>
</a>
</g>
</g>
<!-- Node2&#45;&gt;Node25 -->
<g id="edge45_Node000002_Node000025" class="edge">
<title>Node2&#45;&gt;Node25</title>
<g id="a_edge45_Node000002_Node000025"><a xlink:title=" ">
<path fill="none" stroke="#63b8ff" d="M773.81,-362.59C643.78,-361.94 298.7,-356.53 192,-318 158.73,-305.99 126.82,-277.71 111.86,-263.15"/>
<polygon fill="#63b8ff" stroke="#63b8ff" points="773.45,-366.09 783.47,-362.63 773.48,-359.09 773.45,-366.09"/>
</a>
</g>
</g>
<!-- Node26 -->
<g id="Node000026" class="node">
<title>Node26</title>
<g id="a_Node000026"><a xlink:href="_pressure_reference_b_c_8h.html" target="_top" xlink:title="model::PressureReferenceBC source file">
<polygon fill="white" stroke="#666666" points="266.75,-201.88 117.25,-201.88 117.25,-182.62 266.75,-182.62 266.75,-201.88"/>
<text text-anchor="middle" x="192" y="-188.38" font-family="Helvetica,sans-Serif" font-size="10.00">model/PressureReferenceBC.h</text>
</a>
</g>
</g>
<!-- Node2&#45;&gt;Node26 -->
<g id="edge47_Node000002_Node000026" class="edge">
<title>Node2&#45;&gt;Node26</title>
<g id="a_edge47_Node000002_Node000026"><a xlink:title=" ">
<path fill="none" stroke="#63b8ff" d="M773.48,-362.17C636.72,-360.47 266.75,-352.68 225,-318 189.5,-288.51 189.77,-225.7 191.22,-202.29"/>
<polygon fill="#63b8ff" stroke="#63b8ff" points="773.28,-365.66 783.32,-362.28 773.36,-358.66 773.28,-365.66"/>
</a>
</g>
</g>
<!-- Node27 -->
<g id="Node000027" class="node">
<title>Node27</title>
<g id="a_Node000027"><a xlink:href="_regazzoni_valve_8h.html" target="_top" xlink:title="model::RegazzoniValve source file">
<polygon fill="white" stroke="#666666" points="355.88,-318 234.12,-318 234.12,-298.75 355.88,-298.75 355.88,-318"/>
<text text-anchor="middle" x="295" y="-304.5" font-family="Helvetica,sans-Serif" font-size="10.00">model/RegazzoniValve.h</text>
</a>
</g>
</g>
<!-- Node2&#45;&gt;Node27 -->
<g id="edge50_Node000002_Node000027" class="edge">
<title>Node2&#45;&gt;Node27</title>
<g id="a_edge50_Node000002_Node000027"><a xlink:title=" ">
<path fill="none" stroke="#63b8ff" d="M773.59,-357.94C689.77,-350.1 516.48,-333.62 370,-318 365.44,-317.51 360.72,-317 355.98,-316.47"/>
<polygon fill="#63b8ff" stroke="#63b8ff" points="773.02,-361.41 783.3,-358.85 773.67,-354.44 773.02,-361.41"/>
</a>
</g>
</g>
<!-- Node28 -->
<g id="Node000028" class="node">
<title>Node28</title>
<g id="a_Node000028"><a xlink:href="_resistance_b_c_8h.html" target="_top" xlink:title="model::ResistanceBC source file">
<polygon fill="white" stroke="#666666" points="438.5,-201.88 323.5,-201.88 323.5,-182.62 438.5,-182.62 438.5,-201.88"/>
<text text-anchor="middle" x="381" y="-188.38" font-family="Helvetica,sans-Serif" font-size="10.00">model/ResistanceBC.h</text>
</a>
</g>
</g>
<!-- Node2&#45;&gt;Node28 -->
<g id="edge52_Node000002_Node000028" class="edge">
<title>Node2&#45;&gt;Node28</title>
<g id="a_edge52_Node000002_Node000028"><a xlink:title=" ">
<path fill="none" stroke="#63b8ff" d="M773.72,-359.55C665.96,-351.78 418.68,-327.15 371,-262.75 357.65,-244.72 368.66,-216.71 375.9,-202.37"/>
<polygon fill="#63b8ff" stroke="#63b8ff" points="773.19,-363.03 783.41,-360.23 773.68,-356.04 773.19,-363.03"/>
</a>
</g>
</g>
<!-- Node29 -->
<g id="Node000029" class="node">
<title>Node29</title>
<g id="a_Node000029"><a xlink:href="_resistive_junction_8h.html" target="_top" xlink:title="model::ResistiveJunction source file">
<polygon fill="white" stroke="#666666" points="510,-262.75 380,-262.75 380,-243.5 510,-243.5 510,-262.75"/>
<text text-anchor="middle" x="445" y="-249.25" font-family="Helvetica,sans-Serif" font-size="10.00">model/ResistiveJunction.h</text>
</a>
</g>
</g>
<!-- Node2&#45;&gt;Node29 -->
<g id="edge54_Node000002_Node000029" class="edge">
<title>Node2&#45;&gt;Node29</title>
<g id="a_edge54_Node000002_Node000029"><a xlink:title=" ">
<path fill="none" stroke="#63b8ff" d="M773.76,-354.36C730.45,-346.69 666.48,-334.04 612,-318 557.95,-302.08 496.6,-276.63 465.47,-263.16"/>
<polygon fill="#63b8ff" stroke="#63b8ff" points="772.91,-357.76 783.37,-356.04 774.12,-350.87 772.91,-357.76"/>
</a>
</g>
</g>
<!-- Node30 -->
<g id="Node000030" class="node">
<title>Node30</title>
<g id="a_Node000030"><a xlink:href="_valve_tanh_8h.html" target="_top" xlink:title="model::ValveTanh source file">
<polygon fill="white" stroke="#666666" points="627.62,-262.75 528.38,-262.75 528.38,-243.5 627.62,-243.5 627.62,-262.75"/>
<text text-anchor="middle" x="578" y="-249.25" font-family="Helvetica,sans-Serif" font-size="10.00">model/ValveTanh.h</text>
</a>
</g>
</g>
<!-- Node2&#45;&gt;Node30 -->
<g id="edge56_Node000002_Node000030" class="edge">
<title>Node2&#45;&gt;Node30</title>
<g id="a_edge56_Node000002_Node000030"><a xlink:title=" ">
<path fill="none" stroke="#63b8ff" d="M773.49,-357.67C735.38,-352.23 682.86,-340.98 642,-318 616.83,-303.84 594.78,-277.04 584.37,-263.08"/>
<polygon fill="#63b8ff" stroke="#63b8ff" points="772.96,-361.13 783.33,-358.98 773.88,-354.19 772.96,-361.13"/>
</a>
</g>
</g>
<!-- Node31 -->
<g id="Node000031" class="node">
<title>Node31</title>
<g id="a_Node000031"><a xlink:href="_windkessel_b_c_8h.html" target="_top" xlink:title="model::WindkesselBC source file">
<polygon fill="white" stroke="#666666" points="649.25,-201.88 532.75,-201.88 532.75,-182.62 649.25,-182.62 649.25,-201.88"/>
<text text-anchor="middle" x="591" y="-188.38" font-family="Helvetica,sans-Serif" font-size="10.00">model/WindkesselBC.h</text>
</a>
</g>
</g>
<!-- Node2&#45;&gt;Node31 -->
<g id="edge58_Node000002_Node000031" class="edge">
<title>Node2&#45;&gt;Node31</title>
<g id="a_edge58_Node000002_Node000031"><a xlink:title=" ">
<path fill="none" stroke="#63b8ff" d="M775.94,-350.3C753.21,-343.09 726.44,-332.5 705,-318 667.87,-292.88 667.25,-276.59 637,-243.5 623.75,-229.01 608.34,-212.18 599.15,-202.14"/>
<polygon fill="#63b8ff" stroke="#63b8ff" points="774.69,-353.57 785.28,-353.13 776.72,-346.88 774.69,-353.57"/>
</a>
</g>
</g>
<!-- Node3&#45;&gt;Node4 -->
<g id="edge3_Node000003_Node000004" class="edge">
<title>Node3&#45;&gt;Node4</title>
<g id="a_edge3_Node000003_Node000004"><a xlink:title=" ">
<path fill="none" stroke="#63b8ff" d="M753.88,-177.84C780.44,-166.67 817.53,-151.08 840.64,-141.36"/>
<polygon fill="#63b8ff" stroke="#63b8ff" points="752.82,-174.49 744.96,-181.59 755.54,-180.94 752.82,-174.49"/>
</a>
</g>
</g>
<!-- Node5 -->
<g id="Node000005" class="node">
<title>Node5</title>
<g id="a_Node000005"><a xlink:href="_integrator_8h.html" target="_top" xlink:title="Integrator source file.">
<polygon fill="white" stroke="#666666" points="771.62,-80.12 672.38,-80.12 672.38,-60.88 771.62,-60.88 771.62,-80.12"/>
<text text-anchor="middle" x="722" y="-66.62" font-family="Helvetica,sans-Serif" font-size="10.00">algebra/Integrator.h</text>
</a>
</g>
</g>
<!-- Node4&#45;&gt;Node5 -->
<g id="edge4_Node000004_Node000005" class="edge">
<title>Node4&#45;&gt;Node5</title>
<g id="a_edge4_Node000004_Node000005"><a xlink:title=" ">
<path fill="none" stroke="#63b8ff" d="M830.12,-116.97C803.56,-105.8 766.47,-90.2 743.36,-80.48"/>
<polygon fill="#63b8ff" stroke="#63b8ff" points="828.46,-120.07 839.04,-120.72 831.18,-113.62 828.46,-120.07"/>
</a>
</g>
</g>
<!-- Node6 -->
<g id="Node000006" class="node">
<title>Node6</title>
<g id="a_Node000006"><a xlink:href="interface_8h.html" target="_top" xlink:title="svZeroDSolver callable interface.">
<polygon fill="white" stroke="#666666" points="1167.75,-19.25 1066.25,-19.25 1066.25,0 1167.75,0 1167.75,-19.25"/>
<text text-anchor="middle" x="1117" y="-5.75" font-family="Helvetica,sans-Serif" font-size="10.00">interface/interface.h</text>
</a>
</g>
</g>
<!-- Node4&#45;&gt;Node6 -->
<g id="edge7_Node000004_Node000006" class="edge">
<title>Node4&#45;&gt;Node6</title>
<g id="a_edge7_Node000004_Node000006"><a xlink:title=" ">
<path fill="none" stroke="#63b8ff" d="M912.99,-130.78C992.41,-130.2 1139.97,-123.86 1173,-85.75 1181.88,-75.51 1178.88,-67.46 1173,-55.25 1165.28,-39.23 1148.71,-27.19 1135.59,-19.67"/>
<polygon fill="#63b8ff" stroke="#63b8ff" points="913.29,-127.28 903.3,-130.82 913.32,-134.28 913.29,-127.28"/>
</a>
</g>
</g>
<!-- Node7 -->
<g id="Node000007" class="node">
<title>Node7</title>
<g id="a_Node000007"><a xlink:href="_solver_8h.html" target="_top" xlink:title="Solver source file.">
<polygon fill="white" stroke="#666666" points="682.75,-19.25 605.25,-19.25 605.25,0 682.75,0 682.75,-19.25"/>
<text text-anchor="middle" x="644" y="-5.75" font-family="Helvetica,sans-Serif" font-size="10.00">solve/Solver.h</text>
</a>
</g>
</g>
<!-- Node4&#45;&gt;Node7 -->
<g id="edge17_Node000004_Node000007" class="edge">
<title>Node4&#45;&gt;Node7</title>
<g id="a_edge17_Node000004_Node000007"><a xlink:title=" ">
<path fill="none" stroke="#63b8ff" d="M811.08,-125.03C759.28,-118.56 683.76,-105.95 663,-85.75 644.78,-68.02 643.11,-35.52 643.48,-19.72"/>
<polygon fill="#63b8ff" stroke="#63b8ff" points="810.54,-128.49 820.88,-126.21 811.37,-121.54 810.54,-128.49"/>
</a>
</g>
</g>
<!-- Node4&#45;&gt;Node8 -->
<g id="edge8_Node000004_Node000008" class="edge">
<title>Node4&#45;&gt;Node8</title>
<g id="a_edge8_Node000004_Node000008"><a xlink:title=" ">
<path fill="none" stroke="#63b8ff" d="M913.27,-123.14C979.07,-114.51 1096.39,-99.52 1197,-85.75 1208.87,-84.13 1221.53,-82.34 1233.88,-80.6"/>
<polygon fill="#63b8ff" stroke="#63b8ff" points="912.95,-119.65 903.5,-124.43 913.87,-126.59 912.95,-119.65"/>
</a>
</g>
</g>
<!-- Node4&#45;&gt;Node9 -->
<g id="edge10_Node000004_Node000009" class="edge">
<title>Node4&#45;&gt;Node9</title>
<g id="a_edge10_Node000004_Node000009"><a xlink:title=" ">
<path fill="none" stroke="#63b8ff" d="M913.08,-126.25C1008.54,-118.52 1220.51,-101.22 1399,-85.75 1432.48,-82.85 1469.93,-79.48 1499.97,-76.74"/>
<polygon fill="#63b8ff" stroke="#63b8ff" points="912.95,-122.75 903.26,-127.05 913.51,-129.73 912.95,-122.75"/>
</a>
</g>
</g>
<!-- Node4&#45;&gt;Node10 -->
<g id="edge11_Node000004_Node000010" class="edge">
<title>Node4&#45;&gt;Node10</title>
<g id="a_edge11_Node000004_Node000010"><a xlink:title=" ">
<path fill="none" stroke="#63b8ff" d="M810.86,-126.39C732.92,-119.62 580.36,-104.74 452,-85.75 441.91,-84.26 431.13,-82.42 421.15,-80.56"/>
<polygon fill="#63b8ff" stroke="#63b8ff" points="810.49,-129.87 820.75,-127.23 811.08,-122.89 810.49,-129.87"/>
</a>
</g>
</g>
<!-- Node11 -->
<g id="Node000011" class="node">
<title>Node11</title>
<g id="a_Node000011"><a xlink:href="_levenberg_marquardt_optimizer_8h.html" target="_top" xlink:title="opt::LevenbergMarquardtOptimizer source file">
<polygon fill="white" stroke="#666666" points="934.12,-85.75 789.88,-85.75 789.88,-55.25 934.12,-55.25 934.12,-85.75"/>
<text text-anchor="start" x="797.88" y="-72.25" font-family="Helvetica,sans-Serif" font-size="10.00">optimize/LevenbergMarquardt</text>
<text text-anchor="middle" x="862" y="-61" font-family="Helvetica,sans-Serif" font-size="10.00">Optimizer.h</text>
</a>
</g>
</g>
<!-- Node4&#45;&gt;Node11 -->
<g id="edge13_Node000004_Node000011" class="edge">
<title>Node4&#45;&gt;Node11</title>
<g id="a_edge13_Node000004_Node000011"><a xlink:title=" ">
<path fill="none" stroke="#63b8ff" d="M862,-110.17C862,-102.24 862,-93.31 862,-86.03"/>
<polygon fill="#63b8ff" stroke="#63b8ff" points="858.5,-109.92 862,-119.92 865.5,-109.92 858.5,-109.92"/>
</a>
</g>
</g>
<!-- Node12 -->
<g id="Node000012" class="node">
<title>Node12</title>
<g id="a_Node000012"><a xlink:href="calibrate_8h.html" target="_top" xlink:title="opt::calibrate source file">
<polygon fill="white" stroke="#666666" points="1051.62,-80.12 952.38,-80.12 952.38,-60.88 1051.62,-60.88 1051.62,-80.12"/>
<text text-anchor="middle" x="1002" y="-66.62" font-family="Helvetica,sans-Serif" font-size="10.00">optimize/calibrate.h</text>
</a>
</g>
</g>
<!-- Node4&#45;&gt;Node12 -->
<g id="edge14_Node000004_Node000012" class="edge">
<title>Node4&#45;&gt;Node12</title>
<g id="a_edge14_Node000004_Node000012"><a xlink:title=" ">
<path fill="none" stroke="#63b8ff" d="M893.88,-116.97C920.44,-105.8 957.53,-90.2 980.64,-80.48"/>
<polygon fill="#63b8ff" stroke="#63b8ff" points="892.82,-113.62 884.96,-120.72 895.54,-120.07 892.82,-113.62"/>
</a>
</g>
</g>
<!-- Node13 -->
<g id="Node000013" class="node">
<title>Node13</title>
<g id="a_Node000013"><a xlink:href="_simulation_parameters_8h.html" target="_top" xlink:title="Source file to read simulation configuration.">
<polygon fill="white" stroke="#666666" points="615.88,-80.12 470.12,-80.12 470.12,-60.88 615.88,-60.88 615.88,-80.12"/>
<text text-anchor="middle" x="543" y="-66.62" font-family="Helvetica,sans-Serif" font-size="10.00">solve/SimulationParameters.h</text>
</a>
</g>
</g>
<!-- Node4&#45;&gt;Node13 -->
<g id="edge15_Node000004_Node000013" class="edge">
<title>Node4&#45;&gt;Node13</title>
<g id="a_edge15_Node000004_Node000013"><a xlink:title=" ">
<path fill="none" stroke="#63b8ff" d="M811.14,-120.99C751.08,-109.9 651.86,-91.59 592.43,-80.62"/>
<polygon fill="#63b8ff" stroke="#63b8ff" points="810.29,-124.39 820.76,-122.76 811.56,-117.51 810.29,-124.39"/>
</a>
</g>
</g>
<!-- Node14 -->
<g id="Node000014" class="node">
<title>Node14</title>
<g id="a_Node000014"><a xlink:href="csv__writer_8h.html" target="_top" xlink:title="csv_writer source file">
<polygon fill="white" stroke="#666666" points="1164.38,-80.12 1069.62,-80.12 1069.62,-60.88 1164.38,-60.88 1164.38,-80.12"/>
<text text-anchor="middle" x="1117" y="-66.62" font-family="Helvetica,sans-Serif" font-size="10.00">solve/csv_writer.h</text>
</a>
</g>
</g>
<!-- Node4&#45;&gt;Node14 -->
<g id="edge18_Node000004_Node000014" class="edge">
<title>Node4&#45;&gt;Node14</title>
<g id="a_edge18_Node000004_Node000014"><a xlink:title=" ">
<path fill="none" stroke="#63b8ff" d="M912.86,-119.39C953.12,-110.59 1010.75,-97.78 1061,-85.75 1067.73,-84.14 1074.9,-82.36 1081.79,-80.62"/>
<polygon fill="#63b8ff" stroke="#63b8ff" points="912.23,-115.95 903.2,-121.5 913.72,-122.78 912.23,-115.95"/>
</a>
</g>
</g>
<!-- Node5&#45;&gt;Node6 -->
<g id="edge5_Node000005_Node000006" class="edge">
<title>Node5&#45;&gt;Node6</title>
<g id="a_edge5_Node000005_Node000006"><a xlink:title=" ">
<path fill="none" stroke="#63b8ff" d="M768.33,-57.83C772.6,-56.9 776.87,-56.02 781,-55.25 881.22,-36.55 999.68,-22.72 1065.79,-15.74"/>
<polygon fill="#63b8ff" stroke="#63b8ff" points="767.57,-54.41 758.6,-60.04 769.13,-61.23 767.57,-54.41"/>
</a>
</g>
</g>
<!-- Node5&#45;&gt;Node7 -->
<g id="edge6_Node000005_Node000007" class="edge">
<title>Node5&#45;&gt;Node7</title>
<g id="a_edge6_Node000005_Node000007"><a xlink:title=" ">
<path fill="none" stroke="#63b8ff" d="M700.97,-53.63C686.54,-42.73 667.91,-28.67 655.96,-19.65"/>
<polygon fill="#63b8ff" stroke="#63b8ff" points="698.86,-56.42 708.95,-59.65 703.07,-50.83 698.86,-56.42"/>
</a>
</g>
</g>
<!-- Node8&#45;&gt;Node4 -->
<g id="edge9_Node000008_Node000004" class="edge">
<title>Node8&#45;&gt;Node4</title>
<g id="a_edge9_Node000008_Node000004"><a xlink:title=" ">
<path fill="none" stroke="#63b8ff" d="M1240.13,-82.24C1231.7,-83.44 1223.16,-84.63 1215,-85.75 1101.78,-101.24 967.41,-118.28 901.78,-126.07"/>
<polygon fill="#63b8ff" stroke="#63b8ff" points="1240.63,-85.7 1250.03,-80.82 1239.63,-78.78 1240.63,-85.7"/>
</a>
</g>
</g>
<!-- Node10&#45;&gt;Node4 -->
<g id="edge12_Node000010_Node000004" class="edge">
<title>Node10&#45;&gt;Node4</title>
<g id="a_edge12_Node000010_Node000004"><a xlink:title=" ">
<path fill="none" stroke="#63b8ff" d="M450.03,-82.54C456.79,-83.69 463.54,-84.79 470,-85.75 598.37,-104.75 750.93,-119.62 822.05,-126.39"/>
<polygon fill="#63b8ff" stroke="#63b8ff" points="450.64,-79.09 440.18,-80.82 449.43,-85.99 450.64,-79.09"/>
</a>
</g>
</g>
<!-- Node13&#45;&gt;Node7 -->
<g id="edge16_Node000013_Node000007" class="edge">
<title>Node13&#45;&gt;Node7</title>
<g id="a_edge16_Node000013_Node000007"><a xlink:title=" ">
<path fill="none" stroke="#63b8ff" d="M568.1,-54.87C587.05,-43.82 612.44,-29.02 628.52,-19.65"/>
<polygon fill="#63b8ff" stroke="#63b8ff" points="566.52,-51.74 559.65,-59.8 570.05,-57.78 566.52,-51.74"/>
</a>
</g>
</g>
<!-- Node14&#45;&gt;Node6 -->
<g id="edge19_Node000014_Node000006" class="edge">
<title>Node14&#45;&gt;Node6</title>
<g id="a_edge19_Node000014_Node000006"><a xlink:title=" ">
<path fill="none" stroke="#63b8ff" d="M1117,-49.07C1117,-39.04 1117,-27.46 1117,-19.65"/>
<polygon fill="#63b8ff" stroke="#63b8ff" points="1113.5,-49.04 1117,-59.04 1120.5,-49.04 1113.5,-49.04"/>
</a>
</g>
</g>
<!-- Node15&#45;&gt;Node4 -->
<g id="edge23_Node000015_Node000004" class="edge">
<title>Node15&#45;&gt;Node4</title>
<g id="a_edge23_Node000015_Node000004"><a xlink:title=" ">
<path fill="none" stroke="#63b8ff" d="M932.02,-292.33C920.68,-284.78 908.23,-274.69 900,-262.75 872.71,-223.15 864.78,-163.87 862.69,-141.43"/>
<polygon fill="#63b8ff" stroke="#63b8ff" points="929.95,-295.16 940.29,-297.49 933.66,-289.22 929.95,-295.16"/>
</a>
</g>
</g>
<!-- Node15&#45;&gt;Node16 -->
<g id="edge21_Node000015_Node000016" class="edge">
<title>Node15&#45;&gt;Node16</title>
<g id="a_edge21_Node000015_Node000016"><a xlink:title=" ">
<path fill="none" stroke="#63b8ff" d="M967,-288C970.52,-279.49 974.48,-269.9 977.29,-263.11"/>
<polygon fill="#63b8ff" stroke="#63b8ff" points="963.79,-286.6 963.21,-297.18 970.26,-289.28 963.79,-286.6"/>
</a>
</g>
</g>
<!-- Node16&#45;&gt;Node4 -->
<g id="edge22_Node000016_Node000004" class="edge">
<title>Node16&#45;&gt;Node4</title>
<g id="a_edge22_Node000016_Node000004"><a xlink:title=" ">
<path fill="none" stroke="#63b8ff" d="M964,-235.02C938.41,-209.26 890.87,-161.43 871.05,-141.48"/>
<polygon fill="#63b8ff" stroke="#63b8ff" points="961.46,-237.42 970.99,-242.05 966.42,-232.49 961.46,-237.42"/>
</a>
</g>
</g>
<!-- Node17&#45;&gt;Node4 -->
<g id="edge26_Node000017_Node000004" class="edge">
<title>Node17&#45;&gt;Node4</title>
<g id="a_edge26_Node000017_Node000004"><a xlink:title=" ">
<path fill="none" stroke="#63b8ff" d="M828.34,-287.4C836.56,-249.53 854.12,-168.65 860.02,-141.49"/>
<polygon fill="#63b8ff" stroke="#63b8ff" points="824.96,-286.46 826.26,-296.98 831.8,-287.95 824.96,-286.46"/>
</a>
</g>
</g>
<!-- Node17&#45;&gt;Node16 -->
<g id="edge25_Node000017_Node000016" class="edge">
<title>Node17&#45;&gt;Node16</title>
<g id="a_edge25_Node000017_Node000016"><a xlink:title=" ">
<path fill="none" stroke="#63b8ff" d="M861.43,-294.68C890.01,-284.99 928.7,-271.86 954.24,-263.2"/>
<polygon fill="#63b8ff" stroke="#63b8ff" points="860.41,-291.33 852.07,-297.86 862.66,-297.96 860.41,-291.33"/>
</a>
</g>
</g>
<!-- Node19 -->
<g id="Node000019" class="node">
<title>Node19</title>
<g id="a_Node000019"><a xlink:href="_closed_loop_coronary_left_b_c_8h.html" target="_top" xlink:title="Left side of ClosedLoopCoronaryBC.">
<polygon fill="white" stroke="#666666" points="1235.62,-207.5 1100.38,-207.5 1100.38,-177 1235.62,-177 1235.62,-207.5"/>
<text text-anchor="start" x="1108.38" y="-194" font-family="Helvetica,sans-Serif" font-size="10.00">model/ClosedLoopCoronary</text>
<text text-anchor="middle" x="1168" y="-182.75" font-family="Helvetica,sans-Serif" font-size="10.00">LeftBC.h</text>
</a>
</g>
</g>
<!-- Node18&#45;&gt;Node19 -->
<g id="edge30_Node000018_Node000019" class="edge">
<title>Node18&#45;&gt;Node19</title>
<g id="a_edge30_Node000018_Node000019"><a xlink:title=" ">
<path fill="none" stroke="#63b8ff" d="M1158.74,-232.2C1160.64,-224.2 1162.79,-215.15 1164.54,-207.78"/>
<polygon fill="#63b8ff" stroke="#63b8ff" points="1155.38,-231.17 1156.48,-241.71 1162.19,-232.79 1155.38,-231.17"/>
</a>
</g>
</g>
<!-- Node20 -->
<g id="Node000020" class="node">
<title>Node20</title>
<g id="a_Node000020"><a xlink:href="_closed_loop_coronary_right_b_c_8h.html" target="_top" xlink:title="Right side of ClosedLoopCoronaryBC.">
<polygon fill="white" stroke="#666666" points="1082.62,-207.5 947.38,-207.5 947.38,-177 1082.62,-177 1082.62,-207.5"/>
<text text-anchor="start" x="955.38" y="-194" font-family="Helvetica,sans-Serif" font-size="10.00">model/ClosedLoopCoronary</text>
<text text-anchor="middle" x="1015" y="-182.75" font-family="Helvetica,sans-Serif" font-size="10.00">RightBC.h</text>
</a>
</g>
</g>
<!-- Node18&#45;&gt;Node20 -->
<g id="edge32_Node000018_Node000020" class="edge">
<title>Node18&#45;&gt;Node20</title>
<g id="a_edge32_Node000018_Node000020"><a xlink:title=" ">
<path fill="none" stroke="#63b8ff" d="M1122.28,-238.69C1100.63,-229.52 1071.95,-217.37 1049.69,-207.94"/>
<polygon fill="#63b8ff" stroke="#63b8ff" points="1120.62,-241.79 1131.19,-242.46 1123.35,-235.34 1120.62,-241.79"/>
</a>
</g>
</g>
<!-- Node19&#45;&gt;Node4 -->
<g id="edge31_Node000019_Node000004" class="edge">
<title>Node19&#45;&gt;Node4</title>
<g id="a_edge31_Node000019_Node000004"><a xlink:title=" ">
<path fill="none" stroke="#63b8ff" d="M1089.12,-176.07C1029.06,-164.52 948.91,-149.1 901.64,-140"/>
<polygon fill="#63b8ff" stroke="#63b8ff" points="1088.12,-179.45 1098.6,-177.9 1089.44,-172.57 1088.12,-179.45"/>
</a>
</g>
</g>
<!-- Node20&#45;&gt;Node4 -->
<g id="edge33_Node000020_Node000004" class="edge">
<title>Node20&#45;&gt;Node4</title>
<g id="a_edge33_Node000020_Node000004"><a xlink:title=" ">
<path fill="none" stroke="#63b8ff" d="M966.34,-172.53C939.31,-162.13 906.91,-149.66 885.46,-141.4"/>
<polygon fill="#63b8ff" stroke="#63b8ff" points="964.78,-175.68 975.37,-176 967.3,-169.14 964.78,-175.68"/>
</a>
</g>
</g>
<!-- Node21&#45;&gt;Node4 -->
<g id="edge36_Node000021_Node000004" class="edge">
<title>Node21&#45;&gt;Node4</title>
<g id="a_edge36_Node000021_Node000004"><a xlink:title=" ">
<path fill="none" stroke="#63b8ff" d="M1217.3,-291.27C1226.31,-283.72 1235.72,-273.92 1241,-262.75 1257.31,-228.26 1270.37,-205.5 1245,-177 1222.44,-151.66 995.38,-138.47 901.89,-134.07"/>
<polygon fill="#63b8ff" stroke="#63b8ff" points="1215.2,-288.47 1209.43,-297.36 1219.48,-294.01 1215.2,-288.47"/>
</a>
</g>
</g>
<!-- Node21&#45;&gt;Node18 -->
<g id="edge35_Node000021_Node000018" class="edge">
<title>Node21&#45;&gt;Node18</title>
<g id="a_edge35_Node000021_Node000018"><a xlink:title=" ">
<path fill="none" stroke="#63b8ff" d="M1180.53,-289.44C1173.88,-280.59 1166.14,-270.29 1160.75,-263.11"/>
<polygon fill="#63b8ff" stroke="#63b8ff" points="1177.68,-291.48 1186.49,-297.37 1183.28,-287.27 1177.68,-291.48"/>
</a>
</g>
</g>
<!-- Node22&#45;&gt;Node4 -->
<g id="edge38_Node000022_Node000004" class="edge">
<title>Node22&#45;&gt;Node4</title>
<g id="a_edge38_Node000022_Node000004"><a xlink:title=" ">
<path fill="none" stroke="#63b8ff" d="M1356.35,-289.16C1335.09,-256.56 1290.01,-190.38 1266,-177 1204.13,-142.52 990.86,-134.67 901.69,-132.9"/>
<polygon fill="#63b8ff" stroke="#63b8ff" points="1353.17,-290.69 1361.53,-297.19 1359.04,-286.89 1353.17,-290.69"/>
</a>
</g>
</g>
<!-- Node23&#45;&gt;Node4 -->
<g id="edge40_Node000023_Node000004" class="edge">
<title>Node23&#45;&gt;Node4</title>
<g id="a_edge40_Node000023_Node000004"><a xlink:title=" ">
<path fill="none" stroke="#63b8ff" d="M1404.47,-234.81C1388.33,-216.9 1360.48,-189.82 1330,-177 1253.07,-144.65 1000.4,-135.51 901.86,-133.14"/>
<polygon fill="#63b8ff" stroke="#63b8ff" points="1401.6,-236.83 1410.81,-242.07 1406.87,-232.23 1401.6,-236.83"/>
</a>
</g>
</g>
<!-- Node24&#45;&gt;Node4 -->
<g id="edge42_Node000024_Node000004" class="edge">
<title>Node24&#45;&gt;Node4</title>
<g id="a_edge42_Node000024_Node000004"><a xlink:title=" ">
<path fill="none" stroke="#63b8ff" d="M1528.37,-288.67C1520.56,-274.86 1508.47,-256.32 1494,-243.5 1446.31,-201.25 1428.14,-194.93 1367,-177 1279.9,-151.46 1005.35,-138.11 901.94,-133.88"/>
<polygon fill="#63b8ff" stroke="#63b8ff" points="1525.15,-290.05 1532.98,-297.19 1531.31,-286.73 1525.15,-290.05"/>
</a>
</g>
</g>
<!-- Node25&#45;&gt;Node4 -->
<g id="edge46_Node000025_Node000004" class="edge">
<title>Node25&#45;&gt;Node4</title>
<g id="a_edge46_Node000025_Node000004"><a xlink:title=" ">
<path fill="none" stroke="#63b8ff" d="M97.88,-232.23C94.79,-215.14 93.82,-191.08 108,-177 133.55,-151.64 670.21,-136.95 822.2,-133.29"/>
<polygon fill="#63b8ff" stroke="#63b8ff" points="94.4,-232.73 99.98,-241.73 101.24,-231.21 94.4,-232.73"/>
</a>
</g>
</g>
<!-- Node26&#45;&gt;Node4 -->
<g id="edge48_Node000026_Node000004" class="edge">
<title>Node26&#45;&gt;Node4</title>
<g id="a_edge48_Node000026_Node000004"><a xlink:title=" ">
<path fill="none" stroke="#63b8ff" d="M255.34,-180.46C263.95,-179.18 272.68,-177.98 281,-177 483.69,-153.03 727.75,-139.13 822.09,-134.31"/>
<polygon fill="#63b8ff" stroke="#63b8ff" points="254.99,-176.97 245.63,-181.94 256.05,-183.89 254.99,-176.97"/>
</a>
</g>
</g>
<!-- Node27&#45;&gt;Node4 -->
<g id="edge51_Node000027_Node000004" class="edge">
<title>Node27&#45;&gt;Node4</title>
<g id="a_edge51_Node000027_Node000004"><a xlink:title=" ">
<path fill="none" stroke="#63b8ff" d="M291.11,-287.33C286.79,-258.37 283.92,-205.22 314,-177 350.89,-142.38 702.49,-134.5 822.27,-132.81"/>
<polygon fill="#63b8ff" stroke="#63b8ff" points="287.62,-287.68 292.77,-296.94 294.52,-286.49 287.62,-287.68"/>
</a>
</g>
</g>
<!-- Node28&#45;&gt;Node4 -->
<g id="edge53_Node000028_Node000004" class="edge">
<title>Node28&#45;&gt;Node4</title>
<g id="a_edge53_Node000028_Node000004"><a xlink:title=" ">
<path fill="none" stroke="#63b8ff" d="M434.58,-180.11C440.78,-178.98 447.02,-177.92 453,-177 587.68,-156.37 748.73,-141.71 822.08,-135.57"/>
<polygon fill="#63b8ff" stroke="#63b8ff" points="434.2,-176.62 425.02,-181.92 435.5,-183.5 434.2,-176.62"/>
</a>
</g>
</g>
<!-- Node29&#45;&gt;Node4 -->
<g id="edge55_Node000029_Node000004" class="edge">
<title>Node29&#45;&gt;Node4</title>
<g id="a_edge55_Node000029_Node000004"><a xlink:title=" ">
<path fill="none" stroke="#63b8ff" d="M456.29,-233.74C468.26,-216.01 488.89,-190 514,-177 566.94,-149.59 742.39,-138.01 822.04,-134.07"/>
<polygon fill="#63b8ff" stroke="#63b8ff" points="453.58,-231.49 451.1,-241.79 459.46,-235.29 453.58,-231.49"/>
</a>
</g>
</g>
<!-- Node30&#45;&gt;Node4 -->
<g id="edge57_Node000030_Node000004" class="edge">
<title>Node30&#45;&gt;Node4</title>
<g id="a_edge57_Node000030_Node000004"><a xlink:title=" ">
<path fill="none" stroke="#63b8ff" d="M550.97,-237C540.52,-229.59 529.71,-219.63 524,-207.5 518.23,-195.24 515.06,-187.19 524,-177 543.41,-154.86 736.89,-140.17 822.08,-134.73"/>
<polygon fill="#63b8ff" stroke="#63b8ff" points="548.76,-239.73 559.05,-242.25 552.57,-233.86 548.76,-239.73"/>
</a>
</g>
</g>
<!-- Node31&#45;&gt;Node4 -->
<g id="edge59_Node000031_Node000004" class="edge">
<title>Node31&#45;&gt;Node4</title>
<g id="a_edge59_Node000031_Node000004"><a xlink:title=" ">
<path fill="none" stroke="#63b8ff" d="M643.82,-179.77C696.19,-168.4 775.22,-151.23 822.41,-140.98"/>
<polygon fill="#63b8ff" stroke="#63b8ff" points="643.26,-176.32 634.23,-181.86 644.74,-183.16 643.26,-176.32"/>
</a>
</g>
</g>
<!-- Node32&#45;&gt;Node4 -->
<g id="edge61_Node000032_Node000004" class="edge">
<title>Node32&#45;&gt;Node4</title>
<g id="a_edge61_Node000032_Node000004"><a xlink:title=" ">
<path fill="none" stroke="#63b8ff" d="M1352.97,-360.04C1447.04,-354.67 1642.8,-340.85 1663,-318 1668.67,-311.59 1667.49,-306.03 1663,-298.75 1599.83,-196.25 1536.94,-209.45 1421,-177 1323.03,-149.58 1012.44,-137.19 901.7,-133.56"/>
<polygon fill="#63b8ff" stroke="#63b8ff" points="1352.79,-356.55 1343,-360.6 1353.18,-363.54 1352.79,-356.55"/>
</a>
</g>
</g>
</g>
</svg>
