<?xml version="1.0" encoding="UTF-8" standalone="no"?>
<!DOCTYPE svg PUBLIC "-//W3C//DTD SVG 1.1//EN"
 "http://www.w3.org/Graphics/SVG/1.1/DTD/svg11.dtd">
<!-- Generated by graphviz version 12.1.1 (20240910.0053)
 -->
<!-- Title: model/Block.h Pages: 1 -->
<svg width="1622pt" height="381pt"
 viewBox="0.00 0.00 1621.88 381.25" xmlns="http://www.w3.org/2000/svg" xmlns:xlink="http://www.w3.org/1999/xlink">
<g id="graph0" class="graph" transform="scale(1 1) rotate(0) translate(4 377.25)">
<title>model/Block.h</title>
<!-- Node1 -->
<g id="Node000001" class="node">
<title>Node1</title>
<g id="a_Node000001"><a xlink:title="model::Block source file">
<polygon fill="#999999" stroke="#666666" points="839.88,-373.25 762.38,-373.25 762.38,-354 839.88,-354 839.88,-373.25"/>
<text text-anchor="middle" x="801.12" y="-359.75" font-family="Helvetica,sans-Serif" font-size="10.00">model/Block.h</text>
</a>
</g>
</g>
<!-- Node2 -->
<g id="Node000002" class="node">
<title>Node2</title>
<g id="a_Node000002"><a xlink:href="_block_factory_8h.html" target="_top" xlink:title="Define the block factory functional.">
<polygon fill="white" stroke="#666666" points="958,-262.75 848.25,-262.75 848.25,-243.5 958,-243.5 958,-262.75"/>
<text text-anchor="middle" x="903.12" y="-249.25" font-family="Helvetica,sans-Serif" font-size="10.00">model/BlockFactory.h</text>
</a>
</g>
</g>
<!-- Node1&#45;&gt;Node2 -->
<g id="edge1_Node000001_Node000002" class="edge">
<title>Node1&#45;&gt;Node2</title>
<g id="a_edge1_Node000001_Node000002"><a xlink:title=" ">
<path fill="none" stroke="#63b8ff" d="M817.25,-345.47C839.19,-322.13 877.68,-281.19 894.66,-263.13"/>
<polygon fill="#63b8ff" stroke="#63b8ff" points="814.81,-342.96 810.51,-352.64 819.91,-347.75 814.81,-342.96"/>
</a>
</g>
</g>
<!-- Node3 -->
<g id="Node000003" class="node">
<title>Node3</title>
<g id="a_Node000003"><a xlink:href="_model_8h.html" target="_top" xlink:title="model::Model source file">
<polygon fill="white" stroke="#666666" points="982.62,-141 903.62,-141 903.62,-121.75 982.62,-121.75 982.62,-141"/>
<text text-anchor="middle" x="943.12" y="-127.5" font-family="Helvetica,sans-Serif" font-size="10.00">model/Model.h</text>
</a>
</g>
</g>
<!-- Node1&#45;&gt;Node3 -->
<g id="edge43_Node000001_Node000003" class="edge">
<title>Node1&#45;&gt;Node3</title>
<g id="a_edge43_Node000001_Node000003"><a xlink:title=" ">
<path fill="none" stroke="#63b8ff" d="M805.36,-342.59C812.04,-312.62 825.66,-258.08 839.12,-243.5 867.79,-212.46 900.03,-239.92 927.12,-207.5 943.2,-188.26 944.29,-156.77 943.74,-141.39"/>
<polygon fill="#63b8ff" stroke="#63b8ff" points="801.96,-341.74 803.26,-352.26 808.8,-343.23 801.96,-341.74"/>
</a>
</g>
</g>
<!-- Node7 -->
<g id="Node000007" class="node">
<title>Node7</title>
<g id="a_Node000007"><a xlink:href="_chamber_elastance_inductor_8h.html" target="_top" xlink:title="model::ChamberElastanceInductor source file">
<polygon fill="white" stroke="#666666" points="1328,-80.12 1158.25,-80.12 1158.25,-60.88 1328,-60.88 1328,-80.12"/>
<text text-anchor="middle" x="1243.12" y="-66.62" font-family="Helvetica,sans-Serif" font-size="10.00">model/ChamberElastanceInductor.h</text>
</a>
</g>
</g>
<!-- Node1&#45;&gt;Node7 -->
<g id="edge27_Node000001_Node000007" class="edge">
<title>Node1&#45;&gt;Node7</title>
<g id="a_edge27_Node000001_Node000007"><a xlink:title=" ">
<path fill="none" stroke="#63b8ff" d="M851.68,-360.95C989.58,-356.12 1365.3,-340.98 1416.12,-318 1453.03,-301.32 1481.12,-294.63 1481.12,-254.12 1481.12,-254.12 1481.12,-254.12 1481.12,-191.25 1481.12,-145.8 1340.9,-99.57 1275.72,-80.53"/>
<polygon fill="#63b8ff" stroke="#63b8ff" points="851.63,-357.45 841.76,-361.3 851.87,-364.45 851.63,-357.45"/>
</a>
</g>
</g>
<!-- Node8 -->
<g id="Node000008" class="node">
<title>Node8</title>
<g id="a_Node000008"><a xlink:href="_kung_ventricle_8h.html" target="_top" xlink:title="model::KungVentricle source file">
<polygon fill="white" stroke="#666666" points="1613.88,-80.12 1500.38,-80.12 1500.38,-60.88 1613.88,-60.88 1613.88,-80.12"/>
<text text-anchor="middle" x="1557.12" y="-66.62" font-family="Helvetica,sans-Serif" font-size="10.00">model/KungVentricle.h</text>
</a>
</g>
</g>
<!-- Node1&#45;&gt;Node8 -->
<g id="edge42_Node000001_Node000008" class="edge">
<title>Node1&#45;&gt;Node8</title>
<g id="a_edge42_Node000001_Node000008"><a xlink:title=" ">
<path fill="none" stroke="#63b8ff" d="M851.66,-361.22C999.95,-356.82 1427.19,-342.18 1485.12,-318 1524.6,-301.52 1557.12,-296.9 1557.12,-254.12 1557.12,-254.12 1557.12,-254.12 1557.12,-191.25 1557.12,-149.88 1557.12,-100.47 1557.12,-80.51"/>
<polygon fill="#63b8ff" stroke="#63b8ff" points="851.64,-357.72 841.75,-361.51 851.85,-364.71 851.64,-357.72"/>
</a>
</g>
</g>
<!-- Node9 -->
<g id="Node000009" class="node">
<title>Node9</title>
<g id="a_Node000009"><a xlink:href="_regazzoni_chamber_8h.html" target="_top" xlink:title="model::RegazzoniChamber source file">
<polygon fill="white" stroke="#666666" points="1482.12,-80.12 1346.12,-80.12 1346.12,-60.88 1482.12,-60.88 1482.12,-80.12"/>
<text text-anchor="middle" x="1414.12" y="-66.62" font-family="Helvetica,sans-Serif" font-size="10.00">model/RegazzoniChamber.h</text>
</a>
</g>
</g>
<!-- Node1&#45;&gt;Node9 -->
<g id="edge48_Node000001_Node000009" class="edge">
<title>Node1&#45;&gt;Node9</title>
<g id="a_edge48_Node000001_Node000009"><a xlink:title=" ">
<path fill="none" stroke="#63b8ff" d="M851.49,-361.09C994.41,-356.46 1395.73,-341.5 1450.12,-318 1488.49,-301.43 1519.12,-295.91 1519.12,-254.12 1519.12,-254.12 1519.12,-254.12 1519.12,-191.25 1519.12,-138.44 1460.68,-97.77 1431,-80.53"/>
<polygon fill="#63b8ff" stroke="#63b8ff" points="851.46,-357.59 841.58,-361.41 851.68,-364.58 851.46,-357.59"/>
</a>
</g>
</g>
<!-- Node14 -->
<g id="Node000014" class="node">
<title>Node14</title>
<g id="a_Node000014"><a xlink:href="_blood_vessel_8h.html" target="_top" xlink:title="model::BloodVessel source file">
<polygon fill="white" stroke="#666666" points="1176.88,-318 1069.38,-318 1069.38,-298.75 1176.88,-298.75 1176.88,-318"/>
<text text-anchor="middle" x="1123.12" y="-304.5" font-family="Helvetica,sans-Serif" font-size="10.00">model/BloodVessel.h</text>
</a>
</g>
</g>
<!-- Node1&#45;&gt;Node14 -->
<g id="edge19_Node000001_Node000014" class="edge">
<title>Node1&#45;&gt;Node14</title>
<g id="a_edge19_Node000001_Node000014"><a xlink:title=" ">
<path fill="none" stroke="#63b8ff" d="M851.58,-354.28C910.7,-344.5 1008.28,-328.37 1068.96,-318.33"/>
<polygon fill="#63b8ff" stroke="#63b8ff" points="851.07,-350.82 841.78,-355.9 852.22,-357.72 851.07,-350.82"/>
</a>
</g>
</g>
<!-- Node15 -->
<g id="Node000015" class="node">
<title>Node15</title>
<g id="a_Node000015"><a xlink:href="_blood_vessel_junction_8h.html" target="_top" xlink:title="model::BloodVesselJunction source file">
<polygon fill="white" stroke="#666666" points="1120.25,-262.75 976,-262.75 976,-243.5 1120.25,-243.5 1120.25,-262.75"/>
<text text-anchor="middle" x="1048.12" y="-249.25" font-family="Helvetica,sans-Serif" font-size="10.00">model/BloodVesselJunction.h</text>
</a>
</g>
</g>
<!-- Node1&#45;&gt;Node15 -->
<g id="edge26_Node000001_Node000015" class="edge">
<title>Node1&#45;&gt;Node15</title>
<g id="a_edge26_Node000001_Node000015"><a xlink:title=" ">
<path fill="none" stroke="#63b8ff" d="M824.72,-347.85C847.53,-333.98 883.34,-313.25 916.12,-298.75 949.31,-284.07 988.92,-271.27 1016.04,-263.19"/>
<polygon fill="#63b8ff" stroke="#63b8ff" points="823.19,-344.68 816.51,-352.9 826.86,-350.65 823.19,-344.68"/>
</a>
</g>
</g>
<!-- Node16 -->
<g id="Node000016" class="node">
<title>Node16</title>
<g id="a_Node000016"><a xlink:href="_blood_vessel_c_r_l_8h.html" target="_top" xlink:title="model::BloodVesselCRL source file">
<polygon fill="white" stroke="#666666" points="1051.62,-318 924.62,-318 924.62,-298.75 1051.62,-298.75 1051.62,-318"/>
<text text-anchor="middle" x="988.12" y="-304.5" font-family="Helvetica,sans-Serif" font-size="10.00">model/BloodVesselCRL.h</text>
</a>
</g>
</g>
<!-- Node1&#45;&gt;Node16 -->
<g id="edge23_Node000001_Node000016" class="edge">
<title>Node1&#45;&gt;Node16</title>
<g id="a_edge23_Node000001_Node000016"><a xlink:title=" ">
<path fill="none" stroke="#63b8ff" d="M843.91,-350.44C878.11,-340.7 925.3,-327.27 956.25,-318.45"/>
<polygon fill="#63b8ff" stroke="#63b8ff" points="842.96,-347.07 834.3,-353.18 844.88,-353.8 842.96,-347.07"/>
</a>
</g>
</g>
<!-- Node17 -->
<g id="Node000017" class="node">
<title>Node17</title>
<g id="a_Node000017"><a xlink:href="_closed_loop_coronary_b_c_8h.html" target="_top" xlink:title="model::ClosedLoopCoronaryBC source file">
<polygon fill="white" stroke="#666666" points="1384.25,-262.75 1228,-262.75 1228,-243.5 1384.25,-243.5 1384.25,-262.75"/>
<text text-anchor="middle" x="1306.12" y="-249.25" font-family="Helvetica,sans-Serif" font-size="10.00">model/ClosedLoopCoronaryBC.h</text>
</a>
</g>
</g>
<!-- Node1&#45;&gt;Node17 -->
<g id="edge28_Node000001_Node000017" class="edge">
<title>Node1&#45;&gt;Node17</title>
<g id="a_edge28_Node000001_Node000017"><a xlink:title=" ">
<path fill="none" stroke="#63b8ff" d="M851.76,-362.7C926.57,-361.5 1070.27,-354.13 1186.12,-318 1191.62,-316.29 1258.37,-280.12 1289.87,-262.99"/>
<polygon fill="#63b8ff" stroke="#63b8ff" points="851.83,-359.2 841.88,-362.83 851.92,-366.2 851.83,-359.2"/>
</a>
</g>
</g>
<!-- Node20 -->
<g id="Node000020" class="node">
<title>Node20</title>
<g id="a_Node000020"><a xlink:href="_closed_loop_heart_pulmonary_8h.html" target="_top" xlink:title="model::ClosedLoopHeartPulmonary source file">
<polygon fill="white" stroke="#666666" points="1407.25,-318 1233,-318 1233,-298.75 1407.25,-298.75 1407.25,-318"/>
<text text-anchor="middle" x="1320.12" y="-304.5" font-family="Helvetica,sans-Serif" font-size="10.00">model/ClosedLoopHeartPulmonary.h</text>
</a>
</g>
</g>
<!-- Node1&#45;&gt;Node20 -->
<g id="edge33_Node000001_Node000020" class="edge">
<title>Node1&#45;&gt;Node20</title>
<g id="a_edge33_Node000001_Node000020"><a xlink:title=" ">
<path fill="none" stroke="#63b8ff" d="M851.42,-357.46C939.63,-348.41 1123.22,-329.58 1232.62,-318.35"/>
<polygon fill="#63b8ff" stroke="#63b8ff" points="851.23,-353.97 841.64,-358.47 851.95,-360.93 851.23,-353.97"/>
</a>
</g>
</g>
<!-- Node21 -->
<g id="Node000021" class="node">
<title>Node21</title>
<g id="a_Node000021"><a xlink:href="_closed_loop_r_c_r_b_c_8h.html" target="_top" xlink:title="model::ClosedLoopRCRBC source file">
<polygon fill="white" stroke="#666666" points="138.25,-262.75 0,-262.75 0,-243.5 138.25,-243.5 138.25,-262.75"/>
<text text-anchor="middle" x="69.12" y="-249.25" font-family="Helvetica,sans-Serif" font-size="10.00">model/ClosedLoopRCRBC.h</text>
</a>
</g>
</g>
<!-- Node1&#45;&gt;Node21 -->
<g id="edge36_Node000001_Node000021" class="edge">
<title>Node1&#45;&gt;Node21</title>
<g id="a_edge36_Node000001_Node000021"><a xlink:title=" ">
<path fill="none" stroke="#63b8ff" d="M750.75,-362.75C596.77,-362.69 139.68,-359.02 88.12,-318 71.29,-304.6 68.89,-276.95 68.83,-262.84"/>
<polygon fill="#63b8ff" stroke="#63b8ff" points="750.64,-366.25 760.64,-362.75 750.64,-359.25 750.64,-366.25"/>
</a>
</g>
</g>
<!-- Node22 -->
<g id="Node000022" class="node">
<title>Node22</title>
<g id="a_Node000022"><a xlink:href="_flow_reference_b_c_8h.html" target="_top" xlink:title="model::FlowReferenceBC source file">
<polygon fill="white" stroke="#666666" points="228.88,-318 97.38,-318 97.38,-298.75 228.88,-298.75 228.88,-318"/>
<text text-anchor="middle" x="163.12" y="-304.5" font-family="Helvetica,sans-Serif" font-size="10.00">model/FlowReferenceBC.h</text>
</a>
</g>
</g>
<!-- Node1&#45;&gt;Node22 -->
<g id="edge38_Node000001_Node000022" class="edge">
<title>Node1&#45;&gt;Node22</title>
<g id="a_edge38_Node000001_Node000022"><a xlink:title=" ">
<path fill="none" stroke="#63b8ff" d="M750.8,-359.24C652.29,-352.47 427.09,-336.35 238.12,-318 235.26,-317.72 232.32,-317.43 229.36,-317.12"/>
<polygon fill="#63b8ff" stroke="#63b8ff" points="750.45,-362.72 760.67,-359.91 750.93,-355.74 750.45,-362.72"/>
</a>
</g>
</g>
<!-- Node23 -->
<g id="Node000023" class="node">
<title>Node23</title>
<g id="a_Node000023"><a xlink:href="_junction_8h.html" target="_top" xlink:title="model::Junction source file">
<polygon fill="white" stroke="#666666" points="336.88,-318 247.38,-318 247.38,-298.75 336.88,-298.75 336.88,-318"/>
<text text-anchor="middle" x="292.12" y="-304.5" font-family="Helvetica,sans-Serif" font-size="10.00">model/Junction.h</text>
</a>
</g>
</g>
<!-- Node1&#45;&gt;Node23 -->
<g id="edge40_Node000001_Node000023" class="edge">
<title>Node1&#45;&gt;Node23</title>
<g id="a_edge40_Node000001_Node000023"><a xlink:title=" ">
<path fill="none" stroke="#63b8ff" d="M750.52,-358.38C667.15,-351.2 495.73,-335.73 351.12,-318 346.6,-317.45 341.89,-316.83 337.19,-316.18"/>
<polygon fill="#63b8ff" stroke="#63b8ff" points="750.16,-361.86 760.42,-359.22 750.76,-354.88 750.16,-361.86"/>
</a>
</g>
</g>
<!-- Node24 -->
<g id="Node000024" class="node">
<title>Node24</title>
<g id="a_Node000024"><a xlink:href="_open_loop_coronary_b_c_8h.html" target="_top" xlink:title="model::OpenLoopCoronaryBC source file">
<polygon fill="white" stroke="#666666" points="381.88,-201.88 232.38,-201.88 232.38,-182.62 381.88,-182.62 381.88,-201.88"/>
<text text-anchor="middle" x="307.12" y="-188.38" font-family="Helvetica,sans-Serif" font-size="10.00">model/OpenLoopCoronaryBC.h</text>
</a>
</g>
</g>
<!-- Node1&#45;&gt;Node24 -->
<g id="edge44_Node000001_Node000024" class="edge">
<title>Node1&#45;&gt;Node24</title>
<g id="a_edge44_Node000001_Node000024"><a xlink:title=" ">
<path fill="none" stroke="#63b8ff" d="M750.6,-359.9C684.5,-355.43 565.51,-344.24 467.12,-318 404.48,-301.29 376.97,-309.57 332.12,-262.75 315.63,-245.53 309.91,-216.64 308.01,-202.13"/>
<polygon fill="#63b8ff" stroke="#63b8ff" points="750.21,-363.38 760.41,-360.54 750.66,-356.4 750.21,-363.38"/>
</a>
</g>
</g>
<!-- Node25 -->
<g id="Node000025" class="node">
<title>Node25</title>
<g id="a_Node000025"><a xlink:href="_pressure_reference_b_c_8h.html" target="_top" xlink:title="model::PressureReferenceBC source file">
<polygon fill="white" stroke="#666666" points="490.88,-262.75 341.38,-262.75 341.38,-243.5 490.88,-243.5 490.88,-262.75"/>
<text text-anchor="middle" x="416.12" y="-249.25" font-family="Helvetica,sans-Serif" font-size="10.00">model/PressureReferenceBC.h</text>
</a>
</g>
</g>
<!-- Node1&#45;&gt;Node25 -->
<g id="edge46_Node000001_Node000025" class="edge">
<title>Node1&#45;&gt;Node25</title>
<g id="a_edge46_Node000001_Node000025"><a xlink:title=" ">
<path fill="none" stroke="#63b8ff" d="M750.73,-362.15C690.26,-360 586.82,-351.21 505.12,-318 472.35,-304.68 440.22,-277 425.1,-262.85"/>
<polygon fill="#63b8ff" stroke="#63b8ff" points="750.62,-365.65 760.72,-362.45 750.83,-358.65 750.62,-365.65"/>
</a>
</g>
</g>
<!-- Node26 -->
<g id="Node000026" class="node">
<title>Node26</title>
<g id="a_Node000026"><a xlink:href="_regazzoni_valve_8h.html" target="_top" xlink:title="model::RegazzoniValve source file">
<polygon fill="white" stroke="#666666" points="560,-201.88 438.25,-201.88 438.25,-182.62 560,-182.62 560,-201.88"/>
<text text-anchor="middle" x="499.12" y="-188.38" font-family="Helvetica,sans-Serif" font-size="10.00">model/RegazzoniValve.h</text>
</a>
</g>
</g>
<!-- Node1&#45;&gt;Node26 -->
<g id="edge49_Node000001_Node000026" class="edge">
<title>Node1&#45;&gt;Node26</title>
<g id="a_edge49_Node000001_Node000026"><a xlink:title=" ">
<path fill="none" stroke="#63b8ff" d="M750.76,-360.16C683.72,-355.88 570.01,-344.8 539.12,-318 503.73,-287.3 499.4,-225.23 499.06,-202.15"/>
<polygon fill="#63b8ff" stroke="#63b8ff" points="750.2,-363.63 760.4,-360.75 750.63,-356.65 750.2,-363.63"/>
</a>
</g>
</g>
<!-- Node27 -->
<g id="Node000027" class="node">
<title>Node27</title>
<g id="a_Node000027"><a xlink:href="_resistance_b_c_8h.html" target="_top" xlink:title="model::ResistanceBC source file">
<polygon fill="white" stroke="#666666" points="662.62,-318 547.62,-318 547.62,-298.75 662.62,-298.75 662.62,-318"/>
<text text-anchor="middle" x="605.12" y="-304.5" font-family="Helvetica,sans-Serif" font-size="10.00">model/ResistanceBC.h</text>
</a>
</g>
</g>
<!-- Node1&#45;&gt;Node27 -->
<g id="edge51_Node000001_Node000027" class="edge">
<title>Node1&#45;&gt;Node27</title>
<g id="a_edge51_Node000001_Node000027"><a xlink:title=" ">
<path fill="none" stroke="#63b8ff" d="M757.22,-350.7C721.3,-340.94 671.26,-327.34 638.54,-318.45"/>
<polygon fill="#63b8ff" stroke="#63b8ff" points="755.85,-353.95 766.42,-353.2 757.68,-347.2 755.85,-353.95"/>
</a>
</g>
</g>
<!-- Node28 -->
<g id="Node000028" class="node">
<title>Node28</title>
<g id="a_Node000028"><a xlink:href="_resistive_junction_8h.html" target="_top" xlink:title="model::ResistiveJunction source file">
<polygon fill="white" stroke="#666666" points="746.12,-201.88 616.12,-201.88 616.12,-182.62 746.12,-182.62 746.12,-201.88"/>
<text text-anchor="middle" x="681.12" y="-188.38" font-family="Helvetica,sans-Serif" font-size="10.00">model/ResistiveJunction.h</text>
</a>
</g>
</g>
<!-- Node1&#45;&gt;Node28 -->
<g id="edge53_Node000001_Node000028" class="edge">
<title>Node1&#45;&gt;Node28</title>
<g id="a_edge53_Node000001_Node000028"><a xlink:title=" ">
<path fill="none" stroke="#63b8ff" d="M761.03,-349.62C723.47,-335.05 669.57,-307.43 645.12,-262.75 633.38,-241.29 655.95,-215.65 670.39,-202.32"/>
<polygon fill="#63b8ff" stroke="#63b8ff" points="759.62,-352.83 770.21,-353.03 762.05,-346.27 759.62,-352.83"/>
</a>
</g>
</g>
<!-- Node29 -->
<g id="Node000029" class="node">
<title>Node29</title>
<g id="a_Node000029"><a xlink:href="_valve_tanh_8h.html" target="_top" xlink:title="model::ValveTanh source file">
<polygon fill="white" stroke="#666666" points="753.75,-262.75 654.5,-262.75 654.5,-243.5 753.75,-243.5 753.75,-262.75"/>
<text text-anchor="middle" x="704.12" y="-249.25" font-family="Helvetica,sans-Serif" font-size="10.00">model/ValveTanh.h</text>
</a>
</g>
</g>
<!-- Node1&#45;&gt;Node29 -->
<g id="edge55_Node000001_Node000029" class="edge">
<title>Node1&#45;&gt;Node29</title>
<g id="a_edge55_Node000001_Node000029"><a xlink:title=" ">
<path fill="none" stroke="#63b8ff" d="M785.51,-345.16C764.6,-321.77 728.25,-281.11 712.17,-263.13"/>
<polygon fill="#63b8ff" stroke="#63b8ff" points="782.9,-347.5 792.18,-352.62 788.12,-342.83 782.9,-347.5"/>
</a>
</g>
</g>
<!-- Node30 -->
<g id="Node000030" class="node">
<title>Node30</title>
<g id="a_Node000030"><a xlink:href="_windkessel_b_c_8h.html" target="_top" xlink:title="model::WindkesselBC source file">
<polygon fill="white" stroke="#666666" points="918.38,-201.88 801.88,-201.88 801.88,-182.62 918.38,-182.62 918.38,-201.88"/>
<text text-anchor="middle" x="860.12" y="-188.38" font-family="Helvetica,sans-Serif" font-size="10.00">model/WindkesselBC.h</text>
</a>
</g>
</g>
<!-- Node1&#45;&gt;Node30 -->
<g id="edge57_Node000001_Node000030" class="edge">
<title>Node1&#45;&gt;Node30</title>
<g id="a_edge57_Node000001_Node000030"><a xlink:title=" ">
<path fill="none" stroke="#63b8ff" d="M797.52,-342.65C794.07,-318.08 791.3,-275.68 806.12,-243.5 814.38,-225.59 832.24,-211.04 845.17,-202.29"/>
<polygon fill="#63b8ff" stroke="#63b8ff" points="794.02,-342.91 799.07,-352.23 800.93,-341.8 794.02,-342.91"/>
</a>
</g>
</g>
<!-- Node2&#45;&gt;Node3 -->
<g id="edge2_Node000002_Node000003" class="edge">
<title>Node2&#45;&gt;Node3</title>
<g id="a_edge2_Node000002_Node000003"><a xlink:title=" ">
<path fill="none" stroke="#63b8ff" d="M932.07,-237.01C942.96,-229.68 954.14,-219.78 960.12,-207.5 971.02,-185.14 957.11,-155.61 948.69,-141.14"/>
<polygon fill="#63b8ff" stroke="#63b8ff" points="930.29,-233.99 923.61,-242.21 933.96,-239.96 930.29,-233.99"/>
</a>
</g>
</g>
<!-- Node4 -->
<g id="Node000004" class="node">
<title>Node4</title>
<g id="a_Node000004"><a xlink:href="_integrator_8h.html" target="_top" xlink:title="Integrator source file.">
<polygon fill="white" stroke="#666666" points="709.75,-80.12 610.5,-80.12 610.5,-60.88 709.75,-60.88 709.75,-80.12"/>
<text text-anchor="middle" x="660.12" y="-66.62" font-family="Helvetica,sans-Serif" font-size="10.00">algebra/Integrator.h</text>
</a>
</g>
</g>
<!-- Node3&#45;&gt;Node4 -->
<g id="edge3_Node000003_Node000004" class="edge">
<title>Node3&#45;&gt;Node4</title>
<g id="a_edge3_Node000003_Node000004"><a xlink:title=" ">
<path fill="none" stroke="#63b8ff" d="M892.32,-120.86C846.84,-112.2 778.39,-98.8 719.12,-85.75 711.92,-84.16 704.25,-82.38 696.9,-80.62"/>
<polygon fill="#63b8ff" stroke="#63b8ff" points="891.41,-124.25 901.88,-122.67 892.71,-117.37 891.41,-124.25"/>
</a>
</g>
</g>
<!-- Node5 -->
<g id="Node000005" class="node">
<title>Node5</title>
<g id="a_Node000005"><a xlink:href="interface_8h.html" target="_top" xlink:title="svZeroDSolver callable interface.">
<polygon fill="white" stroke="#666666" points="1068.88,-19.25 967.38,-19.25 967.38,0 1068.88,0 1068.88,-19.25"/>
<text text-anchor="middle" x="1018.12" y="-5.75" font-family="Helvetica,sans-Serif" font-size="10.00">interface/interface.h</text>
</a>
</g>
</g>
<!-- Node3&#45;&gt;Node5 -->
<g id="edge6_Node000003_Node000005" class="edge">
<title>Node3&#45;&gt;Node5</title>
<g id="a_edge6_Node000003_Node000005"><a xlink:title=" ">
<path fill="none" stroke="#63b8ff" d="M969.03,-115.12C979.8,-107.55 991.54,-97.51 999.12,-85.75 1012.69,-64.72 1016.57,-34.59 1017.68,-19.69"/>
<polygon fill="#63b8ff" stroke="#63b8ff" points="967.25,-112.1 960.81,-120.52 971.09,-117.95 967.25,-112.1"/>
</a>
</g>
</g>
<!-- Node6 -->
<g id="Node000006" class="node">
<title>Node6</title>
<g id="a_Node000006"><a xlink:href="_solver_8h.html" target="_top" xlink:title="Solver source file.">
<polygon fill="white" stroke="#666666" points="557.88,-19.25 480.38,-19.25 480.38,0 557.88,0 557.88,-19.25"/>
<text text-anchor="middle" x="519.12" y="-5.75" font-family="Helvetica,sans-Serif" font-size="10.00">solve/Solver.h</text>
</a>
</g>
</g>
<!-- Node3&#45;&gt;Node6 -->
<g id="edge16_Node000003_Node000006" class="edge">
<title>Node3&#45;&gt;Node6</title>
<g id="a_edge16_Node000003_Node000006"><a xlink:title=" ">
<path fill="none" stroke="#63b8ff" d="M892.16,-129.7C769.83,-127.54 467.45,-118.87 437.12,-85.75 427.97,-75.75 430.2,-66.9 437.12,-55.25 447.64,-37.56 467.9,-26.43 485.66,-19.72"/>
<polygon fill="#63b8ff" stroke="#63b8ff" points="891.85,-133.19 901.91,-129.86 891.97,-126.19 891.85,-133.19"/>
</a>
</g>
</g>
<!-- Node3&#45;&gt;Node7 -->
<g id="edge7_Node000003_Node000007" class="edge">
<title>Node3&#45;&gt;Node7</title>
<g id="a_edge7_Node000003_Node000007"><a xlink:title=" ">
<path fill="none" stroke="#63b8ff" d="M994.31,-119.27C1049.4,-108.08 1136.4,-91.03 1191.62,-80.62"/>
<polygon fill="#63b8ff" stroke="#63b8ff" points="993.64,-115.83 984.54,-121.26 995.04,-122.69 993.64,-115.83"/>
</a>
</g>
</g>
<!-- Node3&#45;&gt;Node8 -->
<g id="edge9_Node000003_Node000008" class="edge">
<title>Node3&#45;&gt;Node8</title>
<g id="a_edge9_Node000003_Node000008"><a xlink:title=" ">
<path fill="none" stroke="#63b8ff" d="M994.11,-128.46C1091.26,-124.32 1309.43,-112.64 1491.12,-85.75 1500.29,-84.39 1510.08,-82.52 1519.24,-80.57"/>
<polygon fill="#63b8ff" stroke="#63b8ff" points="994.23,-124.95 984.38,-128.87 994.52,-131.95 994.23,-124.95"/>
</a>
</g>
</g>
<!-- Node3&#45;&gt;Node9 -->
<g id="edge10_Node000003_Node000009" class="edge">
<title>Node3&#45;&gt;Node9</title>
<g id="a_edge10_Node000003_Node000009"><a xlink:title=" ">
<path fill="none" stroke="#63b8ff" d="M994.12,-125.18C1068.02,-117.9 1208.72,-103.54 1328.12,-85.75 1338.08,-84.27 1348.71,-82.45 1359.01,-80.62"/>
<polygon fill="#63b8ff" stroke="#63b8ff" points="993.96,-121.68 984.35,-126.14 994.65,-128.64 993.96,-121.68"/>
</a>
</g>
</g>
<!-- Node10 -->
<g id="Node000010" class="node">
<title>Node10</title>
<g id="a_Node000010"><a xlink:href="_levenberg_marquardt_optimizer_8h.html" target="_top" xlink:title="opt::LevenbergMarquardtOptimizer source file">
<polygon fill="white" stroke="#666666" points="872.25,-85.75 728,-85.75 728,-55.25 872.25,-55.25 872.25,-85.75"/>
<text text-anchor="start" x="736" y="-72.25" font-family="Helvetica,sans-Serif" font-size="10.00">optimize/LevenbergMarquardt</text>
<text text-anchor="middle" x="800.12" y="-61" font-family="Helvetica,sans-Serif" font-size="10.00">Optimizer.h</text>
</a>
</g>
</g>
<!-- Node3&#45;&gt;Node10 -->
<g id="edge12_Node000003_Node000010" class="edge">
<title>Node3&#45;&gt;Node10</title>
<g id="a_edge12_Node000003_Node000010"><a xlink:title=" ">
<path fill="none" stroke="#63b8ff" d="M910.49,-116.94C888.22,-107.77 858.71,-95.62 835.82,-86.19"/>
<polygon fill="#63b8ff" stroke="#63b8ff" points="909.12,-120.16 919.7,-120.73 911.78,-113.69 909.12,-120.16"/>
</a>
</g>
</g>
<!-- Node11 -->
<g id="Node000011" class="node">
<title>Node11</title>
<g id="a_Node000011"><a xlink:href="calibrate_8h.html" target="_top" xlink:title="opt::calibrate source file">
<polygon fill="white" stroke="#666666" points="989.75,-80.12 890.5,-80.12 890.5,-60.88 989.75,-60.88 989.75,-80.12"/>
<text text-anchor="middle" x="940.12" y="-66.62" font-family="Helvetica,sans-Serif" font-size="10.00">optimize/calibrate.h</text>
</a>
</g>
</g>
<!-- Node3&#45;&gt;Node11 -->
<g id="edge13_Node000003_Node000011" class="edge">
<title>Node3&#45;&gt;Node11</title>
<g id="a_edge13_Node000003_Node000011"><a xlink:title=" ">
<path fill="none" stroke="#63b8ff" d="M942.08,-109.95C941.57,-99.92 940.98,-88.33 940.58,-80.53"/>
<polygon fill="#63b8ff" stroke="#63b8ff" points="938.59,-110.11 942.59,-119.92 945.58,-109.76 938.59,-110.11"/>
</a>
</g>
</g>
<!-- Node12 -->
<g id="Node000012" class="node">
<title>Node12</title>
<g id="a_Node000012"><a xlink:href="_simulation_parameters_8h.html" target="_top" xlink:title="Source file to read simulation configuration.">
<polygon fill="white" stroke="#666666" points="592,-80.12 446.25,-80.12 446.25,-60.88 592,-60.88 592,-80.12"/>
<text text-anchor="middle" x="519.12" y="-66.62" font-family="Helvetica,sans-Serif" font-size="10.00">solve/SimulationParameters.h</text>
</a>
</g>
</g>
<!-- Node3&#45;&gt;Node12 -->
<g id="edge14_Node000003_Node000012" class="edge">
<title>Node3&#45;&gt;Node12</title>
<g id="a_edge14_Node000003_Node000012"><a xlink:title=" ">
<path fill="none" stroke="#63b8ff" d="M892.24,-124.42C825.35,-116.43 704.23,-101.43 601.12,-85.75 590.84,-84.19 579.85,-82.37 569.37,-80.58"/>
<polygon fill="#63b8ff" stroke="#63b8ff" points="891.45,-127.85 901.79,-125.55 892.27,-120.9 891.45,-127.85"/>
</a>
</g>
</g>
<!-- Node13 -->
<g id="Node000013" class="node">
<title>Node13</title>
<g id="a_Node000013"><a xlink:href="csv__writer_8h.html" target="_top" xlink:title="csv_writer source file">
<polygon fill="white" stroke="#666666" points="1140.5,-80.12 1045.75,-80.12 1045.75,-60.88 1140.5,-60.88 1140.5,-80.12"/>
<text text-anchor="middle" x="1093.12" y="-66.62" font-family="Helvetica,sans-Serif" font-size="10.00">solve/csv_writer.h</text>
</a>
</g>
</g>
<!-- Node3&#45;&gt;Node13 -->
<g id="edge17_Node000003_Node000013" class="edge">
<title>Node3&#45;&gt;Node13</title>
<g id="a_edge17_Node000003_Node000013"><a xlink:title=" ">
<path fill="none" stroke="#63b8ff" d="M976.91,-117.12C1005.38,-105.94 1045.37,-90.24 1070.24,-80.48"/>
<polygon fill="#63b8ff" stroke="#63b8ff" points="975.67,-113.84 967.64,-120.75 978.23,-120.36 975.67,-113.84"/>
</a>
</g>
</g>
<!-- Node4&#45;&gt;Node5 -->
<g id="edge4_Node000004_Node000005" class="edge">
<title>Node4&#45;&gt;Node5</title>
<g id="a_edge4_Node000004_Node000005"><a xlink:title=" ">
<path fill="none" stroke="#63b8ff" d="M706.64,-57.86C710.85,-56.93 715.06,-56.04 719.12,-55.25 805.67,-38.38 907.39,-24.43 967.1,-16.84"/>
<polygon fill="#63b8ff" stroke="#63b8ff" points="706.02,-54.41 697.06,-60.06 707.58,-61.23 706.02,-54.41"/>
</a>
</g>
</g>
<!-- Node4&#45;&gt;Node6 -->
<g id="edge5_Node000004_Node000006" class="edge">
<title>Node4&#45;&gt;Node6</title>
<g id="a_edge5_Node000004_Node000006"><a xlink:title=" ">
<path fill="none" stroke="#63b8ff" d="M628.02,-56.09C601.27,-44.92 563.91,-29.33 540.64,-19.61"/>
<polygon fill="#63b8ff" stroke="#63b8ff" points="626.43,-59.22 637.01,-59.85 629.13,-52.76 626.43,-59.22"/>
</a>
</g>
</g>
<!-- Node7&#45;&gt;Node3 -->
<g id="edge8_Node000007_Node000003" class="edge">
<title>Node7&#45;&gt;Node3</title>
<g id="a_edge8_Node000007_Node000003"><a xlink:title=" ">
<path fill="none" stroke="#63b8ff" d="M1190.73,-82.85C1131.48,-94.87 1036.49,-113.45 982.96,-123.45"/>
<polygon fill="#63b8ff" stroke="#63b8ff" points="1191.14,-86.34 1200.24,-80.92 1189.74,-79.48 1191.14,-86.34"/>
</a>
</g>
</g>
<!-- Node9&#45;&gt;Node3 -->
<g id="edge11_Node000009_Node000003" class="edge">
<title>Node9&#45;&gt;Node3</title>
<g id="a_edge11_Node000009_Node000003"><a xlink:title=" ">
<path fill="none" stroke="#63b8ff" d="M1365.71,-82.57C1359.15,-83.71 1352.5,-84.8 1346.12,-85.75 1214.03,-105.43 1055.88,-120.91 983.1,-127.25"/>
<polygon fill="#63b8ff" stroke="#63b8ff" points="1365.87,-86.1 1375.09,-80.89 1364.63,-79.21 1365.87,-86.1"/>
</a>
</g>
</g>
<!-- Node12&#45;&gt;Node6 -->
<g id="edge15_Node000012_Node000006" class="edge">
<title>Node12&#45;&gt;Node6</title>
<g id="a_edge15_Node000012_Node000006"><a xlink:title=" ">
<path fill="none" stroke="#63b8ff" d="M519.12,-49.07C519.12,-39.04 519.12,-27.46 519.12,-19.65"/>
<polygon fill="#63b8ff" stroke="#63b8ff" points="515.63,-49.04 519.13,-59.04 522.63,-49.04 515.63,-49.04"/>
</a>
</g>
</g>
<!-- Node13&#45;&gt;Node5 -->
<g id="edge18_Node000013_Node000005" class="edge">
<title>Node13&#45;&gt;Node5</title>
<g id="a_edge18_Node000013_Node000005"><a xlink:title=" ">
<path fill="none" stroke="#63b8ff" d="M1072.9,-53.63C1059.03,-42.73 1041.12,-28.67 1029.62,-19.65"/>
<polygon fill="#63b8ff" stroke="#63b8ff" points="1070.52,-56.2 1080.54,-59.62 1074.84,-50.7 1070.52,-56.2"/>
</a>
</g>
</g>
<!-- Node14&#45;&gt;Node3 -->
<g id="edge22_Node000014_Node000003" class="edge">
<title>Node14&#45;&gt;Node3</title>
<g id="a_edge22_Node000014_Node000003"><a xlink:title=" ">
<path fill="none" stroke="#63b8ff" d="M1136.77,-289.21C1144.78,-276.21 1152.08,-258.44 1145.12,-243.5 1135.44,-222.7 1085.99,-188.48 1066.12,-177 1038.19,-160.86 1003.4,-148.9 977.96,-141.44"/>
<polygon fill="#63b8ff" stroke="#63b8ff" points="1134.05,-286.99 1131.31,-297.22 1139.84,-290.93 1134.05,-286.99"/>
</a>
</g>
</g>
<!-- Node14&#45;&gt;Node15 -->
<g id="edge20_Node000014_Node000015" class="edge">
<title>Node14&#45;&gt;Node15</title>
<g id="a_edge20_Node000014_Node000015"><a xlink:title=" ">
<path fill="none" stroke="#63b8ff" d="M1101.13,-291.76C1088.05,-282.47 1071.92,-271.02 1060.91,-263.2"/>
<polygon fill="#63b8ff" stroke="#63b8ff" points="1098.99,-294.53 1109.17,-297.47 1103.04,-288.82 1098.99,-294.53"/>
</a>
</g>
</g>
<!-- Node15&#45;&gt;Node3 -->
<g id="edge21_Node000015_Node000003" class="edge">
<title>Node15&#45;&gt;Node3</title>
<g id="a_edge21_Node000015_Node000003"><a xlink:title=" ">
<path fill="none" stroke="#63b8ff" d="M1032.83,-234.68C1010.18,-208.85 968.52,-161.34 951.11,-141.48"/>
<polygon fill="#63b8ff" stroke="#63b8ff" points="1030.01,-236.77 1039.24,-241.99 1035.27,-232.16 1030.01,-236.77"/>
</a>
</g>
</g>
<!-- Node16&#45;&gt;Node3 -->
<g id="edge25_Node000016_Node000003" class="edge">
<title>Node16&#45;&gt;Node3</title>
<g id="a_edge25_Node000016_Node000003"><a xlink:title=" ">
<path fill="none" stroke="#63b8ff" d="M1047.78,-295.85C1081.57,-287.97 1119.06,-276.49 1129.12,-262.75 1134.18,-255.85 1133.35,-250.94 1129.12,-243.5 1119.54,-226.61 1004.39,-164.66 960.22,-141.34"/>
<polygon fill="#63b8ff" stroke="#63b8ff" points="1047.44,-292.33 1038.46,-297.94 1048.98,-299.16 1047.44,-292.33"/>
</a>
</g>
</g>
<!-- Node16&#45;&gt;Node15 -->
<g id="edge24_Node000016_Node000015" class="edge">
<title>Node16&#45;&gt;Node15</title>
<g id="a_edge24_Node000016_Node000015"><a xlink:title=" ">
<path fill="none" stroke="#63b8ff" d="M1006.7,-290.89C1017.06,-281.69 1029.56,-270.6 1038.1,-263.02"/>
<polygon fill="#63b8ff" stroke="#63b8ff" points="1004.59,-288.08 999.44,-297.34 1009.24,-293.32 1004.59,-288.08"/>
</a>
</g>
</g>
<!-- Node18 -->
<g id="Node000018" class="node">
<title>Node18</title>
<g id="a_Node000018"><a xlink:href="_closed_loop_coronary_left_b_c_8h.html" target="_top" xlink:title="Left side of ClosedLoopCoronaryBC.">
<polygon fill="white" stroke="#666666" points="1414.75,-207.5 1279.5,-207.5 1279.5,-177 1414.75,-177 1414.75,-207.5"/>
<text text-anchor="start" x="1287.5" y="-194" font-family="Helvetica,sans-Serif" font-size="10.00">model/ClosedLoopCoronary</text>
<text text-anchor="middle" x="1347.12" y="-182.75" font-family="Helvetica,sans-Serif" font-size="10.00">LeftBC.h</text>
</a>
</g>
</g>
<!-- Node17&#45;&gt;Node18 -->
<g id="edge29_Node000017_Node000018" class="edge">
<title>Node17&#45;&gt;Node18</title>
<g id="a_edge29_Node000017_Node000018"><a xlink:title=" ">
<path fill="none" stroke="#63b8ff" d="M1318.83,-233.88C1324.68,-225.48 1331.52,-215.66 1337,-207.78"/>
<polygon fill="#63b8ff" stroke="#63b8ff" points="1316.06,-231.73 1313.22,-241.94 1321.8,-235.74 1316.06,-231.73"/>
</a>
</g>
</g>
<!-- Node19 -->
<g id="Node000019" class="node">
<title>Node19</title>
<g id="a_Node000019"><a xlink:href="_closed_loop_coronary_right_b_c_8h.html" target="_top" xlink:title="Right side of ClosedLoopCoronaryBC.">
<polygon fill="white" stroke="#666666" points="1261.75,-207.5 1126.5,-207.5 1126.5,-177 1261.75,-177 1261.75,-207.5"/>
<text text-anchor="start" x="1134.5" y="-194" font-family="Helvetica,sans-Serif" font-size="10.00">model/ClosedLoopCoronary</text>
<text text-anchor="middle" x="1194.12" y="-182.75" font-family="Helvetica,sans-Serif" font-size="10.00">RightBC.h</text>
</a>
</g>
</g>
<!-- Node17&#45;&gt;Node19 -->
<g id="edge31_Node000017_Node000019" class="edge">
<title>Node17&#45;&gt;Node19</title>
<g id="a_edge31_Node000017_Node000019"><a xlink:title=" ">
<path fill="none" stroke="#63b8ff" d="M1279.06,-237.9C1261.7,-228.77 1239.24,-216.96 1221.77,-207.78"/>
<polygon fill="#63b8ff" stroke="#63b8ff" points="1277.29,-240.92 1287.77,-242.48 1280.55,-234.73 1277.29,-240.92"/>
</a>
</g>
</g>
<!-- Node18&#45;&gt;Node3 -->
<g id="edge30_Node000018_Node000003" class="edge">
<title>Node18&#45;&gt;Node3</title>
<g id="a_edge30_Node000018_Node000003"><a xlink:title=" ">
<path fill="none" stroke="#63b8ff" d="M1268.05,-176.55C1159.51,-159.24 1042.92,-144.46 983.11,-137.16"/>
<polygon fill="#63b8ff" stroke="#63b8ff" points="1267.28,-179.97 1277.71,-178.1 1268.39,-173.06 1267.28,-179.97"/>
</a>
</g>
</g>
<!-- Node19&#45;&gt;Node3 -->
<g id="edge32_Node000019_Node000003" class="edge">
<title>Node19&#45;&gt;Node3</title>
<g id="a_edge32_Node000019_Node000003"><a xlink:title=" ">
<path fill="none" stroke="#63b8ff" d="M1120.46,-173.97C1075.12,-163.34 1018.83,-150.13 981.99,-141.49"/>
<polygon fill="#63b8ff" stroke="#63b8ff" points="1119.43,-177.32 1129.96,-176.2 1121.02,-170.51 1119.43,-177.32"/>
</a>
</g>
</g>
<!-- Node20&#45;&gt;Node3 -->
<g id="edge35_Node000020_Node000003" class="edge">
<title>Node20&#45;&gt;Node3</title>
<g id="a_edge35_Node000020_Node000003"><a xlink:title=" ">
<path fill="none" stroke="#63b8ff" d="M1350.48,-293.36C1364.65,-285.75 1381.02,-275.32 1393.12,-262.75 1421.24,-233.56 1451.42,-206.95 1424.12,-177 1394.61,-144.62 1092.69,-135.37 982.83,-133.06"/>
<polygon fill="#63b8ff" stroke="#63b8ff" points="1349.3,-290.03 1341.99,-297.7 1352.49,-296.26 1349.3,-290.03"/>
</a>
</g>
</g>
<!-- Node20&#45;&gt;Node17 -->
<g id="edge34_Node000020_Node000017" class="edge">
<title>Node20&#45;&gt;Node17</title>
<g id="a_edge34_Node000020_Node000017"><a xlink:title=" ">
<path fill="none" stroke="#63b8ff" d="M1314.95,-287.71C1312.74,-279.27 1310.25,-269.83 1308.49,-263.11"/>
<polygon fill="#63b8ff" stroke="#63b8ff" points="1311.5,-288.34 1317.43,-297.12 1318.27,-286.56 1311.5,-288.34"/>
</a>
</g>
</g>
<!-- Node21&#45;&gt;Node3 -->
<g id="edge37_Node000021_Node000003" class="edge">
<title>Node21&#45;&gt;Node3</title>
<g id="a_edge37_Node000021_Node000003"><a xlink:title=" ">
<path fill="none" stroke="#63b8ff" d="M82.73,-234.09C97.55,-216 123.08,-189.14 152.12,-177 221.68,-147.92 752.29,-135.92 903.2,-133.07"/>
<polygon fill="#63b8ff" stroke="#63b8ff" points="80.02,-231.88 76.58,-241.9 85.51,-236.21 80.02,-231.88"/>
</a>
</g>
</g>
<!-- Node22&#45;&gt;Node3 -->
<g id="edge39_Node000022_Node000003" class="edge">
<title>Node22&#45;&gt;Node3</title>
<g id="a_edge39_Node000022_Node000003"><a xlink:title=" ">
<path fill="none" stroke="#63b8ff" d="M163.72,-287.19C165.79,-257.61 174.4,-203.19 209.12,-177 264.74,-135.06 759.01,-132.2 903.58,-132.26"/>
<polygon fill="#63b8ff" stroke="#63b8ff" points="160.23,-286.84 163.24,-297 167.22,-287.18 160.23,-286.84"/>
</a>
</g>
</g>
<!-- Node23&#45;&gt;Node3 -->
<g id="edge41_Node000023_Node000003" class="edge">
<title>Node23&#45;&gt;Node3</title>
<g id="a_edge41_Node000023_Node000003"><a xlink:title=" ">
<path fill="none" stroke="#63b8ff" d="M272.04,-291.15C241.59,-264.68 190.54,-211.67 223.12,-177 246.58,-152.05 755.66,-137.16 903.32,-133.35"/>
<polygon fill="#63b8ff" stroke="#63b8ff" points="269.66,-293.72 279.56,-297.49 274.17,-288.37 269.66,-293.72"/>
</a>
</g>
</g>
<!-- Node24&#45;&gt;Node3 -->
<g id="edge45_Node000024_Node000003" class="edge">
<title>Node24&#45;&gt;Node3</title>
<g id="a_edge45_Node000024_Node000003"><a xlink:title=" ">
<path fill="none" stroke="#63b8ff" d="M371.09,-180.4C379.5,-179.15 388.01,-177.98 396.12,-177 585.31,-154.17 812.76,-139.78 903.21,-134.57"/>
<polygon fill="#63b8ff" stroke="#63b8ff" points="370.59,-176.94 361.23,-181.91 371.65,-183.85 370.59,-176.94"/>
</a>
</g>
</g>
<!-- Node25&#45;&gt;Node3 -->
<g id="edge47_Node000025_Node000003" class="edge">
<title>Node25&#45;&gt;Node3</title>
<g id="a_edge47_Node000025_Node000003"><a xlink:title=" ">
<path fill="none" stroke="#63b8ff" d="M413.49,-231.79C412.5,-214.59 414.29,-190.62 429.12,-177 463.84,-145.11 788.99,-135.49 903.48,-133.08"/>
<polygon fill="#63b8ff" stroke="#63b8ff" points="409.99,-231.99 414.43,-241.61 416.96,-231.32 409.99,-231.99"/>
</a>
</g>
</g>
<!-- Node26&#45;&gt;Node3 -->
<g id="edge50_Node000026_Node000003" class="edge">
<title>Node26&#45;&gt;Node3</title>
<g id="a_edge50_Node000026_Node000003"><a xlink:title=" ">
<path fill="none" stroke="#63b8ff" d="M555.47,-180.12C561.75,-179.01 568.07,-177.94 574.12,-177 693.37,-158.48 835.3,-143.21 903.14,-136.32"/>
<polygon fill="#63b8ff" stroke="#63b8ff" points="554.95,-176.66 545.74,-181.89 556.21,-183.54 554.95,-176.66"/>
</a>
</g>
</g>
<!-- Node27&#45;&gt;Node3 -->
<g id="edge52_Node000027_Node000003" class="edge">
<title>Node27&#45;&gt;Node3</title>
<g id="a_edge52_Node000027_Node000003"><a xlink:title=" ">
<path fill="none" stroke="#63b8ff" d="M598.31,-287.51C589.99,-259.21 580.13,-207.35 607.12,-177 645.55,-133.8 822.95,-130.63 903.34,-131.49"/>
<polygon fill="#63b8ff" stroke="#63b8ff" points="594.95,-288.48 601.32,-296.94 601.61,-286.35 594.95,-288.48"/>
</a>
</g>
</g>
<!-- Node28&#45;&gt;Node3 -->
<g id="edge54_Node000028_Node000003" class="edge">
<title>Node28&#45;&gt;Node3</title>
<g id="a_edge54_Node000028_Node000003"><a xlink:title=" ">
<path fill="none" stroke="#63b8ff" d="M732.7,-179.66C782.7,-168.43 857.5,-151.62 903.15,-141.36"/>
<polygon fill="#63b8ff" stroke="#63b8ff" points="731.95,-176.24 722.97,-181.85 733.49,-183.07 731.95,-176.24"/>
</a>
</g>
</g>
<!-- Node29&#45;&gt;Node3 -->
<g id="edge56_Node000029_Node000003" class="edge">
<title>Node29&#45;&gt;Node3</title>
<g id="a_edge56_Node000029_Node000003"><a xlink:title=" ">
<path fill="none" stroke="#63b8ff" d="M722.96,-235.51C746.7,-214.69 785.35,-181.2 793.12,-177 828.03,-158.15 871.91,-146.29 903.17,-139.57"/>
<polygon fill="#63b8ff" stroke="#63b8ff" points="720.74,-232.8 715.54,-242.04 725.36,-238.06 720.74,-232.8"/>
</a>
</g>
</g>
<!-- Node30&#45;&gt;Node3 -->
<g id="edge58_Node000030_Node000003" class="edge">
<title>Node30&#45;&gt;Node3</title>
<g id="a_edge58_Node000030_Node000003"><a xlink:title=" ">
<path fill="none" stroke="#63b8ff" d="M882.06,-175.69C897.48,-164.76 917.56,-150.51 930.4,-141.4"/>
<polygon fill="#63b8ff" stroke="#63b8ff" points="880.1,-172.79 873.97,-181.43 884.15,-178.5 880.1,-172.79"/>
</a>
</g>
</g>
</g>
</svg>
