<?xml version="1.0" encoding="UTF-8" standalone="no"?>
<!DOCTYPE svg PUBLIC "-//W3C//DTD SVG 1.1//EN"
 "http://www.w3.org/Graphics/SVG/1.1/DTD/svg11.dtd">
<!-- Generated by graphviz version 12.2.1 (20241206.2353)
 -->
<!-- Title: model/ChamberElastanceInductor.h Pages: 1 -->
<svg width="1003pt" height="204pt"
 viewBox="0.00 0.00 1002.55 204.25" xmlns="http://www.w3.org/2000/svg" xmlns:xlink="http://www.w3.org/1999/xlink">
<g id="graph0" class="graph" transform="scale(1 1) rotate(0) translate(4 200.25)">
<title>model/ChamberElastanceInductor.h</title>
<!-- Node1 -->
<g id="Node000001" class="node">
<title>Node1</title>
<g id="a_Node000001"><a xlink:title="model::ChamberElastanceInductor source file">
<polygon fill="#999999" stroke="#666666" points="552.25,-196.25 382.5,-196.25 382.5,-177 552.25,-177 552.25,-196.25"/>
<text text-anchor="middle" x="467.38" y="-182.75" font-family="Helvetica,sans-Serif" font-size="10.00">model/ChamberElastanceInductor.h</text>
</a>
</g>
</g>
<!-- Node2 -->
<g id="Node000002" class="node">
<title>Node2</title>
<g id="a_Node000002"><a xlink:href="_model_8h.html" target="_top" xlink:title="model::Model source file">
<polygon fill="white" stroke="#666666" points="506.88,-141 427.88,-141 427.88,-121.75 506.88,-121.75 506.88,-141"/>
<text text-anchor="middle" x="467.38" y="-127.5" font-family="Helvetica,sans-Serif" font-size="10.00">model/Model.h</text>
</a>
</g>
</g>
<!-- Node1&#45;&gt;Node2 -->
<g id="edge1_Node000001_Node000002" class="edge">
<title>Node1&#45;&gt;Node2</title>
<g id="a_edge1_Node000001_Node000002"><a xlink:title=" ">
<path fill="none" stroke="#63b8ff" d="M460.82,-165.67C460.33,-157.3 460.78,-148 462.17,-141.36"/>
<polygon fill="#63b8ff" stroke="#63b8ff" points="457.31,-165.84 462.02,-175.33 464.26,-164.97 457.31,-165.84"/>
</a>
</g>
</g>
<!-- Node2&#45;&gt;Node1 -->
<g id="edge6_Node000002_Node000001" class="edge">
<title>Node2&#45;&gt;Node1</title>
<g id="a_edge6_Node000002_Node000001"><a xlink:title=" ">
<path fill="none" stroke="#63b8ff" d="M473.95,-152.57C474.42,-160.96 473.95,-170.24 472.54,-176.83"/>
<polygon fill="#63b8ff" stroke="#63b8ff" points="477.45,-152.37 472.76,-142.86 470.5,-153.21 477.45,-152.37"/>
</a>
</g>
</g>
<!-- Node3 -->
<g id="Node000003" class="node">
<title>Node3</title>
<g id="a_Node000003"><a xlink:href="_integrator_8h.html" target="_top" xlink:title="Integrator source file.">
<polygon fill="white" stroke="#666666" points="250,-80.12 150.75,-80.12 150.75,-60.88 250,-60.88 250,-80.12"/>
<text text-anchor="middle" x="200.38" y="-66.62" font-family="Helvetica,sans-Serif" font-size="10.00">algebra/Integrator.h</text>
</a>
</g>
</g>
<!-- Node2&#45;&gt;Node3 -->
<g id="edge2_Node000002_Node000003" class="edge">
<title>Node2&#45;&gt;Node3</title>
<g id="a_edge2_Node000002_Node000003"><a xlink:title=" ">
<path fill="none" stroke="#63b8ff" d="M416.47,-119.96C374.09,-111.18 312.2,-98.11 258.38,-85.75 251.3,-84.13 243.76,-82.32 236.53,-80.56"/>
<polygon fill="#63b8ff" stroke="#63b8ff" points="415.63,-123.36 426.14,-121.96 417.05,-116.51 415.63,-123.36"/>
</a>
</g>
</g>
<!-- Node4 -->
<g id="Node000004" class="node">
<title>Node4</title>
<g id="a_Node000004"><a xlink:href="interface_8h.html" target="_top" xlink:title="svZeroDSolver callable interface.">
<polygon fill="white" stroke="#666666" points="173.12,-19.25 71.62,-19.25 71.62,0 173.12,0 173.12,-19.25"/>
<text text-anchor="middle" x="122.38" y="-5.75" font-family="Helvetica,sans-Serif" font-size="10.00">interface/interface.h</text>
</a>
</g>
</g>
<!-- Node2&#45;&gt;Node4 -->
<g id="edge5_Node000002_Node000004" class="edge">
<title>Node2&#45;&gt;Node4</title>
<g id="a_edge5_Node000002_Node000004"><a xlink:title=" ">
<path fill="none" stroke="#63b8ff" d="M415.97,-130.12C334.5,-128.64 180.9,-121.09 141.38,-85.75 122.32,-68.71 121.08,-35.58 121.71,-19.63"/>
<polygon fill="#63b8ff" stroke="#63b8ff" points="415.87,-133.62 425.93,-130.28 415.98,-126.62 415.87,-133.62"/>
</a>
</g>
</g>
<!-- Node5 -->
<g id="Node000005" class="node">
<title>Node5</title>
<g id="a_Node000005"><a xlink:href="_solver_8h.html" target="_top" xlink:title="Solver source file.">
<polygon fill="white" stroke="#666666" points="945.12,-19.25 867.62,-19.25 867.62,0 945.12,0 945.12,-19.25"/>
<text text-anchor="middle" x="906.38" y="-5.75" font-family="Helvetica,sans-Serif" font-size="10.00">solve/Solver.h</text>
</a>
</g>
</g>
<!-- Node2&#45;&gt;Node5 -->
<g id="edge14_Node000002_Node000005" class="edge">
<title>Node2&#45;&gt;Node5</title>
<g id="a_edge14_Node000002_Node000005"><a xlink:title=" ">
<path fill="none" stroke="#63b8ff" d="M518.51,-129.83C643.57,-127.98 957,-119.92 988.38,-85.75 997.54,-75.76 995.3,-66.9 988.38,-55.25 977.86,-37.56 957.6,-26.43 939.84,-19.72"/>
<polygon fill="#63b8ff" stroke="#63b8ff" points="518.47,-126.33 508.52,-129.97 518.57,-133.33 518.47,-126.33"/>
</a>
</g>
</g>
<!-- Node6 -->
<g id="Node000006" class="node">
<title>Node6</title>
<g id="a_Node000006"><a xlink:href="_kung_ventricle_8h.html" target="_top" xlink:title="model::KungVentricle source file">
<polygon fill="white" stroke="#666666" points="381.12,-80.12 267.62,-80.12 267.62,-60.88 381.12,-60.88 381.12,-80.12"/>
<text text-anchor="middle" x="324.38" y="-66.62" font-family="Helvetica,sans-Serif" font-size="10.00">model/KungVentricle.h</text>
</a>
</g>
</g>
<!-- Node2&#45;&gt;Node6 -->
<g id="edge7_Node000002_Node000006" class="edge">
<title>Node2&#45;&gt;Node6</title>
<g id="a_edge7_Node000002_Node000006"><a xlink:title=" ">
<path fill="none" stroke="#63b8ff" d="M434.81,-116.97C407.68,-105.8 369.8,-90.2 346.2,-80.48"/>
<polygon fill="#63b8ff" stroke="#63b8ff" points="433.37,-120.16 443.95,-120.73 436.03,-113.69 433.37,-120.16"/>
</a>
</g>
</g>
<!-- Node7 -->
<g id="Node000007" class="node">
<title>Node7</title>
<g id="a_Node000007"><a xlink:href="_regazzoni_chamber_8h.html" target="_top" xlink:title="model::RegazzoniChamber source file">
<polygon fill="white" stroke="#666666" points="535.38,-80.12 399.38,-80.12 399.38,-60.88 535.38,-60.88 535.38,-80.12"/>
<text text-anchor="middle" x="467.38" y="-66.62" font-family="Helvetica,sans-Serif" font-size="10.00">model/RegazzoniChamber.h</text>
</a>
</g>
</g>
<!-- Node2&#45;&gt;Node7 -->
<g id="edge8_Node000002_Node000007" class="edge">
<title>Node2&#45;&gt;Node7</title>
<g id="a_edge8_Node000002_Node000007"><a xlink:title=" ">
<path fill="none" stroke="#63b8ff" d="M460.94,-110.28C460.24,-100.17 460.71,-88.42 462.35,-80.53"/>
<polygon fill="#63b8ff" stroke="#63b8ff" points="457.43,-110.46 462.17,-119.93 464.37,-109.57 457.43,-110.46"/>
</a>
</g>
</g>
<!-- Node8 -->
<g id="Node000008" class="node">
<title>Node8</title>
<g id="a_Node000008"><a xlink:href="_levenberg_marquardt_optimizer_8h.html" target="_top" xlink:title="opt::LevenbergMarquardtOptimizer source file">
<polygon fill="white" stroke="#666666" points="697.5,-85.75 553.25,-85.75 553.25,-55.25 697.5,-55.25 697.5,-85.75"/>
<text text-anchor="start" x="561.25" y="-72.25" font-family="Helvetica,sans-Serif" font-size="10.00">optimize/LevenbergMarquardt</text>
<text text-anchor="middle" x="625.38" y="-61" font-family="Helvetica,sans-Serif" font-size="10.00">Optimizer.h</text>
</a>
</g>
</g>
<!-- Node2&#45;&gt;Node8 -->
<g id="edge10_Node000002_Node000008" class="edge">
<title>Node2&#45;&gt;Node8</title>
<g id="a_edge10_Node000002_Node000008"><a xlink:title=" ">
<path fill="none" stroke="#63b8ff" d="M502.43,-117.31C527.15,-108.1 560.29,-95.75 585.94,-86.19"/>
<polygon fill="#63b8ff" stroke="#63b8ff" points="501.28,-114 493.13,-120.78 503.73,-120.56 501.28,-114"/>
</a>
</g>
</g>
<!-- Node9 -->
<g id="Node000009" class="node">
<title>Node9</title>
<g id="a_Node000009"><a xlink:href="calibrate_8h.html" target="_top" xlink:title="opt::calibrate source file">
<polygon fill="white" stroke="#666666" points="815,-80.12 715.75,-80.12 715.75,-60.88 815,-60.88 815,-80.12"/>
<text text-anchor="middle" x="765.38" y="-66.62" font-family="Helvetica,sans-Serif" font-size="10.00">optimize/calibrate.h</text>
</a>
</g>
</g>
<!-- Node2&#45;&gt;Node9 -->
<g id="edge11_Node000002_Node000009" class="edge">
<title>Node2&#45;&gt;Node9</title>
<g id="a_edge11_Node000002_Node000009"><a xlink:title=" ">
<path fill="none" stroke="#63b8ff" d="M518.39,-121.65C566.88,-113.16 641.8,-99.57 706.38,-85.75 713.69,-84.18 721.49,-82.39 728.93,-80.62"/>
<polygon fill="#63b8ff" stroke="#63b8ff" points="518,-118.16 508.74,-123.33 519.2,-125.06 518,-118.16"/>
</a>
</g>
</g>
<!-- Node10 -->
<g id="Node000010" class="node">
<title>Node10</title>
<g id="a_Node000010"><a xlink:href="_simulation_parameters_8h.html" target="_top" xlink:title="Source file to read simulation configuration.">
<polygon fill="white" stroke="#666666" points="979.25,-80.12 833.5,-80.12 833.5,-60.88 979.25,-60.88 979.25,-80.12"/>
<text text-anchor="middle" x="906.38" y="-66.62" font-family="Helvetica,sans-Serif" font-size="10.00">solve/SimulationParameters.h</text>
</a>
</g>
</g>
<!-- Node2&#45;&gt;Node10 -->
<g id="edge12_Node000002_Node000010" class="edge">
<title>Node2&#45;&gt;Node10</title>
<g id="a_edge12_Node000002_Node000010"><a xlink:title=" ">
<path fill="none" stroke="#63b8ff" d="M518.38,-124.77C587.75,-116.98 715.68,-101.98 824.38,-85.75 834.66,-84.21 845.65,-82.41 856.13,-80.62"/>
<polygon fill="#63b8ff" stroke="#63b8ff" points="518.4,-121.25 508.85,-125.84 519.18,-128.21 518.4,-121.25"/>
</a>
</g>
</g>
<!-- Node11 -->
<g id="Node000011" class="node">
<title>Node11</title>
<g id="a_Node000011"><a xlink:href="csv__writer_8h.html" target="_top" xlink:title="csv_writer source file">
<polygon fill="white" stroke="#666666" points="94.75,-80.12 0,-80.12 0,-60.88 94.75,-60.88 94.75,-80.12"/>
<text text-anchor="middle" x="47.38" y="-66.62" font-family="Helvetica,sans-Serif" font-size="10.00">solve/csv_writer.h</text>
</a>
</g>
</g>
<!-- Node2&#45;&gt;Node11 -->
<g id="edge15_Node000002_Node000011" class="edge">
<title>Node2&#45;&gt;Node11</title>
<g id="a_edge15_Node000002_Node000011"><a xlink:title=" ">
<path fill="none" stroke="#63b8ff" d="M416.5,-125.76C346.7,-119.05 217.46,-105.21 108.38,-85.75 100.24,-84.3 91.56,-82.45 83.37,-80.57"/>
<polygon fill="#63b8ff" stroke="#63b8ff" points="415.8,-129.21 426.09,-126.67 416.46,-122.24 415.8,-129.21"/>
</a>
</g>
</g>
<!-- Node3&#45;&gt;Node4 -->
<g id="edge3_Node000003_Node000004" class="edge">
<title>Node3&#45;&gt;Node4</title>
<g id="a_edge3_Node000003_Node000004"><a xlink:title=" ">
<path fill="none" stroke="#63b8ff" d="M179.34,-53.63C164.91,-42.73 146.29,-28.67 134.33,-19.65"/>
<polygon fill="#63b8ff" stroke="#63b8ff" points="177.23,-56.42 187.32,-59.65 181.45,-50.83 177.23,-56.42"/>
</a>
</g>
</g>
<!-- Node3&#45;&gt;Node5 -->
<g id="edge4_Node000003_Node000005" class="edge">
<title>Node3&#45;&gt;Node5</title>
<g id="a_edge4_Node000003_Node000005"><a xlink:title=" ">
<path fill="none" stroke="#63b8ff" d="M244.05,-57.92C248.86,-56.9 253.71,-55.98 258.38,-55.25 487.34,-19.51 766.27,-12.39 867.4,-10.98"/>
<polygon fill="#63b8ff" stroke="#63b8ff" points="243.44,-54.47 234.47,-60.11 245,-61.29 243.44,-54.47"/>
</a>
</g>
</g>
<!-- Node7&#45;&gt;Node2 -->
<g id="edge9_Node000007_Node000002" class="edge">
<title>Node7&#45;&gt;Node2</title>
<g id="a_edge9_Node000007_Node000002"><a xlink:title=" ">
<path fill="none" stroke="#63b8ff" d="M473.82,-91.7C474.51,-101.82 474.03,-113.57 472.38,-121.43"/>
<polygon fill="#63b8ff" stroke="#63b8ff" points="477.32,-91.51 472.59,-82.03 470.38,-92.39 477.32,-91.51"/>
</a>
</g>
</g>
<!-- Node10&#45;&gt;Node5 -->
<g id="edge13_Node000010_Node000005" class="edge">
<title>Node10&#45;&gt;Node5</title>
<g id="a_edge13_Node000010_Node000005"><a xlink:title=" ">
<path fill="none" stroke="#63b8ff" d="M906.38,-49.07C906.38,-39.04 906.38,-27.46 906.38,-19.65"/>
<polygon fill="#63b8ff" stroke="#63b8ff" points="902.88,-49.04 906.38,-59.04 909.88,-49.04 902.88,-49.04"/>
</a>
</g>
</g>
<!-- Node11&#45;&gt;Node4 -->
<g id="edge16_Node000011_Node000004" class="edge">
<title>Node11&#45;&gt;Node4</title>
<g id="a_edge16_Node000011_Node000004"><a xlink:title=" ">
<path fill="none" stroke="#63b8ff" d="M67.6,-53.63C81.47,-42.73 99.38,-28.67 110.88,-19.65"/>
<polygon fill="#63b8ff" stroke="#63b8ff" points="65.66,-50.7 59.96,-59.62 69.98,-56.2 65.66,-50.7"/>
</a>
</g>
</g>
</g>
</svg>
