<?xml version="1.0" encoding="UTF-8" standalone="no"?>
<!DOCTYPE svg PUBLIC "-//W3C//DTD SVG 1.1//EN"
 "http://www.w3.org/Graphics/SVG/1.1/DTD/svg11.dtd">
<!-- Generated by graphviz version 12.1.1 (20240910.0053)
 -->
<!-- Title: model/DOFHandler.h Pages: 1 -->
<svg width="1939pt" height="492pt"
 viewBox="0.00 0.00 1939.00 491.75" xmlns="http://www.w3.org/2000/svg" xmlns:xlink="http://www.w3.org/1999/xlink">
<g id="graph0" class="graph" transform="scale(1 1) rotate(0) translate(4 487.75)">
<title>model/DOFHandler.h</title>
<!-- Node1 -->
<g id="Node000001" class="node">
<title>Node1</title>
<g id="a_Node000001"><a xlink:title="model::DOFHandler source file">
<polygon fill="#999999" stroke="#666666" points="1087.38,-483.75 980.62,-483.75 980.62,-464.5 1087.38,-464.5 1087.38,-483.75"/>
<text text-anchor="middle" x="1034" y="-470.25" font-family="Helvetica,sans-Serif" font-size="10.00">model/DOFHandler.h</text>
</a>
</g>
</g>
<!-- Node2 -->
<g id="Node000002" class="node">
<title>Node2</title>
<g id="a_Node000002"><a xlink:href="_block_8h.html" target="_top" xlink:title="model::Block source file">
<polygon fill="white" stroke="#666666" points="793.75,-373.25 716.25,-373.25 716.25,-354 793.75,-354 793.75,-373.25"/>
<text text-anchor="middle" x="755" y="-359.75" font-family="Helvetica,sans-Serif" font-size="10.00">model/Block.h</text>
</a>
</g>
</g>
<!-- Node1&#45;&gt;Node2 -->
<g id="edge1_Node000001_Node000002" class="edge">
<title>Node1&#45;&gt;Node2</title>
<g id="a_edge1_Node000001_Node000002"><a xlink:title=" ">
<path fill="none" stroke="#63b8ff" d="M1000.01,-459.91C942.58,-437.57 827.79,-392.93 778.44,-373.74"/>
<polygon fill="#63b8ff" stroke="#63b8ff" points="998.69,-463.15 1009.28,-463.51 1001.23,-456.63 998.69,-463.15"/>
</a>
</g>
</g>
<!-- Node4 -->
<g id="Node000004" class="node">
<title>Node4</title>
<g id="a_Node000004"><a xlink:href="_model_8h.html" target="_top" xlink:title="model::Model source file">
<polygon fill="white" stroke="#666666" points="958.5,-141 879.5,-141 879.5,-121.75 958.5,-121.75 958.5,-141"/>
<text text-anchor="middle" x="919" y="-127.5" font-family="Helvetica,sans-Serif" font-size="10.00">model/Model.h</text>
</a>
</g>
</g>
<!-- Node1&#45;&gt;Node4 -->
<g id="edge60_Node000001_Node000004" class="edge">
<title>Node1&#45;&gt;Node4</title>
<g id="a_edge60_Node000001_Node000004"><a xlink:title=" ">
<path fill="none" stroke="#63b8ff" d="M968.86,-473.15C741.96,-472.41 0,-462.48 0,-364.62 0,-364.62 0,-364.62 0,-307.38 0,-254.47 227.19,-183.73 256,-177 375.64,-149.06 755.17,-136.72 879.29,-133.36"/>
<polygon fill="#63b8ff" stroke="#63b8ff" points="968.7,-476.65 978.71,-473.18 968.72,-469.65 968.7,-476.65"/>
</a>
</g>
</g>
<!-- Node32 -->
<g id="Node000032" class="node">
<title>Node32</title>
<g id="a_Node000032"><a xlink:href="_node_8h.html" target="_top" xlink:title="model::Node source file">
<polygon fill="white" stroke="#666666" points="1150,-373.25 1074,-373.25 1074,-354 1150,-354 1150,-373.25"/>
<text text-anchor="middle" x="1112" y="-359.75" font-family="Helvetica,sans-Serif" font-size="10.00">model/Node.h</text>
</a>
</g>
</g>
<!-- Node1&#45;&gt;Node32 -->
<g id="edge61_Node000001_Node000032" class="edge">
<title>Node1&#45;&gt;Node32</title>
<g id="a_edge61_Node000001_Node000032"><a xlink:title=" ">
<path fill="none" stroke="#63b8ff" d="M1047,-455.04C1063.89,-431.55 1092.71,-391.45 1105.53,-373.63"/>
<polygon fill="#63b8ff" stroke="#63b8ff" points="1044.26,-452.85 1041.27,-463.02 1049.95,-456.94 1044.26,-452.85"/>
</a>
</g>
</g>
<!-- Node33 -->
<g id="Node000033" class="node">
<title>Node33</title>
<g id="a_Node000033"><a xlink:href="_parameter_8h.html" target="_top" xlink:title="model::Parameter source file">
<polygon fill="white" stroke="#666666" points="1555.88,-428.5 1458.12,-428.5 1458.12,-409.25 1555.88,-409.25 1555.88,-428.5"/>
<text text-anchor="middle" x="1507" y="-415" font-family="Helvetica,sans-Serif" font-size="10.00">model/Parameter.h</text>
</a>
</g>
</g>
<!-- Node1&#45;&gt;Node33 -->
<g id="edge63_Node000001_Node000033" class="edge">
<title>Node1&#45;&gt;Node33</title>
<g id="a_edge63_Node000001_Node000033"><a xlink:title=" ">
<path fill="none" stroke="#63b8ff" d="M1099.08,-465.8C1194.97,-455 1372.1,-435.06 1457.89,-425.4"/>
<polygon fill="#63b8ff" stroke="#63b8ff" points="1098.85,-462.3 1089.3,-466.9 1099.63,-469.26 1098.85,-462.3"/>
</a>
</g>
</g>
<!-- Node3 -->
<g id="Node000003" class="node">
<title>Node3</title>
<g id="a_Node000003"><a xlink:href="_block_factory_8h.html" target="_top" xlink:title="Define the block factory functional.">
<polygon fill="white" stroke="#666666" points="369.88,-262.75 260.12,-262.75 260.12,-243.5 369.88,-243.5 369.88,-262.75"/>
<text text-anchor="middle" x="315" y="-249.25" font-family="Helvetica,sans-Serif" font-size="10.00">model/BlockFactory.h</text>
</a>
</g>
</g>
<!-- Node2&#45;&gt;Node3 -->
<g id="edge2_Node000002_Node000003" class="edge">
<title>Node2&#45;&gt;Node3</title>
<g id="a_edge2_Node000002_Node000003"><a xlink:title=" ">
<path fill="none" stroke="#63b8ff" d="M705.04,-358.83C646.41,-353.49 546.69,-341.65 464,-318 414.21,-303.76 359.02,-276.99 331.91,-263.06"/>
<polygon fill="#63b8ff" stroke="#63b8ff" points="704.43,-362.29 714.7,-359.68 705.04,-355.31 704.43,-362.29"/>
</a>
</g>
</g>
<!-- Node2&#45;&gt;Node4 -->
<g id="edge44_Node000002_Node000004" class="edge">
<title>Node2&#45;&gt;Node4</title>
<g id="a_edge44_Node000002_Node000004"><a xlink:title=" ">
<path fill="none" stroke="#63b8ff" d="M704.85,-355.33C669.24,-348.82 621.02,-337.27 582,-318 533.89,-294.24 531.82,-273 487,-243.5 459.09,-225.13 438.06,-236.23 421,-207.5 414.08,-195.84 411.85,-187 421,-177 451.72,-143.41 766.41,-134.91 879.12,-132.93"/>
<polygon fill="#63b8ff" stroke="#63b8ff" points="704,-358.73 714.45,-357.01 705.2,-351.84 704,-358.73"/>
</a>
</g>
</g>
<!-- Node8 -->
<g id="Node000008" class="node">
<title>Node8</title>
<g id="a_Node000008"><a xlink:href="_chamber_elastance_inductor_8h.html" target="_top" xlink:title="model::ChamberElastanceInductor source file">
<polygon fill="white" stroke="#666666" points="538.88,-80.12 369.12,-80.12 369.12,-60.88 538.88,-60.88 538.88,-80.12"/>
<text text-anchor="middle" x="454" y="-66.62" font-family="Helvetica,sans-Serif" font-size="10.00">model/ChamberElastanceInductor.h</text>
</a>
</g>
</g>
<!-- Node2&#45;&gt;Node8 -->
<g id="edge28_Node000002_Node000008" class="edge">
<title>Node2&#45;&gt;Node8</title>
<g id="a_edge28_Node000002_Node000008"><a xlink:title=" ">
<path fill="none" stroke="#63b8ff" d="M704.87,-359.9C547.86,-350.72 76,-317.82 76,-254.12 76,-254.12 76,-254.12 76,-191.25 76,-129.38 262.36,-95.36 373.37,-80.58"/>
<polygon fill="#63b8ff" stroke="#63b8ff" points="704.36,-363.38 714.54,-360.46 704.76,-356.39 704.36,-363.38"/>
</a>
</g>
</g>
<!-- Node9 -->
<g id="Node000009" class="node">
<title>Node9</title>
<g id="a_Node000009"><a xlink:href="_kung_ventricle_8h.html" target="_top" xlink:title="model::KungVentricle source file">
<polygon fill="white" stroke="#666666" points="232.75,-80.12 119.25,-80.12 119.25,-60.88 232.75,-60.88 232.75,-80.12"/>
<text text-anchor="middle" x="176" y="-66.62" font-family="Helvetica,sans-Serif" font-size="10.00">model/KungVentricle.h</text>
</a>
</g>
</g>
<!-- Node2&#45;&gt;Node9 -->
<g id="edge43_Node000002_Node000009" class="edge">
<title>Node2&#45;&gt;Node9</title>
<g id="a_edge43_Node000002_Node000009"><a xlink:title=" ">
<path fill="none" stroke="#63b8ff" d="M704.76,-361.17C582.3,-357.24 271.14,-344.85 171,-318 107.66,-301.02 38,-319.7 38,-254.12 38,-254.12 38,-254.12 38,-191.25 38,-132.72 109.68,-96.36 149.72,-80.61"/>
<polygon fill="#63b8ff" stroke="#63b8ff" points="704.39,-364.66 714.5,-361.48 704.61,-357.66 704.39,-364.66"/>
</a>
</g>
</g>
<!-- Node10 -->
<g id="Node000010" class="node">
<title>Node10</title>
<g id="a_Node000010"><a xlink:href="_regazzoni_chamber_8h.html" target="_top" xlink:title="model::RegazzoniChamber source file">
<polygon fill="white" stroke="#666666" points="1442,-80.12 1306,-80.12 1306,-60.88 1442,-60.88 1442,-80.12"/>
<text text-anchor="middle" x="1374" y="-66.62" font-family="Helvetica,sans-Serif" font-size="10.00">model/RegazzoniChamber.h</text>
</a>
</g>
</g>
<!-- Node2&#45;&gt;Node10 -->
<g id="edge49_Node000002_Node000010" class="edge">
<title>Node2&#45;&gt;Node10</title>
<g id="a_edge49_Node000002_Node000010"><a xlink:title=" ">
<path fill="none" stroke="#63b8ff" d="M805.61,-360.71C984.27,-353.84 1575.5,-330.22 1591,-318 1614.26,-299.67 1610,-283.74 1610,-254.12 1610,-254.12 1610,-254.12 1610,-191.25 1610,-115.44 1511.96,-87.61 1442.26,-77.4"/>
<polygon fill="#63b8ff" stroke="#63b8ff" points="805.58,-357.21 795.72,-361.09 805.85,-364.2 805.58,-357.21"/>
</a>
</g>
</g>
<!-- Node15 -->
<g id="Node000015" class="node">
<title>Node15</title>
<g id="a_Node000015"><a xlink:href="_blood_vessel_8h.html" target="_top" xlink:title="model::BloodVessel source file">
<polygon fill="white" stroke="#666666" points="793.75,-318 686.25,-318 686.25,-298.75 793.75,-298.75 793.75,-318"/>
<text text-anchor="middle" x="740" y="-304.5" font-family="Helvetica,sans-Serif" font-size="10.00">model/BloodVessel.h</text>
</a>
</g>
</g>
<!-- Node2&#45;&gt;Node15 -->
<g id="edge20_Node000002_Node000015" class="edge">
<title>Node2&#45;&gt;Node15</title>
<g id="a_edge20_Node000002_Node000015"><a xlink:title=" ">
<path fill="none" stroke="#63b8ff" d="M749.46,-342.96C747.08,-334.52 744.42,-325.08 742.53,-318.36"/>
<polygon fill="#63b8ff" stroke="#63b8ff" points="746.03,-343.7 752.11,-352.38 752.77,-341.8 746.03,-343.7"/>
</a>
</g>
</g>
<!-- Node16 -->
<g id="Node000016" class="node">
<title>Node16</title>
<g id="a_Node000016"><a xlink:href="_blood_vessel_junction_8h.html" target="_top" xlink:title="model::BloodVesselJunction source file">
<polygon fill="white" stroke="#666666" points="948.12,-262.75 803.88,-262.75 803.88,-243.5 948.12,-243.5 948.12,-262.75"/>
<text text-anchor="middle" x="876" y="-249.25" font-family="Helvetica,sans-Serif" font-size="10.00">model/BloodVesselJunction.h</text>
</a>
</g>
</g>
<!-- Node2&#45;&gt;Node16 -->
<g id="edge27_Node000002_Node000016" class="edge">
<title>Node2&#45;&gt;Node16</title>
<g id="a_edge27_Node000002_Node000016"><a xlink:title=" ">
<path fill="none" stroke="#63b8ff" d="M773.44,-346.09C799.35,-322.86 845.64,-281.35 865.96,-263.13"/>
<polygon fill="#63b8ff" stroke="#63b8ff" points="771.14,-343.45 766.03,-352.74 775.81,-348.67 771.14,-343.45"/>
</a>
</g>
</g>
<!-- Node17 -->
<g id="Node000017" class="node">
<title>Node17</title>
<g id="a_Node000017"><a xlink:href="_blood_vessel_c_r_l_8h.html" target="_top" xlink:title="model::BloodVesselCRL source file">
<polygon fill="white" stroke="#666666" points="977.5,-318 850.5,-318 850.5,-298.75 977.5,-298.75 977.5,-318"/>
<text text-anchor="middle" x="914" y="-304.5" font-family="Helvetica,sans-Serif" font-size="10.00">model/BloodVesselCRL.h</text>
</a>
</g>
</g>
<!-- Node2&#45;&gt;Node17 -->
<g id="edge24_Node000002_Node000017" class="edge">
<title>Node2&#45;&gt;Node17</title>
<g id="a_edge24_Node000002_Node000017"><a xlink:title=" ">
<path fill="none" stroke="#63b8ff" d="M792.52,-350.06C821.5,-340.35 860.92,-327.15 886.9,-318.45"/>
<polygon fill="#63b8ff" stroke="#63b8ff" points="791.78,-346.62 783.41,-353.11 794,-353.25 791.78,-346.62"/>
</a>
</g>
</g>
<!-- Node18 -->
<g id="Node000018" class="node">
<title>Node18</title>
<g id="a_Node000018"><a xlink:href="_closed_loop_coronary_b_c_8h.html" target="_top" xlink:title="model::ClosedLoopCoronaryBC source file">
<polygon fill="white" stroke="#666666" points="1237.12,-262.75 1080.88,-262.75 1080.88,-243.5 1237.12,-243.5 1237.12,-262.75"/>
<text text-anchor="middle" x="1159" y="-249.25" font-family="Helvetica,sans-Serif" font-size="10.00">model/ClosedLoopCoronaryBC.h</text>
</a>
</g>
</g>
<!-- Node2&#45;&gt;Node18 -->
<g id="edge29_Node000002_Node000018" class="edge">
<title>Node2&#45;&gt;Node18</title>
<g id="a_edge29_Node000002_Node000018"><a xlink:title=" ">
<path fill="none" stroke="#63b8ff" d="M805.36,-361.03C912.31,-357.13 1154.39,-345.34 1179,-318 1193.15,-302.28 1177.07,-276.63 1166.59,-263.11"/>
<polygon fill="#63b8ff" stroke="#63b8ff" points="805.3,-357.53 795.43,-361.38 805.55,-364.53 805.3,-357.53"/>
</a>
</g>
</g>
<!-- Node21 -->
<g id="Node000021" class="node">
<title>Node21</title>
<g id="a_Node000021"><a xlink:href="_closed_loop_heart_pulmonary_8h.html" target="_top" xlink:title="model::ClosedLoopHeartPulmonary source file">
<polygon fill="white" stroke="#666666" points="1170.12,-318 995.88,-318 995.88,-298.75 1170.12,-298.75 1170.12,-318"/>
<text text-anchor="middle" x="1083" y="-304.5" font-family="Helvetica,sans-Serif" font-size="10.00">model/ClosedLoopHeartPulmonary.h</text>
</a>
</g>
</g>
<!-- Node2&#45;&gt;Node21 -->
<g id="edge34_Node000002_Node000021" class="edge">
<title>Node2&#45;&gt;Node21</title>
<g id="a_edge34_Node000002_Node000021"><a xlink:title=" ">
<path fill="none" stroke="#63b8ff" d="M805.29,-354.46C865.13,-344.75 964.75,-328.57 1027,-318.47"/>
<polygon fill="#63b8ff" stroke="#63b8ff" points="805.04,-350.95 795.73,-356.01 806.16,-357.86 805.04,-350.95"/>
</a>
</g>
</g>
<!-- Node22 -->
<g id="Node000022" class="node">
<title>Node22</title>
<g id="a_Node000022"><a xlink:href="_closed_loop_r_c_r_b_c_8h.html" target="_top" xlink:title="model::ClosedLoopRCRBC source file">
<polygon fill="white" stroke="#666666" points="242.12,-262.75 103.88,-262.75 103.88,-243.5 242.12,-243.5 242.12,-262.75"/>
<text text-anchor="middle" x="173" y="-249.25" font-family="Helvetica,sans-Serif" font-size="10.00">model/ClosedLoopRCRBC.h</text>
</a>
</g>
</g>
<!-- Node2&#45;&gt;Node22 -->
<g id="edge37_Node000002_Node000022" class="edge">
<title>Node2&#45;&gt;Node22</title>
<g id="a_edge37_Node000002_Node000022"><a xlink:title=" ">
<path fill="none" stroke="#63b8ff" d="M704.59,-358.46C636.25,-352.3 510.61,-339.16 405,-318 330.24,-303.02 244.17,-276.94 200.9,-263.19"/>
<polygon fill="#63b8ff" stroke="#63b8ff" points="704.09,-361.93 714.36,-359.33 704.7,-354.96 704.09,-361.93"/>
</a>
</g>
</g>
<!-- Node23 -->
<g id="Node000023" class="node">
<title>Node23</title>
<g id="a_Node000023"><a xlink:href="_flow_reference_b_c_8h.html" target="_top" xlink:title="model::FlowReferenceBC source file">
<polygon fill="white" stroke="#666666" points="1902.75,-318 1771.25,-318 1771.25,-298.75 1902.75,-298.75 1902.75,-318"/>
<text text-anchor="middle" x="1837" y="-304.5" font-family="Helvetica,sans-Serif" font-size="10.00">model/FlowReferenceBC.h</text>
</a>
</g>
</g>
<!-- Node2&#45;&gt;Node23 -->
<g id="edge39_Node000002_Node000023" class="edge">
<title>Node2&#45;&gt;Node23</title>
<g id="a_edge39_Node000002_Node000023"><a xlink:title=" ">
<path fill="none" stroke="#63b8ff" d="M805.46,-360.87C982.34,-354.65 1573.76,-333.2 1763,-318 1765.58,-317.79 1768.21,-317.57 1770.86,-317.32"/>
<polygon fill="#63b8ff" stroke="#63b8ff" points="805.56,-357.37 795.69,-361.21 805.81,-364.36 805.56,-357.37"/>
</a>
</g>
</g>
<!-- Node24 -->
<g id="Node000024" class="node">
<title>Node24</title>
<g id="a_Node000024"><a xlink:href="_junction_8h.html" target="_top" xlink:title="model::Junction source file">
<polygon fill="white" stroke="#666666" points="477.75,-262.75 388.25,-262.75 388.25,-243.5 477.75,-243.5 477.75,-262.75"/>
<text text-anchor="middle" x="433" y="-249.25" font-family="Helvetica,sans-Serif" font-size="10.00">model/Junction.h</text>
</a>
</g>
</g>
<!-- Node2&#45;&gt;Node24 -->
<g id="edge41_Node000002_Node000024" class="edge">
<title>Node2&#45;&gt;Node24</title>
<g id="a_edge41_Node000002_Node000024"><a xlink:title=" ">
<path fill="none" stroke="#63b8ff" d="M704.43,-357.96C638.62,-351.22 527.82,-337.41 492,-318 467.31,-304.62 447.35,-276.97 438.28,-262.84"/>
<polygon fill="#63b8ff" stroke="#63b8ff" points="703.96,-361.43 714.26,-358.94 704.66,-354.46 703.96,-361.43"/>
</a>
</g>
</g>
<!-- Node25 -->
<g id="Node000025" class="node">
<title>Node25</title>
<g id="a_Node000025"><a xlink:href="_open_loop_coronary_b_c_8h.html" target="_top" xlink:title="model::OpenLoopCoronaryBC source file">
<polygon fill="white" stroke="#666666" points="1413.75,-318 1264.25,-318 1264.25,-298.75 1413.75,-298.75 1413.75,-318"/>
<text text-anchor="middle" x="1339" y="-304.5" font-family="Helvetica,sans-Serif" font-size="10.00">model/OpenLoopCoronaryBC.h</text>
</a>
</g>
</g>
<!-- Node2&#45;&gt;Node25 -->
<g id="edge45_Node000002_Node000025" class="edge">
<title>Node2&#45;&gt;Node25</title>
<g id="a_edge45_Node000002_Node000025"><a xlink:title=" ">
<path fill="none" stroke="#63b8ff" d="M805.53,-358.02C908.51,-348.63 1143.11,-327.24 1263.96,-316.22"/>
<polygon fill="#63b8ff" stroke="#63b8ff" points="805.37,-354.52 795.73,-358.91 806.01,-361.49 805.37,-354.52"/>
</a>
</g>
</g>
<!-- Node26 -->
<g id="Node000026" class="node">
<title>Node26</title>
<g id="a_Node000026"><a xlink:href="_pressure_reference_b_c_8h.html" target="_top" xlink:title="model::PressureReferenceBC source file">
<polygon fill="white" stroke="#666666" points="1581.75,-318 1432.25,-318 1432.25,-298.75 1581.75,-298.75 1581.75,-318"/>
<text text-anchor="middle" x="1507" y="-304.5" font-family="Helvetica,sans-Serif" font-size="10.00">model/PressureReferenceBC.h</text>
</a>
</g>
</g>
<!-- Node2&#45;&gt;Node26 -->
<g id="edge47_Node000002_Node000026" class="edge">
<title>Node2&#45;&gt;Node26</title>
<g id="a_edge47_Node000002_Node000026"><a xlink:title=" ">
<path fill="none" stroke="#63b8ff" d="M805.39,-359.87C916.83,-353.65 1192.57,-337.52 1423,-318 1425.92,-317.75 1428.9,-317.49 1431.91,-317.22"/>
<polygon fill="#63b8ff" stroke="#63b8ff" points="805.49,-356.36 795.7,-360.41 805.88,-363.35 805.49,-356.36"/>
</a>
</g>
</g>
<!-- Node27 -->
<g id="Node000027" class="node">
<title>Node27</title>
<g id="a_Node000027"><a xlink:href="_regazzoni_valve_8h.html" target="_top" xlink:title="model::RegazzoniValve source file">
<polygon fill="white" stroke="#666666" points="551.88,-201.88 430.12,-201.88 430.12,-182.62 551.88,-182.62 551.88,-201.88"/>
<text text-anchor="middle" x="491" y="-188.38" font-family="Helvetica,sans-Serif" font-size="10.00">model/RegazzoniValve.h</text>
</a>
</g>
</g>
<!-- Node2&#45;&gt;Node27 -->
<g id="edge50_Node000002_Node000027" class="edge">
<title>Node2&#45;&gt;Node27</title>
<g id="a_edge50_Node000002_Node000027"><a xlink:title=" ">
<path fill="none" stroke="#63b8ff" d="M704.61,-353.75C675.43,-347.04 638.87,-335.85 610,-318 557.81,-285.73 512.9,-225.15 497.07,-202.29"/>
<polygon fill="#63b8ff" stroke="#63b8ff" points="703.81,-357.16 714.33,-355.87 705.3,-350.32 703.81,-357.16"/>
</a>
</g>
</g>
<!-- Node28 -->
<g id="Node000028" class="node">
<title>Node28</title>
<g id="a_Node000028"><a xlink:href="_resistance_b_c_8h.html" target="_top" xlink:title="model::ResistanceBC source file">
<polygon fill="white" stroke="#666666" points="1753.5,-318 1638.5,-318 1638.5,-298.75 1753.5,-298.75 1753.5,-318"/>
<text text-anchor="middle" x="1696" y="-304.5" font-family="Helvetica,sans-Serif" font-size="10.00">model/ResistanceBC.h</text>
</a>
</g>
</g>
<!-- Node2&#45;&gt;Node28 -->
<g id="edge52_Node000002_Node000028" class="edge">
<title>Node2&#45;&gt;Node28</title>
<g id="a_edge52_Node000002_Node000028"><a xlink:title=" ">
<path fill="none" stroke="#63b8ff" d="M805.48,-361.23C939.19,-357.28 1313.52,-344.54 1624,-318 1628.64,-317.6 1633.44,-317.14 1638.27,-316.64"/>
<polygon fill="#63b8ff" stroke="#63b8ff" points="805.45,-357.73 795.55,-361.52 805.65,-364.73 805.45,-357.73"/>
</a>
</g>
</g>
<!-- Node29 -->
<g id="Node000029" class="node">
<title>Node29</title>
<g id="a_Node000029"><a xlink:href="_resistive_junction_8h.html" target="_top" xlink:title="model::ResistiveJunction source file">
<polygon fill="white" stroke="#666666" points="700,-201.88 570,-201.88 570,-182.62 700,-182.62 700,-201.88"/>
<text text-anchor="middle" x="635" y="-188.38" font-family="Helvetica,sans-Serif" font-size="10.00">model/ResistiveJunction.h</text>
</a>
</g>
</g>
<!-- Node2&#45;&gt;Node29 -->
<g id="edge54_Node000002_Node000029" class="edge">
<title>Node2&#45;&gt;Node29</title>
<g id="a_edge54_Node000002_Node000029"><a xlink:title=" ">
<path fill="none" stroke="#63b8ff" d="M704.98,-352.02C681.83,-345.22 655.08,-334.49 635,-318 606.87,-294.9 590.33,-278.3 601,-243.5 605.94,-227.39 617.99,-211.79 626.33,-202.35"/>
<polygon fill="#63b8ff" stroke="#63b8ff" points="703.99,-355.37 714.56,-354.65 705.84,-348.62 703.99,-355.37"/>
</a>
</g>
</g>
<!-- Node30 -->
<g id="Node000030" class="node">
<title>Node30</title>
<g id="a_Node000030"><a xlink:href="_valve_tanh_8h.html" target="_top" xlink:title="model::ValveTanh source file">
<polygon fill="white" stroke="#666666" points="709.62,-262.75 610.38,-262.75 610.38,-243.5 709.62,-243.5 709.62,-262.75"/>
<text text-anchor="middle" x="660" y="-249.25" font-family="Helvetica,sans-Serif" font-size="10.00">model/ValveTanh.h</text>
</a>
</g>
</g>
<!-- Node2&#45;&gt;Node30 -->
<g id="edge56_Node000002_Node000030" class="edge">
<title>Node2&#45;&gt;Node30</title>
<g id="a_edge56_Node000002_Node000030"><a xlink:title=" ">
<path fill="none" stroke="#63b8ff" d="M704.76,-355.35C682.22,-349.3 657.68,-338.24 644,-318 632.48,-300.95 645.07,-276.3 653.56,-263.16"/>
<polygon fill="#63b8ff" stroke="#63b8ff" points="703.94,-358.75 714.47,-357.65 705.55,-351.94 703.94,-358.75"/>
</a>
</g>
</g>
<!-- Node31 -->
<g id="Node000031" class="node">
<title>Node31</title>
<g id="a_Node000031"><a xlink:href="_windkessel_b_c_8h.html" target="_top" xlink:title="model::WindkesselBC source file">
<polygon fill="white" stroke="#666666" points="872.25,-201.88 755.75,-201.88 755.75,-182.62 872.25,-182.62 872.25,-201.88"/>
<text text-anchor="middle" x="814" y="-188.38" font-family="Helvetica,sans-Serif" font-size="10.00">model/WindkesselBC.h</text>
</a>
</g>
</g>
<!-- Node2&#45;&gt;Node31 -->
<g id="edge58_Node000002_Node000031" class="edge">
<title>Node2&#45;&gt;Node31</title>
<g id="a_edge58_Node000002_Node000031"><a xlink:title=" ">
<path fill="none" stroke="#63b8ff" d="M716.17,-349.32C691.45,-338.42 665.98,-321.15 677,-298.75 680.45,-291.75 768.73,-226.48 801.72,-202.25"/>
<polygon fill="#63b8ff" stroke="#63b8ff" points="714.63,-352.47 725.21,-353.02 717.28,-345.99 714.63,-352.47"/>
</a>
</g>
</g>
<!-- Node3&#45;&gt;Node4 -->
<g id="edge3_Node000003_Node000004" class="edge">
<title>Node3&#45;&gt;Node4</title>
<g id="a_edge3_Node000003_Node000004"><a xlink:title=" ">
<path fill="none" stroke="#63b8ff" d="M324.93,-233.3C335.48,-215.41 353.96,-189.44 378,-177 465.25,-131.84 769.24,-130.64 879.05,-131.75"/>
<polygon fill="#63b8ff" stroke="#63b8ff" points="321.96,-231.44 320.14,-241.88 328.07,-234.85 321.96,-231.44"/>
</a>
</g>
</g>
<!-- Node5 -->
<g id="Node000005" class="node">
<title>Node5</title>
<g id="a_Node000005"><a xlink:href="_integrator_8h.html" target="_top" xlink:title="Integrator source file.">
<polygon fill="white" stroke="#666666" points="1085.62,-80.12 986.38,-80.12 986.38,-60.88 1085.62,-60.88 1085.62,-80.12"/>
<text text-anchor="middle" x="1036" y="-66.62" font-family="Helvetica,sans-Serif" font-size="10.00">algebra/Integrator.h</text>
</a>
</g>
</g>
<!-- Node4&#45;&gt;Node5 -->
<g id="edge4_Node000004_Node000005" class="edge">
<title>Node4&#45;&gt;Node5</title>
<g id="a_edge4_Node000004_Node000005"><a xlink:title=" ">
<path fill="none" stroke="#63b8ff" d="M947.14,-116.22C969.21,-105.11 999.26,-89.99 1018.15,-80.48"/>
<polygon fill="#63b8ff" stroke="#63b8ff" points="945.74,-113 938.38,-120.62 948.88,-119.26 945.74,-113"/>
</a>
</g>
</g>
<!-- Node6 -->
<g id="Node000006" class="node">
<title>Node6</title>
<g id="a_Node000006"><a xlink:href="interface_8h.html" target="_top" xlink:title="svZeroDSolver callable interface.">
<polygon fill="white" stroke="#666666" points="729.75,-19.25 628.25,-19.25 628.25,0 729.75,0 729.75,-19.25"/>
<text text-anchor="middle" x="679" y="-5.75" font-family="Helvetica,sans-Serif" font-size="10.00">interface/interface.h</text>
</a>
</g>
</g>
<!-- Node4&#45;&gt;Node6 -->
<g id="edge7_Node000004_Node000006" class="edge">
<title>Node4&#45;&gt;Node6</title>
<g id="a_edge7_Node000004_Node000006"><a xlink:title=" ">
<path fill="none" stroke="#63b8ff" d="M867.94,-126.31C810.45,-120.69 721.93,-108.55 698,-85.75 679.49,-68.12 677.99,-35.28 678.45,-19.51"/>
<polygon fill="#63b8ff" stroke="#63b8ff" points="867.55,-129.79 877.84,-127.24 868.21,-122.82 867.55,-129.79"/>
</a>
</g>
</g>
<!-- Node7 -->
<g id="Node000007" class="node">
<title>Node7</title>
<g id="a_Node000007"><a xlink:href="_solver_8h.html" target="_top" xlink:title="Solver source file.">
<polygon fill="white" stroke="#666666" points="1215.75,-19.25 1138.25,-19.25 1138.25,0 1215.75,0 1215.75,-19.25"/>
<text text-anchor="middle" x="1177" y="-5.75" font-family="Helvetica,sans-Serif" font-size="10.00">solve/Solver.h</text>
</a>
</g>
</g>
<!-- Node4&#45;&gt;Node7 -->
<g id="edge17_Node000004_Node000007" class="edge">
<title>Node4&#45;&gt;Node7</title>
<g id="a_edge17_Node000004_Node000007"><a xlink:title=" ">
<path fill="none" stroke="#63b8ff" d="M970.17,-127.33C1060.44,-121.42 1240.26,-107.11 1259,-85.75 1267.94,-75.56 1265.93,-66.9 1259,-55.25 1248.48,-37.56 1228.22,-26.43 1210.47,-19.72"/>
<polygon fill="#63b8ff" stroke="#63b8ff" points="970.1,-123.82 960.34,-127.96 970.55,-130.81 970.1,-123.82"/>
</a>
</g>
</g>
<!-- Node4&#45;&gt;Node8 -->
<g id="edge8_Node000004_Node000008" class="edge">
<title>Node4&#45;&gt;Node8</title>
<g id="a_edge8_Node000004_Node000008"><a xlink:title=" ">
<path fill="none" stroke="#63b8ff" d="M868.07,-125.39C794.89,-117.58 656.31,-101.69 539,-85.75 527.39,-84.17 514.99,-82.37 503.32,-80.6"/>
<polygon fill="#63b8ff" stroke="#63b8ff" points="867.42,-128.84 877.74,-126.42 868.16,-121.88 867.42,-128.84"/>
</a>
</g>
</g>
<!-- Node4&#45;&gt;Node9 -->
<g id="edge10_Node000004_Node000009" class="edge">
<title>Node4&#45;&gt;Node9</title>
<g id="a_edge10_Node000004_Node000009"><a xlink:title=" ">
<path fill="none" stroke="#63b8ff" d="M867.93,-126.33C734.04,-115.72 373.51,-87.15 233.08,-76.02"/>
<polygon fill="#63b8ff" stroke="#63b8ff" points="867.3,-129.79 877.54,-127.09 867.85,-122.81 867.3,-129.79"/>
</a>
</g>
</g>
<!-- Node4&#45;&gt;Node10 -->
<g id="edge11_Node000004_Node000010" class="edge">
<title>Node4&#45;&gt;Node10</title>
<g id="a_edge11_Node000004_Node000010"><a xlink:title=" ">
<path fill="none" stroke="#63b8ff" d="M970.22,-124.46C1040.82,-116.68 1171.6,-102.08 1283,-85.75 1293.44,-84.22 1304.59,-82.4 1315.41,-80.59"/>
<polygon fill="#63b8ff" stroke="#63b8ff" points="970.06,-120.95 960.5,-125.53 970.83,-127.91 970.06,-120.95"/>
</a>
</g>
</g>
<!-- Node11 -->
<g id="Node000011" class="node">
<title>Node11</title>
<g id="a_Node000011"><a xlink:href="_levenberg_marquardt_optimizer_8h.html" target="_top" xlink:title="opt::LevenbergMarquardtOptimizer source file">
<polygon fill="white" stroke="#666666" points="851.12,-85.75 706.88,-85.75 706.88,-55.25 851.12,-55.25 851.12,-85.75"/>
<text text-anchor="start" x="714.88" y="-72.25" font-family="Helvetica,sans-Serif" font-size="10.00">optimize/LevenbergMarquardt</text>
<text text-anchor="middle" x="779" y="-61" font-family="Helvetica,sans-Serif" font-size="10.00">Optimizer.h</text>
</a>
</g>
</g>
<!-- Node4&#45;&gt;Node11 -->
<g id="edge13_Node000004_Node000011" class="edge">
<title>Node4&#45;&gt;Node11</title>
<g id="a_edge13_Node000004_Node000011"><a xlink:title=" ">
<path fill="none" stroke="#63b8ff" d="M887.05,-116.94C865.24,-107.77 836.36,-95.62 813.94,-86.19"/>
<polygon fill="#63b8ff" stroke="#63b8ff" points="885.46,-120.07 896.04,-120.72 888.18,-113.62 885.46,-120.07"/>
</a>
</g>
</g>
<!-- Node12 -->
<g id="Node000012" class="node">
<title>Node12</title>
<g id="a_Node000012"><a xlink:href="calibrate_8h.html" target="_top" xlink:title="opt::calibrate source file">
<polygon fill="white" stroke="#666666" points="968.62,-80.12 869.38,-80.12 869.38,-60.88 968.62,-60.88 968.62,-80.12"/>
<text text-anchor="middle" x="919" y="-66.62" font-family="Helvetica,sans-Serif" font-size="10.00">optimize/calibrate.h</text>
</a>
</g>
</g>
<!-- Node4&#45;&gt;Node12 -->
<g id="edge14_Node000004_Node000012" class="edge">
<title>Node4&#45;&gt;Node12</title>
<g id="a_edge14_Node000004_Node000012"><a xlink:title=" ">
<path fill="none" stroke="#63b8ff" d="M919,-109.95C919,-99.92 919,-88.33 919,-80.53"/>
<polygon fill="#63b8ff" stroke="#63b8ff" points="915.5,-109.92 919,-119.92 922.5,-109.92 915.5,-109.92"/>
</a>
</g>
</g>
<!-- Node13 -->
<g id="Node000013" class="node">
<title>Node13</title>
<g id="a_Node000013"><a xlink:href="_simulation_parameters_8h.html" target="_top" xlink:title="Source file to read simulation configuration.">
<polygon fill="white" stroke="#666666" points="1249.88,-80.12 1104.12,-80.12 1104.12,-60.88 1249.88,-60.88 1249.88,-80.12"/>
<text text-anchor="middle" x="1177" y="-66.62" font-family="Helvetica,sans-Serif" font-size="10.00">solve/SimulationParameters.h</text>
</a>
</g>
</g>
<!-- Node4&#45;&gt;Node13 -->
<g id="edge15_Node000004_Node000013" class="edge">
<title>Node4&#45;&gt;Node13</title>
<g id="a_edge15_Node000004_Node000013"><a xlink:title=" ">
<path fill="none" stroke="#63b8ff" d="M969.75,-118.79C1018.83,-107.59 1092.21,-90.85 1137.21,-80.58"/>
<polygon fill="#63b8ff" stroke="#63b8ff" points="969.19,-115.33 960.22,-120.97 970.75,-122.16 969.19,-115.33"/>
</a>
</g>
</g>
<!-- Node14 -->
<g id="Node000014" class="node">
<title>Node14</title>
<g id="a_Node000014"><a xlink:href="csv__writer_8h.html" target="_top" xlink:title="csv_writer source file">
<polygon fill="white" stroke="#666666" points="651.38,-80.12 556.62,-80.12 556.62,-60.88 651.38,-60.88 651.38,-80.12"/>
<text text-anchor="middle" x="604" y="-66.62" font-family="Helvetica,sans-Serif" font-size="10.00">solve/csv_writer.h</text>
</a>
</g>
</g>
<!-- Node4&#45;&gt;Node14 -->
<g id="edge18_Node000004_Node000014" class="edge">
<title>Node4&#45;&gt;Node14</title>
<g id="a_edge18_Node000004_Node000014"><a xlink:title=" ">
<path fill="none" stroke="#63b8ff" d="M868.15,-122.3C816.76,-113.93 735.14,-100.09 665,-85.75 657.33,-84.18 649.15,-82.37 641.35,-80.57"/>
<polygon fill="#63b8ff" stroke="#63b8ff" points="867.35,-125.71 877.78,-123.86 868.47,-118.8 867.35,-125.71"/>
</a>
</g>
</g>
<!-- Node5&#45;&gt;Node6 -->
<g id="edge5_Node000005_Node000006" class="edge">
<title>Node5&#45;&gt;Node6</title>
<g id="a_edge5_Node000005_Node000006"><a xlink:title=" ">
<path fill="none" stroke="#63b8ff" d="M990.28,-57.85C986.14,-56.92 982,-56.04 978,-55.25 891.49,-38.2 789.76,-24.31 730.04,-16.78"/>
<polygon fill="#63b8ff" stroke="#63b8ff" points="989.14,-61.18 999.68,-60.04 990.73,-54.36 989.14,-61.18"/>
</a>
</g>
</g>
<!-- Node5&#45;&gt;Node7 -->
<g id="edge6_Node000005_Node000007" class="edge">
<title>Node5&#45;&gt;Node7</title>
<g id="a_edge6_Node000005_Node000007"><a xlink:title=" ">
<path fill="none" stroke="#63b8ff" d="M1068.11,-56.09C1094.86,-44.92 1132.21,-29.33 1155.48,-19.61"/>
<polygon fill="#63b8ff" stroke="#63b8ff" points="1067,-52.76 1059.12,-59.85 1069.7,-59.22 1067,-52.76"/>
</a>
</g>
</g>
<!-- Node8&#45;&gt;Node4 -->
<g id="edge9_Node000008_Node000004" class="edge">
<title>Node8&#45;&gt;Node4</title>
<g id="a_edge9_Node000008_Node000004"><a xlink:title=" ">
<path fill="none" stroke="#63b8ff" d="M532.3,-82.26C540.66,-83.48 549.02,-84.66 557,-85.75 674,-101.65 812.15,-117.5 879.02,-125.33"/>
<polygon fill="#63b8ff" stroke="#63b8ff" points="532.83,-78.8 522.43,-80.82 531.82,-85.73 532.83,-78.8"/>
</a>
</g>
</g>
<!-- Node10&#45;&gt;Node4 -->
<g id="edge12_Node000010_Node000004" class="edge">
<title>Node10&#45;&gt;Node4</title>
<g id="a_edge12_Node000010_Node000004"><a xlink:title=" ">
<path fill="none" stroke="#63b8ff" d="M1321.81,-82.49C1314.84,-83.65 1307.77,-84.76 1301,-85.75 1176.94,-103.94 1028.85,-119.98 958.98,-126.83"/>
<polygon fill="#63b8ff" stroke="#63b8ff" points="1322.23,-85.97 1331.5,-80.84 1321.05,-79.07 1322.23,-85.97"/>
</a>
</g>
</g>
<!-- Node13&#45;&gt;Node7 -->
<g id="edge16_Node000013_Node000007" class="edge">
<title>Node13&#45;&gt;Node7</title>
<g id="a_edge16_Node000013_Node000007"><a xlink:title=" ">
<path fill="none" stroke="#63b8ff" d="M1177,-49.07C1177,-39.04 1177,-27.46 1177,-19.65"/>
<polygon fill="#63b8ff" stroke="#63b8ff" points="1173.5,-49.04 1177,-59.04 1180.5,-49.04 1173.5,-49.04"/>
</a>
</g>
</g>
<!-- Node14&#45;&gt;Node6 -->
<g id="edge19_Node000014_Node000006" class="edge">
<title>Node14&#45;&gt;Node6</title>
<g id="a_edge19_Node000014_Node000006"><a xlink:title=" ">
<path fill="none" stroke="#63b8ff" d="M624.22,-53.63C638.1,-42.73 656.01,-28.67 667.5,-19.65"/>
<polygon fill="#63b8ff" stroke="#63b8ff" points="622.29,-50.7 616.58,-59.62 626.61,-56.2 622.29,-50.7"/>
</a>
</g>
</g>
<!-- Node15&#45;&gt;Node4 -->
<g id="edge23_Node000015_Node000004" class="edge">
<title>Node15&#45;&gt;Node4</title>
<g id="a_edge23_Node000015_Node000004"><a xlink:title=" ">
<path fill="none" stroke="#63b8ff" d="M752.07,-289.21C762.16,-275.18 777.66,-256.09 795,-243.5 828.53,-219.15 850.67,-235.73 881,-207.5 901.12,-188.78 912.18,-157.04 916.64,-141.5"/>
<polygon fill="#63b8ff" stroke="#63b8ff" points="749.4,-286.91 746.59,-297.13 755.16,-290.9 749.4,-286.91"/>
</a>
</g>
</g>
<!-- Node15&#45;&gt;Node16 -->
<g id="edge21_Node000015_Node000016" class="edge">
<title>Node15&#45;&gt;Node16</title>
<g id="a_edge21_Node000015_Node000016"><a xlink:title=" ">
<path fill="none" stroke="#63b8ff" d="M773.74,-294.16C798.36,-284.52 831.09,-271.71 852.82,-263.2"/>
<polygon fill="#63b8ff" stroke="#63b8ff" points="772.52,-290.88 764.48,-297.79 775.07,-297.4 772.52,-290.88"/>
</a>
</g>
</g>
<!-- Node16&#45;&gt;Node4 -->
<g id="edge22_Node000016_Node000004" class="edge">
<title>Node16&#45;&gt;Node4</title>
<g id="a_edge22_Node000016_Node000004"><a xlink:title=" ">
<path fill="none" stroke="#63b8ff" d="M895.02,-235.1C902.28,-227.44 909.82,-217.8 914,-207.5 923.15,-184.98 921.64,-155.52 920.14,-141.1"/>
<polygon fill="#63b8ff" stroke="#63b8ff" points="892.62,-232.55 887.92,-242.05 897.51,-237.56 892.62,-232.55"/>
</a>
</g>
</g>
<!-- Node17&#45;&gt;Node4 -->
<g id="edge26_Node000017_Node000004" class="edge">
<title>Node17&#45;&gt;Node4</title>
<g id="a_edge26_Node000017_Node000004"><a xlink:title=" ">
<path fill="none" stroke="#63b8ff" d="M935.65,-291.13C943.99,-283.54 952.57,-273.74 957,-262.75 974.82,-218.58 940.86,-162.94 925.74,-141.44"/>
<polygon fill="#63b8ff" stroke="#63b8ff" points="933.48,-288.38 928.07,-297.48 937.98,-293.74 933.48,-288.38"/>
</a>
</g>
</g>
<!-- Node17&#45;&gt;Node16 -->
<g id="edge25_Node000017_Node000016" class="edge">
<title>Node17&#45;&gt;Node16</title>
<g id="a_edge25_Node000017_Node000016"><a xlink:title=" ">
<path fill="none" stroke="#63b8ff" d="M901.2,-289.44C894.88,-280.59 887.54,-270.29 882.41,-263.11"/>
<polygon fill="#63b8ff" stroke="#63b8ff" points="898.19,-291.24 906.85,-297.35 903.89,-287.18 898.19,-291.24"/>
</a>
</g>
</g>
<!-- Node19 -->
<g id="Node000019" class="node">
<title>Node19</title>
<g id="a_Node000019"><a xlink:href="_closed_loop_coronary_left_b_c_8h.html" target="_top" xlink:title="Left side of ClosedLoopCoronaryBC.">
<polygon fill="white" stroke="#666666" points="1177.62,-207.5 1042.38,-207.5 1042.38,-177 1177.62,-177 1177.62,-207.5"/>
<text text-anchor="start" x="1050.38" y="-194" font-family="Helvetica,sans-Serif" font-size="10.00">model/ClosedLoopCoronary</text>
<text text-anchor="middle" x="1110" y="-182.75" font-family="Helvetica,sans-Serif" font-size="10.00">LeftBC.h</text>
</a>
</g>
</g>
<!-- Node18&#45;&gt;Node19 -->
<g id="edge30_Node000018_Node000019" class="edge">
<title>Node18&#45;&gt;Node19</title>
<g id="a_edge30_Node000018_Node000019"><a xlink:title=" ">
<path fill="none" stroke="#63b8ff" d="M1144.27,-234.43C1137.19,-225.92 1128.8,-215.84 1122.09,-207.78"/>
<polygon fill="#63b8ff" stroke="#63b8ff" points="1141.5,-236.57 1150.59,-242.02 1146.88,-232.09 1141.5,-236.57"/>
</a>
</g>
</g>
<!-- Node20 -->
<g id="Node000020" class="node">
<title>Node20</title>
<g id="a_Node000020"><a xlink:href="_closed_loop_coronary_right_b_c_8h.html" target="_top" xlink:title="Right side of ClosedLoopCoronaryBC.">
<polygon fill="white" stroke="#666666" points="1330.62,-207.5 1195.38,-207.5 1195.38,-177 1330.62,-177 1330.62,-207.5"/>
<text text-anchor="start" x="1203.38" y="-194" font-family="Helvetica,sans-Serif" font-size="10.00">model/ClosedLoopCoronary</text>
<text text-anchor="middle" x="1263" y="-182.75" font-family="Helvetica,sans-Serif" font-size="10.00">RightBC.h</text>
</a>
</g>
</g>
<!-- Node18&#45;&gt;Node20 -->
<g id="edge32_Node000018_Node000020" class="edge">
<title>Node18&#45;&gt;Node20</title>
<g id="a_edge32_Node000018_Node000020"><a xlink:title=" ">
<path fill="none" stroke="#63b8ff" d="M1184.59,-237.64C1200.64,-228.55 1221.26,-216.88 1237.33,-207.78"/>
<polygon fill="#63b8ff" stroke="#63b8ff" points="1183.09,-234.47 1176.11,-242.44 1186.54,-240.56 1183.09,-234.47"/>
</a>
</g>
</g>
<!-- Node19&#45;&gt;Node4 -->
<g id="edge31_Node000019_Node000004" class="edge">
<title>Node19&#45;&gt;Node4</title>
<g id="a_edge31_Node000019_Node000004"><a xlink:title=" ">
<path fill="none" stroke="#63b8ff" d="M1051.52,-173.22C1017.46,-162.72 975.95,-149.93 948.57,-141.49"/>
<polygon fill="#63b8ff" stroke="#63b8ff" points="1050.26,-176.5 1060.85,-176.1 1052.32,-169.81 1050.26,-176.5"/>
</a>
</g>
</g>
<!-- Node20&#45;&gt;Node4 -->
<g id="edge33_Node000020_Node000004" class="edge">
<title>Node20&#45;&gt;Node4</title>
<g id="a_edge33_Node000020_Node000004"><a xlink:title=" ">
<path fill="none" stroke="#63b8ff" d="M1183.84,-176.46C1098.3,-161.41 1009.22,-146.87 959,-138.77"/>
<polygon fill="#63b8ff" stroke="#63b8ff" points="1183.11,-179.89 1193.57,-178.18 1184.33,-172.99 1183.11,-179.89"/>
</a>
</g>
</g>
<!-- Node21&#45;&gt;Node4 -->
<g id="edge36_Node000021_Node000004" class="edge">
<title>Node21&#45;&gt;Node4</title>
<g id="a_edge36_Node000021_Node000004"><a xlink:title=" ">
<path fill="none" stroke="#63b8ff" d="M1066.98,-290.28C1032.78,-253.79 953.66,-169.36 927.54,-141.49"/>
<polygon fill="#63b8ff" stroke="#63b8ff" points="1064.21,-292.45 1073.61,-297.35 1069.32,-287.66 1064.21,-292.45"/>
</a>
</g>
</g>
<!-- Node21&#45;&gt;Node18 -->
<g id="edge35_Node000021_Node000018" class="edge">
<title>Node21&#45;&gt;Node18</title>
<g id="a_edge35_Node000021_Node000018"><a xlink:title=" ">
<path fill="none" stroke="#63b8ff" d="M1105.29,-291.76C1118.54,-282.47 1134.89,-271.02 1146.04,-263.2"/>
<polygon fill="#63b8ff" stroke="#63b8ff" points="1103.31,-288.87 1097.13,-297.47 1107.33,-294.6 1103.31,-288.87"/>
</a>
</g>
</g>
<!-- Node22&#45;&gt;Node4 -->
<g id="edge38_Node000022_Node000004" class="edge">
<title>Node22&#45;&gt;Node4</title>
<g id="a_edge38_Node000022_Node000004"><a xlink:title=" ">
<path fill="none" stroke="#63b8ff" d="M197.75,-237.69C229.51,-219.95 286.86,-190.56 340,-177 442.45,-150.86 765.71,-137.6 879.17,-133.66"/>
<polygon fill="#63b8ff" stroke="#63b8ff" points="196.29,-234.49 189.32,-242.47 199.75,-240.58 196.29,-234.49"/>
</a>
</g>
</g>
<!-- Node23&#45;&gt;Node4 -->
<g id="edge40_Node000023_Node000004" class="edge">
<title>Node23&#45;&gt;Node4</title>
<g id="a_edge40_Node000023_Node000004"><a xlink:title=" ">
<path fill="none" stroke="#63b8ff" d="M1808.18,-293.7C1748.75,-266.21 1607.59,-204.5 1482,-177 1289.24,-134.8 1051.61,-131.37 958.79,-131.83"/>
<polygon fill="#63b8ff" stroke="#63b8ff" points="1806.39,-296.73 1816.94,-297.78 1809.35,-290.39 1806.39,-296.73"/>
</a>
</g>
</g>
<!-- Node24&#45;&gt;Node4 -->
<g id="edge42_Node000024_Node000004" class="edge">
<title>Node24&#45;&gt;Node4</title>
<g id="a_edge42_Node000024_Node000004"><a xlink:title=" ">
<path fill="none" stroke="#63b8ff" d="M411.76,-235.86C393.19,-219.73 371.55,-194.89 388,-177 421.07,-141.03 761.14,-134.04 879.03,-132.69"/>
<polygon fill="#63b8ff" stroke="#63b8ff" points="409.34,-238.4 419.28,-242.05 413.79,-233 409.34,-238.4"/>
</a>
</g>
</g>
<!-- Node25&#45;&gt;Node4 -->
<g id="edge46_Node000025_Node000004" class="edge">
<title>Node25&#45;&gt;Node4</title>
<g id="a_edge46_Node000025_Node000004"><a xlink:title=" ">
<path fill="none" stroke="#63b8ff" d="M1352.84,-289.2C1372.13,-261.51 1401.7,-208.66 1373,-177 1345.41,-146.56 1064.27,-136.15 958.74,-133.3"/>
<polygon fill="#63b8ff" stroke="#63b8ff" points="1350.03,-287.11 1346.98,-297.26 1355.69,-291.23 1350.03,-287.11"/>
</a>
</g>
</g>
<!-- Node26&#45;&gt;Node4 -->
<g id="edge48_Node000026_Node000004" class="edge">
<title>Node26&#45;&gt;Node4</title>
<g id="a_edge48_Node000026_Node000004"><a xlink:title=" ">
<path fill="none" stroke="#63b8ff" d="M1496.83,-288.43C1479.77,-258.8 1442.36,-202.27 1393,-177 1317.58,-138.4 1059,-133 958.96,-132.39"/>
<polygon fill="#63b8ff" stroke="#63b8ff" points="1493.69,-289.99 1501.61,-297.03 1499.81,-286.59 1493.69,-289.99"/>
</a>
</g>
</g>
<!-- Node27&#45;&gt;Node4 -->
<g id="edge51_Node000027_Node000004" class="edge">
<title>Node27&#45;&gt;Node4</title>
<g id="a_edge51_Node000027_Node000004"><a xlink:title=" ">
<path fill="none" stroke="#63b8ff" d="M544.01,-180.01C549.73,-178.93 555.48,-177.9 561,-177 675.97,-158.16 812.86,-143.14 879.12,-136.33"/>
<polygon fill="#63b8ff" stroke="#63b8ff" points="543.74,-176.5 534.59,-181.85 545.07,-183.37 543.74,-176.5"/>
</a>
</g>
</g>
<!-- Node28&#45;&gt;Node4 -->
<g id="edge53_Node000028_Node000004" class="edge">
<title>Node28&#45;&gt;Node4</title>
<g id="a_edge53_Node000028_Node000004"><a xlink:title=" ">
<path fill="none" stroke="#63b8ff" d="M1672.66,-292.4C1627.38,-264.21 1523.53,-203.66 1427,-177 1338.89,-152.67 1062.39,-138.55 958.75,-134.01"/>
<polygon fill="#63b8ff" stroke="#63b8ff" points="1670.54,-295.2 1680.87,-297.57 1674.27,-289.28 1670.54,-295.2"/>
</a>
</g>
</g>
<!-- Node29&#45;&gt;Node4 -->
<g id="edge55_Node000029_Node000004" class="edge">
<title>Node29&#45;&gt;Node4</title>
<g id="a_edge55_Node000029_Node000004"><a xlink:title=" ">
<path fill="none" stroke="#63b8ff" d="M689.8,-179.89C745.35,-168.37 829.94,-150.84 879.32,-140.6"/>
<polygon fill="#63b8ff" stroke="#63b8ff" points="689.32,-176.42 680.23,-181.87 690.74,-183.27 689.32,-176.42"/>
</a>
</g>
</g>
<!-- Node30&#45;&gt;Node4 -->
<g id="edge57_Node000030_Node000004" class="edge">
<title>Node30&#45;&gt;Node4</title>
<g id="a_edge57_Node000030_Node000004"><a xlink:title=" ">
<path fill="none" stroke="#63b8ff" d="M678.38,-235.47C701.54,-214.59 739.28,-181.05 747,-177 789.21,-154.86 843.12,-143.19 879.23,-137.42"/>
<polygon fill="#63b8ff" stroke="#63b8ff" points="676.22,-232.69 671.15,-242 680.92,-237.89 676.22,-232.69"/>
</a>
</g>
</g>
<!-- Node31&#45;&gt;Node4 -->
<g id="edge59_Node000031_Node000004" class="edge">
<title>Node31&#45;&gt;Node4</title>
<g id="a_edge59_Node000031_Node000004"><a xlink:title=" ">
<path fill="none" stroke="#63b8ff" d="M839.82,-176.77C859.55,-165.71 886.12,-150.81 902.9,-141.4"/>
<polygon fill="#63b8ff" stroke="#63b8ff" points="838.28,-173.62 831.27,-181.57 841.7,-179.73 838.28,-173.62"/>
</a>
</g>
</g>
<!-- Node32&#45;&gt;Node4 -->
<g id="edge62_Node000032_Node000004" class="edge">
<title>Node32&#45;&gt;Node4</title>
<g id="a_edge62_Node000032_Node000004"><a xlink:title=" ">
<path fill="none" stroke="#63b8ff" d="M1141.32,-348.56C1157.77,-340.3 1178.45,-329.28 1196,-318 1271.34,-269.56 1399.91,-243.59 1340,-177 1314.75,-148.93 1058.75,-137.17 958.74,-133.62"/>
<polygon fill="#63b8ff" stroke="#63b8ff" points="1139.96,-345.33 1132.55,-352.9 1143.06,-351.6 1139.96,-345.33"/>
</a>
</g>
</g>
<!-- Node33&#45;&gt;Node2 -->
<g id="edge64_Node000033_Node000002" class="edge">
<title>Node33&#45;&gt;Node2</title>
<g id="a_edge64_Node000033_Node000002"><a xlink:title=" ">
<path fill="none" stroke="#63b8ff" d="M1446.52,-413.59C1297.82,-403.06 917.55,-376.14 794.24,-367.4"/>
<polygon fill="#63b8ff" stroke="#63b8ff" points="1445.93,-417.06 1456.15,-414.27 1446.42,-410.08 1445.93,-417.06"/>
</a>
</g>
</g>
<!-- Node33&#45;&gt;Node4 -->
<g id="edge66_Node000033_Node000004" class="edge">
<title>Node33&#45;&gt;Node4</title>
<g id="a_edge66_Node000033_Node000004"><a xlink:title=" ">
<path fill="none" stroke="#63b8ff" d="M1567.3,-414.98C1684.36,-407.7 1931,-383.55 1931,-309.38 1931,-309.38 1931,-309.38 1931,-252.12 1931,-152.44 1146.65,-135.46 958.98,-132.83"/>
<polygon fill="#63b8ff" stroke="#63b8ff" points="1567.34,-411.47 1557.56,-415.56 1567.75,-418.46 1567.34,-411.47"/>
</a>
</g>
</g>
<!-- Node33&#45;&gt;Node23 -->
<g id="edge65_Node000033_Node000023" class="edge">
<title>Node33&#45;&gt;Node23</title>
<g id="a_edge65_Node000033_Node000023"><a xlink:title=" ">
<path fill="none" stroke="#63b8ff" d="M1545.11,-405.35C1612.3,-383.26 1750.3,-337.88 1809.28,-318.49"/>
<polygon fill="#63b8ff" stroke="#63b8ff" points="1544.41,-401.89 1536.01,-408.34 1546.6,-408.54 1544.41,-401.89"/>
</a>
</g>
</g>
<!-- Node33&#45;&gt;Node25 -->
<g id="edge67_Node000033_Node000025" class="edge">
<title>Node33&#45;&gt;Node25</title>
<g id="a_edge67_Node000033_Node000025"><a xlink:title=" ">
<path fill="none" stroke="#63b8ff" d="M1483.39,-402.63C1447.82,-379.66 1381.59,-336.88 1352.88,-318.34"/>
<polygon fill="#63b8ff" stroke="#63b8ff" points="1481.39,-405.5 1491.69,-407.99 1485.19,-399.62 1481.39,-405.5"/>
</a>
</g>
</g>
<!-- Node33&#45;&gt;Node26 -->
<g id="edge68_Node000033_Node000026" class="edge">
<title>Node33&#45;&gt;Node26</title>
<g id="a_edge68_Node000033_Node000026"><a xlink:title=" ">
<path fill="none" stroke="#63b8ff" d="M1507,-397.53C1507,-373.8 1507,-335.64 1507,-318.38"/>
<polygon fill="#63b8ff" stroke="#63b8ff" points="1503.5,-397.48 1507,-407.48 1510.5,-397.48 1503.5,-397.48"/>
</a>
</g>
</g>
<!-- Node33&#45;&gt;Node28 -->
<g id="edge69_Node000033_Node000028" class="edge">
<title>Node33&#45;&gt;Node28</title>
<g id="a_edge69_Node000033_Node000028"><a xlink:title=" ">
<path fill="none" stroke="#63b8ff" d="M1532.76,-403.09C1572.47,-380.29 1647.46,-337.24 1680.12,-318.49"/>
<polygon fill="#63b8ff" stroke="#63b8ff" points="1531.03,-400.04 1524.1,-408.06 1534.52,-406.11 1531.03,-400.04"/>
</a>
</g>
</g>
</g>
</svg>
