<?xml version="1.0" encoding="UTF-8" standalone="no"?>
<!DOCTYPE svg PUBLIC "-//W3C//DTD SVG 1.1//EN"
 "http://www.w3.org/Graphics/SVG/1.1/DTD/svg11.dtd">
<!-- Generated by graphviz version 12.1.2 (20240928.0832)
 -->
<!-- Title: model/Node.h Pages: 1 -->
<svg width="1191pt" height="204pt"
 viewBox="0.00 0.00 1190.74 204.25" xmlns="http://www.w3.org/2000/svg" xmlns:xlink="http://www.w3.org/1999/xlink">
<g id="graph0" class="graph" transform="scale(1 1) rotate(0) translate(4 200.25)">
<title>model/Node.h</title>
<!-- Node1 -->
<g id="Node000001" class="node">
<title>Node1</title>
<g id="a_Node000001"><a xlink:title="model::Node source file">
<polygon fill="#999999" stroke="#666666" points="598.86,-196.25 522.86,-196.25 522.86,-177 598.86,-177 598.86,-196.25"/>
<text text-anchor="middle" x="560.86" y="-182.75" font-family="Helvetica,sans-Serif" font-size="10.00">model/Node.h</text>
</a>
</g>
</g>
<!-- Node2 -->
<g id="Node000002" class="node">
<title>Node2</title>
<g id="a_Node000002"><a xlink:href="_model_8h.html" target="_top" xlink:title="model::Model source file">
<polygon fill="white" stroke="#666666" points="600.36,-141 521.36,-141 521.36,-121.75 600.36,-121.75 600.36,-141"/>
<text text-anchor="middle" x="560.86" y="-127.5" font-family="Helvetica,sans-Serif" font-size="10.00">model/Model.h</text>
</a>
</g>
</g>
<!-- Node1&#45;&gt;Node2 -->
<g id="edge1_Node000001_Node000002" class="edge">
<title>Node1&#45;&gt;Node2</title>
<g id="a_edge1_Node000001_Node000002"><a xlink:title=" ">
<path fill="none" stroke="#63b8ff" d="M560.86,-165.38C560.86,-157.09 560.86,-147.92 560.86,-141.36"/>
<polygon fill="#63b8ff" stroke="#63b8ff" points="557.36,-165.32 560.86,-175.32 564.36,-165.32 557.36,-165.32"/>
</a>
</g>
</g>
<!-- Node3 -->
<g id="Node000003" class="node">
<title>Node3</title>
<g id="a_Node000003"><a xlink:href="_integrator_8h.html" target="_top" xlink:title="Integrator source file.">
<polygon fill="white" stroke="#666666" points="226.49,-80.12 127.24,-80.12 127.24,-60.88 226.49,-60.88 226.49,-80.12"/>
<text text-anchor="middle" x="176.86" y="-66.62" font-family="Helvetica,sans-Serif" font-size="10.00">algebra/Integrator.h</text>
</a>
</g>
</g>
<!-- Node2&#45;&gt;Node3 -->
<g id="edge2_Node000002_Node000003" class="edge">
<title>Node2&#45;&gt;Node3</title>
<g id="a_edge2_Node000002_Node000003"><a xlink:title=" ">
<path fill="none" stroke="#63b8ff" d="M509.46,-124.93C445.17,-117.76 331.88,-103.89 235.86,-85.75 228.09,-84.28 219.82,-82.45 211.99,-80.6"/>
<polygon fill="#63b8ff" stroke="#63b8ff" points="509.05,-128.41 519.37,-126.03 509.82,-121.45 509.05,-128.41"/>
</a>
</g>
</g>
<!-- Node4 -->
<g id="Node000004" class="node">
<title>Node4</title>
<g id="a_Node000004"><a xlink:href="interface_8h.html" target="_top" xlink:title="svZeroDSolver callable interface.">
<polygon fill="white" stroke="#666666" points="112.61,-19.25 11.11,-19.25 11.11,0 112.61,0 112.61,-19.25"/>
<text text-anchor="middle" x="61.86" y="-5.75" font-family="Helvetica,sans-Serif" font-size="10.00">interface/interface.h</text>
</a>
</g>
</g>
<!-- Node2&#45;&gt;Node4 -->
<g id="edge5_Node000002_Node000004" class="edge">
<title>Node2&#45;&gt;Node4</title>
<g id="a_edge5_Node000002_Node000004"><a xlink:title=" ">
<path fill="none" stroke="#63b8ff" d="M510,-130.12C379.33,-128.95 39.67,-122.38 5.86,-85.75 -3.33,-75.79 -0.02,-67.46 5.86,-55.25 13.58,-39.23 30.15,-27.19 43.27,-19.67"/>
<polygon fill="#63b8ff" stroke="#63b8ff" points="509.71,-133.62 519.74,-130.2 509.76,-126.62 509.71,-133.62"/>
</a>
</g>
</g>
<!-- Node5 -->
<g id="Node000005" class="node">
<title>Node5</title>
<g id="a_Node000005"><a xlink:href="_solver_8h.html" target="_top" xlink:title="Solver source file.">
<polygon fill="white" stroke="#666666" points="1047.61,-19.25 970.11,-19.25 970.11,0 1047.61,0 1047.61,-19.25"/>
<text text-anchor="middle" x="1008.86" y="-5.75" font-family="Helvetica,sans-Serif" font-size="10.00">solve/Solver.h</text>
</a>
</g>
</g>
<!-- Node2&#45;&gt;Node5 -->
<g id="edge15_Node000002_Node000005" class="edge">
<title>Node2&#45;&gt;Node5</title>
<g id="a_edge15_Node000002_Node000005"><a xlink:title=" ">
<path fill="none" stroke="#63b8ff" d="M611.79,-128.31C719.27,-123.51 961.76,-110.07 989.86,-85.75 1009.19,-69.02 1010.29,-35.74 1009.58,-19.7"/>
<polygon fill="#63b8ff" stroke="#63b8ff" points="611.94,-124.8 602.1,-128.74 612.25,-131.8 611.94,-124.8"/>
</a>
</g>
</g>
<!-- Node6 -->
<g id="Node000006" class="node">
<title>Node6</title>
<g id="a_Node000006"><a xlink:href="_chamber_elastance_inductor_8h.html" target="_top" xlink:title="model::ChamberElastanceInductor source file">
<polygon fill="white" stroke="#666666" points="414.74,-80.12 244.99,-80.12 244.99,-60.88 414.74,-60.88 414.74,-80.12"/>
<text text-anchor="middle" x="329.86" y="-66.62" font-family="Helvetica,sans-Serif" font-size="10.00">model/ChamberElastanceInductor.h</text>
</a>
</g>
</g>
<!-- Node2&#45;&gt;Node6 -->
<g id="edge6_Node000002_Node000006" class="edge">
<title>Node2&#45;&gt;Node6</title>
<g id="a_edge6_Node000002_Node000006"><a xlink:title=" ">
<path fill="none" stroke="#63b8ff" d="M510.13,-118.84C464.31,-107.63 398.54,-90.83 360.33,-80.55"/>
<polygon fill="#63b8ff" stroke="#63b8ff" points="509.02,-122.18 519.56,-121.14 510.67,-115.37 509.02,-122.18"/>
</a>
</g>
</g>
<!-- Node7 -->
<g id="Node000007" class="node">
<title>Node7</title>
<g id="a_Node000007"><a xlink:href="_kung_ventricle_8h.html" target="_top" xlink:title="model::KungVentricle source file">
<polygon fill="white" stroke="#666666" points="546.61,-80.12 433.11,-80.12 433.11,-60.88 546.61,-60.88 546.61,-80.12"/>
<text text-anchor="middle" x="489.86" y="-66.62" font-family="Helvetica,sans-Serif" font-size="10.00">model/KungVentricle.h</text>
</a>
</g>
</g>
<!-- Node2&#45;&gt;Node7 -->
<g id="edge8_Node000002_Node000007" class="edge">
<title>Node2&#45;&gt;Node7</title>
<g id="a_edge8_Node000002_Node000007"><a xlink:title=" ">
<path fill="none" stroke="#63b8ff" d="M541.34,-114.19C528.26,-103.34 511.52,-89.46 500.75,-80.53"/>
<polygon fill="#63b8ff" stroke="#63b8ff" points="538.98,-116.78 548.91,-120.47 543.45,-111.39 538.98,-116.78"/>
</a>
</g>
</g>
<!-- Node8 -->
<g id="Node000008" class="node">
<title>Node8</title>
<g id="a_Node000008"><a xlink:href="_regazzoni_chamber_8h.html" target="_top" xlink:title="model::RegazzoniChamber source file">
<polygon fill="white" stroke="#666666" points="700.86,-80.12 564.86,-80.12 564.86,-60.88 700.86,-60.88 700.86,-80.12"/>
<text text-anchor="middle" x="632.86" y="-66.62" font-family="Helvetica,sans-Serif" font-size="10.00">model/RegazzoniChamber.h</text>
</a>
</g>
</g>
<!-- Node2&#45;&gt;Node8 -->
<g id="edge9_Node000002_Node000008" class="edge">
<title>Node2&#45;&gt;Node8</title>
<g id="a_edge9_Node000002_Node000008"><a xlink:title=" ">
<path fill="none" stroke="#63b8ff" d="M574.91,-113.87C587.02,-103.07 604.14,-89.37 616.8,-80.53"/>
<polygon fill="#63b8ff" stroke="#63b8ff" points="572.83,-111.03 567.89,-120.4 577.6,-116.15 572.83,-111.03"/>
</a>
</g>
</g>
<!-- Node9 -->
<g id="Node000009" class="node">
<title>Node9</title>
<g id="a_Node000009"><a xlink:href="_levenberg_marquardt_optimizer_8h.html" target="_top" xlink:title="opt::LevenbergMarquardtOptimizer source file">
<polygon fill="white" stroke="#666666" points="862.99,-85.75 718.74,-85.75 718.74,-55.25 862.99,-55.25 862.99,-85.75"/>
<text text-anchor="start" x="726.74" y="-72.25" font-family="Helvetica,sans-Serif" font-size="10.00">optimize/LevenbergMarquardt</text>
<text text-anchor="middle" x="790.86" y="-61" font-family="Helvetica,sans-Serif" font-size="10.00">Optimizer.h</text>
</a>
</g>
</g>
<!-- Node2&#45;&gt;Node9 -->
<g id="edge11_Node000002_Node000009" class="edge">
<title>Node2&#45;&gt;Node9</title>
<g id="a_edge11_Node000002_Node000009"><a xlink:title=" ">
<path fill="none" stroke="#63b8ff" d="M607.1,-118.54C643.5,-109.22 694.44,-96.18 733.45,-86.19"/>
<polygon fill="#63b8ff" stroke="#63b8ff" points="606.58,-115.06 597.76,-120.93 608.32,-121.84 606.58,-115.06"/>
</a>
</g>
</g>
<!-- Node10 -->
<g id="Node000010" class="node">
<title>Node10</title>
<g id="a_Node000010"><a xlink:href="calibrate_8h.html" target="_top" xlink:title="opt::calibrate source file">
<polygon fill="white" stroke="#666666" points="980.49,-80.12 881.24,-80.12 881.24,-60.88 980.49,-60.88 980.49,-80.12"/>
<text text-anchor="middle" x="930.86" y="-66.62" font-family="Helvetica,sans-Serif" font-size="10.00">optimize/calibrate.h</text>
</a>
</g>
</g>
<!-- Node2&#45;&gt;Node10 -->
<g id="edge12_Node000002_Node000010" class="edge">
<title>Node2&#45;&gt;Node10</title>
<g id="a_edge12_Node000002_Node000010"><a xlink:title=" ">
<path fill="none" stroke="#63b8ff" d="M612.21,-124.52C674.07,-117.11 781.03,-103.2 871.86,-85.75 879.62,-84.26 887.9,-82.42 895.73,-80.56"/>
<polygon fill="#63b8ff" stroke="#63b8ff" points="611.85,-121.03 602.33,-125.69 612.67,-127.99 611.85,-121.03"/>
</a>
</g>
</g>
<!-- Node11 -->
<g id="Node000011" class="node">
<title>Node11</title>
<g id="a_Node000011"><a xlink:href="_simulation_parameters_8h.html" target="_top" xlink:title="Source file to read simulation configuration.">
<polygon fill="white" stroke="#666666" points="1182.74,-80.12 1036.99,-80.12 1036.99,-60.88 1182.74,-60.88 1182.74,-80.12"/>
<text text-anchor="middle" x="1109.86" y="-66.62" font-family="Helvetica,sans-Serif" font-size="10.00">solve/SimulationParameters.h</text>
</a>
</g>
</g>
<!-- Node2&#45;&gt;Node11 -->
<g id="edge13_Node000002_Node000011" class="edge">
<title>Node2&#45;&gt;Node11</title>
<g id="a_edge13_Node000002_Node000011"><a xlink:title=" ">
<path fill="none" stroke="#63b8ff" d="M612.26,-126.53C697.69,-119.88 874.23,-105.08 1022.86,-85.75 1034.24,-84.27 1046.42,-82.43 1057.96,-80.58"/>
<polygon fill="#63b8ff" stroke="#63b8ff" points="612.03,-123.03 602.33,-127.29 612.57,-130.01 612.03,-123.03"/>
</a>
</g>
</g>
<!-- Node12 -->
<g id="Node000012" class="node">
<title>Node12</title>
<g id="a_Node000012"><a xlink:href="csv__writer_8h.html" target="_top" xlink:title="csv_writer source file">
<polygon fill="white" stroke="#666666" points="109.24,-80.12 14.49,-80.12 14.49,-60.88 109.24,-60.88 109.24,-80.12"/>
<text text-anchor="middle" x="61.86" y="-66.62" font-family="Helvetica,sans-Serif" font-size="10.00">solve/csv_writer.h</text>
</a>
</g>
</g>
<!-- Node2&#45;&gt;Node12 -->
<g id="edge16_Node000002_Node000012" class="edge">
<title>Node2&#45;&gt;Node12</title>
<g id="a_edge16_Node000002_Node000012"><a xlink:title=" ">
<path fill="none" stroke="#63b8ff" d="M509.52,-127.69C426.63,-122.8 258.39,-110.57 117.86,-85.75 110.15,-84.39 101.95,-82.53 94.26,-80.61"/>
<polygon fill="#63b8ff" stroke="#63b8ff" points="509.18,-131.18 519.37,-128.26 509.58,-124.19 509.18,-131.18"/>
</a>
</g>
</g>
<!-- Node3&#45;&gt;Node4 -->
<g id="edge3_Node000003_Node000004" class="edge">
<title>Node3&#45;&gt;Node4</title>
<g id="a_edge3_Node000003_Node000004"><a xlink:title=" ">
<path fill="none" stroke="#63b8ff" d="M149.17,-55.33C127.51,-44.24 98.05,-29.15 79.49,-19.65"/>
<polygon fill="#63b8ff" stroke="#63b8ff" points="147.55,-58.43 158.05,-59.87 150.74,-52.2 147.55,-58.43"/>
</a>
</g>
</g>
<!-- Node3&#45;&gt;Node5 -->
<g id="edge4_Node000003_Node000005" class="edge">
<title>Node3&#45;&gt;Node5</title>
<g id="a_edge4_Node000003_Node000005"><a xlink:title=" ">
<path fill="none" stroke="#63b8ff" d="M220.88,-57.96C225.91,-56.91 230.98,-55.97 235.86,-55.25 515.09,-13.81 856.37,-10.33 970,-10.42"/>
<polygon fill="#63b8ff" stroke="#63b8ff" points="220.51,-54.45 211.52,-60.05 222.04,-61.28 220.51,-54.45"/>
</a>
</g>
</g>
<!-- Node6&#45;&gt;Node2 -->
<g id="edge7_Node000006_Node000002" class="edge">
<title>Node6&#45;&gt;Node2</title>
<g id="a_edge7_Node000006_Node000002"><a xlink:title=" ">
<path fill="none" stroke="#63b8ff" d="M381.71,-83.31C427.44,-94.51 492.4,-111.11 530.31,-121.3"/>
<polygon fill="#63b8ff" stroke="#63b8ff" points="382.54,-79.91 372,-80.94 380.88,-86.71 382.54,-79.91"/>
</a>
</g>
</g>
<!-- Node8&#45;&gt;Node2 -->
<g id="edge10_Node000008_Node000002" class="edge">
<title>Node8&#45;&gt;Node2</title>
<g id="a_edge10_Node000008_Node000002"><a xlink:title=" ">
<path fill="none" stroke="#63b8ff" d="M618.69,-88.11C606.55,-98.93 589.43,-112.62 576.81,-121.43"/>
<polygon fill="#63b8ff" stroke="#63b8ff" points="620.8,-90.93 625.74,-81.56 616.03,-85.8 620.8,-90.93"/>
</a>
</g>
</g>
<!-- Node11&#45;&gt;Node5 -->
<g id="edge14_Node000011_Node000005" class="edge">
<title>Node11&#45;&gt;Node5</title>
<g id="a_edge14_Node000011_Node000005"><a xlink:title=" ">
<path fill="none" stroke="#63b8ff" d="M1084.76,-54.87C1065.81,-43.82 1040.42,-29.02 1024.34,-19.65"/>
<polygon fill="#63b8ff" stroke="#63b8ff" points="1082.81,-57.78 1093.21,-59.8 1086.34,-51.74 1082.81,-57.78"/>
</a>
</g>
</g>
<!-- Node12&#45;&gt;Node4 -->
<g id="edge17_Node000012_Node000004" class="edge">
<title>Node12&#45;&gt;Node4</title>
<g id="a_edge17_Node000012_Node000004"><a xlink:title=" ">
<path fill="none" stroke="#63b8ff" d="M61.86,-49.07C61.86,-39.04 61.86,-27.46 61.86,-19.65"/>
<polygon fill="#63b8ff" stroke="#63b8ff" points="58.36,-49.04 61.86,-59.04 65.36,-49.04 58.36,-49.04"/>
</a>
</g>
</g>
</g>
</svg>
