<?xml version="1.0" encoding="UTF-8" standalone="no"?>
<!DOCTYPE svg PUBLIC "-//W3C//DTD SVG 1.1//EN"
 "http://www.w3.org/Graphics/SVG/1.1/DTD/svg11.dtd">
<!-- Generated by graphviz version 12.1.1 (20240910.0053)
 -->
<!-- Title: model/Parameter.h Pages: 1 -->
<svg width="1833pt" height="437pt"
 viewBox="0.00 0.00 1832.88 436.50" xmlns="http://www.w3.org/2000/svg" xmlns:xlink="http://www.w3.org/1999/xlink">
<g id="graph0" class="graph" transform="scale(1 1) rotate(0) translate(4 432.5)">
<title>model/Parameter.h</title>
<!-- Node1 -->
<g id="Node000001" class="node">
<title>Node1</title>
<g id="a_Node000001"><a xlink:title="model::Parameter source file">
<polygon fill="#999999" stroke="#666666" points="1404,-428.5 1306.25,-428.5 1306.25,-409.25 1404,-409.25 1404,-428.5"/>
<text text-anchor="middle" x="1355.12" y="-415" font-family="Helvetica,sans-Serif" font-size="10.00">model/Parameter.h</text>
</a>
</g>
</g>
<!-- Node2 -->
<g id="Node000002" class="node">
<title>Node2</title>
<g id="a_Node000002"><a xlink:href="_block_8h.html" target="_top" xlink:title="model::Block source file">
<polygon fill="white" stroke="#666666" points="1013.88,-373.25 936.38,-373.25 936.38,-354 1013.88,-354 1013.88,-373.25"/>
<text text-anchor="middle" x="975.12" y="-359.75" font-family="Helvetica,sans-Serif" font-size="10.00">model/Block.h</text>
</a>
</g>
</g>
<!-- Node1&#45;&gt;Node2 -->
<g id="edge1_Node000001_Node000002" class="edge">
<title>Node1&#45;&gt;Node2</title>
<g id="a_edge1_Node000001_Node000002"><a xlink:title=" ">
<path fill="none" stroke="#63b8ff" d="M1294.65,-409.4C1215.95,-398.37 1080.67,-379.42 1014.24,-370.11"/>
<polygon fill="#63b8ff" stroke="#63b8ff" points="1293.95,-412.84 1304.34,-410.76 1294.92,-405.9 1293.95,-412.84"/>
</a>
</g>
</g>
<!-- Node4 -->
<g id="Node000004" class="node">
<title>Node4</title>
<g id="a_Node000004"><a xlink:href="_model_8h.html" target="_top" xlink:title="model::Model source file">
<polygon fill="white" stroke="#666666" points="1054.62,-141 975.62,-141 975.62,-121.75 1054.62,-121.75 1054.62,-141"/>
<text text-anchor="middle" x="1015.12" y="-127.5" font-family="Helvetica,sans-Serif" font-size="10.00">model/Model.h</text>
</a>
</g>
</g>
<!-- Node1&#45;&gt;Node4 -->
<g id="edge61_Node000001_Node000004" class="edge">
<title>Node1&#45;&gt;Node4</title>
<g id="a_edge61_Node000001_Node000004"><a xlink:title=" ">
<path fill="none" stroke="#63b8ff" d="M1415.59,-416.4C1541.89,-411.68 1822.12,-391.91 1822.12,-309.38 1822.12,-309.38 1822.12,-309.38 1822.12,-252.12 1822.12,-173.65 1217.3,-141.3 1054.87,-134.03"/>
<polygon fill="#63b8ff" stroke="#63b8ff" points="1415.6,-412.9 1405.73,-416.75 1415.85,-419.89 1415.6,-412.9"/>
</a>
</g>
</g>
<!-- Node23 -->
<g id="Node000023" class="node">
<title>Node23</title>
<g id="a_Node000023"><a xlink:href="_flow_reference_b_c_8h.html" target="_top" xlink:title="model::FlowReferenceBC source file">
<polygon fill="white" stroke="#666666" points="1210.88,-318 1079.38,-318 1079.38,-298.75 1210.88,-298.75 1210.88,-318"/>
<text text-anchor="middle" x="1145.12" y="-304.5" font-family="Helvetica,sans-Serif" font-size="10.00">model/FlowReferenceBC.h</text>
</a>
</g>
</g>
<!-- Node1&#45;&gt;Node23 -->
<g id="edge60_Node000001_Node000023" class="edge">
<title>Node1&#45;&gt;Node23</title>
<g id="a_edge60_Node000001_Node000023"><a xlink:title=" ">
<path fill="none" stroke="#63b8ff" d="M1327.62,-403.66C1283.8,-381.03 1199.37,-337.4 1162.77,-318.49"/>
<polygon fill="#63b8ff" stroke="#63b8ff" points="1325.75,-406.64 1336.24,-408.12 1328.96,-400.42 1325.75,-406.64"/>
</a>
</g>
</g>
<!-- Node25 -->
<g id="Node000025" class="node">
<title>Node25</title>
<g id="a_Node000025"><a xlink:href="_open_loop_coronary_b_c_8h.html" target="_top" xlink:title="model::OpenLoopCoronaryBC source file">
<polygon fill="white" stroke="#666666" points="1378.88,-318 1229.38,-318 1229.38,-298.75 1378.88,-298.75 1378.88,-318"/>
<text text-anchor="middle" x="1304.12" y="-304.5" font-family="Helvetica,sans-Serif" font-size="10.00">model/OpenLoopCoronaryBC.h</text>
</a>
</g>
</g>
<!-- Node1&#45;&gt;Node25 -->
<g id="edge62_Node000001_Node000025" class="edge">
<title>Node1&#45;&gt;Node25</title>
<g id="a_edge62_Node000001_Node000025"><a xlink:title=" ">
<path fill="none" stroke="#63b8ff" d="M1346.17,-398.83C1335.08,-375.22 1316.62,-335.96 1308.36,-318.38"/>
<polygon fill="#63b8ff" stroke="#63b8ff" points="1342.89,-400.07 1350.31,-407.63 1349.22,-397.09 1342.89,-400.07"/>
</a>
</g>
</g>
<!-- Node26 -->
<g id="Node000026" class="node">
<title>Node26</title>
<g id="a_Node000026"><a xlink:href="_pressure_reference_b_c_8h.html" target="_top" xlink:title="model::PressureReferenceBC source file">
<polygon fill="white" stroke="#666666" points="1546.88,-318 1397.38,-318 1397.38,-298.75 1546.88,-298.75 1546.88,-318"/>
<text text-anchor="middle" x="1472.12" y="-304.5" font-family="Helvetica,sans-Serif" font-size="10.00">model/PressureReferenceBC.h</text>
</a>
</g>
</g>
<!-- Node1&#45;&gt;Node26 -->
<g id="edge63_Node000001_Node000026" class="edge">
<title>Node1&#45;&gt;Node26</title>
<g id="a_edge63_Node000001_Node000026"><a xlink:title=" ">
<path fill="none" stroke="#63b8ff" d="M1372.96,-401.34C1398.01,-378.11 1442.76,-336.6 1462.42,-318.38"/>
<polygon fill="#63b8ff" stroke="#63b8ff" points="1370.76,-398.6 1365.81,-407.97 1375.52,-403.73 1370.76,-398.6"/>
</a>
</g>
</g>
<!-- Node28 -->
<g id="Node000028" class="node">
<title>Node28</title>
<g id="a_Node000028"><a xlink:href="_resistance_b_c_8h.html" target="_top" xlink:title="model::ResistanceBC source file">
<polygon fill="white" stroke="#666666" points="1679.62,-318 1564.62,-318 1564.62,-298.75 1679.62,-298.75 1679.62,-318"/>
<text text-anchor="middle" x="1622.12" y="-304.5" font-family="Helvetica,sans-Serif" font-size="10.00">model/ResistanceBC.h</text>
</a>
</g>
</g>
<!-- Node1&#45;&gt;Node28 -->
<g id="edge64_Node000001_Node000028" class="edge">
<title>Node1&#45;&gt;Node28</title>
<g id="a_edge64_Node000001_Node000028"><a xlink:title=" ">
<path fill="none" stroke="#63b8ff" d="M1388,-404.52C1443.07,-382.14 1552.57,-337.64 1599.7,-318.49"/>
<polygon fill="#63b8ff" stroke="#63b8ff" points="1386.78,-401.23 1378.83,-408.24 1389.41,-407.72 1386.78,-401.23"/>
</a>
</g>
</g>
<!-- Node3 -->
<g id="Node000003" class="node">
<title>Node3</title>
<g id="a_Node000003"><a xlink:href="_block_factory_8h.html" target="_top" xlink:title="Define the block factory functional.">
<polygon fill="white" stroke="#666666" points="199,-262.75 89.25,-262.75 89.25,-243.5 199,-243.5 199,-262.75"/>
<text text-anchor="middle" x="144.12" y="-249.25" font-family="Helvetica,sans-Serif" font-size="10.00">model/BlockFactory.h</text>
</a>
</g>
</g>
<!-- Node2&#45;&gt;Node3 -->
<g id="edge2_Node000002_Node000003" class="edge">
<title>Node2&#45;&gt;Node3</title>
<g id="a_edge2_Node000002_Node000003"><a xlink:title=" ">
<path fill="none" stroke="#63b8ff" d="M924.54,-361.64C764.87,-358.24 278.21,-345.72 213.12,-318 185.19,-306.1 161.42,-277.77 150.51,-263.17"/>
<polygon fill="#63b8ff" stroke="#63b8ff" points="924.32,-365.13 934.39,-361.84 924.47,-358.13 924.32,-365.13"/>
</a>
</g>
</g>
<!-- Node2&#45;&gt;Node4 -->
<g id="edge44_Node000002_Node000004" class="edge">
<title>Node2&#45;&gt;Node4</title>
<g id="a_edge44_Node000002_Node000004"><a xlink:title=" ">
<path fill="none" stroke="#63b8ff" d="M924.62,-363.35C747.83,-364.87 171.42,-360.98 246.12,-243.5 283.52,-184.69 320.68,-194.55 388.12,-177 499.94,-147.91 855.76,-136.41 975.42,-133.31"/>
<polygon fill="#63b8ff" stroke="#63b8ff" points="924.44,-366.85 934.41,-363.25 924.37,-359.85 924.44,-366.85"/>
</a>
</g>
</g>
<!-- Node8 -->
<g id="Node000008" class="node">
<title>Node8</title>
<g id="a_Node000008"><a xlink:href="_chamber_elastance_inductor_8h.html" target="_top" xlink:title="model::ChamberElastanceInductor source file">
<polygon fill="white" stroke="#666666" points="1505,-80.12 1335.25,-80.12 1335.25,-60.88 1505,-60.88 1505,-80.12"/>
<text text-anchor="middle" x="1420.12" y="-66.62" font-family="Helvetica,sans-Serif" font-size="10.00">model/ChamberElastanceInductor.h</text>
</a>
</g>
</g>
<!-- Node2&#45;&gt;Node8 -->
<g id="edge28_Node000002_Node000008" class="edge">
<title>Node2&#45;&gt;Node8</title>
<g id="a_edge28_Node000002_Node000008"><a xlink:title=" ">
<path fill="none" stroke="#63b8ff" d="M1025.57,-362.76C1179.76,-362.71 1637.5,-359.07 1689.12,-318 1712.3,-299.56 1708.12,-283.74 1708.12,-254.12 1708.12,-254.12 1708.12,-254.12 1708.12,-191.25 1708.12,-139.4 1546.97,-98.11 1465.76,-80.6"/>
<polygon fill="#63b8ff" stroke="#63b8ff" points="1025.66,-359.26 1015.66,-362.75 1025.66,-366.26 1025.66,-359.26"/>
</a>
</g>
</g>
<!-- Node9 -->
<g id="Node000009" class="node">
<title>Node9</title>
<g id="a_Node000009"><a xlink:href="_kung_ventricle_8h.html" target="_top" xlink:title="model::KungVentricle source file">
<polygon fill="white" stroke="#666666" points="1824.88,-80.12 1711.38,-80.12 1711.38,-60.88 1824.88,-60.88 1824.88,-80.12"/>
<text text-anchor="middle" x="1768.12" y="-66.62" font-family="Helvetica,sans-Serif" font-size="10.00">model/KungVentricle.h</text>
</a>
</g>
</g>
<!-- Node2&#45;&gt;Node9 -->
<g id="edge43_Node000002_Node000009" class="edge">
<title>Node2&#45;&gt;Node9</title>
<g id="a_edge43_Node000002_Node000009"><a xlink:title=" ">
<path fill="none" stroke="#63b8ff" d="M1025.59,-362.11C1185.46,-360.14 1673.84,-351.42 1736.12,-318 1767.42,-301.21 1784.12,-289.64 1784.12,-254.12 1784.12,-254.12 1784.12,-254.12 1784.12,-191.25 1784.12,-149.51 1774.46,-100.3 1770.15,-80.46"/>
<polygon fill="#63b8ff" stroke="#63b8ff" points="1025.69,-358.61 1015.73,-362.23 1025.77,-365.61 1025.69,-358.61"/>
</a>
</g>
</g>
<!-- Node10 -->
<g id="Node000010" class="node">
<title>Node10</title>
<g id="a_Node000010"><a xlink:href="_regazzoni_chamber_8h.html" target="_top" xlink:title="model::RegazzoniChamber source file">
<polygon fill="white" stroke="#666666" points="1659.12,-80.12 1523.12,-80.12 1523.12,-60.88 1659.12,-60.88 1659.12,-80.12"/>
<text text-anchor="middle" x="1591.12" y="-66.62" font-family="Helvetica,sans-Serif" font-size="10.00">model/RegazzoniChamber.h</text>
</a>
</g>
</g>
<!-- Node2&#45;&gt;Node10 -->
<g id="edge49_Node000002_Node000010" class="edge">
<title>Node2&#45;&gt;Node10</title>
<g id="a_edge49_Node000002_Node000010"><a xlink:title=" ">
<path fill="none" stroke="#63b8ff" d="M1025.21,-362.36C1181.54,-361.16 1653.51,-354.53 1711.12,-318 1738.46,-300.67 1746.12,-286.5 1746.12,-254.12 1746.12,-254.12 1746.12,-254.12 1746.12,-191.25 1746.12,-129.87 1669.07,-95.51 1623.62,-80.59"/>
<polygon fill="#63b8ff" stroke="#63b8ff" points="1025.56,-358.86 1015.59,-362.43 1025.61,-365.86 1025.56,-358.86"/>
</a>
</g>
</g>
<!-- Node15 -->
<g id="Node000015" class="node">
<title>Node15</title>
<g id="a_Node000015"><a xlink:href="_blood_vessel_8h.html" target="_top" xlink:title="model::BloodVessel source file">
<polygon fill="white" stroke="#666666" points="716.88,-318 609.38,-318 609.38,-298.75 716.88,-298.75 716.88,-318"/>
<text text-anchor="middle" x="663.12" y="-304.5" font-family="Helvetica,sans-Serif" font-size="10.00">model/BloodVessel.h</text>
</a>
</g>
</g>
<!-- Node2&#45;&gt;Node15 -->
<g id="edge20_Node000002_Node000015" class="edge">
<title>Node2&#45;&gt;Node15</title>
<g id="a_edge20_Node000002_Node000015"><a xlink:title=" ">
<path fill="none" stroke="#63b8ff" d="M924.65,-354.01C867.51,-344.26 774.82,-328.44 716.51,-318.49"/>
<polygon fill="#63b8ff" stroke="#63b8ff" points="923.99,-357.45 934.43,-355.68 925.17,-350.55 923.99,-357.45"/>
</a>
</g>
</g>
<!-- Node16 -->
<g id="Node000016" class="node">
<title>Node16</title>
<g id="a_Node000016"><a xlink:href="_blood_vessel_junction_8h.html" target="_top" xlink:title="model::BloodVesselJunction source file">
<polygon fill="white" stroke="#666666" points="685.25,-262.75 541,-262.75 541,-243.5 685.25,-243.5 685.25,-262.75"/>
<text text-anchor="middle" x="613.12" y="-249.25" font-family="Helvetica,sans-Serif" font-size="10.00">model/BloodVesselJunction.h</text>
</a>
</g>
</g>
<!-- Node2&#45;&gt;Node16 -->
<g id="edge27_Node000002_Node000016" class="edge">
<title>Node2&#45;&gt;Node16</title>
<g id="a_edge27_Node000002_Node000016"><a xlink:title=" ">
<path fill="none" stroke="#63b8ff" d="M924.76,-360.29C827.46,-355.26 621.33,-341.88 600.12,-318 586.45,-302.6 598.79,-276.81 607.07,-263.19"/>
<polygon fill="#63b8ff" stroke="#63b8ff" points="924.39,-363.77 934.55,-360.78 924.74,-356.78 924.39,-363.77"/>
</a>
</g>
</g>
<!-- Node17 -->
<g id="Node000017" class="node">
<title>Node17</title>
<g id="a_Node000017"><a xlink:href="_blood_vessel_c_r_l_8h.html" target="_top" xlink:title="model::BloodVesselCRL source file">
<polygon fill="white" stroke="#666666" points="552.62,-318 425.62,-318 425.62,-298.75 552.62,-298.75 552.62,-318"/>
<text text-anchor="middle" x="489.12" y="-304.5" font-family="Helvetica,sans-Serif" font-size="10.00">model/BloodVesselCRL.h</text>
</a>
</g>
</g>
<!-- Node2&#45;&gt;Node17 -->
<g id="edge24_Node000002_Node000017" class="edge">
<title>Node2&#45;&gt;Node17</title>
<g id="a_edge24_Node000002_Node000017"><a xlink:title=" ">
<path fill="none" stroke="#63b8ff" d="M924.76,-357.14C847.72,-348.73 695.97,-332.17 567.12,-318 562.52,-317.49 557.76,-316.97 552.98,-316.44"/>
<polygon fill="#63b8ff" stroke="#63b8ff" points="924.2,-360.6 934.52,-358.2 924.96,-353.64 924.2,-360.6"/>
</a>
</g>
</g>
<!-- Node18 -->
<g id="Node000018" class="node">
<title>Node18</title>
<g id="a_Node000018"><a xlink:href="_closed_loop_coronary_b_c_8h.html" target="_top" xlink:title="model::ClosedLoopCoronaryBC source file">
<polygon fill="white" stroke="#666666" points="943.25,-262.75 787,-262.75 787,-243.5 943.25,-243.5 943.25,-262.75"/>
<text text-anchor="middle" x="865.12" y="-249.25" font-family="Helvetica,sans-Serif" font-size="10.00">model/ClosedLoopCoronaryBC.h</text>
</a>
</g>
</g>
<!-- Node2&#45;&gt;Node18 -->
<g id="edge29_Node000002_Node000018" class="edge">
<title>Node2&#45;&gt;Node18</title>
<g id="a_edge29_Node000002_Node000018"><a xlink:title=" ">
<path fill="none" stroke="#63b8ff" d="M960.58,-345C949.42,-331.82 933.39,-313.59 918.12,-298.75 904.67,-285.67 887.93,-271.96 876.91,-263.25"/>
<polygon fill="#63b8ff" stroke="#63b8ff" points="957.69,-347 966.79,-352.42 963.06,-342.51 957.69,-347"/>
</a>
</g>
</g>
<!-- Node21 -->
<g id="Node000021" class="node">
<title>Node21</title>
<g id="a_Node000021"><a xlink:href="_closed_loop_heart_pulmonary_8h.html" target="_top" xlink:title="model::ClosedLoopHeartPulmonary source file">
<polygon fill="white" stroke="#666666" points="909.25,-318 735,-318 735,-298.75 909.25,-298.75 909.25,-318"/>
<text text-anchor="middle" x="822.12" y="-304.5" font-family="Helvetica,sans-Serif" font-size="10.00">model/ClosedLoopHeartPulmonary.h</text>
</a>
</g>
</g>
<!-- Node2&#45;&gt;Node21 -->
<g id="edge34_Node000002_Node000021" class="edge">
<title>Node2&#45;&gt;Node21</title>
<g id="a_edge34_Node000002_Node000021"><a xlink:title=" ">
<path fill="none" stroke="#63b8ff" d="M938.65,-349.93C910.8,-340.24 873.09,-327.11 848.21,-318.45"/>
<polygon fill="#63b8ff" stroke="#63b8ff" points="937.15,-353.11 947.74,-353.09 939.45,-346.5 937.15,-353.11"/>
</a>
</g>
</g>
<!-- Node22 -->
<g id="Node000022" class="node">
<title>Node22</title>
<g id="a_Node000022"><a xlink:href="_closed_loop_r_c_r_b_c_8h.html" target="_top" xlink:title="model::ClosedLoopRCRBC source file">
<polygon fill="white" stroke="#666666" points="138.25,-201.88 0,-201.88 0,-182.62 138.25,-182.62 138.25,-201.88"/>
<text text-anchor="middle" x="69.12" y="-188.38" font-family="Helvetica,sans-Serif" font-size="10.00">model/ClosedLoopRCRBC.h</text>
</a>
</g>
</g>
<!-- Node2&#45;&gt;Node22 -->
<g id="edge37_Node000002_Node000022" class="edge">
<title>Node2&#45;&gt;Node22</title>
<g id="a_edge37_Node000002_Node000022"><a xlink:title=" ">
<path fill="none" stroke="#63b8ff" d="M924.72,-362.69C772.88,-362.42 321.66,-358.16 181.12,-318 131.93,-303.94 109.59,-304.58 80.12,-262.75 67.18,-244.37 67.16,-216.51 68.17,-202.29"/>
<polygon fill="#63b8ff" stroke="#63b8ff" points="924.45,-366.19 934.45,-362.7 924.46,-359.19 924.45,-366.19"/>
</a>
</g>
</g>
<!-- Node2&#45;&gt;Node23 -->
<g id="edge39_Node000002_Node000023" class="edge">
<title>Node2&#45;&gt;Node23</title>
<g id="a_edge39_Node000002_Node000023"><a xlink:title=" ">
<path fill="none" stroke="#63b8ff" d="M1014.83,-350.19C1045.86,-340.47 1088.25,-327.19 1116.15,-318.45"/>
<polygon fill="#63b8ff" stroke="#63b8ff" points="1013.9,-346.81 1005.41,-353.14 1016,-353.49 1013.9,-346.81"/>
</a>
</g>
</g>
<!-- Node24 -->
<g id="Node000024" class="node">
<title>Node24</title>
<g id="a_Node000024"><a xlink:href="_junction_8h.html" target="_top" xlink:title="model::Junction source file">
<polygon fill="white" stroke="#666666" points="484.88,-262.75 395.38,-262.75 395.38,-243.5 484.88,-243.5 484.88,-262.75"/>
<text text-anchor="middle" x="440.12" y="-249.25" font-family="Helvetica,sans-Serif" font-size="10.00">model/Junction.h</text>
</a>
</g>
</g>
<!-- Node2&#45;&gt;Node24 -->
<g id="edge41_Node000002_Node000024" class="edge">
<title>Node2&#45;&gt;Node24</title>
<g id="a_edge41_Node000002_Node000024"><a xlink:title=" ">
<path fill="none" stroke="#63b8ff" d="M924.92,-362.4C794.22,-361.31 451.2,-354.91 417.12,-318 402.57,-302.24 420.34,-276.6 431.82,-263.1"/>
<polygon fill="#63b8ff" stroke="#63b8ff" points="924.62,-365.9 934.64,-362.48 924.67,-358.9 924.62,-365.9"/>
</a>
</g>
</g>
<!-- Node2&#45;&gt;Node25 -->
<g id="edge45_Node000002_Node000025" class="edge">
<title>Node2&#45;&gt;Node25</title>
<g id="a_edge45_Node000002_Node000025"><a xlink:title=" ">
<path fill="none" stroke="#63b8ff" d="M1025.23,-354.52C1085.17,-344.81 1185.26,-328.61 1247.83,-318.49"/>
<polygon fill="#63b8ff" stroke="#63b8ff" points="1024.96,-351.01 1015.65,-356.07 1026.08,-357.92 1024.96,-351.01"/>
</a>
</g>
</g>
<!-- Node2&#45;&gt;Node26 -->
<g id="edge47_Node000002_Node000026" class="edge">
<title>Node2&#45;&gt;Node26</title>
<g id="a_edge47_Node000002_Node000026"><a xlink:title=" ">
<path fill="none" stroke="#63b8ff" d="M1025.36,-357.24C1113.08,-347.84 1294.61,-328.39 1397.22,-317.4"/>
<polygon fill="#63b8ff" stroke="#63b8ff" points="1025.2,-353.74 1015.63,-358.29 1025.94,-360.7 1025.2,-353.74"/>
</a>
</g>
</g>
<!-- Node27 -->
<g id="Node000027" class="node">
<title>Node27</title>
<g id="a_Node000027"><a xlink:href="_regazzoni_valve_8h.html" target="_top" xlink:title="model::RegazzoniValve source file">
<polygon fill="white" stroke="#666666" points="377,-262.75 255.25,-262.75 255.25,-243.5 377,-243.5 377,-262.75"/>
<text text-anchor="middle" x="316.12" y="-249.25" font-family="Helvetica,sans-Serif" font-size="10.00">model/RegazzoniValve.h</text>
</a>
</g>
</g>
<!-- Node2&#45;&gt;Node27 -->
<g id="edge50_Node000002_Node000027" class="edge">
<title>Node2&#45;&gt;Node27</title>
<g id="a_edge50_Node000002_Node000027"><a xlink:title=" ">
<path fill="none" stroke="#63b8ff" d="M924.83,-362.02C804.43,-360.02 502.63,-351.72 408.12,-318 374.06,-305.85 340.93,-277.63 325.36,-263.11"/>
<polygon fill="#63b8ff" stroke="#63b8ff" points="924.67,-365.51 934.73,-362.17 924.78,-358.52 924.67,-365.51"/>
</a>
</g>
</g>
<!-- Node2&#45;&gt;Node28 -->
<g id="edge52_Node000002_Node000028" class="edge">
<title>Node2&#45;&gt;Node28</title>
<g id="a_edge52_Node000002_Node000028"><a xlink:title=" ">
<path fill="none" stroke="#63b8ff" d="M1025.65,-359.65C1126.6,-353.52 1360.36,-338.29 1556.12,-318 1558.77,-317.73 1561.47,-317.43 1564.2,-317.12"/>
<polygon fill="#63b8ff" stroke="#63b8ff" points="1025.57,-356.15 1015.8,-360.25 1026,-363.14 1025.57,-356.15"/>
</a>
</g>
</g>
<!-- Node29 -->
<g id="Node000029" class="node">
<title>Node29</title>
<g id="a_Node000029"><a xlink:href="_resistive_junction_8h.html" target="_top" xlink:title="model::ResistiveJunction source file">
<polygon fill="white" stroke="#666666" points="1214.12,-201.88 1084.12,-201.88 1084.12,-182.62 1214.12,-182.62 1214.12,-201.88"/>
<text text-anchor="middle" x="1149.12" y="-188.38" font-family="Helvetica,sans-Serif" font-size="10.00">model/ResistiveJunction.h</text>
</a>
</g>
</g>
<!-- Node2&#45;&gt;Node29 -->
<g id="edge54_Node000002_Node000029" class="edge">
<title>Node2&#45;&gt;Node29</title>
<g id="a_edge54_Node000002_Node000029"><a xlink:title=" ">
<path fill="none" stroke="#63b8ff" d="M972.42,-342.16C970.17,-316.09 970.48,-271.13 994.12,-243.5 1008.61,-226.57 1063.94,-211.45 1104.37,-202.33"/>
<polygon fill="#63b8ff" stroke="#63b8ff" points="968.94,-342.51 973.51,-352.07 975.9,-341.75 968.94,-342.51"/>
</a>
</g>
</g>
<!-- Node30 -->
<g id="Node000030" class="node">
<title>Node30</title>
<g id="a_Node000030"><a xlink:href="_valve_tanh_8h.html" target="_top" xlink:title="model::ValveTanh source file">
<polygon fill="white" stroke="#666666" points="1369.75,-201.88 1270.5,-201.88 1270.5,-182.62 1369.75,-182.62 1369.75,-201.88"/>
<text text-anchor="middle" x="1320.12" y="-188.38" font-family="Helvetica,sans-Serif" font-size="10.00">model/ValveTanh.h</text>
</a>
</g>
</g>
<!-- Node2&#45;&gt;Node30 -->
<g id="edge56_Node000002_Node000030" class="edge">
<title>Node2&#45;&gt;Node30</title>
<g id="a_edge56_Node000002_Node000030"><a xlink:title=" ">
<path fill="none" stroke="#63b8ff" d="M996.05,-346.83C1014.83,-333.09 1043.45,-313.17 1070.12,-298.75 1148.65,-256.29 1247.91,-218.88 1294.18,-202.31"/>
<polygon fill="#63b8ff" stroke="#63b8ff" points="994.12,-343.91 988.17,-352.68 998.29,-349.53 994.12,-343.91"/>
</a>
</g>
</g>
<!-- Node31 -->
<g id="Node000031" class="node">
<title>Node31</title>
<g id="a_Node000031"><a xlink:href="_windkessel_b_c_8h.html" target="_top" xlink:title="model::WindkesselBC source file">
<polygon fill="white" stroke="#666666" points="1119.38,-262.75 1002.88,-262.75 1002.88,-243.5 1119.38,-243.5 1119.38,-262.75"/>
<text text-anchor="middle" x="1061.12" y="-249.25" font-family="Helvetica,sans-Serif" font-size="10.00">model/WindkesselBC.h</text>
</a>
</g>
</g>
<!-- Node2&#45;&gt;Node31 -->
<g id="edge58_Node000002_Node000031" class="edge">
<title>Node2&#45;&gt;Node31</title>
<g id="a_edge58_Node000002_Node000031"><a xlink:title=" ">
<path fill="none" stroke="#63b8ff" d="M989.21,-344.85C1007.8,-321.41 1039.8,-281.03 1053.99,-263.13"/>
<polygon fill="#63b8ff" stroke="#63b8ff" points="986.57,-342.55 983.1,-352.56 992.06,-346.9 986.57,-342.55"/>
</a>
</g>
</g>
<!-- Node3&#45;&gt;Node4 -->
<g id="edge3_Node000003_Node000004" class="edge">
<title>Node3&#45;&gt;Node4</title>
<g id="a_edge3_Node000003_Node000004"><a xlink:title=" ">
<path fill="none" stroke="#63b8ff" d="M155.21,-233.38C167.03,-215.35 187.55,-189.09 213.12,-177 282.34,-144.27 823.08,-134.85 975.34,-132.84"/>
<polygon fill="#63b8ff" stroke="#63b8ff" points="152.26,-231.49 149.94,-241.83 158.2,-235.19 152.26,-231.49"/>
</a>
</g>
</g>
<!-- Node5 -->
<g id="Node000005" class="node">
<title>Node5</title>
<g id="a_Node000005"><a xlink:href="_integrator_8h.html" target="_top" xlink:title="Integrator source file.">
<polygon fill="white" stroke="#666666" points="886.75,-80.12 787.5,-80.12 787.5,-60.88 886.75,-60.88 886.75,-80.12"/>
<text text-anchor="middle" x="837.12" y="-66.62" font-family="Helvetica,sans-Serif" font-size="10.00">algebra/Integrator.h</text>
</a>
</g>
</g>
<!-- Node4&#45;&gt;Node5 -->
<g id="edge4_Node000004_Node000005" class="edge">
<title>Node4&#45;&gt;Node5</title>
<g id="a_edge4_Node000004_Node000005"><a xlink:title=" ">
<path fill="none" stroke="#63b8ff" d="M976.85,-117.72C943.07,-106.54 894.64,-90.52 864.58,-80.58"/>
<polygon fill="#63b8ff" stroke="#63b8ff" points="975.67,-121.01 986.27,-120.83 977.87,-114.37 975.67,-121.01"/>
</a>
</g>
</g>
<!-- Node6 -->
<g id="Node000006" class="node">
<title>Node6</title>
<g id="a_Node000006"><a xlink:href="interface_8h.html" target="_top" xlink:title="svZeroDSolver callable interface.">
<polygon fill="white" stroke="#666666" points="965.88,-19.25 864.38,-19.25 864.38,0 965.88,0 965.88,-19.25"/>
<text text-anchor="middle" x="915.12" y="-5.75" font-family="Helvetica,sans-Serif" font-size="10.00">interface/interface.h</text>
</a>
</g>
</g>
<!-- Node4&#45;&gt;Node6 -->
<g id="edge7_Node000004_Node000006" class="edge">
<title>Node4&#45;&gt;Node6</title>
<g id="a_edge7_Node000004_Node000006"><a xlink:title=" ">
<path fill="none" stroke="#63b8ff" d="M976.54,-116.97C961.3,-109.88 944.89,-99.69 934.12,-85.75 918.67,-65.73 915.67,-34.6 915.16,-19.47"/>
<polygon fill="#63b8ff" stroke="#63b8ff" points="974.86,-120.06 985.43,-120.79 977.63,-113.62 974.86,-120.06"/>
</a>
</g>
</g>
<!-- Node7 -->
<g id="Node000007" class="node">
<title>Node7</title>
<g id="a_Node000007"><a xlink:href="_solver_8h.html" target="_top" xlink:title="Solver source file.">
<polygon fill="white" stroke="#666666" points="734.88,-19.25 657.38,-19.25 657.38,0 734.88,0 734.88,-19.25"/>
<text text-anchor="middle" x="696.12" y="-5.75" font-family="Helvetica,sans-Serif" font-size="10.00">solve/Solver.h</text>
</a>
</g>
</g>
<!-- Node4&#45;&gt;Node7 -->
<g id="edge17_Node000004_Node000007" class="edge">
<title>Node4&#45;&gt;Node7</title>
<g id="a_edge17_Node000004_Node000007"><a xlink:title=" ">
<path fill="none" stroke="#63b8ff" d="M963.82,-128.41C860.89,-123.95 637.06,-111.38 614.12,-85.75 605.09,-75.65 607.2,-66.9 614.12,-55.25 624.64,-37.56 644.9,-26.43 662.66,-19.72"/>
<polygon fill="#63b8ff" stroke="#63b8ff" points="963.51,-131.9 973.65,-128.83 963.8,-124.91 963.51,-131.9"/>
</a>
</g>
</g>
<!-- Node4&#45;&gt;Node8 -->
<g id="edge8_Node000004_Node000008" class="edge">
<title>Node4&#45;&gt;Node8</title>
<g id="a_edge8_Node000004_Node000008"><a xlink:title=" ">
<path fill="none" stroke="#63b8ff" d="M1065.9,-122.28C1125.96,-113.44 1228.66,-98.8 1317.12,-85.75 1328.23,-84.11 1340.07,-82.34 1351.63,-80.62"/>
<polygon fill="#63b8ff" stroke="#63b8ff" points="1065.71,-118.77 1056.33,-123.69 1066.74,-125.69 1065.71,-118.77"/>
</a>
</g>
</g>
<!-- Node4&#45;&gt;Node9 -->
<g id="edge10_Node000004_Node000009" class="edge">
<title>Node4&#45;&gt;Node9</title>
<g id="a_edge10_Node000004_Node000009"><a xlink:title=" ">
<path fill="none" stroke="#63b8ff" d="M1066.38,-128.15C1176.67,-123.09 1444.6,-109.28 1668.12,-85.75 1682.08,-84.28 1697.07,-82.34 1711.1,-80.36"/>
<polygon fill="#63b8ff" stroke="#63b8ff" points="1066.31,-124.65 1056.48,-128.6 1066.63,-131.65 1066.31,-124.65"/>
</a>
</g>
</g>
<!-- Node4&#45;&gt;Node10 -->
<g id="edge11_Node000004_Node000010" class="edge">
<title>Node4&#45;&gt;Node10</title>
<g id="a_edge11_Node000004_Node000010"><a xlink:title=" ">
<path fill="none" stroke="#63b8ff" d="M1066.32,-127.04C1155.72,-121.19 1345.54,-107.6 1505.12,-85.75 1515.5,-84.33 1526.59,-82.47 1537.29,-80.57"/>
<polygon fill="#63b8ff" stroke="#63b8ff" points="1066.16,-123.54 1056.41,-127.68 1066.62,-130.52 1066.16,-123.54"/>
</a>
</g>
</g>
<!-- Node11 -->
<g id="Node000011" class="node">
<title>Node11</title>
<g id="a_Node000011"><a xlink:href="_levenberg_marquardt_optimizer_8h.html" target="_top" xlink:title="opt::LevenbergMarquardtOptimizer source file">
<polygon fill="white" stroke="#666666" points="1087.25,-85.75 943,-85.75 943,-55.25 1087.25,-55.25 1087.25,-85.75"/>
<text text-anchor="start" x="951" y="-72.25" font-family="Helvetica,sans-Serif" font-size="10.00">optimize/LevenbergMarquardt</text>
<text text-anchor="middle" x="1015.12" y="-61" font-family="Helvetica,sans-Serif" font-size="10.00">Optimizer.h</text>
</a>
</g>
</g>
<!-- Node4&#45;&gt;Node11 -->
<g id="edge13_Node000004_Node000011" class="edge">
<title>Node4&#45;&gt;Node11</title>
<g id="a_edge13_Node000004_Node000011"><a xlink:title=" ">
<path fill="none" stroke="#63b8ff" d="M1015.12,-110.17C1015.12,-102.24 1015.12,-93.31 1015.12,-86.03"/>
<polygon fill="#63b8ff" stroke="#63b8ff" points="1011.63,-109.92 1015.13,-119.92 1018.63,-109.92 1011.63,-109.92"/>
</a>
</g>
</g>
<!-- Node12 -->
<g id="Node000012" class="node">
<title>Node12</title>
<g id="a_Node000012"><a xlink:href="calibrate_8h.html" target="_top" xlink:title="opt::calibrate source file">
<polygon fill="white" stroke="#666666" points="1204.75,-80.12 1105.5,-80.12 1105.5,-60.88 1204.75,-60.88 1204.75,-80.12"/>
<text text-anchor="middle" x="1155.12" y="-66.62" font-family="Helvetica,sans-Serif" font-size="10.00">optimize/calibrate.h</text>
</a>
</g>
</g>
<!-- Node4&#45;&gt;Node12 -->
<g id="edge14_Node000004_Node000012" class="edge">
<title>Node4&#45;&gt;Node12</title>
<g id="a_edge14_Node000004_Node000012"><a xlink:title=" ">
<path fill="none" stroke="#63b8ff" d="M1047.01,-116.97C1073.56,-105.8 1110.65,-90.2 1133.76,-80.48"/>
<polygon fill="#63b8ff" stroke="#63b8ff" points="1045.95,-113.62 1038.09,-120.72 1048.66,-120.07 1045.95,-113.62"/>
</a>
</g>
</g>
<!-- Node13 -->
<g id="Node000013" class="node">
<title>Node13</title>
<g id="a_Node000013"><a xlink:href="_simulation_parameters_8h.html" target="_top" xlink:title="Source file to read simulation configuration.">
<polygon fill="white" stroke="#666666" points="769,-80.12 623.25,-80.12 623.25,-60.88 769,-60.88 769,-80.12"/>
<text text-anchor="middle" x="696.12" y="-66.62" font-family="Helvetica,sans-Serif" font-size="10.00">solve/SimulationParameters.h</text>
</a>
</g>
</g>
<!-- Node4&#45;&gt;Node13 -->
<g id="edge15_Node000004_Node000013" class="edge">
<title>Node4&#45;&gt;Node13</title>
<g id="a_edge15_Node000004_Node000013"><a xlink:title=" ">
<path fill="none" stroke="#63b8ff" d="M964.27,-120.99C904.21,-109.9 804.99,-91.59 745.56,-80.62"/>
<polygon fill="#63b8ff" stroke="#63b8ff" points="963.41,-124.39 973.88,-122.76 964.68,-117.51 963.41,-124.39"/>
</a>
</g>
</g>
<!-- Node14 -->
<g id="Node000014" class="node">
<title>Node14</title>
<g id="a_Node000014"><a xlink:href="csv__writer_8h.html" target="_top" xlink:title="csv_writer source file">
<polygon fill="white" stroke="#666666" points="1317.5,-80.12 1222.75,-80.12 1222.75,-60.88 1317.5,-60.88 1317.5,-80.12"/>
<text text-anchor="middle" x="1270.12" y="-66.62" font-family="Helvetica,sans-Serif" font-size="10.00">solve/csv_writer.h</text>
</a>
</g>
</g>
<!-- Node4&#45;&gt;Node14 -->
<g id="edge18_Node000004_Node000014" class="edge">
<title>Node4&#45;&gt;Node14</title>
<g id="a_edge18_Node000004_Node000014"><a xlink:title=" ">
<path fill="none" stroke="#63b8ff" d="M1065.98,-119.39C1106.24,-110.59 1163.87,-97.78 1214.12,-85.75 1220.86,-84.14 1228.03,-82.36 1234.91,-80.62"/>
<polygon fill="#63b8ff" stroke="#63b8ff" points="1065.35,-115.95 1056.33,-121.5 1066.84,-122.78 1065.35,-115.95"/>
</a>
</g>
</g>
<!-- Node5&#45;&gt;Node6 -->
<g id="edge5_Node000005_Node000006" class="edge">
<title>Node5&#45;&gt;Node6</title>
<g id="a_edge5_Node000005_Node000006"><a xlink:title=" ">
<path fill="none" stroke="#63b8ff" d="M858.16,-53.63C872.59,-42.73 891.21,-28.67 903.17,-19.65"/>
<polygon fill="#63b8ff" stroke="#63b8ff" points="856.05,-50.83 850.18,-59.65 860.27,-56.42 856.05,-50.83"/>
</a>
</g>
</g>
<!-- Node5&#45;&gt;Node7 -->
<g id="edge6_Node000005_Node000007" class="edge">
<title>Node5&#45;&gt;Node7</title>
<g id="a_edge6_Node000005_Node000007"><a xlink:title=" ">
<path fill="none" stroke="#63b8ff" d="M805.02,-56.09C778.27,-44.92 740.91,-29.33 717.64,-19.61"/>
<polygon fill="#63b8ff" stroke="#63b8ff" points="803.43,-59.22 814.01,-59.85 806.13,-52.76 803.43,-59.22"/>
</a>
</g>
</g>
<!-- Node8&#45;&gt;Node4 -->
<g id="edge9_Node000008_Node000004" class="edge">
<title>Node8&#45;&gt;Node4</title>
<g id="a_edge9_Node000008_Node000004"><a xlink:title=" ">
<path fill="none" stroke="#63b8ff" d="M1358.09,-82.32C1350.38,-83.49 1342.59,-84.65 1335.12,-85.75 1234.49,-100.6 1115.42,-117.5 1054.71,-125.58"/>
<polygon fill="#63b8ff" stroke="#63b8ff" points="1358.44,-85.81 1367.8,-80.84 1357.39,-78.89 1358.44,-85.81"/>
</a>
</g>
</g>
<!-- Node10&#45;&gt;Node4 -->
<g id="edge12_Node000010_Node000004" class="edge">
<title>Node10&#45;&gt;Node4</title>
<g id="a_edge12_Node000010_Node000004"><a xlink:title=" ">
<path fill="none" stroke="#63b8ff" d="M1543.53,-82.59C1536.71,-83.75 1529.77,-84.84 1523.12,-85.75 1349.92,-109.47 1141.08,-123.45 1054.99,-128.37"/>
<polygon fill="#63b8ff" stroke="#63b8ff" points="1544.08,-86.04 1553.31,-80.84 1542.85,-79.15 1544.08,-86.04"/>
</a>
</g>
</g>
<!-- Node13&#45;&gt;Node7 -->
<g id="edge16_Node000013_Node000007" class="edge">
<title>Node13&#45;&gt;Node7</title>
<g id="a_edge16_Node000013_Node000007"><a xlink:title=" ">
<path fill="none" stroke="#63b8ff" d="M696.12,-49.07C696.12,-39.04 696.12,-27.46 696.12,-19.65"/>
<polygon fill="#63b8ff" stroke="#63b8ff" points="692.63,-49.04 696.13,-59.04 699.63,-49.04 692.63,-49.04"/>
</a>
</g>
</g>
<!-- Node14&#45;&gt;Node6 -->
<g id="edge19_Node000014_Node000006" class="edge">
<title>Node14&#45;&gt;Node6</title>
<g id="a_edge19_Node000014_Node000006"><a xlink:title=" ">
<path fill="none" stroke="#63b8ff" d="M1225.8,-57.78C1221.86,-56.88 1217.93,-56.02 1214.12,-55.25 1127.69,-37.85 1025.93,-24.07 966.19,-16.65"/>
<polygon fill="#63b8ff" stroke="#63b8ff" points="1224.78,-61.14 1235.32,-60.08 1226.42,-54.33 1224.78,-61.14"/>
</a>
</g>
</g>
<!-- Node15&#45;&gt;Node4 -->
<g id="edge23_Node000015_Node000004" class="edge">
<title>Node15&#45;&gt;Node4</title>
<g id="a_edge23_Node000015_Node000004"><a xlink:title=" ">
<path fill="none" stroke="#63b8ff" d="M675.77,-289.28C681.41,-281.18 688.12,-271.5 694.12,-262.75 720.14,-224.8 713.44,-201.91 752.12,-177 788.39,-153.65 911.09,-140.66 975.27,-135.31"/>
<polygon fill="#63b8ff" stroke="#63b8ff" points="673.05,-287.06 670.2,-297.27 678.79,-291.07 673.05,-287.06"/>
</a>
</g>
</g>
<!-- Node15&#45;&gt;Node16 -->
<g id="edge21_Node000015_Node000016" class="edge">
<title>Node15&#45;&gt;Node16</title>
<g id="a_edge21_Node000015_Node000016"><a xlink:title=" ">
<path fill="none" stroke="#63b8ff" d="M647.08,-290.29C638.6,-281.25 628.52,-270.52 621.56,-263.11"/>
<polygon fill="#63b8ff" stroke="#63b8ff" points="644.44,-292.58 653.83,-297.48 649.54,-287.79 644.44,-292.58"/>
</a>
</g>
</g>
<!-- Node16&#45;&gt;Node4 -->
<g id="edge22_Node000016_Node000004" class="edge">
<title>Node16&#45;&gt;Node4</title>
<g id="a_edge22_Node000016_Node000004"><a xlink:title=" ">
<path fill="none" stroke="#63b8ff" d="M627.39,-234.3C642.65,-216.61 668.53,-190.27 697.12,-177 745.86,-154.38 901.48,-140.52 975.41,-135.06"/>
<polygon fill="#63b8ff" stroke="#63b8ff" points="624.74,-232.01 621.03,-241.93 630.12,-236.49 624.74,-232.01"/>
</a>
</g>
</g>
<!-- Node17&#45;&gt;Node4 -->
<g id="edge26_Node000017_Node000004" class="edge">
<title>Node17&#45;&gt;Node4</title>
<g id="a_edge26_Node000017_Node000004"><a xlink:title=" ">
<path fill="none" stroke="#63b8ff" d="M498.56,-288.78C506.21,-275.04 518.02,-256.53 532.12,-243.5 576.35,-202.65 592.93,-195.79 650.12,-177 763.84,-139.64 906.78,-133.07 975.14,-132.23"/>
<polygon fill="#63b8ff" stroke="#63b8ff" points="495.66,-286.78 494.06,-297.25 501.84,-290.06 495.66,-286.78"/>
</a>
</g>
</g>
<!-- Node17&#45;&gt;Node16 -->
<g id="edge25_Node000017_Node000016" class="edge">
<title>Node17&#45;&gt;Node16</title>
<g id="a_edge25_Node000017_Node000016"><a xlink:title=" ">
<path fill="none" stroke="#63b8ff" d="M520.5,-293.9C542.87,-284.29 572.36,-271.63 591.99,-263.2"/>
<polygon fill="#63b8ff" stroke="#63b8ff" points="519.36,-290.58 511.55,-297.74 522.12,-297.01 519.36,-290.58"/>
</a>
</g>
</g>
<!-- Node19 -->
<g id="Node000019" class="node">
<title>Node19</title>
<g id="a_Node000019"><a xlink:href="_closed_loop_coronary_left_b_c_8h.html" target="_top" xlink:title="Left side of ClosedLoopCoronaryBC.">
<polygon fill="white" stroke="#666666" points="912.75,-207.5 777.5,-207.5 777.5,-177 912.75,-177 912.75,-207.5"/>
<text text-anchor="start" x="785.5" y="-194" font-family="Helvetica,sans-Serif" font-size="10.00">model/ClosedLoopCoronary</text>
<text text-anchor="middle" x="845.12" y="-182.75" font-family="Helvetica,sans-Serif" font-size="10.00">LeftBC.h</text>
</a>
</g>
</g>
<!-- Node18&#45;&gt;Node19 -->
<g id="edge30_Node000018_Node000019" class="edge">
<title>Node18&#45;&gt;Node19</title>
<g id="a_edge30_Node000018_Node000019"><a xlink:title=" ">
<path fill="none" stroke="#63b8ff" d="M858.45,-232.48C855.71,-224.41 852.59,-215.23 850.06,-207.78"/>
<polygon fill="#63b8ff" stroke="#63b8ff" points="855.07,-233.41 861.6,-241.75 861.7,-231.16 855.07,-233.41"/>
</a>
</g>
</g>
<!-- Node20 -->
<g id="Node000020" class="node">
<title>Node20</title>
<g id="a_Node000020"><a xlink:href="_closed_loop_coronary_right_b_c_8h.html" target="_top" xlink:title="Right side of ClosedLoopCoronaryBC.">
<polygon fill="white" stroke="#666666" points="1065.75,-207.5 930.5,-207.5 930.5,-177 1065.75,-177 1065.75,-207.5"/>
<text text-anchor="start" x="938.5" y="-194" font-family="Helvetica,sans-Serif" font-size="10.00">model/ClosedLoopCoronary</text>
<text text-anchor="middle" x="998.12" y="-182.75" font-family="Helvetica,sans-Serif" font-size="10.00">RightBC.h</text>
</a>
</g>
</g>
<!-- Node18&#45;&gt;Node20 -->
<g id="edge32_Node000018_Node000020" class="edge">
<title>Node18&#45;&gt;Node20</title>
<g id="a_edge32_Node000018_Node000020"><a xlink:title=" ">
<path fill="none" stroke="#63b8ff" d="M896.05,-238.44C916.69,-229.3 943.83,-217.29 964.93,-207.94"/>
<polygon fill="#63b8ff" stroke="#63b8ff" points="894.73,-235.19 887,-242.44 897.56,-241.59 894.73,-235.19"/>
</a>
</g>
</g>
<!-- Node19&#45;&gt;Node4 -->
<g id="edge31_Node000019_Node000004" class="edge">
<title>Node19&#45;&gt;Node4</title>
<g id="a_edge31_Node000019_Node000004"><a xlink:title=" ">
<path fill="none" stroke="#63b8ff" d="M898.36,-172.81C928.45,-162.39 964.75,-149.82 988.8,-141.49"/>
<polygon fill="#63b8ff" stroke="#63b8ff" points="897.32,-169.47 889.01,-176.05 899.61,-176.08 897.32,-169.47"/>
</a>
</g>
</g>
<!-- Node20&#45;&gt;Node4 -->
<g id="edge33_Node000020_Node000004" class="edge">
<title>Node20&#45;&gt;Node4</title>
<g id="a_edge33_Node000020_Node000004"><a xlink:title=" ">
<path fill="none" stroke="#63b8ff" d="M1005.47,-165.82C1007.97,-157.14 1010.62,-147.98 1012.5,-141.45"/>
<polygon fill="#63b8ff" stroke="#63b8ff" points="1002.16,-164.66 1002.75,-175.24 1008.88,-166.61 1002.16,-164.66"/>
</a>
</g>
</g>
<!-- Node21&#45;&gt;Node4 -->
<g id="edge36_Node000021_Node000004" class="edge">
<title>Node21&#45;&gt;Node4</title>
<g id="a_edge36_Node000021_Node000004"><a xlink:title=" ">
<path fill="none" stroke="#63b8ff" d="M801.26,-291.09C792.8,-283.39 783.72,-273.53 778.12,-262.75 760.45,-228.69 743.52,-206.44 768.12,-177 794.04,-145.98 912.09,-136.49 975.14,-133.61"/>
<polygon fill="#63b8ff" stroke="#63b8ff" points="798.97,-293.74 808.86,-297.55 803.51,-288.41 798.97,-293.74"/>
</a>
</g>
</g>
<!-- Node21&#45;&gt;Node18 -->
<g id="edge35_Node000021_Node000018" class="edge">
<title>Node21&#45;&gt;Node18</title>
<g id="a_edge35_Node000021_Node000018"><a xlink:title=" ">
<path fill="none" stroke="#63b8ff" d="M836.38,-289.72C843.58,-280.81 852.01,-270.37 857.87,-263.11"/>
<polygon fill="#63b8ff" stroke="#63b8ff" points="833.74,-287.43 830.18,-297.4 839.18,-291.82 833.74,-287.43"/>
</a>
</g>
</g>
<!-- Node22&#45;&gt;Node4 -->
<g id="edge38_Node000022_Node000004" class="edge">
<title>Node22&#45;&gt;Node4</title>
<g id="a_edge38_Node000022_Node000004"><a xlink:title=" ">
<path fill="none" stroke="#63b8ff" d="M136.82,-180.58C146.96,-179.22 157.3,-177.97 167.12,-177 477.42,-146.34 853.81,-135.88 975.29,-133.17"/>
<polygon fill="#63b8ff" stroke="#63b8ff" points="136.43,-177.1 127,-181.94 137.39,-184.03 136.43,-177.1"/>
</a>
</g>
</g>
<!-- Node23&#45;&gt;Node4 -->
<g id="edge40_Node000023_Node000004" class="edge">
<title>Node23&#45;&gt;Node4</title>
<g id="a_edge40_Node000023_Node000004"><a xlink:title=" ">
<path fill="none" stroke="#63b8ff" d="M1210.66,-296.05C1297.68,-278.31 1434.34,-239.39 1379.12,-177 1357.9,-153.01 1145.09,-139.16 1055.04,-134.33"/>
<polygon fill="#63b8ff" stroke="#63b8ff" points="1210.13,-292.59 1201,-297.97 1211.49,-299.45 1210.13,-292.59"/>
</a>
</g>
</g>
<!-- Node24&#45;&gt;Node4 -->
<g id="edge42_Node000024_Node000004" class="edge">
<title>Node24&#45;&gt;Node4</title>
<g id="a_edge42_Node000024_Node000004"><a xlink:title=" ">
<path fill="none" stroke="#63b8ff" d="M449.26,-233.09C458.95,-215.24 476.04,-189.48 499.12,-177 581.19,-132.63 869.22,-130.87 975.42,-131.8"/>
<polygon fill="#63b8ff" stroke="#63b8ff" points="446.21,-231.38 444.78,-241.88 452.44,-234.56 446.21,-231.38"/>
</a>
</g>
</g>
<!-- Node25&#45;&gt;Node4 -->
<g id="edge46_Node000025_Node000004" class="edge">
<title>Node25&#45;&gt;Node4</title>
<g id="a_edge46_Node000025_Node000004"><a xlink:title=" ">
<path fill="none" stroke="#63b8ff" d="M1329.1,-292.33C1367.67,-267.29 1433.83,-215.97 1399.12,-177 1376.5,-151.59 1148.85,-138.44 1055.12,-134.07"/>
<polygon fill="#63b8ff" stroke="#63b8ff" points="1327.38,-289.28 1320.8,-297.58 1331.12,-295.19 1327.38,-289.28"/>
</a>
</g>
</g>
<!-- Node26&#45;&gt;Node4 -->
<g id="edge48_Node000026_Node000004" class="edge">
<title>Node26&#45;&gt;Node4</title>
<g id="a_edge48_Node000026_Node000004"><a xlink:title=" ">
<path fill="none" stroke="#63b8ff" d="M1470.08,-287.31C1465.92,-257.89 1453.62,-203.66 1418.12,-177 1361.56,-134.51 1145.38,-131.23 1055.1,-131.79"/>
<polygon fill="#63b8ff" stroke="#63b8ff" points="1466.58,-287.56 1471.26,-297.07 1473.53,-286.72 1466.58,-287.56"/>
</a>
</g>
</g>
<!-- Node27&#45;&gt;Node4 -->
<g id="edge51_Node000027_Node000004" class="edge">
<title>Node27&#45;&gt;Node4</title>
<g id="a_edge51_Node000027_Node000004"><a xlink:title=" ">
<path fill="none" stroke="#63b8ff" d="M338.76,-236.97C366.66,-219.15 416.18,-190.32 463.12,-177 559.66,-149.6 865.8,-137.21 975.52,-133.57"/>
<polygon fill="#63b8ff" stroke="#63b8ff" points="336.91,-233.99 330.44,-242.38 340.73,-239.86 336.91,-233.99"/>
</a>
</g>
</g>
<!-- Node28&#45;&gt;Node4 -->
<g id="edge53_Node000028_Node000004" class="edge">
<title>Node28&#45;&gt;Node4</title>
<g id="a_edge53_Node000028_Node000004"><a xlink:title=" ">
<path fill="none" stroke="#63b8ff" d="M1605.69,-290.38C1576.47,-261.37 1512.22,-202.96 1445.12,-177 1374.43,-149.65 1147.57,-137.68 1055.01,-133.84"/>
<polygon fill="#63b8ff" stroke="#63b8ff" points="1603.01,-292.64 1612.53,-297.29 1607.99,-287.72 1603.01,-292.64"/>
</a>
</g>
</g>
<!-- Node29&#45;&gt;Node4 -->
<g id="edge55_Node000029_Node000004" class="edge">
<title>Node29&#45;&gt;Node4</title>
<g id="a_edge55_Node000029_Node000004"><a xlink:title=" ">
<path fill="none" stroke="#63b8ff" d="M1118.27,-177.69C1092.87,-166.54 1057.59,-151.03 1035.57,-141.36"/>
<polygon fill="#63b8ff" stroke="#63b8ff" points="1116.53,-180.75 1127.1,-181.57 1119.35,-174.34 1116.53,-180.75"/>
</a>
</g>
</g>
<!-- Node30&#45;&gt;Node4 -->
<g id="edge57_Node000030_Node000004" class="edge">
<title>Node30&#45;&gt;Node4</title>
<g id="a_edge57_Node000030_Node000004"><a xlink:title=" ">
<path fill="none" stroke="#63b8ff" d="M1269.26,-179.75C1264.82,-178.8 1260.39,-177.87 1256.12,-177 1185.45,-162.59 1102.71,-147.7 1054.87,-139.28"/>
<polygon fill="#63b8ff" stroke="#63b8ff" points="1268.23,-183.11 1278.75,-181.81 1269.72,-176.27 1268.23,-183.11"/>
</a>
</g>
</g>
<!-- Node31&#45;&gt;Node4 -->
<g id="edge59_Node000031_Node000004" class="edge">
<title>Node31&#45;&gt;Node4</title>
<g id="a_edge59_Node000031_Node000004"><a xlink:title=" ">
<path fill="none" stroke="#63b8ff" d="M1130.81,-243.75C1187.44,-234.07 1253.36,-214.41 1223.12,-177 1202.41,-151.36 1109.45,-139.78 1055.07,-135.12"/>
<polygon fill="#63b8ff" stroke="#63b8ff" points="1130.45,-240.27 1121.13,-245.32 1131.56,-247.18 1130.45,-240.27"/>
</a>
</g>
</g>
</g>
</svg>
