<?xml version="1.0" encoding="UTF-8" standalone="no"?>
<!DOCTYPE svg PUBLIC "-//W3C//DTD SVG 1.1//EN"
 "http://www.w3.org/Graphics/SVG/1.1/DTD/svg11.dtd">
<!-- Generated by graphviz version 12.2.1 (20241206.2353)
 -->
<!-- Title: model/RegazzoniChamber.h Pages: 1 -->
<svg width="1038pt" height="204pt"
 viewBox="0.00 0.00 1037.57 204.25" xmlns="http://www.w3.org/2000/svg" xmlns:xlink="http://www.w3.org/1999/xlink">
<g id="graph0" class="graph" transform="scale(1 1) rotate(0) translate(4 200.25)">
<title>model/RegazzoniChamber.h</title>
<!-- Node1 -->
<g id="Node000001" class="node">
<title>Node1</title>
<g id="a_Node000001"><a xlink:title="model::RegazzoniChamber source file">
<polygon fill="#999999" stroke="#666666" points="501.38,-196.25 365.38,-196.25 365.38,-177 501.38,-177 501.38,-196.25"/>
<text text-anchor="middle" x="433.38" y="-182.75" font-family="Helvetica,sans-Serif" font-size="10.00">model/RegazzoniChamber.h</text>
</a>
</g>
</g>
<!-- Node2 -->
<g id="Node000002" class="node">
<title>Node2</title>
<g id="a_Node000002"><a xlink:href="_model_8h.html" target="_top" xlink:title="model::Model source file">
<polygon fill="white" stroke="#666666" points="472.88,-141 393.88,-141 393.88,-121.75 472.88,-121.75 472.88,-141"/>
<text text-anchor="middle" x="433.38" y="-127.5" font-family="Helvetica,sans-Serif" font-size="10.00">model/Model.h</text>
</a>
</g>
</g>
<!-- Node1&#45;&gt;Node2 -->
<g id="edge1_Node000001_Node000002" class="edge">
<title>Node1&#45;&gt;Node2</title>
<g id="a_edge1_Node000001_Node000002"><a xlink:title=" ">
<path fill="none" stroke="#63b8ff" d="M426.82,-165.67C426.33,-157.3 426.78,-148 428.17,-141.36"/>
<polygon fill="#63b8ff" stroke="#63b8ff" points="423.31,-165.84 428.02,-175.33 430.26,-164.97 423.31,-165.84"/>
</a>
</g>
</g>
<!-- Node2&#45;&gt;Node1 -->
<g id="edge9_Node000002_Node000001" class="edge">
<title>Node2&#45;&gt;Node1</title>
<g id="a_edge9_Node000002_Node000001"><a xlink:title=" ">
<path fill="none" stroke="#63b8ff" d="M439.95,-152.57C440.42,-160.96 439.95,-170.24 438.54,-176.83"/>
<polygon fill="#63b8ff" stroke="#63b8ff" points="443.45,-152.37 438.76,-142.86 436.5,-153.21 443.45,-152.37"/>
</a>
</g>
</g>
<!-- Node3 -->
<g id="Node000003" class="node">
<title>Node3</title>
<g id="a_Node000003"><a xlink:href="_integrator_8h.html" target="_top" xlink:title="Integrator source file.">
<polygon fill="white" stroke="#666666" points="250,-80.12 150.75,-80.12 150.75,-60.88 250,-60.88 250,-80.12"/>
<text text-anchor="middle" x="200.38" y="-66.62" font-family="Helvetica,sans-Serif" font-size="10.00">algebra/Integrator.h</text>
</a>
</g>
</g>
<!-- Node2&#45;&gt;Node3 -->
<g id="edge2_Node000002_Node000003" class="edge">
<title>Node2&#45;&gt;Node3</title>
<g id="a_edge2_Node000002_Node000003"><a xlink:title=" ">
<path fill="none" stroke="#63b8ff" d="M386.42,-118.51C342.1,-107.31 276.61,-90.76 236.31,-80.58"/>
<polygon fill="#63b8ff" stroke="#63b8ff" points="385.46,-121.88 396.01,-120.93 387.17,-115.09 385.46,-121.88"/>
</a>
</g>
</g>
<!-- Node4 -->
<g id="Node000004" class="node">
<title>Node4</title>
<g id="a_Node000004"><a xlink:href="interface_8h.html" target="_top" xlink:title="svZeroDSolver callable interface.">
<polygon fill="white" stroke="#666666" points="173.12,-19.25 71.62,-19.25 71.62,0 173.12,0 173.12,-19.25"/>
<text text-anchor="middle" x="122.38" y="-5.75" font-family="Helvetica,sans-Serif" font-size="10.00">interface/interface.h</text>
</a>
</g>
</g>
<!-- Node2&#45;&gt;Node4 -->
<g id="edge5_Node000002_Node000004" class="edge">
<title>Node2&#45;&gt;Node4</title>
<g id="a_edge5_Node000002_Node000004"><a xlink:title=" ">
<path fill="none" stroke="#63b8ff" d="M382.09,-129.18C307.91,-126.37 175.79,-117.01 141.38,-85.75 122.45,-68.56 121.15,-35.51 121.74,-19.6"/>
<polygon fill="#63b8ff" stroke="#63b8ff" points="381.84,-132.67 391.96,-129.52 382.09,-125.68 381.84,-132.67"/>
</a>
</g>
</g>
<!-- Node5 -->
<g id="Node000005" class="node">
<title>Node5</title>
<g id="a_Node000005"><a xlink:href="_solver_8h.html" target="_top" xlink:title="Solver source file.">
<polygon fill="white" stroke="#666666" points="980.12,-19.25 902.62,-19.25 902.62,0 980.12,0 980.12,-19.25"/>
<text text-anchor="middle" x="941.38" y="-5.75" font-family="Helvetica,sans-Serif" font-size="10.00">solve/Solver.h</text>
</a>
</g>
</g>
<!-- Node2&#45;&gt;Node5 -->
<g id="edge14_Node000002_Node000005" class="edge">
<title>Node2&#45;&gt;Node5</title>
<g id="a_edge14_Node000002_Node000005"><a xlink:title=" ">
<path fill="none" stroke="#63b8ff" d="M484.59,-130.39C621.33,-129.88 987.11,-124.86 1023.38,-85.75 1032.59,-75.81 1030.3,-66.9 1023.38,-55.25 1012.86,-37.56 992.6,-26.43 974.84,-19.72"/>
<polygon fill="#63b8ff" stroke="#63b8ff" points="484.74,-126.89 474.75,-130.41 484.76,-133.89 484.74,-126.89"/>
</a>
</g>
</g>
<!-- Node6 -->
<g id="Node000006" class="node">
<title>Node6</title>
<g id="a_Node000006"><a xlink:href="_chamber_elastance_inductor_8h.html" target="_top" xlink:title="model::ChamberElastanceInductor source file">
<polygon fill="white" stroke="#666666" points="438.25,-80.12 268.5,-80.12 268.5,-60.88 438.25,-60.88 438.25,-80.12"/>
<text text-anchor="middle" x="353.38" y="-66.62" font-family="Helvetica,sans-Serif" font-size="10.00">model/ChamberElastanceInductor.h</text>
</a>
</g>
</g>
<!-- Node2&#45;&gt;Node6 -->
<g id="edge6_Node000002_Node000006" class="edge">
<title>Node2&#45;&gt;Node6</title>
<g id="a_edge6_Node000002_Node000006"><a xlink:title=" ">
<path fill="none" stroke="#63b8ff" d="M406.66,-115.13C390.48,-104.15 371.2,-89.72 360.61,-80.53"/>
<polygon fill="#63b8ff" stroke="#63b8ff" points="404.68,-118.01 414.95,-120.6 408.53,-112.17 404.68,-118.01"/>
</a>
</g>
</g>
<!-- Node7 -->
<g id="Node000007" class="node">
<title>Node7</title>
<g id="a_Node000007"><a xlink:href="_kung_ventricle_8h.html" target="_top" xlink:title="model::KungVentricle source file">
<polygon fill="white" stroke="#666666" points="570.12,-80.12 456.62,-80.12 456.62,-60.88 570.12,-60.88 570.12,-80.12"/>
<text text-anchor="middle" x="513.38" y="-66.62" font-family="Helvetica,sans-Serif" font-size="10.00">model/KungVentricle.h</text>
</a>
</g>
</g>
<!-- Node2&#45;&gt;Node7 -->
<g id="edge8_Node000002_Node000007" class="edge">
<title>Node2&#45;&gt;Node7</title>
<g id="a_edge8_Node000002_Node000007"><a xlink:title=" ">
<path fill="none" stroke="#63b8ff" d="M454.52,-114.81C469.38,-103.88 488.73,-89.64 501.11,-80.53"/>
<polygon fill="#63b8ff" stroke="#63b8ff" points="452.72,-111.79 446.74,-120.54 456.87,-117.43 452.72,-111.79"/>
</a>
</g>
</g>
<!-- Node8 -->
<g id="Node000008" class="node">
<title>Node8</title>
<g id="a_Node000008"><a xlink:href="_levenberg_marquardt_optimizer_8h.html" target="_top" xlink:title="opt::LevenbergMarquardtOptimizer source file">
<polygon fill="white" stroke="#666666" points="732.5,-85.75 588.25,-85.75 588.25,-55.25 732.5,-55.25 732.5,-85.75"/>
<text text-anchor="start" x="596.25" y="-72.25" font-family="Helvetica,sans-Serif" font-size="10.00">optimize/LevenbergMarquardt</text>
<text text-anchor="middle" x="660.38" y="-61" font-family="Helvetica,sans-Serif" font-size="10.00">Optimizer.h</text>
</a>
</g>
</g>
<!-- Node2&#45;&gt;Node8 -->
<g id="edge10_Node000002_Node000008" class="edge">
<title>Node2&#45;&gt;Node8</title>
<g id="a_edge10_Node000002_Node000008"><a xlink:title=" ">
<path fill="none" stroke="#63b8ff" d="M479.47,-118.42C515.37,-109.11 565.38,-96.14 603.72,-86.19"/>
<polygon fill="#63b8ff" stroke="#63b8ff" points="478.61,-115.03 469.81,-120.92 480.37,-121.8 478.61,-115.03"/>
</a>
</g>
</g>
<!-- Node9 -->
<g id="Node000009" class="node">
<title>Node9</title>
<g id="a_Node000009"><a xlink:href="calibrate_8h.html" target="_top" xlink:title="opt::calibrate source file">
<polygon fill="white" stroke="#666666" points="850,-80.12 750.75,-80.12 750.75,-60.88 850,-60.88 850,-80.12"/>
<text text-anchor="middle" x="800.38" y="-66.62" font-family="Helvetica,sans-Serif" font-size="10.00">optimize/calibrate.h</text>
</a>
</g>
</g>
<!-- Node2&#45;&gt;Node9 -->
<g id="edge11_Node000002_Node000009" class="edge">
<title>Node2&#45;&gt;Node9</title>
<g id="a_edge11_Node000002_Node000009"><a xlink:title=" ">
<path fill="none" stroke="#63b8ff" d="M484.23,-124.48C545.49,-117.04 651.41,-103.09 741.38,-85.75 749.14,-84.25 757.41,-82.41 765.24,-80.55"/>
<polygon fill="#63b8ff" stroke="#63b8ff" points="483.97,-120.99 474.46,-125.66 484.8,-127.94 483.97,-120.99"/>
</a>
</g>
</g>
<!-- Node10 -->
<g id="Node000010" class="node">
<title>Node10</title>
<g id="a_Node000010"><a xlink:href="_simulation_parameters_8h.html" target="_top" xlink:title="Source file to read simulation configuration.">
<polygon fill="white" stroke="#666666" points="1014.25,-80.12 868.5,-80.12 868.5,-60.88 1014.25,-60.88 1014.25,-80.12"/>
<text text-anchor="middle" x="941.38" y="-66.62" font-family="Helvetica,sans-Serif" font-size="10.00">solve/SimulationParameters.h</text>
</a>
</g>
</g>
<!-- Node2&#45;&gt;Node10 -->
<g id="edge12_Node000002_Node000010" class="edge">
<title>Node2&#45;&gt;Node10</title>
<g id="a_edge12_Node000002_Node000010"><a xlink:title=" ">
<path fill="none" stroke="#63b8ff" d="M484.35,-126.16C564.4,-119.28 724.41,-104.52 859.38,-85.75 870.11,-84.26 881.59,-82.42 892.46,-80.56"/>
<polygon fill="#63b8ff" stroke="#63b8ff" points="484.3,-122.65 474.64,-126.99 484.9,-129.62 484.3,-122.65"/>
</a>
</g>
</g>
<!-- Node11 -->
<g id="Node000011" class="node">
<title>Node11</title>
<g id="a_Node000011"><a xlink:href="csv__writer_8h.html" target="_top" xlink:title="csv_writer source file">
<polygon fill="white" stroke="#666666" points="94.75,-80.12 0,-80.12 0,-60.88 94.75,-60.88 94.75,-80.12"/>
<text text-anchor="middle" x="47.38" y="-66.62" font-family="Helvetica,sans-Serif" font-size="10.00">solve/csv_writer.h</text>
</a>
</g>
</g>
<!-- Node2&#45;&gt;Node11 -->
<g id="edge15_Node000002_Node000011" class="edge">
<title>Node2&#45;&gt;Node11</title>
<g id="a_edge15_Node000002_Node000011"><a xlink:title=" ">
<path fill="none" stroke="#63b8ff" d="M382,-124.82C317.73,-117.52 204.46,-103.53 108.38,-85.75 100.35,-84.27 91.8,-82.43 83.71,-80.57"/>
<polygon fill="#63b8ff" stroke="#63b8ff" points="381.58,-128.29 391.91,-125.93 382.36,-121.34 381.58,-128.29"/>
</a>
</g>
</g>
<!-- Node3&#45;&gt;Node4 -->
<g id="edge3_Node000003_Node000004" class="edge">
<title>Node3&#45;&gt;Node4</title>
<g id="a_edge3_Node000003_Node000004"><a xlink:title=" ">
<path fill="none" stroke="#63b8ff" d="M179.34,-53.63C164.91,-42.73 146.29,-28.67 134.33,-19.65"/>
<polygon fill="#63b8ff" stroke="#63b8ff" points="177.23,-56.42 187.32,-59.65 181.45,-50.83 177.23,-56.42"/>
</a>
</g>
</g>
<!-- Node3&#45;&gt;Node5 -->
<g id="edge4_Node000003_Node000005" class="edge">
<title>Node3&#45;&gt;Node5</title>
<g id="a_edge4_Node000003_Node000005"><a xlink:title=" ">
<path fill="none" stroke="#63b8ff" d="M244.4,-57.99C249.43,-56.94 254.5,-55.99 259.38,-55.25 501.9,-18.31 797.52,-11.93 902.29,-10.84"/>
<polygon fill="#63b8ff" stroke="#63b8ff" points="244.03,-54.49 235.04,-60.1 245.56,-61.32 244.03,-54.49"/>
</a>
</g>
</g>
<!-- Node6&#45;&gt;Node2 -->
<g id="edge7_Node000006_Node000002" class="edge">
<title>Node6&#45;&gt;Node2</title>
<g id="a_edge7_Node000006_Node000002"><a xlink:title=" ">
<path fill="none" stroke="#63b8ff" d="M380.24,-86.85C396.43,-97.84 415.7,-112.27 426.23,-121.43"/>
<polygon fill="#63b8ff" stroke="#63b8ff" points="382.2,-83.95 371.93,-81.36 378.35,-89.79 382.2,-83.95"/>
</a>
</g>
</g>
<!-- Node10&#45;&gt;Node5 -->
<g id="edge13_Node000010_Node000005" class="edge">
<title>Node10&#45;&gt;Node5</title>
<g id="a_edge13_Node000010_Node000005"><a xlink:title=" ">
<path fill="none" stroke="#63b8ff" d="M941.38,-49.07C941.38,-39.04 941.38,-27.46 941.38,-19.65"/>
<polygon fill="#63b8ff" stroke="#63b8ff" points="937.88,-49.04 941.38,-59.04 944.88,-49.04 937.88,-49.04"/>
</a>
</g>
</g>
<!-- Node11&#45;&gt;Node4 -->
<g id="edge16_Node000011_Node000004" class="edge">
<title>Node11&#45;&gt;Node4</title>
<g id="a_edge16_Node000011_Node000004"><a xlink:title=" ">
<path fill="none" stroke="#63b8ff" d="M67.6,-53.63C81.47,-42.73 99.38,-28.67 110.88,-19.65"/>
<polygon fill="#63b8ff" stroke="#63b8ff" points="65.66,-50.7 59.96,-59.62 69.98,-56.2 65.66,-50.7"/>
</a>
</g>
</g>
</g>
</svg>
