<?xml version="1.0" encoding="UTF-8" standalone="no"?>
<!DOCTYPE svg PUBLIC "-//W3C//DTD SVG 1.1//EN"
 "http://www.w3.org/Graphics/SVG/1.1/DTD/svg11.dtd">
<!-- Generated by graphviz version 12.1.2 (20240928.0832)
 -->
<!-- Title: algebra/SparseSystem.h Pages: 1 -->
<svg width="2349pt" height="437pt"
 viewBox="0.00 0.00 2349.00 436.50" xmlns="http://www.w3.org/2000/svg" xmlns:xlink="http://www.w3.org/1999/xlink">
<g id="graph0" class="graph" transform="scale(1 1) rotate(0) translate(4 432.5)">
<title>algebra/SparseSystem.h</title>
<!-- Node1 -->
<g id="Node000001" class="node">
<title>Node1</title>
<g id="a_Node000001"><a xlink:title="SparseSystem source file.">
<polygon fill="#999999" stroke="#666666" points="1258.88,-428.5 1137.12,-428.5 1137.12,-409.25 1258.88,-409.25 1258.88,-428.5"/>
<text text-anchor="middle" x="1198" y="-415" font-family="Helvetica,sans-Serif" font-size="10.00">algebra/SparseSystem.h</text>
</a>
</g>
</g>
<!-- Node2 -->
<g id="Node000002" class="node">
<title>Node2</title>
<g id="a_Node000002"><a xlink:href="interface_8h.html" target="_top" xlink:title="svZeroDSolver callable interface.">
<polygon fill="white" stroke="#666666" points="1293.75,-19.25 1192.25,-19.25 1192.25,0 1293.75,0 1293.75,-19.25"/>
<text text-anchor="middle" x="1243" y="-5.75" font-family="Helvetica,sans-Serif" font-size="10.00">interface/interface.h</text>
</a>
</g>
</g>
<!-- Node1&#45;&gt;Node2 -->
<g id="edge1_Node000001_Node000002" class="edge">
<title>Node1&#45;&gt;Node2</title>
<g id="a_edge1_Node000001_Node000002"><a xlink:title=" ">
<path fill="none" stroke="#63b8ff" d="M1125.42,-418.11C890.39,-418.43 159.68,-415.94 63,-373.25 26.52,-357.14 0,-349.25 0,-309.38 0,-309.38 0,-309.38 0,-130.38 0,-90.75 13.61,-74.93 48,-55.25 98.28,-26.47 969.67,-13.95 1191.8,-11.22"/>
<polygon fill="#63b8ff" stroke="#63b8ff" points="1125.39,-421.61 1135.38,-418.09 1125.38,-414.61 1125.39,-421.61"/>
</a>
</g>
</g>
<!-- Node3 -->
<g id="Node000003" class="node">
<title>Node3</title>
<g id="a_Node000003"><a xlink:href="_block_8h.html" target="_top" xlink:title="model::Block source file">
<polygon fill="white" stroke="#666666" points="1195.75,-373.25 1118.25,-373.25 1118.25,-354 1195.75,-354 1195.75,-373.25"/>
<text text-anchor="middle" x="1157" y="-359.75" font-family="Helvetica,sans-Serif" font-size="10.00">model/Block.h</text>
</a>
</g>
</g>
<!-- Node1&#45;&gt;Node3 -->
<g id="edge2_Node000001_Node000003" class="edge">
<title>Node1&#45;&gt;Node3</title>
<g id="a_edge2_Node000001_Node000003"><a xlink:title=" ">
<path fill="none" stroke="#63b8ff" d="M1184.41,-400.22C1177.54,-391.31 1169.51,-380.87 1163.92,-373.61"/>
<polygon fill="#63b8ff" stroke="#63b8ff" points="1181.43,-402.09 1190.31,-407.88 1186.98,-397.82 1181.43,-402.09"/>
</a>
</g>
</g>
<!-- Node8 -->
<g id="Node000008" class="node">
<title>Node8</title>
<g id="a_Node000008"><a xlink:href="_chamber_elastance_inductor_8h.html" target="_top" xlink:title="model::ChamberElastanceInductor source file">
<polygon fill="white" stroke="#666666" points="860.88,-80.12 691.12,-80.12 691.12,-60.88 860.88,-60.88 860.88,-80.12"/>
<text text-anchor="middle" x="776" y="-66.62" font-family="Helvetica,sans-Serif" font-size="10.00">model/ChamberElastanceInductor.h</text>
</a>
</g>
</g>
<!-- Node1&#45;&gt;Node8 -->
<g id="edge64_Node000001_Node000008" class="edge">
<title>Node1&#45;&gt;Node8</title>
<g id="a_edge64_Node000001_Node000008"><a xlink:title=" ">
<path fill="none" stroke="#63b8ff" d="M1125.48,-418.49C877.11,-419.66 76,-415.21 76,-309.38 76,-309.38 76,-309.38 76,-191.25 76,-129.53 504.31,-91.09 690.87,-77.28"/>
<polygon fill="#63b8ff" stroke="#63b8ff" points="1125.38,-421.99 1135.37,-418.44 1125.35,-414.99 1125.38,-421.99"/>
</a>
</g>
</g>
<!-- Node9 -->
<g id="Node000009" class="node">
<title>Node9</title>
<g id="a_Node000009"><a xlink:href="_kung_ventricle_8h.html" target="_top" xlink:title="model::KungVentricle source file">
<polygon fill="white" stroke="#666666" points="170.75,-80.12 57.25,-80.12 57.25,-60.88 170.75,-60.88 170.75,-80.12"/>
<text text-anchor="middle" x="114" y="-66.62" font-family="Helvetica,sans-Serif" font-size="10.00">model/KungVentricle.h</text>
</a>
</g>
</g>
<!-- Node1&#45;&gt;Node9 -->
<g id="edge70_Node000001_Node000009" class="edge">
<title>Node1&#45;&gt;Node9</title>
<g id="a_edge70_Node000001_Node000009"><a xlink:title=" ">
<path fill="none" stroke="#63b8ff" d="M1125.56,-417.14C900.94,-414.54 225.62,-404.2 132,-373.25 84.04,-357.39 38,-359.89 38,-309.38 38,-309.38 38,-309.38 38,-191.25 38,-143.23 82.1,-98.89 103.11,-80.48"/>
<polygon fill="#63b8ff" stroke="#63b8ff" points="1125.31,-420.64 1135.35,-417.25 1125.39,-413.64 1125.31,-420.64"/>
</a>
</g>
</g>
<!-- Node10 -->
<g id="Node000010" class="node">
<title>Node10</title>
<g id="a_Node000010"><a xlink:href="_regazzoni_chamber_8h.html" target="_top" xlink:title="model::RegazzoniChamber source file">
<polygon fill="white" stroke="#666666" points="1955,-80.12 1819,-80.12 1819,-60.88 1955,-60.88 1955,-80.12"/>
<text text-anchor="middle" x="1887" y="-66.62" font-family="Helvetica,sans-Serif" font-size="10.00">model/RegazzoniChamber.h</text>
</a>
</g>
</g>
<!-- Node1&#45;&gt;Node10 -->
<g id="edge73_Node000001_Node000010" class="edge">
<title>Node1&#45;&gt;Node10</title>
<g id="a_edge73_Node000001_Node000010"><a xlink:title=" ">
<path fill="none" stroke="#63b8ff" d="M1270.46,-417.96C1419.26,-417.28 1769.77,-411.36 2061,-373.25 2187.56,-356.69 2341,-437.02 2341,-309.38 2341,-309.38 2341,-309.38 2341,-191.25 2341,-112.49 2082.29,-84.4 1955.46,-75.36"/>
<polygon fill="#63b8ff" stroke="#63b8ff" points="1270.75,-414.45 1260.76,-417.99 1270.77,-421.45 1270.75,-414.45"/>
</a>
</g>
</g>
<!-- Node15 -->
<g id="Node000015" class="node">
<title>Node15</title>
<g id="a_Node000015"><a xlink:href="_blood_vessel_8h.html" target="_top" xlink:title="model::BloodVessel source file">
<polygon fill="white" stroke="#666666" points="1292.75,-318 1185.25,-318 1185.25,-298.75 1292.75,-298.75 1292.75,-318"/>
<text text-anchor="middle" x="1239" y="-304.5" font-family="Helvetica,sans-Serif" font-size="10.00">model/BloodVessel.h</text>
</a>
</g>
</g>
<!-- Node1&#45;&gt;Node15 -->
<g id="edge61_Node000001_Node000015" class="edge">
<title>Node1&#45;&gt;Node15</title>
<g id="a_edge61_Node000001_Node000015"><a xlink:title=" ">
<path fill="none" stroke="#63b8ff" d="M1205.32,-398.51C1214.25,-374.87 1228.98,-335.88 1235.6,-318.38"/>
<polygon fill="#63b8ff" stroke="#63b8ff" points="1202.15,-396.99 1201.89,-407.58 1208.7,-399.46 1202.15,-396.99"/>
</a>
</g>
</g>
<!-- Node16 -->
<g id="Node000016" class="node">
<title>Node16</title>
<g id="a_Node000016"><a xlink:href="_blood_vessel_junction_8h.html" target="_top" xlink:title="model::BloodVesselJunction source file">
<polygon fill="white" stroke="#666666" points="1382.12,-262.75 1237.88,-262.75 1237.88,-243.5 1382.12,-243.5 1382.12,-262.75"/>
<text text-anchor="middle" x="1310" y="-249.25" font-family="Helvetica,sans-Serif" font-size="10.00">model/BloodVesselJunction.h</text>
</a>
</g>
</g>
<!-- Node1&#45;&gt;Node16 -->
<g id="edge63_Node000001_Node000016" class="edge">
<title>Node1&#45;&gt;Node16</title>
<g id="a_edge63_Node000001_Node000016"><a xlink:title=" ">
<path fill="none" stroke="#63b8ff" d="M1221.74,-402.5C1246.32,-385.17 1283.64,-354.58 1302,-318 1311.02,-300.02 1311.31,-275.75 1310.69,-262.92"/>
<polygon fill="#63b8ff" stroke="#63b8ff" points="1219.92,-399.5 1213.64,-408.04 1223.87,-405.28 1219.92,-399.5"/>
</a>
</g>
</g>
<!-- Node17 -->
<g id="Node000017" class="node">
<title>Node17</title>
<g id="a_Node000017"><a xlink:href="_blood_vessel_c_r_l_8h.html" target="_top" xlink:title="model::BloodVesselCRL source file">
<polygon fill="white" stroke="#666666" points="1476.5,-318 1349.5,-318 1349.5,-298.75 1476.5,-298.75 1476.5,-318"/>
<text text-anchor="middle" x="1413" y="-304.5" font-family="Helvetica,sans-Serif" font-size="10.00">model/BloodVesselCRL.h</text>
</a>
</g>
</g>
<!-- Node1&#45;&gt;Node17 -->
<g id="edge62_Node000001_Node000017" class="edge">
<title>Node1&#45;&gt;Node17</title>
<g id="a_edge62_Node000001_Node000017"><a xlink:title=" ">
<path fill="none" stroke="#63b8ff" d="M1249.84,-405.89C1276.29,-398.57 1308.4,-387.8 1335,-373.25 1362.95,-357.96 1390.58,-332.13 1404.22,-318.47"/>
<polygon fill="#63b8ff" stroke="#63b8ff" points="1249.1,-402.46 1240.34,-408.42 1250.91,-409.22 1249.1,-402.46"/>
</a>
</g>
</g>
<!-- Node18 -->
<g id="Node000018" class="node">
<title>Node18</title>
<g id="a_Node000018"><a xlink:href="_closed_loop_coronary_b_c_8h.html" target="_top" xlink:title="model::ClosedLoopCoronaryBC source file">
<polygon fill="white" stroke="#666666" points="1851.12,-262.75 1694.88,-262.75 1694.88,-243.5 1851.12,-243.5 1851.12,-262.75"/>
<text text-anchor="middle" x="1773" y="-249.25" font-family="Helvetica,sans-Serif" font-size="10.00">model/ClosedLoopCoronaryBC.h</text>
</a>
</g>
</g>
<!-- Node1&#45;&gt;Node18 -->
<g id="edge65_Node000001_Node000018" class="edge">
<title>Node1&#45;&gt;Node18</title>
<g id="a_edge65_Node000001_Node000018"><a xlink:title=" ">
<path fill="none" stroke="#63b8ff" d="M1270.67,-413.46C1448.89,-401.88 1896.3,-368.07 1940,-318 1970.52,-283.04 1908.44,-267.13 1851.5,-259.94"/>
<polygon fill="#63b8ff" stroke="#63b8ff" points="1270.6,-409.95 1260.84,-414.09 1271.05,-416.94 1270.6,-409.95"/>
</a>
</g>
</g>
<!-- Node21 -->
<g id="Node000021" class="node">
<title>Node21</title>
<g id="a_Node000021"><a xlink:href="_closed_loop_heart_pulmonary_8h.html" target="_top" xlink:title="model::ClosedLoopHeartPulmonary source file">
<polygon fill="white" stroke="#666666" points="1931.12,-318 1756.88,-318 1756.88,-298.75 1931.12,-298.75 1931.12,-318"/>
<text text-anchor="middle" x="1844" y="-304.5" font-family="Helvetica,sans-Serif" font-size="10.00">model/ClosedLoopHeartPulmonary.h</text>
</a>
</g>
</g>
<!-- Node1&#45;&gt;Node21 -->
<g id="edge66_Node000001_Node000021" class="edge">
<title>Node1&#45;&gt;Node21</title>
<g id="a_edge66_Node000001_Node000021"><a xlink:title=" ">
<path fill="none" stroke="#63b8ff" d="M1263.38,-406.89C1391.11,-385.44 1671.61,-338.33 1789.79,-318.48"/>
<polygon fill="#63b8ff" stroke="#63b8ff" points="1263.02,-403.41 1253.74,-408.51 1264.18,-410.31 1263.02,-403.41"/>
</a>
</g>
</g>
<!-- Node22 -->
<g id="Node000022" class="node">
<title>Node22</title>
<g id="a_Node000022"><a xlink:href="_closed_loop_r_c_r_b_c_8h.html" target="_top" xlink:title="model::ClosedLoopRCRBC source file">
<polygon fill="white" stroke="#666666" points="2313.12,-318 2174.88,-318 2174.88,-298.75 2313.12,-298.75 2313.12,-318"/>
<text text-anchor="middle" x="2244" y="-304.5" font-family="Helvetica,sans-Serif" font-size="10.00">model/ClosedLoopRCRBC.h</text>
</a>
</g>
</g>
<!-- Node1&#45;&gt;Node22 -->
<g id="edge67_Node000001_Node000022" class="edge">
<title>Node1&#45;&gt;Node22</title>
<g id="a_edge67_Node000001_Node000022"><a xlink:title=" ">
<path fill="none" stroke="#63b8ff" d="M1270.39,-418.78C1412.03,-419.46 1735.31,-415.69 2003,-373.25 2082.09,-360.71 2172.73,-332.94 2216.92,-318.5"/>
<polygon fill="#63b8ff" stroke="#63b8ff" points="1270.83,-415.28 1260.81,-418.72 1270.79,-422.28 1270.83,-415.28"/>
</a>
</g>
</g>
<!-- Node23 -->
<g id="Node000023" class="node">
<title>Node23</title>
<g id="a_Node000023"><a xlink:href="_flow_reference_b_c_8h.html" target="_top" xlink:title="model::FlowReferenceBC source file">
<polygon fill="white" stroke="#666666" points="2118.75,-318 1987.25,-318 1987.25,-298.75 2118.75,-298.75 2118.75,-318"/>
<text text-anchor="middle" x="2053" y="-304.5" font-family="Helvetica,sans-Serif" font-size="10.00">model/FlowReferenceBC.h</text>
</a>
</g>
</g>
<!-- Node1&#45;&gt;Node23 -->
<g id="edge68_Node000001_Node000023" class="edge">
<title>Node1&#45;&gt;Node23</title>
<g id="a_edge68_Node000001_Node000023"><a xlink:title=" ">
<path fill="none" stroke="#63b8ff" d="M1270.66,-416.2C1450.88,-411.69 1908.53,-397.93 1973,-373.25 2003.87,-361.43 2032.11,-333.07 2045.25,-318.44"/>
<polygon fill="#63b8ff" stroke="#63b8ff" points="1270.63,-412.7 1260.72,-416.45 1270.8,-419.7 1270.63,-412.7"/>
</a>
</g>
</g>
<!-- Node24 -->
<g id="Node000024" class="node">
<title>Node24</title>
<g id="a_Node000024"><a xlink:href="_junction_8h.html" target="_top" xlink:title="model::Junction source file">
<polygon fill="white" stroke="#666666" points="1700.75,-318 1611.25,-318 1611.25,-298.75 1700.75,-298.75 1700.75,-318"/>
<text text-anchor="middle" x="1656" y="-304.5" font-family="Helvetica,sans-Serif" font-size="10.00">model/Junction.h</text>
</a>
</g>
</g>
<!-- Node1&#45;&gt;Node24 -->
<g id="edge69_Node000001_Node000024" class="edge">
<title>Node1&#45;&gt;Node24</title>
<g id="a_edge69_Node000001_Node000024"><a xlink:title=" ">
<path fill="none" stroke="#63b8ff" d="M1253.56,-406.48C1295.31,-397.77 1353.86,-385.27 1405,-373.25 1482.92,-354.94 1573.83,-331.21 1622,-318.45"/>
<polygon fill="#63b8ff" stroke="#63b8ff" points="1253.08,-403 1244.01,-408.46 1254.51,-409.85 1253.08,-403"/>
</a>
</g>
</g>
<!-- Node25 -->
<g id="Node000025" class="node">
<title>Node25</title>
<g id="a_Node000025"><a xlink:href="_open_loop_coronary_b_c_8h.html" target="_top" xlink:title="model::OpenLoopCoronaryBC source file">
<polygon fill="white" stroke="#666666" points="425.75,-318 276.25,-318 276.25,-298.75 425.75,-298.75 425.75,-318"/>
<text text-anchor="middle" x="351" y="-304.5" font-family="Helvetica,sans-Serif" font-size="10.00">model/OpenLoopCoronaryBC.h</text>
</a>
</g>
</g>
<!-- Node1&#45;&gt;Node25 -->
<g id="edge71_Node000001_Node000025" class="edge">
<title>Node1&#45;&gt;Node25</title>
<g id="a_edge71_Node000001_Node000025"><a xlink:title=" ">
<path fill="none" stroke="#63b8ff" d="M1125.44,-411.46C1039.67,-403.62 892.73,-389.4 767,-373.25 636.55,-356.49 483.88,-331.72 404.73,-318.49"/>
<polygon fill="#63b8ff" stroke="#63b8ff" points="1125.08,-414.94 1135.36,-412.36 1125.72,-407.97 1125.08,-414.94"/>
</a>
</g>
</g>
<!-- Node26 -->
<g id="Node000026" class="node">
<title>Node26</title>
<g id="a_Node000026"><a xlink:href="_pressure_reference_b_c_8h.html" target="_top" xlink:title="model::PressureReferenceBC source file">
<polygon fill="white" stroke="#666666" points="593.75,-318 444.25,-318 444.25,-298.75 593.75,-298.75 593.75,-318"/>
<text text-anchor="middle" x="519" y="-304.5" font-family="Helvetica,sans-Serif" font-size="10.00">model/PressureReferenceBC.h</text>
</a>
</g>
</g>
<!-- Node1&#45;&gt;Node26 -->
<g id="edge72_Node000001_Node000026" class="edge">
<title>Node1&#45;&gt;Node26</title>
<g id="a_edge72_Node000001_Node000026"><a xlink:title=" ">
<path fill="none" stroke="#63b8ff" d="M1125.38,-408.43C1060.85,-399.87 964.02,-386.57 880,-373.25 767.63,-355.43 636.18,-331.35 567.08,-318.45"/>
<polygon fill="#63b8ff" stroke="#63b8ff" points="1124.77,-411.88 1135.14,-409.73 1125.69,-404.95 1124.77,-411.88"/>
</a>
</g>
</g>
<!-- Node27 -->
<g id="Node000027" class="node">
<title>Node27</title>
<g id="a_Node000027"><a xlink:href="_regazzoni_valve_8h.html" target="_top" xlink:title="model::RegazzoniValve source file">
<polygon fill="white" stroke="#666666" points="733.88,-318 612.12,-318 612.12,-298.75 733.88,-298.75 733.88,-318"/>
<text text-anchor="middle" x="673" y="-304.5" font-family="Helvetica,sans-Serif" font-size="10.00">model/RegazzoniValve.h</text>
</a>
</g>
</g>
<!-- Node1&#45;&gt;Node27 -->
<g id="edge74_Node000001_Node000027" class="edge">
<title>Node1&#45;&gt;Node27</title>
<g id="a_edge74_Node000001_Node000027"><a xlink:title=" ">
<path fill="none" stroke="#63b8ff" d="M1140.8,-406.53C1095.94,-397.6 1031.97,-384.77 976,-373.25 883.06,-354.11 774.25,-331 715.63,-318.49"/>
<polygon fill="#63b8ff" stroke="#63b8ff" points="1140.08,-409.96 1150.57,-408.47 1141.45,-403.09 1140.08,-409.96"/>
</a>
</g>
</g>
<!-- Node28 -->
<g id="Node000028" class="node">
<title>Node28</title>
<g id="a_Node000028"><a xlink:href="_resistance_b_c_8h.html" target="_top" xlink:title="model::ResistanceBC source file">
<polygon fill="white" stroke="#666666" points="866.5,-318 751.5,-318 751.5,-298.75 866.5,-298.75 866.5,-318"/>
<text text-anchor="middle" x="809" y="-304.5" font-family="Helvetica,sans-Serif" font-size="10.00">model/ResistanceBC.h</text>
</a>
</g>
</g>
<!-- Node1&#45;&gt;Node28 -->
<g id="edge75_Node000001_Node000028" class="edge">
<title>Node1&#45;&gt;Node28</title>
<g id="a_edge75_Node000001_Node000028"><a xlink:title=" ">
<path fill="none" stroke="#63b8ff" d="M1154.54,-405.75C1075.89,-383.82 911.63,-338 841.68,-318.49"/>
<polygon fill="#63b8ff" stroke="#63b8ff" points="1153.47,-409.09 1164.05,-408.4 1155.35,-402.35 1153.47,-409.09"/>
</a>
</g>
</g>
<!-- Node29 -->
<g id="Node000029" class="node">
<title>Node29</title>
<g id="a_Node000029"><a xlink:href="_resistive_junction_8h.html" target="_top" xlink:title="model::ResistiveJunction source file">
<polygon fill="white" stroke="#666666" points="1015,-318 885,-318 885,-298.75 1015,-298.75 1015,-318"/>
<text text-anchor="middle" x="950" y="-304.5" font-family="Helvetica,sans-Serif" font-size="10.00">model/ResistiveJunction.h</text>
</a>
</g>
</g>
<!-- Node1&#45;&gt;Node29 -->
<g id="edge76_Node000001_Node000029" class="edge">
<title>Node1&#45;&gt;Node29</title>
<g id="a_edge76_Node000001_Node000029"><a xlink:title=" ">
<path fill="none" stroke="#63b8ff" d="M1166.82,-404.23C1115.46,-381.77 1014.43,-337.56 970.83,-318.49"/>
<polygon fill="#63b8ff" stroke="#63b8ff" points="1165.33,-407.4 1175.9,-408.2 1168.14,-400.99 1165.33,-407.4"/>
</a>
</g>
</g>
<!-- Node30 -->
<g id="Node000030" class="node">
<title>Node30</title>
<g id="a_Node000030"><a xlink:href="_valve_tanh_8h.html" target="_top" xlink:title="model::ValveTanh source file">
<polygon fill="white" stroke="#666666" points="1593.62,-318 1494.38,-318 1494.38,-298.75 1593.62,-298.75 1593.62,-318"/>
<text text-anchor="middle" x="1544" y="-304.5" font-family="Helvetica,sans-Serif" font-size="10.00">model/ValveTanh.h</text>
</a>
</g>
</g>
<!-- Node1&#45;&gt;Node30 -->
<g id="edge77_Node000001_Node000030" class="edge">
<title>Node1&#45;&gt;Node30</title>
<g id="a_edge77_Node000001_Node000030"><a xlink:title=" ">
<path fill="none" stroke="#63b8ff" d="M1245.35,-406.08C1278.48,-397.58 1323.67,-385.49 1363,-373.25 1419.95,-355.53 1485.75,-331.36 1520.18,-318.42"/>
<polygon fill="#63b8ff" stroke="#63b8ff" points="1244.89,-402.58 1236.07,-408.44 1246.62,-409.36 1244.89,-402.58"/>
</a>
</g>
</g>
<!-- Node31 -->
<g id="Node000031" class="node">
<title>Node31</title>
<g id="a_Node000031"><a xlink:href="_windkessel_b_c_8h.html" target="_top" xlink:title="model::WindkesselBC source file">
<polygon fill="white" stroke="#666666" points="258.25,-318 141.75,-318 141.75,-298.75 258.25,-298.75 258.25,-318"/>
<text text-anchor="middle" x="200" y="-304.5" font-family="Helvetica,sans-Serif" font-size="10.00">model/WindkesselBC.h</text>
</a>
</g>
</g>
<!-- Node1&#45;&gt;Node31 -->
<g id="edge78_Node000001_Node000031" class="edge">
<title>Node1&#45;&gt;Node31</title>
<g id="a_edge78_Node000001_Node000031"><a xlink:title=" ">
<path fill="none" stroke="#63b8ff" d="M1125.31,-413.88C1016.37,-407.52 804.35,-393.69 625,-373.25 490.08,-357.88 332.19,-332.08 252.18,-318.45"/>
<polygon fill="#63b8ff" stroke="#63b8ff" points="1125.11,-417.38 1135.29,-414.46 1125.51,-410.39 1125.11,-417.38"/>
</a>
</g>
</g>
<!-- Node4 -->
<g id="Node000004" class="node">
<title>Node4</title>
<g id="a_Node000004"><a xlink:href="_block_factory_8h.html" target="_top" xlink:title="Define the block factory functional.">
<polygon fill="white" stroke="#666666" points="1138.88,-262.75 1029.12,-262.75 1029.12,-243.5 1138.88,-243.5 1138.88,-262.75"/>
<text text-anchor="middle" x="1084" y="-249.25" font-family="Helvetica,sans-Serif" font-size="10.00">model/BlockFactory.h</text>
</a>
</g>
</g>
<!-- Node3&#45;&gt;Node4 -->
<g id="edge3_Node000003_Node000004" class="edge">
<title>Node3&#45;&gt;Node4</title>
<g id="a_edge3_Node000003_Node000004"><a xlink:title=" ">
<path fill="none" stroke="#63b8ff" d="M1133.63,-347C1123.61,-339.3 1112.52,-329.24 1105,-318 1093.32,-300.54 1087.68,-276.05 1085.36,-263.05"/>
<polygon fill="#63b8ff" stroke="#63b8ff" points="1131.37,-349.69 1141.52,-352.75 1135.49,-344.03 1131.37,-349.69"/>
</a>
</g>
</g>
<!-- Node5 -->
<g id="Node000005" class="node">
<title>Node5</title>
<g id="a_Node000005"><a xlink:href="_model_8h.html" target="_top" xlink:title="model::Model source file">
<polygon fill="white" stroke="#666666" points="1283.5,-141 1204.5,-141 1204.5,-121.75 1283.5,-121.75 1283.5,-141"/>
<text text-anchor="middle" x="1244" y="-127.5" font-family="Helvetica,sans-Serif" font-size="10.00">model/Model.h</text>
</a>
</g>
</g>
<!-- Node3&#45;&gt;Node5 -->
<g id="edge45_Node000003_Node000005" class="edge">
<title>Node3&#45;&gt;Node5</title>
<g id="a_edge45_Node000003_Node000005"><a xlink:title=" ">
<path fill="none" stroke="#63b8ff" d="M1156.23,-342.58C1156.23,-329.83 1157.15,-313.07 1161,-298.75 1178.35,-234.22 1221.91,-165.27 1237.95,-141.24"/>
<polygon fill="#63b8ff" stroke="#63b8ff" points="1152.72,-342.33 1156.43,-352.26 1159.72,-342.18 1152.72,-342.33"/>
</a>
</g>
</g>
<!-- Node3&#45;&gt;Node8 -->
<g id="edge29_Node000003_Node000008" class="edge">
<title>Node3&#45;&gt;Node8</title>
<g id="a_edge29_Node000003_Node000008"><a xlink:title=" ">
<path fill="none" stroke="#63b8ff" d="M1134.13,-347.36C1121.58,-338.87 1105.81,-328.03 1092,-318 969.55,-229.08 827.07,-113.32 786.98,-80.52"/>
<polygon fill="#63b8ff" stroke="#63b8ff" points="1131.9,-350.08 1142.15,-352.76 1135.81,-344.27 1131.9,-350.08"/>
</a>
</g>
</g>
<!-- Node3&#45;&gt;Node9 -->
<g id="edge44_Node000003_Node000009" class="edge">
<title>Node3&#45;&gt;Node9</title>
<g id="a_edge44_Node000003_Node000009"><a xlink:title=" ">
<path fill="none" stroke="#63b8ff" d="M1106.58,-362.04C905.74,-359.51 171.73,-348.22 133,-318 109.65,-299.78 114,-283.74 114,-254.12 114,-254.12 114,-254.12 114,-191.25 114,-149.88 114,-100.47 114,-80.51"/>
<polygon fill="#63b8ff" stroke="#63b8ff" points="1106.38,-365.54 1116.42,-362.16 1106.47,-358.54 1106.38,-365.54"/>
</a>
</g>
</g>
<!-- Node3&#45;&gt;Node10 -->
<g id="edge50_Node000003_Node000010" class="edge">
<title>Node3&#45;&gt;Node10</title>
<g id="a_edge50_Node000003_Node000010"><a xlink:title=" ">
<path fill="none" stroke="#63b8ff" d="M1207.35,-361.92C1401.35,-358.99 2091.47,-346.58 2128,-318 2151.33,-299.75 2147,-283.74 2147,-254.12 2147,-254.12 2147,-254.12 2147,-191.25 2147,-106.77 2032.35,-81.68 1955.31,-74.36"/>
<polygon fill="#63b8ff" stroke="#63b8ff" points="1207.55,-358.41 1197.6,-362.06 1207.65,-365.41 1207.55,-358.41"/>
</a>
</g>
</g>
<!-- Node3&#45;&gt;Node15 -->
<g id="edge21_Node000003_Node000015" class="edge">
<title>Node3&#45;&gt;Node15</title>
<g id="a_edge21_Node000003_Node000015"><a xlink:title=" ">
<path fill="none" stroke="#63b8ff" d="M1180.21,-347.55C1194.65,-338.17 1212.75,-326.42 1225.02,-318.45"/>
<polygon fill="#63b8ff" stroke="#63b8ff" points="1178.66,-344.39 1172.18,-352.77 1182.47,-350.26 1178.66,-344.39"/>
</a>
</g>
</g>
<!-- Node3&#45;&gt;Node16 -->
<g id="edge28_Node000003_Node000016" class="edge">
<title>Node3&#45;&gt;Node16</title>
<g id="a_edge28_Node000003_Node000016"><a xlink:title=" ">
<path fill="none" stroke="#63b8ff" d="M1158.19,-342.59C1160.05,-328.62 1164.66,-310.46 1176,-298.75 1193.82,-280.34 1219.42,-269.53 1243.48,-263.17"/>
<polygon fill="#63b8ff" stroke="#63b8ff" points="1154.72,-342.15 1157.29,-352.43 1161.69,-342.79 1154.72,-342.15"/>
</a>
</g>
</g>
<!-- Node3&#45;&gt;Node17 -->
<g id="edge25_Node000003_Node000017" class="edge">
<title>Node3&#45;&gt;Node17</title>
<g id="a_edge25_Node000003_Node000017"><a xlink:title=" ">
<path fill="none" stroke="#63b8ff" d="M1207.37,-352.15C1254.66,-342.31 1324.67,-327.75 1369.56,-318.41"/>
<polygon fill="#63b8ff" stroke="#63b8ff" points="1206.72,-348.71 1197.64,-354.17 1208.14,-355.56 1206.72,-348.71"/>
</a>
</g>
</g>
<!-- Node3&#45;&gt;Node18 -->
<g id="edge30_Node000003_Node000018" class="edge">
<title>Node3&#45;&gt;Node18</title>
<g id="a_edge30_Node000003_Node000018"><a xlink:title=" ">
<path fill="none" stroke="#63b8ff" d="M1207.34,-362.99C1326.32,-363.16 1621.51,-359.27 1710,-318 1736.26,-305.75 1757.62,-277.58 1767.33,-263.09"/>
<polygon fill="#63b8ff" stroke="#63b8ff" points="1207.58,-359.49 1197.57,-362.97 1207.56,-366.49 1207.58,-359.49"/>
</a>
</g>
</g>
<!-- Node3&#45;&gt;Node21 -->
<g id="edge35_Node000003_Node000021" class="edge">
<title>Node3&#45;&gt;Node21</title>
<g id="a_edge35_Node000003_Node000021"><a xlink:title=" ">
<path fill="none" stroke="#63b8ff" d="M1207.51,-358.94C1309,-351.49 1544.9,-334 1743,-318 1747.39,-317.65 1751.88,-317.28 1756.41,-316.9"/>
<polygon fill="#63b8ff" stroke="#63b8ff" points="1207.33,-355.44 1197.61,-359.66 1207.84,-362.42 1207.33,-355.44"/>
</a>
</g>
</g>
<!-- Node3&#45;&gt;Node22 -->
<g id="edge38_Node000003_Node000022" class="edge">
<title>Node3&#45;&gt;Node22</title>
<g id="a_edge38_Node000003_Node000022"><a xlink:title=" ">
<path fill="none" stroke="#63b8ff" d="M1207.08,-361.45C1353.82,-357.77 1795.49,-345.09 2161,-318 2165.48,-317.67 2170.09,-317.29 2174.74,-316.88"/>
<polygon fill="#63b8ff" stroke="#63b8ff" points="1207.24,-357.94 1197.33,-361.69 1207.41,-364.94 1207.24,-357.94"/>
</a>
</g>
</g>
<!-- Node3&#45;&gt;Node23 -->
<g id="edge40_Node000003_Node000023" class="edge">
<title>Node3&#45;&gt;Node23</title>
<g id="a_edge40_Node000003_Node000023"><a xlink:title=" ">
<path fill="none" stroke="#63b8ff" d="M1207.52,-360.08C1332.03,-353.75 1663.62,-336.42 1940,-318 1955.21,-316.99 1971.57,-315.8 1986.99,-314.63"/>
<polygon fill="#63b8ff" stroke="#63b8ff" points="1207.44,-356.58 1197.63,-360.59 1207.8,-363.57 1207.44,-356.58"/>
</a>
</g>
</g>
<!-- Node3&#45;&gt;Node24 -->
<g id="edge42_Node000003_Node000024" class="edge">
<title>Node3&#45;&gt;Node24</title>
<g id="a_edge42_Node000003_Node000024"><a xlink:title=" ">
<path fill="none" stroke="#63b8ff" d="M1207.5,-358.59C1290.3,-351.75 1460,-336.77 1603,-318 1605.59,-317.66 1608.24,-317.29 1610.92,-316.9"/>
<polygon fill="#63b8ff" stroke="#63b8ff" points="1207.36,-355.09 1197.68,-359.4 1207.93,-362.07 1207.36,-355.09"/>
</a>
</g>
</g>
<!-- Node3&#45;&gt;Node25 -->
<g id="edge46_Node000003_Node000025" class="edge">
<title>Node3&#45;&gt;Node25</title>
<g id="a_edge46_Node000003_Node000025"><a xlink:title=" ">
<path fill="none" stroke="#63b8ff" d="M1106.34,-360.2C988.47,-354.41 686.7,-338.69 435,-318 432.08,-317.76 429.1,-317.5 426.09,-317.24"/>
<polygon fill="#63b8ff" stroke="#63b8ff" points="1106.16,-363.7 1116.32,-360.69 1106.5,-356.71 1106.16,-363.7"/>
</a>
</g>
</g>
<!-- Node3&#45;&gt;Node26 -->
<g id="edge48_Node000003_Node000026" class="edge">
<title>Node3&#45;&gt;Node26</title>
<g id="a_edge48_Node000003_Node000026"><a xlink:title=" ">
<path fill="none" stroke="#63b8ff" d="M1106.78,-358.95C1009.5,-351.75 788.6,-335 603,-318 600.08,-317.73 597.1,-317.45 594.1,-317.17"/>
<polygon fill="#63b8ff" stroke="#63b8ff" points="1106.28,-362.42 1116.51,-359.67 1106.79,-355.44 1106.28,-362.42"/>
</a>
</g>
</g>
<!-- Node3&#45;&gt;Node27 -->
<g id="edge51_Node000003_Node000027" class="edge">
<title>Node3&#45;&gt;Node27</title>
<g id="a_edge51_Node000003_Node000027"><a xlink:title=" ">
<path fill="none" stroke="#63b8ff" d="M1106.36,-357.46C1028.15,-349.43 873.28,-333.26 742,-318 739.48,-317.71 736.91,-317.4 734.32,-317.1"/>
<polygon fill="#63b8ff" stroke="#63b8ff" points="1105.97,-360.94 1116.28,-358.48 1106.68,-353.98 1105.97,-360.94"/>
</a>
</g>
</g>
<!-- Node3&#45;&gt;Node28 -->
<g id="edge53_Node000003_Node000028" class="edge">
<title>Node3&#45;&gt;Node28</title>
<g id="a_edge53_Node000003_Node000028"><a xlink:title=" ">
<path fill="none" stroke="#63b8ff" d="M1106.42,-354.89C1042.78,-345.15 933.74,-328.46 866.85,-318.23"/>
<polygon fill="#63b8ff" stroke="#63b8ff" points="1105.85,-358.34 1116.26,-356.39 1106.9,-351.42 1105.85,-358.34"/>
</a>
</g>
</g>
<!-- Node3&#45;&gt;Node29 -->
<g id="edge55_Node000003_Node000029" class="edge">
<title>Node3&#45;&gt;Node29</title>
<g id="a_edge55_Node000003_Node000029"><a xlink:title=" ">
<path fill="none" stroke="#63b8ff" d="M1111.12,-350.82C1073.15,-341.05 1019.99,-327.38 985.29,-318.45"/>
<polygon fill="#63b8ff" stroke="#63b8ff" points="1109.86,-354.11 1120.42,-353.21 1111.61,-347.33 1109.86,-354.11"/>
</a>
</g>
</g>
<!-- Node3&#45;&gt;Node30 -->
<g id="edge57_Node000003_Node000030" class="edge">
<title>Node3&#45;&gt;Node30</title>
<g id="a_edge57_Node000003_Node000030"><a xlink:title=" ">
<path fill="none" stroke="#63b8ff" d="M1207.07,-356.04C1271.59,-347.5 1387.21,-332.04 1486,-318 1488.62,-317.63 1491.31,-317.24 1494.02,-316.85"/>
<polygon fill="#63b8ff" stroke="#63b8ff" points="1206.97,-352.52 1197.52,-357.3 1207.89,-359.46 1206.97,-352.52"/>
</a>
</g>
</g>
<!-- Node3&#45;&gt;Node31 -->
<g id="edge59_Node000003_Node000031" class="edge">
<title>Node3&#45;&gt;Node31</title>
<g id="a_edge59_Node000003_Node000031"><a xlink:title=" ">
<path fill="none" stroke="#63b8ff" d="M1106.66,-361.48C970.89,-358.08 585.93,-346.48 267,-318 264.2,-317.75 261.33,-317.47 258.44,-317.17"/>
<polygon fill="#63b8ff" stroke="#63b8ff" points="1106.29,-364.97 1116.37,-361.71 1106.46,-357.97 1106.29,-364.97"/>
</a>
</g>
</g>
<!-- Node4&#45;&gt;Node5 -->
<g id="edge4_Node000004_Node000005" class="edge">
<title>Node4&#45;&gt;Node5</title>
<g id="a_edge4_Node000004_Node000005"><a xlink:title=" ">
<path fill="none" stroke="#63b8ff" d="M1097.31,-234.16C1110.17,-217.72 1130.92,-193.51 1153,-177 1173.58,-161.62 1200.28,-149.27 1219.43,-141.49"/>
<polygon fill="#63b8ff" stroke="#63b8ff" points="1094.57,-231.98 1091.29,-242.05 1100.14,-236.22 1094.57,-231.98"/>
</a>
</g>
</g>
<!-- Node5&#45;&gt;Node2 -->
<g id="edge8_Node000005_Node000002" class="edge">
<title>Node5&#45;&gt;Node2</title>
<g id="a_edge8_Node000005_Node000002"><a xlink:title=" ">
<path fill="none" stroke="#63b8ff" d="M1253.66,-111.08C1257.01,-103.4 1260.33,-94.35 1262,-85.75 1264.58,-72.44 1264.71,-68.53 1262,-55.25 1259.34,-42.21 1252.73,-28.27 1248.05,-19.51"/>
<polygon fill="#63b8ff" stroke="#63b8ff" points="1250.52,-109.55 1249.43,-120.09 1256.85,-112.53 1250.52,-109.55"/>
</a>
</g>
</g>
<!-- Node6 -->
<g id="Node000006" class="node">
<title>Node6</title>
<g id="a_Node000006"><a xlink:href="_integrator_8h.html" target="_top" xlink:title="Integrator source file.">
<polygon fill="white" stroke="#666666" points="1408.62,-80.12 1309.38,-80.12 1309.38,-60.88 1408.62,-60.88 1408.62,-80.12"/>
<text text-anchor="middle" x="1359" y="-66.62" font-family="Helvetica,sans-Serif" font-size="10.00">algebra/Integrator.h</text>
</a>
</g>
</g>
<!-- Node5&#45;&gt;Node6 -->
<g id="edge5_Node000005_Node000006" class="edge">
<title>Node5&#45;&gt;Node6</title>
<g id="a_edge5_Node000005_Node000006"><a xlink:title=" ">
<path fill="none" stroke="#63b8ff" d="M1271.69,-116.2C1293.35,-105.11 1322.81,-90.03 1341.37,-80.53"/>
<polygon fill="#63b8ff" stroke="#63b8ff" points="1270.12,-113.07 1262.81,-120.74 1273.31,-119.3 1270.12,-113.07"/>
</a>
</g>
</g>
<!-- Node7 -->
<g id="Node000007" class="node">
<title>Node7</title>
<g id="a_Node000007"><a xlink:href="_solver_8h.html" target="_top" xlink:title="Solver source file.">
<polygon fill="white" stroke="#666666" points="1475.75,-19.25 1398.25,-19.25 1398.25,0 1475.75,0 1475.75,-19.25"/>
<text text-anchor="middle" x="1437" y="-5.75" font-family="Helvetica,sans-Serif" font-size="10.00">solve/Solver.h</text>
</a>
</g>
</g>
<!-- Node5&#45;&gt;Node7 -->
<g id="edge18_Node000005_Node000007" class="edge">
<title>Node5&#45;&gt;Node7</title>
<g id="a_edge18_Node000005_Node000007"><a xlink:title=" ">
<path fill="none" stroke="#63b8ff" d="M1295.11,-123.14C1340.03,-115.77 1400.84,-102.97 1418,-85.75 1436.04,-67.65 1437.77,-35.03 1437.46,-19.42"/>
<polygon fill="#63b8ff" stroke="#63b8ff" points="1294.6,-119.68 1285.28,-124.71 1295.7,-126.59 1294.6,-119.68"/>
</a>
</g>
</g>
<!-- Node5&#45;&gt;Node8 -->
<g id="edge9_Node000005_Node000008" class="edge">
<title>Node5&#45;&gt;Node8</title>
<g id="a_edge9_Node000005_Node000008"><a xlink:title=" ">
<path fill="none" stroke="#63b8ff" d="M1192.99,-125.44C1119.32,-117.66 979.4,-101.78 861,-85.75 849.39,-84.18 836.98,-82.38 825.32,-80.61"/>
<polygon fill="#63b8ff" stroke="#63b8ff" points="1192.42,-128.9 1202.73,-126.46 1193.15,-121.94 1192.42,-128.9"/>
</a>
</g>
</g>
<!-- Node5&#45;&gt;Node9 -->
<g id="edge11_Node000005_Node000009" class="edge">
<title>Node5&#45;&gt;Node9</title>
<g id="a_edge11_Node000005_Node000009"><a xlink:title=" ">
<path fill="none" stroke="#63b8ff" d="M1192.77,-127.71C1006.56,-118 366.36,-84.65 171.04,-74.47"/>
<polygon fill="#63b8ff" stroke="#63b8ff" points="1192.43,-131.19 1202.6,-128.22 1192.8,-124.2 1192.43,-131.19"/>
</a>
</g>
</g>
<!-- Node5&#45;&gt;Node10 -->
<g id="edge12_Node000005_Node000010" class="edge">
<title>Node5&#45;&gt;Node10</title>
<g id="a_edge12_Node000005_Node000010"><a xlink:title=" ">
<path fill="none" stroke="#63b8ff" d="M1294.83,-125.36C1409.62,-114.52 1688.69,-88.96 1818.54,-77.38"/>
<polygon fill="#63b8ff" stroke="#63b8ff" points="1294.72,-121.85 1285.1,-126.28 1295.38,-128.82 1294.72,-121.85"/>
</a>
</g>
</g>
<!-- Node11 -->
<g id="Node000011" class="node">
<title>Node11</title>
<g id="a_Node000011"><a xlink:href="_levenberg_marquardt_optimizer_8h.html" target="_top" xlink:title="opt::LevenbergMarquardtOptimizer source file">
<polygon fill="white" stroke="#666666" points="1023.12,-85.75 878.88,-85.75 878.88,-55.25 1023.12,-55.25 1023.12,-85.75"/>
<text text-anchor="start" x="886.88" y="-72.25" font-family="Helvetica,sans-Serif" font-size="10.00">optimize/LevenbergMarquardt</text>
<text text-anchor="middle" x="951" y="-61" font-family="Helvetica,sans-Serif" font-size="10.00">Optimizer.h</text>
</a>
</g>
</g>
<!-- Node5&#45;&gt;Node11 -->
<g id="edge14_Node000005_Node000011" class="edge">
<title>Node5&#45;&gt;Node11</title>
<g id="a_edge14_Node000005_Node000011"><a xlink:title=" ">
<path fill="none" stroke="#63b8ff" d="M1193.08,-120.14C1146.19,-110.72 1076.14,-96.64 1023.43,-86.05"/>
<polygon fill="#63b8ff" stroke="#63b8ff" points="1192.2,-123.54 1202.7,-122.08 1193.58,-116.67 1192.2,-123.54"/>
</a>
</g>
</g>
<!-- Node12 -->
<g id="Node000012" class="node">
<title>Node12</title>
<g id="a_Node000012"><a xlink:href="calibrate_8h.html" target="_top" xlink:title="opt::calibrate source file">
<polygon fill="white" stroke="#666666" points="1140.62,-80.12 1041.38,-80.12 1041.38,-60.88 1140.62,-60.88 1140.62,-80.12"/>
<text text-anchor="middle" x="1091" y="-66.62" font-family="Helvetica,sans-Serif" font-size="10.00">optimize/calibrate.h</text>
</a>
</g>
</g>
<!-- Node5&#45;&gt;Node12 -->
<g id="edge15_Node000005_Node000012" class="edge">
<title>Node5&#45;&gt;Node12</title>
<g id="a_edge15_Node000005_Node000012"><a xlink:title=" ">
<path fill="none" stroke="#63b8ff" d="M1209.96,-117.28C1180.98,-106.13 1140.1,-90.4 1114.6,-80.58"/>
<polygon fill="#63b8ff" stroke="#63b8ff" points="1208.43,-120.44 1219.02,-120.76 1210.94,-113.9 1208.43,-120.44"/>
</a>
</g>
</g>
<!-- Node13 -->
<g id="Node000013" class="node">
<title>Node13</title>
<g id="a_Node000013"><a xlink:href="_simulation_parameters_8h.html" target="_top" xlink:title="Source file to read simulation configuration.">
<polygon fill="white" stroke="#666666" points="1610.88,-80.12 1465.12,-80.12 1465.12,-60.88 1610.88,-60.88 1610.88,-80.12"/>
<text text-anchor="middle" x="1538" y="-66.62" font-family="Helvetica,sans-Serif" font-size="10.00">solve/SimulationParameters.h</text>
</a>
</g>
</g>
<!-- Node5&#45;&gt;Node13 -->
<g id="edge16_Node000005_Node000013" class="edge">
<title>Node5&#45;&gt;Node13</title>
<g id="a_edge16_Node000005_Node000013"><a xlink:title=" ">
<path fill="none" stroke="#63b8ff" d="M1295,-120.16C1350.81,-108.98 1439.44,-91.24 1492.83,-80.55"/>
<polygon fill="#63b8ff" stroke="#63b8ff" points="1294.56,-116.68 1285.44,-122.08 1295.93,-123.54 1294.56,-116.68"/>
</a>
</g>
</g>
<!-- Node14 -->
<g id="Node000014" class="node">
<title>Node14</title>
<g id="a_Node000014"><a xlink:href="csv__writer_8h.html" target="_top" xlink:title="csv_writer source file">
<polygon fill="white" stroke="#666666" points="1253.38,-80.12 1158.62,-80.12 1158.62,-60.88 1253.38,-60.88 1253.38,-80.12"/>
<text text-anchor="middle" x="1206" y="-66.62" font-family="Helvetica,sans-Serif" font-size="10.00">solve/csv_writer.h</text>
</a>
</g>
</g>
<!-- Node5&#45;&gt;Node14 -->
<g id="edge19_Node000005_Node000014" class="edge">
<title>Node5&#45;&gt;Node14</title>
<g id="a_edge19_Node000005_Node000014"><a xlink:title=" ">
<path fill="none" stroke="#63b8ff" d="M1232.1,-111.93C1225.35,-101.48 1217.2,-88.85 1211.83,-80.53"/>
<polygon fill="#63b8ff" stroke="#63b8ff" points="1229.04,-113.66 1237.41,-120.16 1234.93,-109.86 1229.04,-113.66"/>
</a>
</g>
</g>
<!-- Node6&#45;&gt;Node2 -->
<g id="edge6_Node000006_Node000002" class="edge">
<title>Node6&#45;&gt;Node2</title>
<g id="a_edge6_Node000006_Node000002"><a xlink:title=" ">
<path fill="none" stroke="#63b8ff" d="M1331.1,-55.34C1309.22,-44.23 1279.42,-29.11 1260.7,-19.61"/>
<polygon fill="#63b8ff" stroke="#63b8ff" points="1329.28,-58.34 1339.78,-59.74 1332.45,-52.1 1329.28,-58.34"/>
</a>
</g>
</g>
<!-- Node6&#45;&gt;Node7 -->
<g id="edge7_Node000006_Node000007" class="edge">
<title>Node6&#45;&gt;Node7</title>
<g id="a_edge7_Node000006_Node000007"><a xlink:title=" ">
<path fill="none" stroke="#63b8ff" d="M1380.03,-53.63C1394.46,-42.73 1413.09,-28.67 1425.04,-19.65"/>
<polygon fill="#63b8ff" stroke="#63b8ff" points="1377.93,-50.83 1372.05,-59.65 1382.14,-56.42 1377.93,-50.83"/>
</a>
</g>
</g>
<!-- Node8&#45;&gt;Node5 -->
<g id="edge10_Node000008_Node000005" class="edge">
<title>Node8&#45;&gt;Node5</title>
<g id="a_edge10_Node000008_Node000005"><a xlink:title=" ">
<path fill="none" stroke="#63b8ff" d="M854.3,-82.27C862.66,-83.48 871.02,-84.67 879,-85.75 997.26,-101.76 1136.98,-117.63 1204.2,-125.41"/>
<polygon fill="#63b8ff" stroke="#63b8ff" points="854.83,-78.81 844.43,-80.82 853.82,-85.74 854.83,-78.81"/>
</a>
</g>
</g>
<!-- Node10&#45;&gt;Node5 -->
<g id="edge13_Node000010_Node000005" class="edge">
<title>Node10&#45;&gt;Node5</title>
<g id="a_edge13_Node000010_Node000005"><a xlink:title=" ">
<path fill="none" stroke="#63b8ff" d="M1807.15,-79.25C1668.34,-92.24 1387.64,-117.9 1283.75,-127.04"/>
<polygon fill="#63b8ff" stroke="#63b8ff" points="1807.38,-82.74 1817.01,-78.32 1806.72,-75.77 1807.38,-82.74"/>
</a>
</g>
</g>
<!-- Node13&#45;&gt;Node7 -->
<g id="edge17_Node000013_Node000007" class="edge">
<title>Node13&#45;&gt;Node7</title>
<g id="a_edge17_Node000013_Node000007"><a xlink:title=" ">
<path fill="none" stroke="#63b8ff" d="M1512.9,-54.87C1493.95,-43.82 1468.56,-29.02 1452.48,-19.65"/>
<polygon fill="#63b8ff" stroke="#63b8ff" points="1510.95,-57.78 1521.35,-59.8 1514.48,-51.74 1510.95,-57.78"/>
</a>
</g>
</g>
<!-- Node14&#45;&gt;Node2 -->
<g id="edge20_Node000014_Node000002" class="edge">
<title>Node14&#45;&gt;Node2</title>
<g id="a_edge20_Node000014_Node000002"><a xlink:title=" ">
<path fill="none" stroke="#63b8ff" d="M1217.59,-51.06C1224.16,-40.6 1232.09,-27.98 1237.33,-19.65"/>
<polygon fill="#63b8ff" stroke="#63b8ff" points="1214.78,-48.95 1212.42,-59.28 1220.71,-52.67 1214.78,-48.95"/>
</a>
</g>
</g>
<!-- Node15&#45;&gt;Node5 -->
<g id="edge24_Node000015_Node000005" class="edge">
<title>Node15&#45;&gt;Node5</title>
<g id="a_edge24_Node000015_Node000005"><a xlink:title=" ">
<path fill="none" stroke="#63b8ff" d="M1233.56,-287.49C1231.72,-279.82 1229.91,-270.94 1229,-262.75 1223.94,-217.01 1236.2,-162.28 1241.6,-141.22"/>
<polygon fill="#63b8ff" stroke="#63b8ff" points="1230.16,-288.31 1236.05,-297.12 1236.93,-286.56 1230.16,-288.31"/>
</a>
</g>
</g>
<!-- Node15&#45;&gt;Node16 -->
<g id="edge22_Node000015_Node000016" class="edge">
<title>Node15&#45;&gt;Node16</title>
<g id="a_edge22_Node000015_Node000016"><a xlink:title=" ">
<path fill="none" stroke="#63b8ff" d="M1260.25,-291.44C1272.64,-282.14 1287.82,-270.76 1298.13,-263.02"/>
<polygon fill="#63b8ff" stroke="#63b8ff" points="1258.16,-288.63 1252.26,-297.43 1262.36,-294.23 1258.16,-288.63"/>
</a>
</g>
</g>
<!-- Node16&#45;&gt;Node5 -->
<g id="edge23_Node000016_Node000005" class="edge">
<title>Node16&#45;&gt;Node5</title>
<g id="a_edge23_Node000016_Node000005"><a xlink:title=" ">
<path fill="none" stroke="#63b8ff" d="M1299.62,-233.3C1285.23,-207.19 1259.77,-160.99 1249.02,-141.48"/>
<polygon fill="#63b8ff" stroke="#63b8ff" points="1296.42,-234.73 1304.31,-241.8 1302.55,-231.35 1296.42,-234.73"/>
</a>
</g>
</g>
<!-- Node17&#45;&gt;Node5 -->
<g id="edge27_Node000017_Node000005" class="edge">
<title>Node17&#45;&gt;Node5</title>
<g id="a_edge27_Node000017_Node000005"><a xlink:title=" ">
<path fill="none" stroke="#63b8ff" d="M1409.33,-287.47C1406.14,-274.09 1400.49,-256.58 1391,-243.5 1355.68,-194.82 1292.96,-157.71 1262.13,-141.43"/>
<polygon fill="#63b8ff" stroke="#63b8ff" points="1405.82,-287.8 1411.3,-296.87 1412.67,-286.36 1405.82,-287.8"/>
</a>
</g>
</g>
<!-- Node17&#45;&gt;Node16 -->
<g id="edge26_Node000017_Node000016" class="edge">
<title>Node17&#45;&gt;Node16</title>
<g id="a_edge26_Node000017_Node000016"><a xlink:title=" ">
<path fill="none" stroke="#63b8ff" d="M1385.41,-293.11C1367.02,-283.61 1343.42,-271.4 1327.56,-263.2"/>
<polygon fill="#63b8ff" stroke="#63b8ff" points="1383.69,-296.16 1394.18,-297.65 1386.91,-289.95 1383.69,-296.16"/>
</a>
</g>
</g>
<!-- Node19 -->
<g id="Node000019" class="node">
<title>Node19</title>
<g id="a_Node000019"><a xlink:href="_closed_loop_coronary_left_b_c_8h.html" target="_top" xlink:title="Left side of ClosedLoopCoronaryBC.">
<polygon fill="white" stroke="#666666" points="1687.62,-207.5 1552.38,-207.5 1552.38,-177 1687.62,-177 1687.62,-207.5"/>
<text text-anchor="start" x="1560.38" y="-194" font-family="Helvetica,sans-Serif" font-size="10.00">model/ClosedLoopCoronary</text>
<text text-anchor="middle" x="1620" y="-182.75" font-family="Helvetica,sans-Serif" font-size="10.00">LeftBC.h</text>
</a>
</g>
</g>
<!-- Node18&#45;&gt;Node19 -->
<g id="edge31_Node000018_Node000019" class="edge">
<title>Node18&#45;&gt;Node19</title>
<g id="a_edge31_Node000018_Node000019"><a xlink:title=" ">
<path fill="none" stroke="#63b8ff" d="M1738.73,-238.94C1714.83,-229.74 1682.91,-217.46 1658.19,-207.94"/>
<polygon fill="#63b8ff" stroke="#63b8ff" points="1737.43,-242.19 1748.02,-242.51 1739.94,-235.65 1737.43,-242.19"/>
</a>
</g>
</g>
<!-- Node20 -->
<g id="Node000020" class="node">
<title>Node20</title>
<g id="a_Node000020"><a xlink:href="_closed_loop_coronary_right_b_c_8h.html" target="_top" xlink:title="Right side of ClosedLoopCoronaryBC.">
<polygon fill="white" stroke="#666666" points="1840.62,-207.5 1705.38,-207.5 1705.38,-177 1840.62,-177 1840.62,-207.5"/>
<text text-anchor="start" x="1713.38" y="-194" font-family="Helvetica,sans-Serif" font-size="10.00">model/ClosedLoopCoronary</text>
<text text-anchor="middle" x="1773" y="-182.75" font-family="Helvetica,sans-Serif" font-size="10.00">RightBC.h</text>
</a>
</g>
</g>
<!-- Node18&#45;&gt;Node20 -->
<g id="edge33_Node000018_Node000020" class="edge">
<title>Node18&#45;&gt;Node20</title>
<g id="a_edge33_Node000018_Node000020"><a xlink:title=" ">
<path fill="none" stroke="#63b8ff" d="M1773,-231.92C1773,-223.99 1773,-215.06 1773,-207.78"/>
<polygon fill="#63b8ff" stroke="#63b8ff" points="1769.5,-231.67 1773,-241.67 1776.5,-231.67 1769.5,-231.67"/>
</a>
</g>
</g>
<!-- Node19&#45;&gt;Node5 -->
<g id="edge32_Node000019_Node000005" class="edge">
<title>Node19&#45;&gt;Node5</title>
<g id="a_edge32_Node000019_Node000005"><a xlink:title=" ">
<path fill="none" stroke="#63b8ff" d="M1541.01,-177.49C1540,-177.33 1539,-177.16 1538,-177 1447.3,-162.24 1340.59,-146.43 1283.99,-138.17"/>
<polygon fill="#63b8ff" stroke="#63b8ff" points="1540.07,-180.88 1550.51,-179.07 1541.22,-173.98 1540.07,-180.88"/>
</a>
</g>
</g>
<!-- Node20&#45;&gt;Node5 -->
<g id="edge34_Node000020_Node000005" class="edge">
<title>Node20&#45;&gt;Node5</title>
<g id="a_edge34_Node000020_Node000005"><a xlink:title=" ">
<path fill="none" stroke="#63b8ff" d="M1693.81,-176.62C1536.55,-154.64 1361.01,-140.71 1283.83,-135.13"/>
<polygon fill="#63b8ff" stroke="#63b8ff" points="1693.21,-180.07 1703.6,-178 1694.19,-173.14 1693.21,-180.07"/>
</a>
</g>
</g>
<!-- Node21&#45;&gt;Node5 -->
<g id="edge37_Node000021_Node000005" class="edge">
<title>Node21&#45;&gt;Node5</title>
<g id="a_edge37_Node000021_Node000005"><a xlink:title=" ">
<path fill="none" stroke="#63b8ff" d="M1799.57,-295.4C1767.83,-286.7 1724.15,-274.45 1686,-262.75 1570.07,-227.21 1543.55,-210.45 1427,-177 1378.12,-162.97 1321.1,-149.52 1283.87,-141.12"/>
<polygon fill="#63b8ff" stroke="#63b8ff" points="1798.25,-298.66 1808.82,-297.92 1800.09,-291.91 1798.25,-298.66"/>
</a>
</g>
</g>
<!-- Node21&#45;&gt;Node18 -->
<g id="edge36_Node000021_Node000018" class="edge">
<title>Node21&#45;&gt;Node18</title>
<g id="a_edge36_Node000021_Node000018"><a xlink:title=" ">
<path fill="none" stroke="#63b8ff" d="M1822.75,-291.44C1810.36,-282.14 1795.18,-270.76 1784.87,-263.02"/>
<polygon fill="#63b8ff" stroke="#63b8ff" points="1820.64,-294.23 1830.74,-297.43 1824.84,-288.63 1820.64,-294.23"/>
</a>
</g>
</g>
<!-- Node22&#45;&gt;Node5 -->
<g id="edge39_Node000022_Node000005" class="edge">
<title>Node22&#45;&gt;Node5</title>
<g id="a_edge39_Node000022_Node000005"><a xlink:title=" ">
<path fill="none" stroke="#63b8ff" d="M2215.45,-293.41C2157.08,-265.6 2019.21,-203.7 1896,-177 1778.18,-151.47 1406.71,-137.58 1283.87,-133.59"/>
<polygon fill="#63b8ff" stroke="#63b8ff" points="2213.82,-296.51 2224.35,-297.69 2216.85,-290.2 2213.82,-296.51"/>
</a>
</g>
</g>
<!-- Node23&#45;&gt;Node5 -->
<g id="edge41_Node000023_Node000005" class="edge">
<title>Node23&#45;&gt;Node5</title>
<g id="a_edge41_Node000023_Node000005"><a xlink:title=" ">
<path fill="none" stroke="#63b8ff" d="M2034.6,-290.93C2000.84,-261.89 1925.54,-202.22 1850,-177 1744.43,-141.76 1401.21,-134.29 1283.81,-132.76"/>
<polygon fill="#63b8ff" stroke="#63b8ff" points="2032.01,-293.31 2041.84,-297.26 2036.61,-288.04 2032.01,-293.31"/>
</a>
</g>
</g>
<!-- Node24&#45;&gt;Node5 -->
<g id="edge43_Node000024_Node000005" class="edge">
<title>Node24&#45;&gt;Node5</title>
<g id="a_edge43_Node000024_Node000005"><a xlink:title=" ">
<path fill="none" stroke="#63b8ff" d="M1602.81,-295.55C1574.42,-288.15 1539.37,-277.25 1510,-262.75 1451.22,-233.73 1448.78,-206.02 1390,-177 1355.78,-160.11 1313.86,-148.1 1283.73,-140.82"/>
<polygon fill="#63b8ff" stroke="#63b8ff" points="1601.71,-298.88 1612.26,-297.94 1603.43,-292.09 1601.71,-298.88"/>
</a>
</g>
</g>
<!-- Node25&#45;&gt;Node5 -->
<g id="edge47_Node000025_Node000005" class="edge">
<title>Node25&#45;&gt;Node5</title>
<g id="a_edge47_Node000025_Node000005"><a xlink:title=" ">
<path fill="none" stroke="#63b8ff" d="M385.67,-294.53C458.86,-267.98 635.03,-207.01 788,-177 940.02,-147.17 1124.64,-136.9 1204.29,-133.69"/>
<polygon fill="#63b8ff" stroke="#63b8ff" points="384.84,-291.11 376.65,-297.82 387.24,-297.68 384.84,-291.11"/>
</a>
</g>
</g>
<!-- Node26&#45;&gt;Node5 -->
<g id="edge49_Node000026_Node000005" class="edge">
<title>Node26&#45;&gt;Node5</title>
<g id="a_edge49_Node000026_Node000005"><a xlink:title=" ">
<path fill="none" stroke="#63b8ff" d="M550.59,-294.04C614.81,-267.5 765.74,-207.94 898,-177 1007.1,-151.48 1139.21,-139.54 1204.1,-134.88"/>
<polygon fill="#63b8ff" stroke="#63b8ff" points="549.63,-290.66 541.73,-297.73 552.31,-297.12 549.63,-290.66"/>
</a>
</g>
</g>
<!-- Node27&#45;&gt;Node5 -->
<g id="edge52_Node000027_Node000005" class="edge">
<title>Node27&#45;&gt;Node5</title>
<g id="a_edge52_Node000027_Node000005"><a xlink:title=" ">
<path fill="none" stroke="#63b8ff" d="M701.44,-293.28C756.17,-266.7 880.54,-208.98 991,-177 1064.9,-155.6 1154.08,-142.78 1204.4,-136.69"/>
<polygon fill="#63b8ff" stroke="#63b8ff" points="699.95,-290.11 692.5,-297.65 703.02,-296.4 699.95,-290.11"/>
</a>
</g>
</g>
<!-- Node28&#45;&gt;Node5 -->
<g id="edge54_Node000028_Node000005" class="edge">
<title>Node28&#45;&gt;Node5</title>
<g id="a_edge54_Node000028_Node000005"><a xlink:title=" ">
<path fill="none" stroke="#63b8ff" d="M833.35,-292.34C877.46,-265.69 974.14,-209.88 1062,-177 1109.53,-159.21 1166.72,-146.53 1204.14,-139.34"/>
<polygon fill="#63b8ff" stroke="#63b8ff" points="831.56,-289.33 824.84,-297.52 835.2,-295.31 831.56,-289.33"/>
</a>
</g>
</g>
<!-- Node29&#45;&gt;Node5 -->
<g id="edge56_Node000029_Node000005" class="edge">
<title>Node29&#45;&gt;Node5</title>
<g id="a_edge56_Node000029_Node000005"><a xlink:title=" ">
<path fill="none" stroke="#63b8ff" d="M967.26,-290.42C981.08,-277.14 1001.21,-258.47 1020,-243.5 1060.59,-211.16 1069.74,-200.54 1116,-177 1146.52,-161.47 1183.69,-149.18 1210.1,-141.46"/>
<polygon fill="#63b8ff" stroke="#63b8ff" points="964.98,-287.75 960.24,-297.23 969.86,-292.78 964.98,-287.75"/>
</a>
</g>
</g>
<!-- Node30&#45;&gt;Node5 -->
<g id="edge58_Node000030_Node000005" class="edge">
<title>Node30&#45;&gt;Node5</title>
<g id="a_edge58_Node000030_Node000005"><a xlink:title=" ">
<path fill="none" stroke="#63b8ff" d="M1519.18,-292.58C1505.18,-284.08 1487.44,-273.08 1472,-262.75 1417.82,-226.5 1410,-208.62 1353,-177 1326.36,-162.22 1293.8,-149.53 1271.25,-141.5"/>
<polygon fill="#63b8ff" stroke="#63b8ff" points="1516.97,-295.33 1527.34,-297.49 1520.58,-289.33 1516.97,-295.33"/>
</a>
</g>
</g>
<!-- Node31&#45;&gt;Node5 -->
<g id="edge60_Node000031_Node000005" class="edge">
<title>Node31&#45;&gt;Node5</title>
<g id="a_edge60_Node000031_Node000005"><a xlink:title=" ">
<path fill="none" stroke="#63b8ff" d="M235.64,-294.68C312.44,-267.93 499.71,-205.82 662,-177 863.55,-141.2 1109.39,-134.11 1204.14,-132.72"/>
<polygon fill="#63b8ff" stroke="#63b8ff" points="234.84,-291.26 226.56,-297.87 237.15,-297.86 234.84,-291.26"/>
</a>
</g>
</g>
</g>
</svg>
