<?xml version="1.0" encoding="UTF-8" standalone="no"?>
<!DOCTYPE svg PUBLIC "-//W3C//DTD SVG 1.1//EN"
 "http://www.w3.org/Graphics/SVG/1.1/DTD/svg11.dtd">
<!-- Generated by graphviz version 12.2.1 (20241206.2353)
 -->
<!-- Title: algebra/State.h Pages: 1 -->
<svg width="1911pt" height="437pt"
 viewBox="0.00 0.00 1911.00 436.50" xmlns="http://www.w3.org/2000/svg" xmlns:xlink="http://www.w3.org/1999/xlink">
<g id="graph0" class="graph" transform="scale(1 1) rotate(0) translate(4 432.5)">
<title>algebra/State.h</title>
<!-- Node1 -->
<g id="Node000001" class="node">
<title>Node1</title>
<g id="a_Node000001"><a xlink:title="State source file.">
<polygon fill="#999999" stroke="#666666" points="154.62,-428.5 73.38,-428.5 73.38,-409.25 154.62,-409.25 154.62,-428.5"/>
<text text-anchor="middle" x="114" y="-415" font-family="Helvetica,sans-Serif" font-size="10.00">algebra/State.h</text>
</a>
</g>
</g>
<!-- Node2 -->
<g id="Node000002" class="node">
<title>Node2</title>
<g id="a_Node000002"><a xlink:href="_integrator_8h.html" target="_top" xlink:title="Integrator source file.">
<polygon fill="white" stroke="#666666" points="728.62,-80.12 629.38,-80.12 629.38,-60.88 728.62,-60.88 728.62,-80.12"/>
<text text-anchor="middle" x="679" y="-66.62" font-family="Helvetica,sans-Serif" font-size="10.00">algebra/Integrator.h</text>
</a>
</g>
</g>
<!-- Node1&#45;&gt;Node2 -->
<g id="edge1_Node000001_Node000002" class="edge">
<title>Node1&#45;&gt;Node2</title>
<g id="a_edge1_Node000001_Node000002"><a xlink:title=" ">
<path fill="none" stroke="#63b8ff" d="M103.07,-399.09C91.84,-377.99 76,-342.37 76,-309.38 76,-309.38 76,-309.38 76,-191.25 76,-166.86 105.21,-182.4 129,-177 345.45,-127.87 402.93,-132.1 620,-85.75 627.32,-84.19 635.11,-82.4 642.56,-80.62"/>
<polygon fill="#63b8ff" stroke="#63b8ff" points="99.9,-400.6 107.82,-407.64 106.02,-397.2 99.9,-400.6"/>
</a>
</g>
</g>
<!-- Node3 -->
<g id="Node000003" class="node">
<title>Node3</title>
<g id="a_Node000003"><a xlink:href="interface_8h.html" target="_top" xlink:title="svZeroDSolver callable interface.">
<polygon fill="white" stroke="#666666" points="671.75,-19.25 570.25,-19.25 570.25,0 671.75,0 671.75,-19.25"/>
<text text-anchor="middle" x="621" y="-5.75" font-family="Helvetica,sans-Serif" font-size="10.00">interface/interface.h</text>
</a>
</g>
</g>
<!-- Node1&#45;&gt;Node3 -->
<g id="edge4_Node000001_Node000003" class="edge">
<title>Node1&#45;&gt;Node3</title>
<g id="a_edge4_Node000001_Node000003"><a xlink:title=" ">
<path fill="none" stroke="#63b8ff" d="M81.38,-403.76C47.69,-386.72 0,-354.62 0,-309.38 0,-309.38 0,-309.38 0,-130.38 0,-72.49 421.37,-28.71 569.92,-15.08"/>
<polygon fill="#63b8ff" stroke="#63b8ff" points="79.86,-406.91 90.39,-408.1 82.9,-400.61 79.86,-406.91"/>
</a>
</g>
</g>
<!-- Node4 -->
<g id="Node000004" class="node">
<title>Node4</title>
<g id="a_Node000004"><a xlink:href="_solver_8h.html" target="_top" xlink:title="Solver source file.">
<polygon fill="white" stroke="#666666" points="1400.75,-19.25 1323.25,-19.25 1323.25,0 1400.75,0 1400.75,-19.25"/>
<text text-anchor="middle" x="1362" y="-5.75" font-family="Helvetica,sans-Serif" font-size="10.00">solve/Solver.h</text>
</a>
</g>
</g>
<!-- Node1&#45;&gt;Node4 -->
<g id="edge64_Node000001_Node000004" class="edge">
<title>Node1&#45;&gt;Node4</title>
<g id="a_edge64_Node000001_Node000004"><a xlink:title=" ">
<path fill="none" stroke="#63b8ff" d="M166.15,-417.72C398.79,-416.81 1343.33,-410.84 1637,-373.25 1757.6,-357.81 1903,-430.96 1903,-309.38 1903,-309.38 1903,-309.38 1903,-130.38 1903,-27.44 1524.95,-12.92 1400.91,-10.93"/>
<polygon fill="#63b8ff" stroke="#63b8ff" points="166.48,-414.22 156.49,-417.76 166.5,-421.22 166.48,-414.22"/>
</a>
</g>
</g>
<!-- Node5 -->
<g id="Node000005" class="node">
<title>Node5</title>
<g id="a_Node000005"><a xlink:href="_block_8h.html" target="_top" xlink:title="model::Block source file">
<polygon fill="white" stroke="#666666" points="1087.75,-373.25 1010.25,-373.25 1010.25,-354 1087.75,-354 1087.75,-373.25"/>
<text text-anchor="middle" x="1049" y="-359.75" font-family="Helvetica,sans-Serif" font-size="10.00">model/Block.h</text>
</a>
</g>
</g>
<!-- Node1&#45;&gt;Node5 -->
<g id="edge5_Node000001_Node000005" class="edge">
<title>Node1&#45;&gt;Node5</title>
<g id="a_edge5_Node000001_Node000005"><a xlink:title=" ">
<path fill="none" stroke="#63b8ff" d="M166.36,-414.89C335.02,-405.29 861.73,-375.29 1009.88,-366.85"/>
<polygon fill="#63b8ff" stroke="#63b8ff" points="166.37,-411.39 156.59,-415.45 166.77,-418.38 166.37,-411.39"/>
</a>
</g>
</g>
<!-- Node7 -->
<g id="Node000007" class="node">
<title>Node7</title>
<g id="a_Node000007"><a xlink:href="_model_8h.html" target="_top" xlink:title="model::Model source file">
<polygon fill="white" stroke="#666666" points="1064.5,-141 985.5,-141 985.5,-121.75 1064.5,-121.75 1064.5,-141"/>
<text text-anchor="middle" x="1025" y="-127.5" font-family="Helvetica,sans-Serif" font-size="10.00">model/Model.h</text>
</a>
</g>
</g>
<!-- Node1&#45;&gt;Node7 -->
<g id="edge62_Node000001_Node000007" class="edge">
<title>Node1&#45;&gt;Node7</title>
<g id="a_edge62_Node000001_Node000007"><a xlink:title=" ">
<path fill="none" stroke="#63b8ff" d="M114,-397.51C114,-375.7 114,-340.09 114,-309.38 114,-309.38 114,-309.38 114,-252.12 114,-177.96 191.38,-196.26 263,-177 401.21,-139.83 848.67,-133.61 985.13,-132.58"/>
<polygon fill="#63b8ff" stroke="#63b8ff" points="110.5,-397.36 114,-407.36 117.5,-397.36 110.5,-397.36"/>
</a>
</g>
</g>
<!-- Node13 -->
<g id="Node000013" class="node">
<title>Node13</title>
<g id="a_Node000013"><a xlink:href="_simulation_parameters_8h.html" target="_top" xlink:title="Source file to read simulation configuration.">
<polygon fill="white" stroke="#666666" points="1722.88,-80.12 1577.12,-80.12 1577.12,-60.88 1722.88,-60.88 1722.88,-80.12"/>
<text text-anchor="middle" x="1650" y="-66.62" font-family="Helvetica,sans-Serif" font-size="10.00">solve/SimulationParameters.h</text>
</a>
</g>
</g>
<!-- Node1&#45;&gt;Node13 -->
<g id="edge63_Node000001_Node000013" class="edge">
<title>Node1&#45;&gt;Node13</title>
<g id="a_edge63_Node000001_Node000013"><a xlink:title=" ">
<path fill="none" stroke="#63b8ff" d="M166.15,-417.44C456.92,-414.67 1865,-396.78 1865,-309.38 1865,-309.38 1865,-309.38 1865,-191.25 1865,-123 1781.28,-93.29 1718.32,-80.61"/>
<polygon fill="#63b8ff" stroke="#63b8ff" points="166.19,-413.94 156.22,-417.53 166.25,-420.94 166.19,-413.94"/>
</a>
</g>
</g>
<!-- Node14 -->
<g id="Node000014" class="node">
<title>Node14</title>
<g id="a_Node000014"><a xlink:href="csv__writer_8h.html" target="_top" xlink:title="csv_writer source file">
<polygon fill="white" stroke="#666666" points="611.38,-80.12 516.62,-80.12 516.62,-60.88 611.38,-60.88 611.38,-80.12"/>
<text text-anchor="middle" x="564" y="-66.62" font-family="Helvetica,sans-Serif" font-size="10.00">solve/csv_writer.h</text>
</a>
</g>
</g>
<!-- Node1&#45;&gt;Node14 -->
<g id="edge65_Node000001_Node000014" class="edge">
<title>Node1&#45;&gt;Node14</title>
<g id="a_edge65_Node000001_Node000014"><a xlink:title=" ">
<path fill="none" stroke="#63b8ff" d="M90.84,-402.11C80.87,-394.37 69.75,-384.33 62,-373.25 44.61,-348.4 38,-339.7 38,-309.38 38,-309.38 38,-309.38 38,-191.25 38,-158.57 36.37,-142.02 62,-121.75 97.21,-93.91 397.94,-78.43 516.36,-73.37"/>
<polygon fill="#63b8ff" stroke="#63b8ff" points="88.55,-404.77 98.68,-407.88 92.7,-399.13 88.55,-404.77"/>
</a>
</g>
</g>
<!-- Node2&#45;&gt;Node3 -->
<g id="edge2_Node000002_Node000003" class="edge">
<title>Node2&#45;&gt;Node3</title>
<g id="a_edge2_Node000002_Node000003"><a xlink:title=" ">
<path fill="none" stroke="#63b8ff" d="M662.43,-52.68C651.84,-41.93 638.52,-28.41 629.89,-19.65"/>
<polygon fill="#63b8ff" stroke="#63b8ff" points="659.62,-54.81 669.13,-59.48 664.6,-49.9 659.62,-54.81"/>
</a>
</g>
</g>
<!-- Node2&#45;&gt;Node4 -->
<g id="edge3_Node000002_Node000004" class="edge">
<title>Node2&#45;&gt;Node4</title>
<g id="a_edge3_Node000002_Node000004"><a xlink:title=" ">
<path fill="none" stroke="#63b8ff" d="M739.99,-59.88C751.91,-58.18 764.33,-56.55 776,-55.25 981.34,-32.38 1228.49,-17.77 1322.82,-12.66"/>
<polygon fill="#63b8ff" stroke="#63b8ff" points="739.65,-56.39 730.26,-61.29 740.66,-63.32 739.65,-56.39"/>
</a>
</g>
</g>
<!-- Node6 -->
<g id="Node000006" class="node">
<title>Node6</title>
<g id="a_Node000006"><a xlink:href="_block_factory_8h.html" target="_top" xlink:title="Define the block factory functional.">
<polygon fill="white" stroke="#666666" points="1258.88,-262.75 1149.12,-262.75 1149.12,-243.5 1258.88,-243.5 1258.88,-262.75"/>
<text text-anchor="middle" x="1204" y="-249.25" font-family="Helvetica,sans-Serif" font-size="10.00">model/BlockFactory.h</text>
</a>
</g>
</g>
<!-- Node5&#45;&gt;Node6 -->
<g id="edge6_Node000005_Node000006" class="edge">
<title>Node5&#45;&gt;Node6</title>
<g id="a_edge6_Node000005_Node000006"><a xlink:title=" ">
<path fill="none" stroke="#63b8ff" d="M1082.32,-349.15C1099.93,-341.29 1121.47,-330.48 1139,-318 1162.46,-301.3 1185.42,-276.06 1196.73,-262.87"/>
<polygon fill="#63b8ff" stroke="#63b8ff" points="1081.1,-345.86 1073.32,-353.05 1083.89,-352.29 1081.1,-345.86"/>
</a>
</g>
</g>
<!-- Node5&#45;&gt;Node7 -->
<g id="edge46_Node000005_Node000007" class="edge">
<title>Node5&#45;&gt;Node7</title>
<g id="a_edge46_Node000005_Node000007"><a xlink:title=" ">
<path fill="none" stroke="#63b8ff" d="M1066.55,-345.54C1099.28,-311.56 1163.06,-233.89 1126,-177 1112.5,-156.28 1086.96,-145.11 1064.94,-139.13"/>
<polygon fill="#63b8ff" stroke="#63b8ff" points="1064.23,-342.91 1059.68,-352.48 1069.21,-347.83 1064.23,-342.91"/>
</a>
</g>
</g>
<!-- Node8 -->
<g id="Node000008" class="node">
<title>Node8</title>
<g id="a_Node000008"><a xlink:href="_chamber_elastance_inductor_8h.html" target="_top" xlink:title="model::ChamberElastanceInductor source file">
<polygon fill="white" stroke="#666666" points="1272.88,-80.12 1103.12,-80.12 1103.12,-60.88 1272.88,-60.88 1272.88,-80.12"/>
<text text-anchor="middle" x="1188" y="-66.62" font-family="Helvetica,sans-Serif" font-size="10.00">model/ChamberElastanceInductor.h</text>
</a>
</g>
</g>
<!-- Node5&#45;&gt;Node8 -->
<g id="edge30_Node000005_Node000008" class="edge">
<title>Node5&#45;&gt;Node8</title>
<g id="a_edge30_Node000005_Node000008"><a xlink:title=" ">
<path fill="none" stroke="#63b8ff" d="M1099.05,-361.6C1242.86,-358.31 1650.41,-346.54 1703,-318 1734.21,-301.06 1751,-289.64 1751,-254.12 1751,-254.12 1751,-254.12 1751,-191.25 1751,-165.56 1387.77,-103.88 1244.82,-80.6"/>
<polygon fill="#63b8ff" stroke="#63b8ff" points="1099.39,-358.09 1089.47,-361.81 1099.54,-365.08 1099.39,-358.09"/>
</a>
</g>
</g>
<!-- Node9 -->
<g id="Node000009" class="node">
<title>Node9</title>
<g id="a_Node000009"><a xlink:href="_kung_ventricle_8h.html" target="_top" xlink:title="model::KungVentricle source file">
<polygon fill="white" stroke="#666666" points="1558.75,-80.12 1445.25,-80.12 1445.25,-60.88 1558.75,-60.88 1558.75,-80.12"/>
<text text-anchor="middle" x="1502" y="-66.62" font-family="Helvetica,sans-Serif" font-size="10.00">model/KungVentricle.h</text>
</a>
</g>
</g>
<!-- Node5&#45;&gt;Node9 -->
<g id="edge45_Node000005_Node000009" class="edge">
<title>Node5&#45;&gt;Node9</title>
<g id="a_edge45_Node000005_Node000009"><a xlink:title=" ">
<path fill="none" stroke="#63b8ff" d="M1099.23,-361.53C1251.78,-357.93 1702.92,-345.07 1763,-318 1799.64,-301.49 1827,-294.31 1827,-254.12 1827,-254.12 1827,-254.12 1827,-191.25 1827,-160.62 1621.13,-102.89 1537.09,-80.6"/>
<polygon fill="#63b8ff" stroke="#63b8ff" points="1099.36,-358.03 1089.44,-361.76 1099.52,-365.03 1099.36,-358.03"/>
</a>
</g>
</g>
<!-- Node10 -->
<g id="Node000010" class="node">
<title>Node10</title>
<g id="a_Node000010"><a xlink:href="_regazzoni_chamber_8h.html" target="_top" xlink:title="model::RegazzoniChamber source file">
<polygon fill="white" stroke="#666666" points="1427,-80.12 1291,-80.12 1291,-60.88 1427,-60.88 1427,-80.12"/>
<text text-anchor="middle" x="1359" y="-66.62" font-family="Helvetica,sans-Serif" font-size="10.00">model/RegazzoniChamber.h</text>
</a>
</g>
</g>
<!-- Node5&#45;&gt;Node10 -->
<g id="edge51_Node000005_Node000010" class="edge">
<title>Node5&#45;&gt;Node10</title>
<g id="a_edge51_Node000005_Node000010"><a xlink:title=" ">
<path fill="none" stroke="#63b8ff" d="M1099.6,-361.52C1248.06,-357.98 1675.65,-345.48 1732,-318 1766.2,-301.32 1789,-292.17 1789,-254.12 1789,-254.12 1789,-254.12 1789,-191.25 1789,-171.15 1506.5,-104.96 1399.45,-80.6"/>
<polygon fill="#63b8ff" stroke="#63b8ff" points="1099.59,-358.02 1089.67,-361.75 1099.75,-365.02 1099.59,-358.02"/>
</a>
</g>
</g>
<!-- Node15 -->
<g id="Node000015" class="node">
<title>Node15</title>
<g id="a_Node000015"><a xlink:href="_blood_vessel_8h.html" target="_top" xlink:title="model::BloodVessel source file">
<polygon fill="white" stroke="#666666" points="405.75,-318 298.25,-318 298.25,-298.75 405.75,-298.75 405.75,-318"/>
<text text-anchor="middle" x="352" y="-304.5" font-family="Helvetica,sans-Serif" font-size="10.00">model/BloodVessel.h</text>
</a>
</g>
</g>
<!-- Node5&#45;&gt;Node15 -->
<g id="edge22_Node000005_Node000015" class="edge">
<title>Node5&#45;&gt;Node15</title>
<g id="a_edge22_Node000005_Node000015"><a xlink:title=" ">
<path fill="none" stroke="#63b8ff" d="M998.55,-360C891.7,-354.22 634.74,-339.22 420,-318 415.5,-317.56 410.84,-317.05 406.16,-316.52"/>
<polygon fill="#63b8ff" stroke="#63b8ff" points="998.24,-363.48 1008.41,-360.53 998.61,-356.49 998.24,-363.48"/>
</a>
</g>
</g>
<!-- Node16 -->
<g id="Node000016" class="node">
<title>Node16</title>
<g id="a_Node000016"><a xlink:href="_blood_vessel_junction_8h.html" target="_top" xlink:title="model::BloodVesselJunction source file">
<polygon fill="white" stroke="#666666" points="428.12,-262.75 283.88,-262.75 283.88,-243.5 428.12,-243.5 428.12,-262.75"/>
<text text-anchor="middle" x="356" y="-249.25" font-family="Helvetica,sans-Serif" font-size="10.00">model/BloodVesselJunction.h</text>
</a>
</g>
</g>
<!-- Node5&#45;&gt;Node16 -->
<g id="edge29_Node000005_Node000016" class="edge">
<title>Node5&#45;&gt;Node16</title>
<g id="a_edge29_Node000005_Node000016"><a xlink:title=" ">
<path fill="none" stroke="#63b8ff" d="M998.46,-362.05C873.76,-360.13 554.29,-351.93 454,-318 435.63,-311.78 390.12,-279.29 368.19,-263.19"/>
<polygon fill="#63b8ff" stroke="#63b8ff" points="998.34,-365.55 1008.39,-362.2 998.44,-358.55 998.34,-365.55"/>
</a>
</g>
</g>
<!-- Node17 -->
<g id="Node000017" class="node">
<title>Node17</title>
<g id="a_Node000017"><a xlink:href="_blood_vessel_c_r_l_8h.html" target="_top" xlink:title="model::BloodVesselCRL source file">
<polygon fill="white" stroke="#666666" points="589.5,-318 462.5,-318 462.5,-298.75 589.5,-298.75 589.5,-318"/>
<text text-anchor="middle" x="526" y="-304.5" font-family="Helvetica,sans-Serif" font-size="10.00">model/BloodVesselCRL.h</text>
</a>
</g>
</g>
<!-- Node5&#45;&gt;Node17 -->
<g id="edge26_Node000005_Node000017" class="edge">
<title>Node5&#45;&gt;Node17</title>
<g id="a_edge26_Node000005_Node000017"><a xlink:title=" ">
<path fill="none" stroke="#63b8ff" d="M998.34,-357.96C914.85,-350.18 743.15,-333.87 598,-318 595.37,-317.71 592.69,-317.41 589.98,-317.11"/>
<polygon fill="#63b8ff" stroke="#63b8ff" points="997.97,-361.44 1008.25,-358.88 998.62,-354.47 997.97,-361.44"/>
</a>
</g>
</g>
<!-- Node18 -->
<g id="Node000018" class="node">
<title>Node18</title>
<g id="a_Node000018"><a xlink:href="_closed_loop_coronary_b_c_8h.html" target="_top" xlink:title="model::ClosedLoopCoronaryBC source file">
<polygon fill="white" stroke="#666666" points="1685.12,-262.75 1528.88,-262.75 1528.88,-243.5 1685.12,-243.5 1685.12,-262.75"/>
<text text-anchor="middle" x="1607" y="-249.25" font-family="Helvetica,sans-Serif" font-size="10.00">model/ClosedLoopCoronaryBC.h</text>
</a>
</g>
</g>
<!-- Node5&#45;&gt;Node18 -->
<g id="edge31_Node000005_Node000018" class="edge">
<title>Node5&#45;&gt;Node18</title>
<g id="a_edge31_Node000005_Node000018"><a xlink:title=" ">
<path fill="none" stroke="#63b8ff" d="M1099.39,-352.83C1206.74,-331.95 1456.64,-283.36 1560.47,-263.17"/>
<polygon fill="#63b8ff" stroke="#63b8ff" points="1098.87,-349.36 1089.72,-354.71 1100.21,-356.23 1098.87,-349.36"/>
</a>
</g>
</g>
<!-- Node21 -->
<g id="Node000021" class="node">
<title>Node21</title>
<g id="a_Node000021"><a xlink:href="_closed_loop_heart_pulmonary_8h.html" target="_top" xlink:title="model::ClosedLoopHeartPulmonary source file">
<polygon fill="white" stroke="#666666" points="1694.12,-318 1519.88,-318 1519.88,-298.75 1694.12,-298.75 1694.12,-318"/>
<text text-anchor="middle" x="1607" y="-304.5" font-family="Helvetica,sans-Serif" font-size="10.00">model/ClosedLoopHeartPulmonary.h</text>
</a>
</g>
</g>
<!-- Node5&#45;&gt;Node21 -->
<g id="edge36_Node000005_Node000021" class="edge">
<title>Node5&#45;&gt;Node21</title>
<g id="a_edge36_Node000005_Node000021"><a xlink:title=" ">
<path fill="none" stroke="#63b8ff" d="M1099.55,-357.8C1194.7,-348.72 1401.44,-328.99 1519.57,-317.72"/>
<polygon fill="#63b8ff" stroke="#63b8ff" points="1099.37,-354.3 1089.74,-358.74 1100.03,-361.27 1099.37,-354.3"/>
</a>
</g>
</g>
<!-- Node22 -->
<g id="Node000022" class="node">
<title>Node22</title>
<g id="a_Node000022"><a xlink:href="_closed_loop_r_c_r_b_c_8h.html" target="_top" xlink:title="model::ClosedLoopRCRBC source file">
<polygon fill="white" stroke="#666666" points="280.12,-318 141.88,-318 141.88,-298.75 280.12,-298.75 280.12,-318"/>
<text text-anchor="middle" x="211" y="-304.5" font-family="Helvetica,sans-Serif" font-size="10.00">model/ClosedLoopRCRBC.h</text>
</a>
</g>
</g>
<!-- Node5&#45;&gt;Node22 -->
<g id="edge39_Node000005_Node000022" class="edge">
<title>Node5&#45;&gt;Node22</title>
<g id="a_edge39_Node000005_Node000022"><a xlink:title=" ">
<path fill="none" stroke="#63b8ff" d="M998.62,-360.56C876.67,-355.38 555.97,-340.58 289,-318 286.15,-317.76 283.24,-317.5 280.3,-317.23"/>
<polygon fill="#63b8ff" stroke="#63b8ff" points="998.14,-364.05 1008.28,-360.97 998.44,-357.05 998.14,-364.05"/>
</a>
</g>
</g>
<!-- Node23 -->
<g id="Node000023" class="node">
<title>Node23</title>
<g id="a_Node000023"><a xlink:href="_flow_reference_b_c_8h.html" target="_top" xlink:title="model::FlowReferenceBC source file">
<polygon fill="white" stroke="#666666" points="738.75,-318 607.25,-318 607.25,-298.75 738.75,-298.75 738.75,-318"/>
<text text-anchor="middle" x="673" y="-304.5" font-family="Helvetica,sans-Serif" font-size="10.00">model/FlowReferenceBC.h</text>
</a>
</g>
</g>
<!-- Node5&#45;&gt;Node23 -->
<g id="edge41_Node000005_Node000023" class="edge">
<title>Node5&#45;&gt;Node23</title>
<g id="a_edge41_Node000005_Node000023"><a xlink:title=" ">
<path fill="none" stroke="#63b8ff" d="M998.65,-355.49C931.08,-345.92 811.04,-328.92 737.1,-318.45"/>
<polygon fill="#63b8ff" stroke="#63b8ff" points="997.93,-358.93 1008.33,-356.86 998.92,-352 997.93,-358.93"/>
</a>
</g>
</g>
<!-- Node24 -->
<g id="Node000024" class="node">
<title>Node24</title>
<g id="a_Node000024"><a xlink:href="_junction_8h.html" target="_top" xlink:title="model::Junction source file">
<polygon fill="white" stroke="#666666" points="893.75,-201.88 804.25,-201.88 804.25,-182.62 893.75,-182.62 893.75,-201.88"/>
<text text-anchor="middle" x="849" y="-188.38" font-family="Helvetica,sans-Serif" font-size="10.00">model/Junction.h</text>
</a>
</g>
</g>
<!-- Node5&#45;&gt;Node24 -->
<g id="edge43_Node000005_Node000024" class="edge">
<title>Node5&#45;&gt;Node24</title>
<g id="a_edge43_Node000005_Node000024"><a xlink:title=" ">
<path fill="none" stroke="#63b8ff" d="M998.68,-357.16C949.59,-350.72 879.78,-338.27 862,-318 832.56,-284.45 841.93,-224.63 846.84,-202.14"/>
<polygon fill="#63b8ff" stroke="#63b8ff" points="998.19,-360.63 1008.55,-358.4 999.06,-353.68 998.19,-360.63"/>
</a>
</g>
</g>
<!-- Node25 -->
<g id="Node000025" class="node">
<title>Node25</title>
<g id="a_Node000025"><a xlink:href="_open_loop_coronary_b_c_8h.html" target="_top" xlink:title="model::OpenLoopCoronaryBC source file">
<polygon fill="white" stroke="#666666" points="1020.75,-318 871.25,-318 871.25,-298.75 1020.75,-298.75 1020.75,-318"/>
<text text-anchor="middle" x="946" y="-304.5" font-family="Helvetica,sans-Serif" font-size="10.00">model/OpenLoopCoronaryBC.h</text>
</a>
</g>
</g>
<!-- Node5&#45;&gt;Node25 -->
<g id="edge47_Node000005_Node000025" class="edge">
<title>Node5&#45;&gt;Node25</title>
<g id="a_edge47_Node000005_Node000025"><a xlink:title=" ">
<path fill="none" stroke="#63b8ff" d="M1021.41,-348.36C1003.02,-338.86 979.42,-326.65 963.56,-318.45"/>
<polygon fill="#63b8ff" stroke="#63b8ff" points="1019.69,-351.41 1030.18,-352.9 1022.91,-345.2 1019.69,-351.41"/>
</a>
</g>
</g>
<!-- Node26 -->
<g id="Node000026" class="node">
<title>Node26</title>
<g id="a_Node000026"><a xlink:href="_pressure_reference_b_c_8h.html" target="_top" xlink:title="model::PressureReferenceBC source file">
<polygon fill="white" stroke="#666666" points="1099.75,-201.88 950.25,-201.88 950.25,-182.62 1099.75,-182.62 1099.75,-201.88"/>
<text text-anchor="middle" x="1025" y="-188.38" font-family="Helvetica,sans-Serif" font-size="10.00">model/PressureReferenceBC.h</text>
</a>
</g>
</g>
<!-- Node5&#45;&gt;Node26 -->
<g id="edge49_Node000005_Node000026" class="edge">
<title>Node5&#45;&gt;Node26</title>
<g id="a_edge49_Node000005_Node000026"><a xlink:title=" ">
<path fill="none" stroke="#63b8ff" d="M1047.13,-342.69C1044.94,-329.04 1040.22,-311.22 1030,-298.75 1008.33,-272.3 979.64,-292.05 962,-262.75 947.22,-238.19 982.54,-214.55 1006.06,-202.18"/>
<polygon fill="#63b8ff" stroke="#63b8ff" points="1043.61,-342.79 1048.31,-352.28 1050.56,-341.92 1043.61,-342.79"/>
</a>
</g>
</g>
<!-- Node27 -->
<g id="Node000027" class="node">
<title>Node27</title>
<g id="a_Node000027"><a xlink:href="_regazzoni_valve_8h.html" target="_top" xlink:title="model::RegazzoniValve source file">
<polygon fill="white" stroke="#666666" points="1092.88,-262.75 971.12,-262.75 971.12,-243.5 1092.88,-243.5 1092.88,-262.75"/>
<text text-anchor="middle" x="1032" y="-249.25" font-family="Helvetica,sans-Serif" font-size="10.00">model/RegazzoniValve.h</text>
</a>
</g>
</g>
<!-- Node5&#45;&gt;Node27 -->
<g id="edge52_Node000005_Node000027" class="edge">
<title>Node5&#45;&gt;Node27</title>
<g id="a_edge52_Node000005_Node000027"><a xlink:title=" ">
<path fill="none" stroke="#63b8ff" d="M1058.36,-343.47C1063.36,-330.66 1067.62,-313.51 1063,-298.75 1058.66,-284.89 1048.32,-271.55 1040.77,-263.13"/>
<polygon fill="#63b8ff" stroke="#63b8ff" points="1055.23,-341.87 1054.4,-352.43 1061.64,-344.7 1055.23,-341.87"/>
</a>
</g>
</g>
<!-- Node28 -->
<g id="Node000028" class="node">
<title>Node28</title>
<g id="a_Node000028"><a xlink:href="_resistance_b_c_8h.html" target="_top" xlink:title="model::ResistanceBC source file">
<polygon fill="white" stroke="#666666" points="637.5,-201.88 522.5,-201.88 522.5,-182.62 637.5,-182.62 637.5,-201.88"/>
<text text-anchor="middle" x="580" y="-188.38" font-family="Helvetica,sans-Serif" font-size="10.00">model/ResistanceBC.h</text>
</a>
</g>
</g>
<!-- Node5&#45;&gt;Node28 -->
<g id="edge54_Node000005_Node000028" class="edge">
<title>Node5&#45;&gt;Node28</title>
<g id="a_edge54_Node000005_Node000028"><a xlink:title=" ">
<path fill="none" stroke="#63b8ff" d="M998.67,-357.12C951.32,-350.95 878.95,-338.96 819,-318 728.43,-286.33 629.65,-225.39 593.89,-202.36"/>
<polygon fill="#63b8ff" stroke="#63b8ff" points="997.99,-360.56 1008.35,-358.34 998.86,-353.62 997.99,-360.56"/>
</a>
</g>
</g>
<!-- Node29 -->
<g id="Node000029" class="node">
<title>Node29</title>
<g id="a_Node000029"><a xlink:href="_resistive_junction_8h.html" target="_top" xlink:title="model::ResistiveJunction source file">
<polygon fill="white" stroke="#666666" points="786,-201.88 656,-201.88 656,-182.62 786,-182.62 786,-201.88"/>
<text text-anchor="middle" x="721" y="-188.38" font-family="Helvetica,sans-Serif" font-size="10.00">model/ResistiveJunction.h</text>
</a>
</g>
</g>
<!-- Node5&#45;&gt;Node29 -->
<g id="edge56_Node000005_Node000029" class="edge">
<title>Node5&#45;&gt;Node29</title>
<g id="a_edge56_Node000005_Node000029"><a xlink:title=" ">
<path fill="none" stroke="#63b8ff" d="M998.64,-360.15C955.74,-356.1 893.79,-345.52 847,-318 808.87,-295.58 812.71,-274.34 781,-243.5 765.03,-227.96 744.89,-211.71 732.49,-202.04"/>
<polygon fill="#63b8ff" stroke="#63b8ff" points="998.17,-363.62 1008.43,-360.98 998.76,-356.65 998.17,-363.62"/>
</a>
</g>
</g>
<!-- Node30 -->
<g id="Node000030" class="node">
<title>Node30</title>
<g id="a_Node000030"><a xlink:href="_valve_tanh_8h.html" target="_top" xlink:title="model::ValveTanh source file">
<polygon fill="white" stroke="#666666" points="1376.62,-262.75 1277.38,-262.75 1277.38,-243.5 1376.62,-243.5 1376.62,-262.75"/>
<text text-anchor="middle" x="1327" y="-249.25" font-family="Helvetica,sans-Serif" font-size="10.00">model/ValveTanh.h</text>
</a>
</g>
</g>
<!-- Node5&#45;&gt;Node30 -->
<g id="edge58_Node000005_Node000030" class="edge">
<title>Node5&#45;&gt;Node30</title>
<g id="a_edge58_Node000005_Node000030"><a xlink:title=" ">
<path fill="none" stroke="#63b8ff" d="M1083.22,-349.55C1106.33,-340.69 1137.53,-328.7 1165,-318 1214.72,-298.63 1272.89,-275.61 1304.22,-263.18"/>
<polygon fill="#63b8ff" stroke="#63b8ff" points="1082.07,-346.24 1073.99,-353.08 1084.58,-352.77 1082.07,-346.24"/>
</a>
</g>
</g>
<!-- Node31 -->
<g id="Node000031" class="node">
<title>Node31</title>
<g id="a_Node000031"><a xlink:href="_windkessel_b_c_8h.html" target="_top" xlink:title="model::WindkesselBC source file">
<polygon fill="white" stroke="#666666" points="1511.25,-262.75 1394.75,-262.75 1394.75,-243.5 1511.25,-243.5 1511.25,-262.75"/>
<text text-anchor="middle" x="1453" y="-249.25" font-family="Helvetica,sans-Serif" font-size="10.00">model/WindkesselBC.h</text>
</a>
</g>
</g>
<!-- Node5&#45;&gt;Node31 -->
<g id="edge60_Node000005_Node000031" class="edge">
<title>Node5&#45;&gt;Node31</title>
<g id="a_edge60_Node000005_Node000031"><a xlink:title=" ">
<path fill="none" stroke="#63b8ff" d="M1093.63,-350.64C1175.11,-328.76 1346.26,-282.79 1419.06,-263.24"/>
<polygon fill="#63b8ff" stroke="#63b8ff" points="1092.96,-347.19 1084.21,-353.17 1094.78,-353.95 1092.96,-347.19"/>
</a>
</g>
</g>
<!-- Node6&#45;&gt;Node7 -->
<g id="edge7_Node000006_Node000007" class="edge">
<title>Node6&#45;&gt;Node7</title>
<g id="a_edge7_Node000006_Node000007"><a xlink:title=" ">
<path fill="none" stroke="#63b8ff" d="M1202.7,-231.98C1200.54,-215.08 1194.87,-191.45 1180,-177 1149.17,-147.05 1099.58,-136.97 1064.82,-133.7"/>
<polygon fill="#63b8ff" stroke="#63b8ff" points="1199.21,-232.19 1203.62,-241.83 1206.18,-231.55 1199.21,-232.19"/>
</a>
</g>
</g>
<!-- Node7&#45;&gt;Node2 -->
<g id="edge8_Node000007_Node000002" class="edge">
<title>Node7&#45;&gt;Node2</title>
<g id="a_edge8_Node000007_Node000002"><a xlink:title=" ">
<path fill="none" stroke="#63b8ff" d="M974.02,-123.28C917.41,-115.18 823.41,-101.05 743,-85.75 734.84,-84.2 726.12,-82.37 717.84,-80.55"/>
<polygon fill="#63b8ff" stroke="#63b8ff" points="973.28,-126.71 983.67,-124.65 974.26,-119.78 973.28,-126.71"/>
</a>
</g>
</g>
<!-- Node7&#45;&gt;Node3 -->
<g id="edge9_Node000007_Node000003" class="edge">
<title>Node7&#45;&gt;Node3</title>
<g id="a_edge9_Node000007_Node000003"><a xlink:title=" ">
<path fill="none" stroke="#63b8ff" d="M974.01,-128.58C922.09,-125.11 840.3,-114.99 776,-85.75 756.29,-76.78 756.79,-66.02 738,-55.25 710.65,-39.58 676.75,-27.34 652.49,-19.68"/>
<polygon fill="#63b8ff" stroke="#63b8ff" points="973.56,-132.06 983.75,-129.17 973.98,-125.07 973.56,-132.06"/>
</a>
</g>
</g>
<!-- Node7&#45;&gt;Node4 -->
<g id="edge19_Node000007_Node000004" class="edge">
<title>Node7&#45;&gt;Node4</title>
<g id="a_edge19_Node000007_Node000004"><a xlink:title=" ">
<path fill="none" stroke="#63b8ff" d="M1036.4,-112.19C1048.45,-94.61 1069.14,-68.72 1094,-55.25 1132.83,-34.22 1258.24,-20.08 1322.8,-14"/>
<polygon fill="#63b8ff" stroke="#63b8ff" points="1033.73,-109.88 1031.16,-120.16 1039.58,-113.72 1033.73,-109.88"/>
</a>
</g>
</g>
<!-- Node7&#45;&gt;Node8 -->
<g id="edge10_Node000007_Node000008" class="edge">
<title>Node7&#45;&gt;Node8</title>
<g id="a_edge10_Node000007_Node000008"><a xlink:title=" ">
<path fill="none" stroke="#63b8ff" d="M1055.54,-117.28C1084.85,-106.13 1128.62,-90.4 1157.82,-80.58"/>
<polygon fill="#63b8ff" stroke="#63b8ff" points="1054.56,-113.9 1046.49,-120.76 1057.08,-120.43 1054.56,-113.9"/>
</a>
</g>
</g>
<!-- Node7&#45;&gt;Node9 -->
<g id="edge12_Node000007_Node000009" class="edge">
<title>Node7&#45;&gt;Node9</title>
<g id="a_edge12_Node000007_Node000009"><a xlink:title=" ">
<path fill="none" stroke="#63b8ff" d="M1076.27,-126.54C1154.27,-120.32 1307.28,-106.58 1436,-85.75 1444.79,-84.33 1454.18,-82.49 1463.04,-80.62"/>
<polygon fill="#63b8ff" stroke="#63b8ff" points="1076.06,-123.05 1066.37,-127.32 1076.61,-130.02 1076.06,-123.05"/>
</a>
</g>
</g>
<!-- Node7&#45;&gt;Node10 -->
<g id="edge13_Node000007_Node000010" class="edge">
<title>Node7&#45;&gt;Node10</title>
<g id="a_edge13_Node000007_Node000010"><a xlink:title=" ">
<path fill="none" stroke="#63b8ff" d="M1076.06,-120.47C1126.24,-111.55 1204.77,-97.99 1273,-85.75 1282.23,-84.09 1292.08,-82.3 1301.72,-80.55"/>
<polygon fill="#63b8ff" stroke="#63b8ff" points="1075.58,-117 1066.35,-122.2 1076.81,-123.89 1075.58,-117"/>
</a>
</g>
</g>
<!-- Node11 -->
<g id="Node000011" class="node">
<title>Node11</title>
<g id="a_Node000011"><a xlink:href="_levenberg_marquardt_optimizer_8h.html" target="_top" xlink:title="opt::LevenbergMarquardtOptimizer source file">
<polygon fill="white" stroke="#666666" points="1047.12,-85.75 902.88,-85.75 902.88,-55.25 1047.12,-55.25 1047.12,-85.75"/>
<text text-anchor="start" x="910.88" y="-72.25" font-family="Helvetica,sans-Serif" font-size="10.00">optimize/LevenbergMarquardt</text>
<text text-anchor="middle" x="975" y="-61" font-family="Helvetica,sans-Serif" font-size="10.00">Optimizer.h</text>
</a>
</g>
</g>
<!-- Node7&#45;&gt;Node11 -->
<g id="edge15_Node000007_Node000011" class="edge">
<title>Node7&#45;&gt;Node11</title>
<g id="a_edge15_Node000007_Node000011"><a xlink:title=" ">
<path fill="none" stroke="#63b8ff" d="M1009.97,-112.68C1002.74,-104.17 994.18,-94.09 987.34,-86.03"/>
<polygon fill="#63b8ff" stroke="#63b8ff" points="1007.29,-114.92 1016.43,-120.28 1012.62,-110.39 1007.29,-114.92"/>
</a>
</g>
</g>
<!-- Node12 -->
<g id="Node000012" class="node">
<title>Node12</title>
<g id="a_Node000012"><a xlink:href="calibrate_8h.html" target="_top" xlink:title="opt::calibrate source file">
<polygon fill="white" stroke="#666666" points="884.62,-80.12 785.38,-80.12 785.38,-60.88 884.62,-60.88 884.62,-80.12"/>
<text text-anchor="middle" x="835" y="-66.62" font-family="Helvetica,sans-Serif" font-size="10.00">optimize/calibrate.h</text>
</a>
</g>
</g>
<!-- Node7&#45;&gt;Node12 -->
<g id="edge16_Node000007_Node000012" class="edge">
<title>Node7&#45;&gt;Node12</title>
<g id="a_edge16_Node000007_Node000012"><a xlink:title=" ">
<path fill="none" stroke="#63b8ff" d="M985.09,-118.01C948.99,-106.82 896.68,-90.61 864.3,-80.58"/>
<polygon fill="#63b8ff" stroke="#63b8ff" points="983.7,-121.24 994.28,-120.86 985.77,-114.55 983.7,-121.24"/>
</a>
</g>
</g>
<!-- Node7&#45;&gt;Node13 -->
<g id="edge17_Node000007_Node000013" class="edge">
<title>Node7&#45;&gt;Node13</title>
<g id="a_edge17_Node000007_Node000013"><a xlink:title=" ">
<path fill="none" stroke="#63b8ff" d="M1076.44,-127.7C1173.04,-122.32 1388.09,-108.73 1568,-85.75 1579.04,-84.34 1590.85,-82.49 1601.98,-80.59"/>
<polygon fill="#63b8ff" stroke="#63b8ff" points="1076.29,-124.2 1066.49,-128.24 1076.67,-131.19 1076.29,-124.2"/>
</a>
</g>
</g>
<!-- Node7&#45;&gt;Node14 -->
<g id="edge20_Node000007_Node000014" class="edge">
<title>Node7&#45;&gt;Node14</title>
<g id="a_edge20_Node000007_Node000014"><a xlink:title=" ">
<path fill="none" stroke="#63b8ff" d="M973.78,-127.03C896.6,-121.48 746.12,-108.63 620,-85.75 612.3,-84.35 604.09,-82.48 596.4,-80.56"/>
<polygon fill="#63b8ff" stroke="#63b8ff" points="973.34,-130.51 983.56,-127.72 973.83,-123.53 973.34,-130.51"/>
</a>
</g>
</g>
<!-- Node8&#45;&gt;Node7 -->
<g id="edge11_Node000008_Node000007" class="edge">
<title>Node8&#45;&gt;Node7</title>
<g id="a_edge11_Node000008_Node000007"><a xlink:title=" ">
<path fill="none" stroke="#63b8ff" d="M1157.43,-84.61C1128.11,-95.76 1084.33,-111.49 1055.15,-121.3"/>
<polygon fill="#63b8ff" stroke="#63b8ff" points="1158.41,-87.98 1166.49,-81.12 1155.9,-81.45 1158.41,-87.98"/>
</a>
</g>
</g>
<!-- Node10&#45;&gt;Node7 -->
<g id="edge14_Node000010_Node000007" class="edge">
<title>Node10&#45;&gt;Node7</title>
<g id="a_edge14_Node000010_Node000007"><a xlink:title=" ">
<path fill="none" stroke="#63b8ff" d="M1308.3,-82.61C1302.48,-83.68 1296.63,-84.74 1291,-85.75 1210.99,-100.1 1116.83,-116.27 1064.6,-124.65"/>
<polygon fill="#63b8ff" stroke="#63b8ff" points="1308.69,-86.1 1317.88,-80.83 1307.41,-79.21 1308.69,-86.1"/>
</a>
</g>
</g>
<!-- Node13&#45;&gt;Node4 -->
<g id="edge18_Node000013_Node000004" class="edge">
<title>Node13&#45;&gt;Node4</title>
<g id="a_edge18_Node000013_Node000004"><a xlink:title=" ">
<path fill="none" stroke="#63b8ff" d="M1594.69,-58.19C1537.85,-46.57 1450.82,-28.78 1400.87,-18.57"/>
<polygon fill="#63b8ff" stroke="#63b8ff" points="1593.65,-61.55 1604.15,-60.13 1595.05,-54.69 1593.65,-61.55"/>
</a>
</g>
</g>
<!-- Node14&#45;&gt;Node3 -->
<g id="edge21_Node000014_Node000003" class="edge">
<title>Node14&#45;&gt;Node3</title>
<g id="a_edge21_Node000014_Node000003"><a xlink:title=" ">
<path fill="none" stroke="#63b8ff" d="M580.6,-52.36C590.95,-41.66 603.86,-28.33 612.26,-19.65"/>
<polygon fill="#63b8ff" stroke="#63b8ff" points="578.15,-49.85 573.71,-59.47 583.18,-54.72 578.15,-49.85"/>
</a>
</g>
</g>
<!-- Node15&#45;&gt;Node7 -->
<g id="edge25_Node000015_Node000007" class="edge">
<title>Node15&#45;&gt;Node7</title>
<g id="a_edge25_Node000015_Node000007"><a xlink:title=" ">
<path fill="none" stroke="#63b8ff" d="M313.61,-293.87C288.42,-282.68 262.31,-265.13 275,-243.5 305.66,-191.24 335.94,-194.33 394,-177 505.55,-143.7 865.08,-134.95 985.37,-132.93"/>
<polygon fill="#63b8ff" stroke="#63b8ff" points="312.25,-297.1 322.83,-297.69 314.93,-290.63 312.25,-297.1"/>
</a>
</g>
</g>
<!-- Node15&#45;&gt;Node16 -->
<g id="edge23_Node000015_Node000016" class="edge">
<title>Node15&#45;&gt;Node16</title>
<g id="a_edge23_Node000015_Node000016"><a xlink:title=" ">
<path fill="none" stroke="#63b8ff" d="M353.52,-287.13C354.14,-278.84 354.83,-269.67 355.33,-263.11"/>
<polygon fill="#63b8ff" stroke="#63b8ff" points="350.03,-286.84 352.77,-297.07 357.01,-287.36 350.03,-286.84"/>
</a>
</g>
</g>
<!-- Node16&#45;&gt;Node7 -->
<g id="edge24_Node000016_Node000007" class="edge">
<title>Node16&#45;&gt;Node7</title>
<g id="a_edge24_Node000016_Node000007"><a xlink:title=" ">
<path fill="none" stroke="#63b8ff" d="M369.86,-234.7C385.32,-216.7 412.11,-189.54 442,-177 540.41,-135.72 870.42,-132.15 985.22,-132.19"/>
<polygon fill="#63b8ff" stroke="#63b8ff" points="367.51,-232.05 363.82,-241.98 372.9,-236.52 367.51,-232.05"/>
</a>
</g>
</g>
<!-- Node17&#45;&gt;Node7 -->
<g id="edge28_Node000017_Node000007" class="edge">
<title>Node17&#45;&gt;Node7</title>
<g id="a_edge28_Node000017_Node000007"><a xlink:title=" ">
<path fill="none" stroke="#63b8ff" d="M513.59,-289.06C496.38,-261.19 470.43,-208.09 499,-177 531.75,-141.36 868.63,-134.15 985.4,-132.72"/>
<polygon fill="#63b8ff" stroke="#63b8ff" points="510.44,-290.64 518.8,-297.14 516.32,-286.84 510.44,-290.64"/>
</a>
</g>
</g>
<!-- Node17&#45;&gt;Node16 -->
<g id="edge27_Node000017_Node000016" class="edge">
<title>Node17&#45;&gt;Node16</title>
<g id="a_edge27_Node000017_Node000016"><a xlink:title=" ">
<path fill="none" stroke="#63b8ff" d="M486.29,-294.94C455.27,-285.22 412.87,-271.94 384.98,-263.2"/>
<polygon fill="#63b8ff" stroke="#63b8ff" points="485.13,-298.24 495.72,-297.89 487.22,-291.56 485.13,-298.24"/>
</a>
</g>
</g>
<!-- Node19 -->
<g id="Node000019" class="node">
<title>Node19</title>
<g id="a_Node000019"><a xlink:href="_closed_loop_coronary_left_b_c_8h.html" target="_top" xlink:title="Left side of ClosedLoopCoronaryBC.">
<polygon fill="white" stroke="#666666" points="1506.62,-207.5 1371.38,-207.5 1371.38,-177 1506.62,-177 1506.62,-207.5"/>
<text text-anchor="start" x="1379.38" y="-194" font-family="Helvetica,sans-Serif" font-size="10.00">model/ClosedLoopCoronary</text>
<text text-anchor="middle" x="1439" y="-182.75" font-family="Helvetica,sans-Serif" font-size="10.00">LeftBC.h</text>
</a>
</g>
</g>
<!-- Node18&#45;&gt;Node19 -->
<g id="edge32_Node000018_Node000019" class="edge">
<title>Node18&#45;&gt;Node19</title>
<g id="a_edge32_Node000018_Node000019"><a xlink:title=" ">
<path fill="none" stroke="#63b8ff" d="M1570.44,-239.31C1544.08,-230.07 1508.45,-217.59 1480.93,-207.94"/>
<polygon fill="#63b8ff" stroke="#63b8ff" points="1569.09,-242.55 1579.69,-242.55 1571.41,-235.94 1569.09,-242.55"/>
</a>
</g>
</g>
<!-- Node20 -->
<g id="Node000020" class="node">
<title>Node20</title>
<g id="a_Node000020"><a xlink:href="_closed_loop_coronary_right_b_c_8h.html" target="_top" xlink:title="Right side of ClosedLoopCoronaryBC.">
<polygon fill="white" stroke="#666666" points="1669.62,-207.5 1534.38,-207.5 1534.38,-177 1669.62,-177 1669.62,-207.5"/>
<text text-anchor="start" x="1542.38" y="-194" font-family="Helvetica,sans-Serif" font-size="10.00">model/ClosedLoopCoronary</text>
<text text-anchor="middle" x="1602" y="-182.75" font-family="Helvetica,sans-Serif" font-size="10.00">RightBC.h</text>
</a>
</g>
</g>
<!-- Node18&#45;&gt;Node20 -->
<g id="edge34_Node000018_Node000020" class="edge">
<title>Node18&#45;&gt;Node20</title>
<g id="a_edge34_Node000018_Node000020"><a xlink:title=" ">
<path fill="none" stroke="#63b8ff" d="M1605.28,-231.92C1604.61,-223.99 1603.85,-215.06 1603.23,-207.78"/>
<polygon fill="#63b8ff" stroke="#63b8ff" points="1601.78,-232.01 1606.11,-241.68 1608.75,-231.41 1601.78,-232.01"/>
</a>
</g>
</g>
<!-- Node19&#45;&gt;Node7 -->
<g id="edge33_Node000019_Node000007" class="edge">
<title>Node19&#45;&gt;Node7</title>
<g id="a_edge33_Node000019_Node000007"><a xlink:title=" ">
<path fill="none" stroke="#63b8ff" d="M1359.8,-179.99C1271.6,-167.44 1132.54,-147.67 1064.77,-138.03"/>
<polygon fill="#63b8ff" stroke="#63b8ff" points="1359.21,-183.44 1369.6,-181.38 1360.19,-176.51 1359.21,-183.44"/>
</a>
</g>
</g>
<!-- Node20&#45;&gt;Node7 -->
<g id="edge35_Node000020_Node000007" class="edge">
<title>Node20&#45;&gt;Node7</title>
<g id="a_edge35_Node000020_Node000007"><a xlink:title=" ">
<path fill="none" stroke="#63b8ff" d="M1522.67,-177.88C1520.42,-177.58 1518.2,-177.28 1516,-177 1348.96,-155.6 1148.66,-140.73 1064.89,-135"/>
<polygon fill="#63b8ff" stroke="#63b8ff" points="1522.11,-181.34 1532.5,-179.29 1523.1,-174.41 1522.11,-181.34"/>
</a>
</g>
</g>
<!-- Node21&#45;&gt;Node7 -->
<g id="edge38_Node000021_Node000007" class="edge">
<title>Node21&#45;&gt;Node7</title>
<g id="a_edge38_Node000021_Node000007"><a xlink:title=" ">
<path fill="none" stroke="#63b8ff" d="M1654.34,-294.15C1669.71,-287.36 1685.08,-277.34 1694,-262.75 1707.58,-240.52 1705.21,-199.46 1679,-177 1632.39,-137.06 1199.83,-132.74 1064.96,-132.38"/>
<polygon fill="#63b8ff" stroke="#63b8ff" points="1653.19,-290.84 1645.19,-297.78 1655.78,-297.34 1653.19,-290.84"/>
</a>
</g>
</g>
<!-- Node21&#45;&gt;Node18 -->
<g id="edge37_Node000021_Node000018" class="edge">
<title>Node21&#45;&gt;Node18</title>
<g id="a_edge37_Node000021_Node000018"><a xlink:title=" ">
<path fill="none" stroke="#63b8ff" d="M1607,-287.13C1607,-278.84 1607,-269.67 1607,-263.11"/>
<polygon fill="#63b8ff" stroke="#63b8ff" points="1603.5,-287.07 1607,-297.07 1610.5,-287.07 1603.5,-287.07"/>
</a>
</g>
</g>
<!-- Node22&#45;&gt;Node7 -->
<g id="edge40_Node000022_Node000007" class="edge">
<title>Node22&#45;&gt;Node7</title>
<g id="a_edge40_Node000022_Node000007"><a xlink:title=" ">
<path fill="none" stroke="#63b8ff" d="M218.11,-287.95C230.19,-258.11 257.8,-201.81 302,-177 361.7,-143.49 842.93,-134.7 985.4,-132.82"/>
<polygon fill="#63b8ff" stroke="#63b8ff" points="214.99,-286.31 214.66,-296.9 221.53,-288.82 214.99,-286.31"/>
</a>
</g>
</g>
<!-- Node23&#45;&gt;Node7 -->
<g id="edge42_Node000023_Node000007" class="edge">
<title>Node23&#45;&gt;Node7</title>
<g id="a_edge42_Node000023_Node000007"><a xlink:title=" ">
<path fill="none" stroke="#63b8ff" d="M634.16,-294.58C573.85,-272.79 469.04,-226.05 514,-177 545.66,-142.45 870.75,-134.55 985.31,-132.83"/>
<polygon fill="#63b8ff" stroke="#63b8ff" points="632.84,-297.83 643.43,-297.85 635.17,-291.22 632.84,-297.83"/>
</a>
</g>
</g>
<!-- Node24&#45;&gt;Node7 -->
<g id="edge44_Node000024_Node000007" class="edge">
<title>Node24&#45;&gt;Node7</title>
<g id="a_edge44_Node000024_Node000007"><a xlink:title=" ">
<path fill="none" stroke="#63b8ff" d="M886.84,-178.59C920.25,-167.42 968.13,-151.4 997.85,-141.46"/>
<polygon fill="#63b8ff" stroke="#63b8ff" points="885.92,-175.21 877.55,-181.7 888.14,-181.85 885.92,-175.21"/>
</a>
</g>
</g>
<!-- Node25&#45;&gt;Node7 -->
<g id="edge48_Node000025_Node000007" class="edge">
<title>Node25&#45;&gt;Node7</title>
<g id="a_edge48_Node000025_Node000007"><a xlink:title=" ">
<path fill="none" stroke="#63b8ff" d="M938.95,-287.56C930.63,-260.48 920.36,-211.34 941,-177 951.72,-159.17 972.24,-148.08 990.31,-141.41"/>
<polygon fill="#63b8ff" stroke="#63b8ff" points="935.57,-288.5 942.04,-296.89 942.22,-286.29 935.57,-288.5"/>
</a>
</g>
</g>
<!-- Node26&#45;&gt;Node7 -->
<g id="edge50_Node000026_Node000007" class="edge">
<title>Node26&#45;&gt;Node7</title>
<g id="a_edge50_Node000026_Node000007"><a xlink:title=" ">
<path fill="none" stroke="#63b8ff" d="M1025,-170.82C1025,-160.79 1025,-149.21 1025,-141.4"/>
<polygon fill="#63b8ff" stroke="#63b8ff" points="1021.5,-170.79 1025,-180.79 1028.5,-170.79 1021.5,-170.79"/>
</a>
</g>
</g>
<!-- Node27&#45;&gt;Node7 -->
<g id="edge53_Node000027_Node000007" class="edge">
<title>Node27&#45;&gt;Node7</title>
<g id="a_edge53_Node000027_Node000007"><a xlink:title=" ">
<path fill="none" stroke="#63b8ff" d="M1072.14,-238.62C1086.38,-231.67 1100.87,-221.61 1109,-207.5 1115.77,-195.75 1115.98,-188.62 1109,-177 1098.28,-159.17 1077.76,-148.08 1059.69,-141.41"/>
<polygon fill="#63b8ff" stroke="#63b8ff" points="1071.03,-235.28 1063.3,-242.53 1073.86,-241.68 1071.03,-235.28"/>
</a>
</g>
</g>
<!-- Node28&#45;&gt;Node7 -->
<g id="edge55_Node000028_Node000007" class="edge">
<title>Node28&#45;&gt;Node7</title>
<g id="a_edge55_Node000028_Node000007"><a xlink:title=" ">
<path fill="none" stroke="#63b8ff" d="M630.93,-179.91C636.34,-178.86 641.77,-177.86 647,-177 769.57,-156.77 915.98,-142.19 985.1,-135.87"/>
<polygon fill="#63b8ff" stroke="#63b8ff" points="630.51,-176.42 621.4,-181.83 631.9,-183.28 630.51,-176.42"/>
</a>
</g>
</g>
<!-- Node29&#45;&gt;Node7 -->
<g id="edge57_Node000029_Node000007" class="edge">
<title>Node29&#45;&gt;Node7</title>
<g id="a_edge57_Node000029_Node000007"><a xlink:title=" ">
<path fill="none" stroke="#63b8ff" d="M779.11,-180C839.64,-168.27 932.82,-150.23 985.38,-140.05"/>
<polygon fill="#63b8ff" stroke="#63b8ff" points="778.47,-176.55 769.32,-181.89 779.8,-183.43 778.47,-176.55"/>
</a>
</g>
</g>
<!-- Node30&#45;&gt;Node7 -->
<g id="edge59_Node000030_Node000007" class="edge">
<title>Node30&#45;&gt;Node7</title>
<g id="a_edge59_Node000030_Node000007"><a xlink:title=" ">
<path fill="none" stroke="#63b8ff" d="M1305.63,-236.59C1281.54,-219.73 1240.66,-193.08 1202,-177 1156.64,-158.14 1101.32,-145.76 1064.73,-138.93"/>
<polygon fill="#63b8ff" stroke="#63b8ff" points="1303.46,-239.34 1313.64,-242.28 1307.52,-233.64 1303.46,-239.34"/>
</a>
</g>
</g>
<!-- Node31&#45;&gt;Node7 -->
<g id="edge61_Node000031_Node000007" class="edge">
<title>Node31&#45;&gt;Node7</title>
<g id="a_edge61_Node000031_Node000007"><a xlink:title=" ">
<path fill="none" stroke="#63b8ff" d="M1420.45,-238.77C1379.74,-222.45 1307.63,-194.82 1244,-177 1182.35,-159.74 1109.19,-146.19 1064.97,-138.74"/>
<polygon fill="#63b8ff" stroke="#63b8ff" points="1419.08,-241.99 1429.67,-242.49 1421.7,-235.5 1419.08,-241.99"/>
</a>
</g>
</g>
</g>
</svg>
