<?xml version="1.0" encoding="UTF-8" standalone="no"?>
<!DOCTYPE svg PUBLIC "-//W3C//DTD SVG 1.1//EN"
 "http://www.w3.org/Graphics/SVG/1.1/DTD/svg11.dtd">
<!-- Generated by graphviz version 12.2.1 (20241206.2353)
 -->
<!-- Title: solve/debug.h Pages: 1 -->
<svg width="1069pt" height="260pt"
 viewBox="0.00 0.00 1069.08 259.50" xmlns="http://www.w3.org/2000/svg" xmlns:xlink="http://www.w3.org/1999/xlink">
<g id="graph0" class="graph" transform="scale(1 1) rotate(0) translate(4 255.5)">
<title>solve/debug.h</title>
<!-- Node1 -->
<g id="Node000001" class="node">
<title>Node1</title>
<g id="a_Node000001"><a xlink:title="DEBUG_MSG source file.">
<polygon fill="#999999" stroke="#666666" points="710.63,-251.5 634.63,-251.5 634.63,-232.25 710.63,-232.25 710.63,-251.5"/>
<text text-anchor="middle" x="672.63" y="-238" font-family="Helvetica,sans-Serif" font-size="10.00">solve/debug.h</text>
</a>
</g>
</g>
<!-- Node2 -->
<g id="Node000002" class="node">
<title>Node2</title>
<g id="a_Node000002"><a xlink:href="interface_8h.html" target="_top" xlink:title="svZeroDSolver callable interface.">
<polygon fill="white" stroke="#666666" points="150.38,-19.25 48.88,-19.25 48.88,0 150.38,0 150.38,-19.25"/>
<text text-anchor="middle" x="99.63" y="-5.75" font-family="Helvetica,sans-Serif" font-size="10.00">interface/interface.h</text>
</a>
</g>
</g>
<!-- Node1&#45;&gt;Node2 -->
<g id="edge1_Node000001_Node000002" class="edge">
<title>Node1&#45;&gt;Node2</title>
<g id="a_edge1_Node000001_Node000002"><a xlink:title=" ">
<path fill="none" stroke="#63b8ff" d="M622.77,-237.65C480.11,-227.23 76.01,-188.92 5.63,-85.75 -2.01,-74.55 -1.61,-66.71 5.63,-55.25 17.12,-37.08 38.24,-26.16 57.55,-19.68"/>
<polygon fill="#63b8ff" stroke="#63b8ff" points="622.43,-241.14 632.66,-238.36 622.93,-234.15 622.43,-241.14"/>
</a>
</g>
</g>
<!-- Node3 -->
<g id="Node000003" class="node">
<title>Node3</title>
<g id="a_Node000003"><a xlink:href="_chamber_elastance_inductor_8h.html" target="_top" xlink:title="model::ChamberElastanceInductor source file">
<polygon fill="white" stroke="#666666" points="491.51,-196.25 321.76,-196.25 321.76,-177 491.51,-177 491.51,-196.25"/>
<text text-anchor="middle" x="406.63" y="-182.75" font-family="Helvetica,sans-Serif" font-size="10.00">model/ChamberElastanceInductor.h</text>
</a>
</g>
</g>
<!-- Node1&#45;&gt;Node3 -->
<g id="edge2_Node000001_Node000003" class="edge">
<title>Node1&#45;&gt;Node3</title>
<g id="a_edge2_Node000001_Node000003"><a xlink:title=" ">
<path fill="none" stroke="#63b8ff" d="M622.96,-230.93C573.95,-221.12 499.66,-206.25 452.15,-196.74"/>
<polygon fill="#63b8ff" stroke="#63b8ff" points="622.26,-234.36 632.75,-232.89 623.63,-227.5 622.26,-234.36"/>
</a>
</g>
</g>
<!-- Node4 -->
<g id="Node000004" class="node">
<title>Node4</title>
<g id="a_Node000004"><a xlink:href="_model_8h.html" target="_top" xlink:title="model::Model source file">
<polygon fill="white" stroke="#666666" points="559.13,-141 480.13,-141 480.13,-121.75 559.13,-121.75 559.13,-141"/>
<text text-anchor="middle" x="519.63" y="-127.5" font-family="Helvetica,sans-Serif" font-size="10.00">model/Model.h</text>
</a>
</g>
</g>
<!-- Node1&#45;&gt;Node4 -->
<g id="edge20_Node000001_Node000004" class="edge">
<title>Node1&#45;&gt;Node4</title>
<g id="a_edge20_Node000001_Node000004"><a xlink:title=" ">
<path fill="none" stroke="#63b8ff" d="M623.08,-235.68C594.82,-230.24 560.74,-219.09 538.63,-196.25 523.82,-180.96 520.49,-154.65 519.78,-141.06"/>
<polygon fill="#63b8ff" stroke="#63b8ff" points="622.44,-239.12 632.89,-237.37 623.62,-232.23 622.44,-239.12"/>
</a>
</g>
</g>
<!-- Node6 -->
<g id="Node000006" class="node">
<title>Node6</title>
<g id="a_Node000006"><a xlink:href="_solver_8h.html" target="_top" xlink:title="Solver source file.">
<polygon fill="white" stroke="#666666" points="537.38,-19.25 459.88,-19.25 459.88,0 537.38,0 537.38,-19.25"/>
<text text-anchor="middle" x="498.63" y="-5.75" font-family="Helvetica,sans-Serif" font-size="10.00">solve/Solver.h</text>
</a>
</g>
</g>
<!-- Node1&#45;&gt;Node6 -->
<g id="edge28_Node000001_Node000006" class="edge">
<title>Node1&#45;&gt;Node6</title>
<g id="a_edge28_Node000001_Node000006"><a xlink:title=" ">
<path fill="none" stroke="#63b8ff" d="M722.22,-234.59C843.86,-217.34 1140.07,-163.22 1040.63,-55.25 1006.69,-18.4 656.45,-11.98 537.74,-10.86"/>
<polygon fill="#63b8ff" stroke="#63b8ff" points="721.94,-231.1 712.51,-235.94 722.9,-238.03 721.94,-231.1"/>
</a>
</g>
</g>
<!-- Node7 -->
<g id="Node000007" class="node">
<title>Node7</title>
<g id="a_Node000007"><a xlink:href="_kung_ventricle_8h.html" target="_top" xlink:title="model::KungVentricle source file">
<polygon fill="white" stroke="#666666" points="914.38,-80.12 800.88,-80.12 800.88,-60.88 914.38,-60.88 914.38,-80.12"/>
<text text-anchor="middle" x="857.63" y="-66.62" font-family="Helvetica,sans-Serif" font-size="10.00">model/KungVentricle.h</text>
</a>
</g>
</g>
<!-- Node1&#45;&gt;Node7 -->
<g id="edge19_Node000001_Node000007" class="edge">
<title>Node1&#45;&gt;Node7</title>
<g id="a_edge19_Node000001_Node000007"><a xlink:title=" ">
<path fill="none" stroke="#63b8ff" d="M722.11,-236.52C752.38,-231.4 789.91,-220.3 814.63,-196.25 848.29,-163.5 855.62,-103.21 857.2,-80.48"/>
<polygon fill="#63b8ff" stroke="#63b8ff" points="721.77,-233.03 712.4,-237.98 722.81,-239.95 721.77,-233.03"/>
</a>
</g>
</g>
<!-- Node8 -->
<g id="Node000008" class="node">
<title>Node8</title>
<g id="a_Node000008"><a xlink:href="_regazzoni_chamber_8h.html" target="_top" xlink:title="model::RegazzoniChamber source file">
<polygon fill="white" stroke="#666666" points="782.63,-80.12 646.63,-80.12 646.63,-60.88 782.63,-60.88 782.63,-80.12"/>
<text text-anchor="middle" x="714.63" y="-66.62" font-family="Helvetica,sans-Serif" font-size="10.00">model/RegazzoniChamber.h</text>
</a>
</g>
</g>
<!-- Node1&#45;&gt;Node8 -->
<g id="edge21_Node000001_Node000008" class="edge">
<title>Node1&#45;&gt;Node8</title>
<g id="a_edge21_Node000001_Node000008"><a xlink:title=" ">
<path fill="none" stroke="#63b8ff" d="M722.16,-236.5C748.91,-231.32 779.82,-220.16 796.63,-196.25 826.59,-153.63 758.95,-101.03 728.51,-80.4"/>
<polygon fill="#63b8ff" stroke="#63b8ff" points="721.77,-233.02 712.49,-238.12 722.93,-239.92 721.77,-233.02"/>
</a>
</g>
</g>
<!-- Node10 -->
<g id="Node000010" class="node">
<title>Node10</title>
<g id="a_Node000010"><a xlink:href="calibrate_8h.html" target="_top" xlink:title="opt::calibrate source file">
<polygon fill="white" stroke="#666666" points="1031.26,-80.12 932.01,-80.12 932.01,-60.88 1031.26,-60.88 1031.26,-80.12"/>
<text text-anchor="middle" x="981.63" y="-66.62" font-family="Helvetica,sans-Serif" font-size="10.00">optimize/calibrate.h</text>
</a>
</g>
</g>
<!-- Node1&#45;&gt;Node10 -->
<g id="edge26_Node000001_Node000010" class="edge">
<title>Node1&#45;&gt;Node10</title>
<g id="a_edge26_Node000001_Node000010"><a xlink:title=" ">
<path fill="none" stroke="#63b8ff" d="M721.86,-233.24C755.34,-226.68 799.87,-215.19 835.63,-196.25 896.03,-164.26 953.32,-103.51 973.75,-80.57"/>
<polygon fill="#63b8ff" stroke="#63b8ff" points="721.63,-229.72 712.45,-235 722.92,-236.6 721.63,-229.72"/>
</a>
</g>
</g>
<!-- Node11 -->
<g id="Node000011" class="node">
<title>Node11</title>
<g id="a_Node000011"><a xlink:href="_simulation_parameters_8h.html" target="_top" xlink:title="Source file to read simulation configuration.">
<polygon fill="white" stroke="#666666" points="310.51,-80.12 164.76,-80.12 164.76,-60.88 310.51,-60.88 310.51,-80.12"/>
<text text-anchor="middle" x="237.63" y="-66.62" font-family="Helvetica,sans-Serif" font-size="10.00">solve/SimulationParameters.h</text>
</a>
</g>
</g>
<!-- Node1&#45;&gt;Node11 -->
<g id="edge27_Node000001_Node000011" class="edge">
<title>Node1&#45;&gt;Node11</title>
<g id="a_edge27_Node000001_Node000011"><a xlink:title=" ">
<path fill="none" stroke="#63b8ff" d="M622.88,-240C536.39,-237.62 362.73,-228.82 312.63,-196.25 268.77,-167.74 246.8,-103.77 240,-80.33"/>
<polygon fill="#63b8ff" stroke="#63b8ff" points="622.64,-243.49 632.72,-240.25 622.81,-236.5 622.64,-243.49"/>
</a>
</g>
</g>
<!-- Node13 -->
<g id="Node000013" class="node">
<title>Node13</title>
<g id="a_Node000013"><a xlink:href="_regazzoni_valve_8h.html" target="_top" xlink:title="model::RegazzoniValve source file">
<polygon fill="white" stroke="#666666" points="669.51,-196.25 547.76,-196.25 547.76,-177 669.51,-177 669.51,-196.25"/>
<text text-anchor="middle" x="608.63" y="-182.75" font-family="Helvetica,sans-Serif" font-size="10.00">model/RegazzoniValve.h</text>
</a>
</g>
</g>
<!-- Node1&#45;&gt;Node13 -->
<g id="edge22_Node000001_Node000013" class="edge">
<title>Node1&#45;&gt;Node13</title>
<g id="a_edge22_Node000001_Node000013"><a xlink:title=" ">
<path fill="none" stroke="#63b8ff" d="M653.15,-224.66C642.03,-215.42 628.53,-204.18 619.33,-196.52"/>
<polygon fill="#63b8ff" stroke="#63b8ff" points="650.68,-227.17 660.61,-230.87 655.16,-221.79 650.68,-227.17"/>
</a>
</g>
</g>
<!-- Node14 -->
<g id="Node000014" class="node">
<title>Node14</title>
<g id="a_Node000014"><a xlink:href="_valve_tanh_8h.html" target="_top" xlink:title="model::ValveTanh source file">
<polygon fill="white" stroke="#666666" points="787.26,-196.25 688.01,-196.25 688.01,-177 787.26,-177 787.26,-196.25"/>
<text text-anchor="middle" x="737.63" y="-182.75" font-family="Helvetica,sans-Serif" font-size="10.00">model/ValveTanh.h</text>
</a>
</g>
</g>
<!-- Node1&#45;&gt;Node14 -->
<g id="edge24_Node000001_Node000014" class="edge">
<title>Node1&#45;&gt;Node14</title>
<g id="a_edge24_Node000001_Node000014"><a xlink:title=" ">
<path fill="none" stroke="#63b8ff" d="M692.42,-224.66C703.71,-215.42 717.42,-204.18 726.77,-196.52"/>
<polygon fill="#63b8ff" stroke="#63b8ff" points="690.35,-221.84 684.83,-230.88 694.78,-227.25 690.35,-221.84"/>
</a>
</g>
</g>
<!-- Node3&#45;&gt;Node4 -->
<g id="edge3_Node000003_Node000004" class="edge">
<title>Node3&#45;&gt;Node4</title>
<g id="a_edge3_Node000003_Node000004"><a xlink:title=" ">
<path fill="none" stroke="#63b8ff" d="M430.58,-171.49C449.62,-161.97 475.95,-149.69 495.14,-141.45"/>
<polygon fill="#63b8ff" stroke="#63b8ff" points="429.25,-168.24 421.93,-175.9 432.43,-174.48 429.25,-168.24"/>
</a>
</g>
</g>
<!-- Node4&#45;&gt;Node2 -->
<g id="edge7_Node000004_Node000002" class="edge">
<title>Node4&#45;&gt;Node2</title>
<g id="a_edge7_Node000004_Node000002"><a xlink:title=" ">
<path fill="none" stroke="#63b8ff" d="M468.33,-129C380.94,-125.87 207.61,-115.93 155.63,-85.75 128.76,-70.15 110.81,-36.01 103.43,-19.68"/>
<polygon fill="#63b8ff" stroke="#63b8ff" points="468.19,-132.5 478.3,-129.34 468.42,-125.51 468.19,-132.5"/>
</a>
</g>
</g>
<!-- Node4&#45;&gt;Node3 -->
<g id="edge8_Node000004_Node000003" class="edge">
<title>Node4&#45;&gt;Node3</title>
<g id="a_edge8_Node000004_Node000003"><a xlink:title=" ">
<path fill="none" stroke="#63b8ff" d="M495.58,-146.56C476.51,-156.09 450.18,-168.37 431.02,-176.59"/>
<polygon fill="#63b8ff" stroke="#63b8ff" points="496.93,-149.8 504.25,-142.14 493.75,-143.56 496.93,-149.8"/>
</a>
</g>
</g>
<!-- Node5 -->
<g id="Node000005" class="node">
<title>Node5</title>
<g id="a_Node000005"><a xlink:href="_integrator_8h.html" target="_top" xlink:title="Integrator source file.">
<polygon fill="white" stroke="#666666" points="428.26,-80.12 329.01,-80.12 329.01,-60.88 428.26,-60.88 428.26,-80.12"/>
<text text-anchor="middle" x="378.63" y="-66.62" font-family="Helvetica,sans-Serif" font-size="10.00">algebra/Integrator.h</text>
</a>
</g>
</g>
<!-- Node4&#45;&gt;Node5 -->
<g id="edge4_Node000004_Node000005" class="edge">
<title>Node4&#45;&gt;Node5</title>
<g id="a_edge4_Node000004_Node000005"><a xlink:title=" ">
<path fill="none" stroke="#63b8ff" d="M487.52,-116.97C460.77,-105.8 423.42,-90.2 400.15,-80.48"/>
<polygon fill="#63b8ff" stroke="#63b8ff" points="485.94,-120.1 496.51,-120.72 488.63,-113.64 485.94,-120.1"/>
</a>
</g>
</g>
<!-- Node4&#45;&gt;Node6 -->
<g id="edge16_Node000004_Node000006" class="edge">
<title>Node4&#45;&gt;Node6</title>
<g id="a_edge16_Node000004_Node000006"><a xlink:title=" ">
<path fill="none" stroke="#63b8ff" d="M561.97,-116.91C576.54,-110.01 591.27,-99.99 599.63,-85.75 606.49,-74.06 607.03,-66.61 599.63,-55.25 585.98,-34.29 560,-23.1 537.81,-17.17"/>
<polygon fill="#63b8ff" stroke="#63b8ff" points="560.7,-113.64 552.88,-120.79 563.45,-120.08 560.7,-113.64"/>
</a>
</g>
</g>
<!-- Node4&#45;&gt;Node7 -->
<g id="edge9_Node000004_Node000007" class="edge">
<title>Node4&#45;&gt;Node7</title>
<g id="a_edge9_Node000004_Node000007"><a xlink:title=" ">
<path fill="none" stroke="#63b8ff" d="M570.52,-122.8C625.27,-114.48 714.82,-100.33 791.63,-85.75 799.92,-84.18 808.77,-82.36 817.21,-80.56"/>
<polygon fill="#63b8ff" stroke="#63b8ff" points="570.24,-119.31 560.88,-124.26 571.29,-126.23 570.24,-119.31"/>
</a>
</g>
</g>
<!-- Node4&#45;&gt;Node8 -->
<g id="edge10_Node000004_Node000008" class="edge">
<title>Node4&#45;&gt;Node8</title>
<g id="a_edge10_Node000004_Node000008"><a xlink:title=" ">
<path fill="none" stroke="#63b8ff" d="M555.43,-117.86C590.81,-106.68 644.38,-90.57 679.52,-80.58"/>
<polygon fill="#63b8ff" stroke="#63b8ff" points="554.54,-114.47 546.08,-120.85 556.67,-121.14 554.54,-114.47"/>
</a>
</g>
</g>
<!-- Node9 -->
<g id="Node000009" class="node">
<title>Node9</title>
<g id="a_Node000009"><a xlink:href="_levenberg_marquardt_optimizer_8h.html" target="_top" xlink:title="opt::LevenbergMarquardtOptimizer source file">
<polygon fill="white" stroke="#666666" points="590.76,-85.75 446.51,-85.75 446.51,-55.25 590.76,-55.25 590.76,-85.75"/>
<text text-anchor="start" x="454.51" y="-72.25" font-family="Helvetica,sans-Serif" font-size="10.00">optimize/LevenbergMarquardt</text>
<text text-anchor="middle" x="518.63" y="-61" font-family="Helvetica,sans-Serif" font-size="10.00">Optimizer.h</text>
</a>
</g>
</g>
<!-- Node4&#45;&gt;Node9 -->
<g id="edge12_Node000004_Node000009" class="edge">
<title>Node4&#45;&gt;Node9</title>
<g id="a_edge12_Node000004_Node000009"><a xlink:title=" ">
<path fill="none" stroke="#63b8ff" d="M519.29,-110.17C519.15,-102.24 519,-93.31 518.88,-86.03"/>
<polygon fill="#63b8ff" stroke="#63b8ff" points="515.78,-109.98 519.45,-119.92 522.78,-109.86 515.78,-109.98"/>
</a>
</g>
</g>
<!-- Node4&#45;&gt;Node10 -->
<g id="edge13_Node000004_Node000010" class="edge">
<title>Node4&#45;&gt;Node10</title>
<g id="a_edge13_Node000004_Node000010"><a xlink:title=" ">
<path fill="none" stroke="#63b8ff" d="M570.7,-126.89C647.66,-121.15 797.73,-108.07 923.63,-85.75 931.49,-84.36 939.87,-82.51 947.75,-80.61"/>
<polygon fill="#63b8ff" stroke="#63b8ff" points="570.67,-123.38 560.95,-127.6 571.18,-130.36 570.67,-123.38"/>
</a>
</g>
</g>
<!-- Node4&#45;&gt;Node11 -->
<g id="edge14_Node000004_Node000011" class="edge">
<title>Node4&#45;&gt;Node11</title>
<g id="a_edge14_Node000004_Node000011"><a xlink:title=" ">
<path fill="none" stroke="#63b8ff" d="M468.86,-119.77C415.22,-108.58 331.56,-91.11 280.93,-80.54"/>
<polygon fill="#63b8ff" stroke="#63b8ff" points="467.84,-123.14 478.34,-121.76 469.27,-116.29 467.84,-123.14"/>
</a>
</g>
</g>
<!-- Node12 -->
<g id="Node000012" class="node">
<title>Node12</title>
<g id="a_Node000012"><a xlink:href="csv__writer_8h.html" target="_top" xlink:title="csv_writer source file">
<polygon fill="white" stroke="#666666" points="109.01,-80.12 14.26,-80.12 14.26,-60.88 109.01,-60.88 109.01,-80.12"/>
<text text-anchor="middle" x="61.63" y="-66.62" font-family="Helvetica,sans-Serif" font-size="10.00">solve/csv_writer.h</text>
</a>
</g>
</g>
<!-- Node4&#45;&gt;Node12 -->
<g id="edge17_Node000004_Node000012" class="edge">
<title>Node4&#45;&gt;Node12</title>
<g id="a_edge17_Node000004_Node000012"><a xlink:title=" ">
<path fill="none" stroke="#63b8ff" d="M468.58,-126.57C392.74,-120.48 245.99,-107.02 122.63,-85.75 114.38,-84.33 105.57,-82.47 97.29,-80.57"/>
<polygon fill="#63b8ff" stroke="#63b8ff" points="467.93,-130.03 478.18,-127.33 468.48,-123.05 467.93,-130.03"/>
</a>
</g>
</g>
<!-- Node5&#45;&gt;Node2 -->
<g id="edge5_Node000005_Node000002" class="edge">
<title>Node5&#45;&gt;Node2</title>
<g id="a_edge5_Node000005_Node000002"><a xlink:title=" ">
<path fill="none" stroke="#63b8ff" d="M330.69,-57.76C326.95,-56.9 323.23,-56.05 319.63,-55.25 260.28,-42.07 191.57,-28.38 146.94,-19.7"/>
<polygon fill="#63b8ff" stroke="#63b8ff" points="329.85,-61.16 340.38,-60.05 331.45,-54.35 329.85,-61.16"/>
</a>
</g>
</g>
<!-- Node5&#45;&gt;Node6 -->
<g id="edge6_Node000005_Node000006" class="edge">
<title>Node5&#45;&gt;Node6</title>
<g id="a_edge6_Node000005_Node000006"><a xlink:title=" ">
<path fill="none" stroke="#63b8ff" d="M407.18,-55.49C429.85,-44.37 460.86,-29.15 480.32,-19.61"/>
<polygon fill="#63b8ff" stroke="#63b8ff" points="405.91,-52.22 398.48,-59.76 409,-58.5 405.91,-52.22"/>
</a>
</g>
</g>
<!-- Node8&#45;&gt;Node4 -->
<g id="edge11_Node000008_Node000004" class="edge">
<title>Node8&#45;&gt;Node4</title>
<g id="a_edge11_Node000008_Node000004"><a xlink:title=" ">
<path fill="none" stroke="#63b8ff" d="M678.79,-84.02C643.41,-95.21 589.84,-111.32 554.71,-121.3"/>
<polygon fill="#63b8ff" stroke="#63b8ff" points="679.69,-87.41 688.15,-81.04 677.56,-80.74 679.69,-87.41"/>
</a>
</g>
</g>
<!-- Node11&#45;&gt;Node6 -->
<g id="edge15_Node000011_Node000006" class="edge">
<title>Node11&#45;&gt;Node6</title>
<g id="a_edge15_Node000011_Node000006"><a xlink:title=" ">
<path fill="none" stroke="#63b8ff" d="M288.76,-57.97C338.88,-46.66 414.19,-29.67 459.66,-19.42"/>
<polygon fill="#63b8ff" stroke="#63b8ff" points="288.3,-54.48 279.32,-60.1 289.84,-61.31 288.3,-54.48"/>
</a>
</g>
</g>
<!-- Node12&#45;&gt;Node2 -->
<g id="edge18_Node000012_Node000002" class="edge">
<title>Node12&#45;&gt;Node2</title>
<g id="a_edge18_Node000012_Node000002"><a xlink:title=" ">
<path fill="none" stroke="#63b8ff" d="M73.53,-51.06C80.28,-40.6 88.43,-27.98 93.8,-19.65"/>
<polygon fill="#63b8ff" stroke="#63b8ff" points="70.7,-48.99 68.22,-59.29 76.59,-52.78 70.7,-48.99"/>
</a>
</g>
</g>
<!-- Node13&#45;&gt;Node4 -->
<g id="edge23_Node000013_Node000004" class="edge">
<title>Node13&#45;&gt;Node4</title>
<g id="a_edge23_Node000013_Node000004"><a xlink:title=" ">
<path fill="none" stroke="#63b8ff" d="M583.89,-170.82C568.14,-161.4 548.25,-149.5 534.8,-141.45"/>
<polygon fill="#63b8ff" stroke="#63b8ff" points="581.86,-173.68 592.23,-175.81 585.45,-167.68 581.86,-173.68"/>
</a>
</g>
</g>
<!-- Node14&#45;&gt;Node4 -->
<g id="edge25_Node000014_Node000004" class="edge">
<title>Node14&#45;&gt;Node4</title>
<g id="a_edge25_Node000014_Node000004"><a xlink:title=" ">
<path fill="none" stroke="#63b8ff" d="M689.57,-173.88C649.56,-164.11 593.42,-150.4 556.79,-141.45"/>
<polygon fill="#63b8ff" stroke="#63b8ff" points="688.63,-177.26 699.18,-176.23 690.3,-170.46 688.63,-177.26"/>
</a>
</g>
</g>
</g>
</svg>
